<svg height="119.47" viewBox="0 0 510.01 119.47" width="510.01" xmlns="http://www.w3.org/2000/svg"><g transform="matrix(1.0244 0 0 -1.0244 -28.19 550.9)"><path d="m520.5 426.04h-488.1v106.86h488.1z" fill="#286fb7"/><path d="m-384.36 406.4h.1.54c2.19-1.5 3.03-2.4 4.62-3.93v-.1h-.1s-.12.1-.3.27c-.21.18-.54.42-.96.78-.84.66-2.16 1.62-3.9 2.85v.1zm2.97.18h-4.38v-1.74c.42-.15.78-.33 1.14-.48 2.01-.78 2.97-1.38 3-1.41.12-.1 4.59-2.43 8.31-5.82 3.72-3.42 4.35-3.12 8.91-8.19l.57-.66c-2.28 3.33-5.58 6.84-10.86 11.61-.57.51-1.17 1.05-1.74 1.62-1.86 1.74-3.66 3.63-4.95 5.07" fill="#d9e0f1" transform="translate(594.98 68.525)"/><g fill="#286fb7" transform="translate(595.45 68.19)"><path d="m-370.69 396.7c-3.23 3.06-7.58 7.26-10.4 10.5h-.85c2.02-2.31 4.47-4.86 6.78-6.93 5.67-5.1 9.07-8.79 11.37-12.33l-1.13 1.29c-4.57 5.07-5.16 4.77-8.91 8.19-3.75 3.45-8.32 5.82-8.32 5.82s-1.35.87-4.29 1.89v-1.35c3.94-1.41 5.67-2.4 5.67-2.4s5.77-3.24 10-7.32c3.62-3.51 4.44-4.41 5.27-5.34 0 0 1.75-1.23 2.62-1.59 0 0-1.48 3.6-7.81 9.57"/><path d="m-370.69 396.7c-3.24 3.09-7.59 7.26-10.37 10.5h-.1-.85v-.1c1.97-2.28 4.47-4.83 6.77-6.93 5.67-5.1 9.06-8.76 11.34-12.3h.1l-1.15 1.29c-4.55 5.07-5.16 4.77-8.91 8.19-3.75 3.45-8.28 5.85-8.28 5.85l-.1-.1.1.1s-1.38.84-4.35 1.89v-.1-1.35c1.98-.72 3.39-1.32 4.32-1.74.45-.24.82-.39 1.02-.51.24-.12.34-.18.34-.18s.35-.21.96-.57c1.82-1.11 5.85-3.69 8.99-6.72 3.66-3.51 4.47-4.41 5.31-5.34s1.74-1.23 2.61-1.56h.1v.1s-1.47 3.6-7.8 9.57c3.14-3 5.09-5.37 6.23-7.02.6-.81.99-1.47 1.21-1.89.11-.21.21-.36.26-.48 0-.12.1-.15.1-.15h.1v.1c-.39.18-1.06.57-1.6.9-.53.36-.98.66-.98.66-.82.93-1.66 1.83-5.29 5.34-4.23 4.08-9.99 7.32-9.99 7.32s-1.76 1.02-5.7 2.43v-.1h.1v1.35h-.1c1.48-.54 2.56-1.02 3.28-1.35.35-.18.6-.3.78-.39.17-.12.26-.15.26-.15s.28-.15.75-.45c1.48-.81 4.71-2.79 7.53-5.37 3.75-3.45 4.35-3.15 8.91-8.19l1.14-1.29h.1v.1c-2.32 3.54-5.7 7.23-11.34 12.33-2.32 2.07-4.81 4.65-6.78 6.93h-.1v-.1h.85v.1-.1c2.79-3.21 7.15-7.41 10.42-10.47z"/></g><path d="m-379.3 402.6c-1.62 1.53-2.43 2.4-4.65 3.93h-.54c3.54-2.46 5.19-3.93 5.19-3.93" fill="#286fb7" transform="translate(595.15 68.394)"/><path d="m-379.3 402.6c-1.62 1.53-2.43 2.43-4.65 3.96h-.54v-.1c1.77-1.23 3.06-2.19 3.93-2.88.42-.33.72-.6.96-.78.18-.15.3-.24.3-.24h.1v.1s-1.65 1.5-5.19 3.93v-.1h.54v.1c2.19-1.53 3.03-2.43 4.65-3.93z" fill="#286fb7" transform="translate(595.15 68.394)"/><path d="m-380.58 406.57h-.69c1.95-2.22 4.29-4.62 6.51-6.6 5.67-5.13 9.06-8.79 11.37-12.33v-.1h-.1l-1.14 1.32c-4.56 5.04-5.16 4.74-8.91 8.16-2.82 2.58-6.06 4.56-7.53 5.4-.48.27-.75.42-.75.42s-.1.1-.27.15c-.18.1-.42.24-.78.42-.69.33-1.68.75-3.06 1.26v-1.23c3.81-1.38 5.52-2.37 5.52-2.37s5.76-3.24 9.99-7.32c3.63-3.51 4.47-4.41 5.28-5.34.1 0 .48-.33.99-.66.48-.33 1.08-.66 1.47-.87v.1c-.1.1-.15.27-.24.48-.24.42-.63 1.05-1.2 1.89-1.17 1.62-3.12 4.02-6.27 6.99v.1-.1c-3.18 3-7.38 7.05-10.2 10.26" fill="#1f60ad" transform="translate(595.11 68.531)"/><path d="m-386.25 403.79v-.12c1.86-.69 3.21-1.26 4.08-1.68.48-.21.81-.36 1.05-.48.21-.12.33-.18.33-.18s.36-.21.96-.57c1.8-1.11 5.82-3.69 9-6.72 3.66-3.54 4.47-4.41 5.31-5.37s1.74-1.23 2.61-1.59h.1v.1s-1.47 3.6-7.8 9.57v-.1c3.15-2.97 5.1-5.37 6.24-6.99.57-.84.96-1.47 1.2-1.89.12-.21.21-.39.24-.48-.42.18-.99.51-1.5.84-.48.33-.9.63-.96.66-.84.93-1.65 1.83-5.28 5.34-4.26 4.08-9.99 7.32-9.99 7.32s-1.71.99-5.52 2.37m4.62 3.12h-.12c1.95-2.22 4.35-4.68 6.57-6.69 5.28-4.77 8.61-8.28 10.89-11.61l-.6.66c-4.56 5.07-5.16 4.77-8.91 8.19-3.69 3.39-8.19 5.76-8.31 5.82 0 0-.99.6-3 1.41-.36.15-.72.3-1.14.45v-.12c1.35-.51 2.37-.93 3.03-1.26.36-.18.63-.33.81-.42.18-.1.24-.15.24-.15s.3-.15.78-.42c1.44-.84 4.71-2.82 7.53-5.4 3.75-3.42 4.32-3.12 8.88-8.16l1.14-1.32h.1v.1c-2.31 3.54-5.7 7.23-11.37 12.33-2.19 1.98-4.56 4.38-6.51 6.6m.84 0h-.12c2.79-3.21 7.02-7.26 10.2-10.26v.1c-3.15 2.97-7.32 6.99-10.14 10.17" fill="#1f60ad" transform="translate(595.45 68.191)"/><path d="m-383.81 406.35h-.36c1.75-1.2 3-2.19 3.85-2.82-1 .93-1.86 1.71-3.49 2.82" fill="#1f60ad" transform="translate(595 68.523)"/><path d="m-384.31 406.48h.33c1.62-1.14 2.49-1.89 3.51-2.85-.84.66-2.13 1.62-3.84 2.85m.36.12h-.54v-.1c1.77-1.23 3.06-2.22 3.9-2.88.45-.33.75-.6.96-.78.21-.15.3-.24.33-.27h.1v.1c-1.62 1.53-2.46 2.4-4.65 3.93z" fill="#1f60ad" transform="translate(595.15 68.395)"/><path d="m-527.26 432.45h28.71v-9.69h-3.51c-1.68 0-2.19-.66-2.19-2.31v-21.87c0-1.05.87-2.01 2.31-2.01h8.28c1.08 0 2.43.75 2.43 2.28v7.86h11.46v-19.86h-47.49v9.69h3.36c1.56 0 2.37.51 2.37 2.1v21.81c0 1.41-.27 2.31-2.16 2.31h-3.57z" fill="#fff" transform="translate(590.05 69.423)"/><path d="m-476.52 432.45h47.21v-14.64h-11.81v2.43c0 1.5-.75 2.52-3.04 2.52h-10.28v-8.25h11.1v-8.85h-11.1v-9.09h10.76c1.42 0 2.56.87 2.56 2.49v2.49h11.81v-14.7h-47.21v9.69h2.55c1.35 0 2.28.54 2.28 1.92v21.9c0 1.47-.24 2.4-2.13 2.4h-2.7z" fill="#fff" transform="translate(591.8 69.423)"/><path d="m-408.15 432.45h48.34v-14.64h-11.83v2.49c0 1.32-.81 2.46-2.61 2.46h-10.7v-8.25h9.89v-8.85h-9.89v-6.57c0-1.83.77-2.55 3.14-2.55h3.75v-9.69h-30.09v9.69h3.99c1.15 0 1.95.75 1.95 1.92v21.9c0 1.38-.24 2.4-2.12 2.4h-3.82z" fill="#fff" transform="translate(594.16 69.423)"/><path d="m-334.95 420.86c0 1.71.54 2.28 2.19 2.28h3.54v9.72h-28.53v-9.72h3.63c1.92 0 2.19-.87 2.19-2.28v-21.87c0-1.71-1.05-2.07-2.25-2.07h-3.57v-9.66h28.53v9.66h-3.48c-1.38 0-2.25.54-2.25 2.13z" fill="#fff" transform="translate(596.68 69.023)"/><path d="m-288.78 432.45h10.11v-16.02h-10.17s-2.91 6.99-11.13 6.99c-6.15 0-10.95-4.44-10.95-12.66 0-13.92 7.71-15.09 11.04-15.09 6.84 0 8.43 4.83 8.43 6.78h-6.36v8.4h21.87s-.1-3.42-.1-5.85c0-1.17-1.14-18.96-25.65-18.96-17.7 0-26.97 10.11-26.97 24.51 0 9.57 7.5 22.59 25.47 22.59 10.05 0 14.4-4.11 14.4-4.11v3.42z" fill="#fff" transform="translate(598.28 69.423)"/><path d="m-224.65 397.73c-1.95 0-2.55 1.74-3.72 4.56-.96 2.31-12.06 31.35-12.06 31.35h-17.58s-11.94-32.28-12.48-33.66c-.69-1.62-1.68-2.25-3.45-2.25h-2.55v-9.66h21.51v9.18h-2.97c-1.29 0-1.59.99-1.17 2.37.51 1.59 1.38 4.08 1.38 4.08h13.05s.72-2.25 1.41-4.32c.51-1.56-1.14-2.13-2.13-2.13h-2.55v-9.18h25.89v9.66zm-30.99 12.24 4.5 13.41h.15l4.29-13.41z" fill="#fff" transform="translate(600.49 68.225)"/><path d="m-165.95 397.73c-1.77 0-2.04.84-2.94 2.01-.87 1.17-6.33 9.69-6.33 9.69s7.98 2.22 7.98 10.74c0 8.49-7.11 11.52-10.14 12.3s-9.57 1.17-11.34 1.17h-8.79-22.38v-9.69h3.06c1.95 0 2.19-.96 2.19-2.28v-21.66c0-.96-.15-2.28-2.28-2.28h-2.97v-9.66h27.45v9.66h-2.79c-1.92 0-2.16 1.05-2.16 2.19v7.38h6.12l11.25-19.23h17.22v9.66zm-25.2 17.46h-6.24v9.39h6.78c1.98 0 5.49-.72 5.49-4.8 0-3.06-2.25-4.59-6.03-4.59" fill="#fff" transform="translate(602.51 68.225)"/><path d="m-138.37 433.12c-19.14 0-26.07-12.81-26.07-23.07 0-13.62 9.6-24.03 25.89-24.03 14.52 0 25.95 7.95 25.95 23.46 0 14.73-10.92 23.64-25.77 23.64m.3-37.47c-4.2 0-8.61 2.49-8.61 15.18 0 7.83 3 12.69 8.13 12.69 4.86 0 8.4-3.21 8.4-13.56 0-11.19-3.69-14.31-7.92-14.31" fill="#fff" transform="translate(603.46 69.446)"/><path d="m-404.38 432.65v-.21h.45c-.18.1-.33.15-.48.21m-8.73 3.24.51-5.64c.51-.57 1.02-1.11 1.59-1.62l-.51 6.06h.1l.54-6.18c.51-.45 1.02-.9 1.56-1.32l-.54 6.51h.12l.54-6.63c.3-.24.63-.45.93-.69v6.03h.1v.36h.1v-.36h1.26c-2.25.93-4.38 2.13-6.3 3.45m-1.68 1.2.42-4.77c.51-.66 1.05-1.32 1.65-1.95l-.48 5.55h.1c-.57.39-1.11.78-1.65 1.17m-1.68 1.32.3-3.63c.51-.75 1.05-1.53 1.68-2.31l-.42 4.71c-.54.42-1.05.81-1.56 1.23m-1.65 1.41.15-2.04c.42-.78.93-1.65 1.5-2.55.1-.1.12-.18.18-.24l-.3 3.51c-.54.45-1.05.9-1.53 1.32m-1.56 1.47c.12-.33.33-.81.6-1.38.27-.54.6-1.2.99-1.89l-.12 1.89c-.57.48-1.05.96-1.47 1.38m-2.34 2.4c.1-2.49.51-5.16.93-7.05.15-.75.36-1.56.57-2.4 0-.12.1-.18.1-.18-.51.24-.87.51-1.14.75-.24.15-.48.39-.78.66.1-.21.12-.39.15-.57.12-.27.24-.6.36-.93.45-1.14 1.11-2.64 2.01-4.26 1.74-3.24 4.29-6.9 7.62-8.55v-.1l-.1-.1s-.24 0-.63 0c.15-.1.24-.12.24-.12-1.56.18-3 .66-3.69.93l.24-.24c.36-.36.96-.9 1.89-1.62 1.92-1.44 5.19-3.6 10.71-6.48v-.1s-.18-.1-.6-.12h-.1c-.15 0-.36 0-.6 0-.6 0-1.44.1-2.55.33.1 0 .12-.1.18-.1.27-.18.66-.42 1.17-.72.93-.57 2.19-1.32 3.63-2.1v9.63c0 1.38-.24 2.4-2.13 2.4h-3.81v2.97c-5.67 3.87-10.14 11.76-11.64 15.78-1.32 1.29-2.1 2.19-2.1 2.19" fill="#d9e0f1" transform="translate(594.29 69.43)"/><path d="m-395.13 425.21.72-8.37c.63-.66 1.17-1.26 1.62-1.86l-.66 7.65h-.1c-.27.51-.63 1.11-1.08 1.77-.15.27-.36.51-.54.78m-13.47.78v-3h3.81c1.89 0 2.13-1.02 2.13-2.37v-9.66c.12-.1.24-.12.36-.18 3.06-1.65 6.87-3.42 9.84-3.93v13.89s-.27.69-.84 1.71l.66-7.62v-.1-.69h-.1c-.48.78-3.66 5.25-14.49 11.07-.48.27-.96.57-1.44.9m.12 6.72h-.12v-6.03c.21-.15.42-.3.66-.45zm4.26 0h-.45l.1-.6v-.1h-.1s0 0-.1 0c0-.12 0-.18-.1-.18-.78.21-1.53.48-2.28.81h-1.29l.54-6.54c.51-.33 1.02-.63 1.56-.93l-.57 6.93h.1l.6-7.02s.1 0 .12-.1c.48-.24.93-.51 1.41-.75l-.63 7.2h.1.1l.63-7.26c.51-.3 1.05-.6 1.56-.93l-.75 8.7h.12l.75-8.79c.51-.33 1.05-.66 1.56-.99l-.78 8.91h.12l.75-8.97c.54-.36 1.05-.72 1.56-1.08l-.75 9h.1l.78-9.09c.54-.39 1.05-.78 1.56-1.17l-.78 9h.12l.78-9.12c.54-.45 1.11-.9 1.62-1.35l-.78 8.76h.1l.78-8.88c.6-.51 1.11-.99 1.59-1.47l-.72 8.4c-1.89 2.52-4.83 5.49-8.97 7.35" fill="#fff" transform="translate(594.61 69.173)"/><g fill="#286fb7"><path d="m-393.58 423.61c-1.11 1.89-3.39 5.34-5.85 7.05-3.57 2.52-6.45 3.66-6.45 3.66l.78-1.53s-6 2.28-8.55 4.11c-3.84 2.79-9.27 8.13-9.27 8.13-.3-3.9 1.38-9.75 1.38-9.75-.75.36-2.01 2.01-2.01 2.01 2.64-11.1 9.27-15.36 9.27-15.36-.45 0-3.9 1.2-3.9 1.2 3.39-4.77 12.87-8.97 12.87-8.97-1.02 0-4.23.69-4.23.69 8.55-6.75 17.28-8.79 17.28-8.79v.75c-6.09.9-15.75 7.29-15.75 7.29 2.91-.75 4.11-.27 4.11-.27-11.1 5.73-13.14 8.61-13.14 8.61 1.98-1.02 4.38-1.02 4.38-1.02-6.66 3.33-10.32 14.64-10.32 14.64 1.2-1.23 2.01-1.5 2.01-1.5-1.71 6.51-1.77 10.08-1.77 10.08.18-.45 3.51-4.23 9.66-8.43 4.14-2.79 8.37-4.05 8.37-4.05l-.18 1.11s.93 0 5.25-3.18c2.91-2.13 5.1-5.49 6.09-7.35l-.1.87z" transform="translate(594.66 69.118)"/><path d="m-393.58 423.61h.1c-1.11 1.89-3.42 5.34-5.85 7.08-3.6 2.49-6.48 3.66-6.48 3.66h-.1v-.1l.78-1.53h.1v.1s-.36.12-.96.36c-1.8.72-5.64 2.34-7.53 3.72-1.95 1.41-4.26 3.45-6.09 5.13-.93.84-1.71 1.59-2.31 2.13-.54.54-.9.87-.9.87h-.1c0-.33 0-.69 0-1.05 0-3.81 1.41-8.7 1.41-8.7h.1v.1c-.36.15-.87.66-1.29 1.11-.18.24-.36.45-.51.63-.12.15-.18.24-.18.24h-.1v-.1c2.67-11.13 9.3-15.42 9.3-15.42v.1c-.1 0-.39.1-.78.21-.6.18-1.38.42-2.01.63s-1.11.39-1.11.39h-.1v-.1c3.42-4.77 12.93-9 12.93-9v.1c-.48 0-1.56.18-2.49.36-.93.15-1.74.33-1.74.33h-.1v-.1c8.58-6.75 17.34-8.79 17.34-8.79h.1v.75l-.1.1c-3.03.45-6.96 2.25-10.11 3.96-1.59.84-3 1.68-3.99 2.28-.51.3-.9.57-1.17.75-.3.18-.45.27-.45.27v-.1c1.26-.33 2.19-.42 2.85-.42.87 0 1.26.15 1.26.15v.1.1c-5.52 2.85-8.82 4.98-10.71 6.42-.93.75-1.53 1.29-1.89 1.62-.18.18-.3.33-.39.42-.1.1-.1.1-.1.1 2.01-1.05 4.41-1.05 4.41-1.05l.1.1v.1c-3.33 1.65-5.91 5.31-7.65 8.55-.87 1.62-1.53 3.12-1.98 4.23-.21.57-.39 1.02-.48 1.32-.12.33-.18.51-.18.51h-.1c1.2-1.26 2.01-1.53 2.04-1.53v.1c-.84 3.27-1.29 5.79-1.53 7.5-.12.84-.18 1.5-.21 1.92 0 .45-.1.66-.1.66h-.1c.1-.15.3-.45.72-.93 1.32-1.47 4.35-4.38 8.97-7.56 4.14-2.79 8.37-4.05 8.4-4.05v.1l-.18 1.14h-.1c.1 0 1.14-.21 5.19-3.18 2.88-2.13 5.07-5.49 6.06-7.35h.1v.1l-.1.87h-.1-.1l.1-.87h.1.1c-1.02 1.86-3.21 5.22-6.12 7.38-4.32 3.15-5.25 3.18-5.28 3.18v-.1l.18-1.11h.1v.1s-.27.1-.75.21c-1.38.51-4.53 1.74-7.62 3.81-3.06 2.1-5.43 4.11-7.05 5.64-.81.75-1.44 1.41-1.89 1.89-.42.48-.66.81-.72.9h-.1v-.1s.1-3.57 1.77-10.11h.1c-.18.1-.93.39-1.98 1.5h-.1v-.1s3.66-11.34 10.35-14.7v.1.1s-.15 0-.42 0c-.75 0-2.46.24-3.93.99h-.1v-.1s2.1-2.91 13.17-8.64v.1.1s0 0-.1 0c-.15-.1-.54-.15-1.17-.15s-1.56.1-2.82.42h-.1v-.1s9.66-6.39 15.78-7.26h-.1v-.78h.1v.1s-.15 0-.39.1c-1.8.48-9.42 2.76-16.89 8.67v-.1s3.21-.69 4.26-.69h.1v.1s-.15.1-.42.21c-1.86.87-9.51 4.62-12.45 8.76v-.1s.87-.3 1.8-.6c.45-.15.93-.3 1.32-.42s.69-.18.81-.18h.1v.1s-.1.1-.3.21c-1.29.96-6.63 5.43-8.94 15.15h-.1s.3-.42.72-.87.93-.96 1.29-1.14h.1v.1s-.1.3-.21.81c-.42 1.56-1.23 5.04-1.23 7.86 0 .36 0 .72.1 1.02h-.1v-.1s5.43-5.31 9.27-8.1c2.58-1.86 8.55-4.14 8.55-4.14h.1v.1l-.75 1.53h-.1v-.1s.21-.1.51-.21c.99-.45 3.27-1.56 5.94-3.42 2.43-1.71 4.74-5.16 5.82-7.05h.1-.1.1z" transform="translate(594.66 69.118)"/><path d="m-392.71 414.43c-.48.78-3.66 5.25-14.49 11.1-6.51 3.48-11.7 12.75-13.17 16.92 0 0 4.5-12 14.22-17.01 6.03-3.12 11.31-7.41 13.41-10.35v-.66z" transform="translate(594.69 68.802)"/><path d="m-392.71 414.43h.1c-.51.78-3.69 5.28-14.55 11.1-6.45 3.48-11.67 12.75-13.14 16.92h-.1s4.53-12.03 14.25-17.04c6.03-3.15 11.31-7.41 13.38-10.35h.1-.1v-.66h.1.1-.1.1l-.1.66c-2.1 2.97-7.38 7.23-13.41 10.38-4.86 2.49-8.4 6.75-10.74 10.35-1.17 1.83-2.04 3.48-2.61 4.68-.3.6-.51 1.08-.63 1.44-.15.33-.24.51-.24.51h-.1v-.1c1.47-4.2 6.66-13.47 13.2-16.98 10.83-5.82 14.01-10.29 14.46-11.07h.1v.1h-.1z" transform="translate(594.69 68.802)"/><path d="m-417.57 437.47-.15 2.76z" transform="translate(593.83 69.596)"/><path d="m-417.78 440.14.15-2.76h.12l-.15 2.76z" transform="translate(593.83 69.688)"/><path d="m-415.8 434.58-.36 4.2z" transform="translate(593.9 69.496)"/><path d="m-416.21 438.65.39-4.23h.1l-.33 4.23h-.15z" transform="translate(593.88 69.637)"/><path d="m-414.07 432.1-.42 5.22z" transform="translate(593.95 69.411)"/><path d="m-414.55 437.13.42-5.22h.12l-.41 5.22z" transform="translate(593.94 69.584)"/><path d="m-412.35 430.01-.51 6z" transform="translate(594.01 69.339)"/><path d="m-412.9 435.8.51-6h.12l-.51 6z" transform="translate(594 69.539)"/><path d="m-407.44 425.91-.61 7.11z" transform="translate(594.18 69.197)"/><path d="m-408.07 432.78.6-7.11h.1l-.57 7.14h-.12z" transform="translate(594.16 69.434)"/><path d="m-410.71 428.5-.54 6.36z" transform="translate(594.07 69.287)"/><path d="m-411.28 434.63.54-6.36h.12l-.54 6.36z" transform="translate(594.05 69.498)"/><path d="m-409.06 426.8-.61 7.14z" transform="translate(594.13 69.228)"/><path d="m-409.69 433.69.63-7.14h.1l-.57 7.14h-.12z" transform="translate(594.11 69.466)"/><path d="m-405.86 425.08-.59 7.11z" transform="translate(594.24 69.169)"/><path d="m-406.48 431.94.6-7.14h.1l-.57 7.14h-.12z" transform="translate(594.22 69.405)"/><path d="m-404.24 424.06-.65 7.56z" transform="translate(594.29 69.134)"/><path d="m-404.91 431.34.65-7.56h.1l-.62 7.56h-.12z" transform="translate(594.27 69.385)"/><path d="m-402.62 423.09-.78 9.06z" transform="translate(594.35 69.1)"/><path d="m-403.43 431.86.78-9.03h.12l-.78 9.03z" transform="translate(594.32 69.403)"/><path d="m-401 421.92-.81 9.42z" transform="translate(594.41 69.06)"/><path d="m-401.83 431.03.8-9.42h.13l-.81 9.45h-.12z" transform="translate(594.38 69.374)"/><path d="m-399.38 420.8-.81 9.57z" transform="translate(594.46 69.021)"/><path d="m-400.22 430.04.81-9.6h.12l-.8 9.57h-.13z" transform="translate(594.43 69.34)"/><path d="m-397.79 419.73-.78 9.45z" transform="translate(594.52 68.984)"/><path d="m-398.6 428.86.78-9.45h.12l-.78 9.45z" transform="translate(594.49 69.299)"/><path d="m-396.09 418.27-.81 9.27z" transform="translate(594.58 68.934)"/><path d="m-396.93 427.25.81-9.34h.12l-.81 9.31h-.12z" transform="translate(594.55 69.243)"/><path d="m-394.45 416.75-.78 9.03z" transform="translate(594.63 68.882)"/><path d="m-395.26 425.5.78-9.04h.12l-.78 9.04z" transform="translate(594.6 69.183)"/><path d="m-392.78 414.72-.72 8.4z" transform="translate(594.69 68.811)"/><path d="m-393.53 422.81.71-8.4h.13l-.72 8.4z" transform="translate(594.66 69.09)"/></g><path d="m-421.9 444.19c0-.3 0-.6 0-.9 0-2.85.81-6.33 1.2-7.86.15-.54.21-.84.21-.84v-.1h-.1c-.39.18-.9.69-1.32 1.14-.24.27-.42.54-.57.69 2.34-9.54 7.62-13.95 8.91-14.91.18-.12.27-.18.27-.18v-.1-.1c-.15 0-.45.1-.84.21-.39.1-.87.24-1.32.42-.69.21-1.32.42-1.62.54 3-4.11 10.5-7.77 12.36-8.64.27-.12.42-.18.42-.18v-.1l-.1-.1c-.87 0-3.3.48-4.05.63 7.44-5.76 14.94-8.04 16.71-8.52.15 0 .27-.1.33-.1v.63c-6.12.9-15.72 7.26-15.72 7.26v.1h.1c1.26-.33 2.19-.42 2.85-.42.57 0 .9.1 1.08.12-10.98 5.67-13.02 8.55-13.02 8.55v.1h.1c1.47-.75 3.18-.96 3.96-.99h.15c-6.54 3.51-10.11 14.58-10.11 14.58v.1h.1c.93-.99 1.65-1.35 1.89-1.47-1.68 6.48-1.77 10.02-1.77 10.02h.1.1c0-.1.27-.42.72-.9.36-.42.9-.96 1.56-1.59h.1s0-.1.1-.15c.1 0 .1-.1.15-.15.45-.39.93-.84 1.47-1.32v.15h.1v-.24c.48-.42.99-.84 1.53-1.29h.1v-.1c1.14-.93 2.43-1.89 3.87-2.85 3.09-2.1 6.24-3.33 7.62-3.81.3-.12.51-.18.63-.21l-.15 1.05h.1s.93-.1 5.25-3.21c1.77-1.29 3.24-3 4.38-4.56v-.1c.69-.93 1.23-1.83 1.62-2.52v.6c-1.11 1.89-3.39 5.31-5.82 7.02-2.67 1.86-4.98 3-5.94 3.42-.15.1-.3.12-.39.18l.72-1.41v-.1h-.1s-5.97 2.25-8.52 4.11c-3.57 2.58-8.52 7.35-9.21 8.04" fill="#1f60ad" transform="translate(593.69 69.828)"/><path d="m-421.96 444.35v-.1c0-.3 0-.66 0-1.02 0-3.45 1.17-7.83 1.38-8.61-.36.21-.78.66-1.17 1.08-.21.21-.39.45-.51.6-.15.18-.21.27-.21.27h-.1v-.1c2.37-10.02 7.98-14.49 9.09-15.3-.15.1-.33.1-.57.15-.57.18-1.35.42-1.98.66-.63.21-1.11.36-1.11.36h-.1v-.1c3.09-4.32 11.16-8.19 12.69-8.88-.57 0-1.44.18-2.25.3-.93.18-1.71.36-1.71.36h-.1v-.1c8.58-6.78 17.31-8.79 17.31-8.79h.1v.1.75.1c-.1 0-.18 0-.27 0-3 .51-6.78 2.28-9.87 3.93-.12.1-.24.12-.36.18-1.44.78-2.7 1.53-3.63 2.1-.48.3-.9.57-1.17.72-.1.1-.12.1-.15.12 1.11-.27 1.95-.33 2.55-.33.87 0 1.23.15 1.23.15h.1v.1c-5.55 2.88-8.82 5.01-10.71 6.45-.96.72-1.56 1.26-1.92 1.62-.15.15-.24.27-.33.36 1.95-.93 4.17-.93 4.17-.93h.1v.1c-3.3 1.68-5.88 5.31-7.62 8.55-.87 1.62-1.56 3.15-1.98 4.26-.15.36-.27.69-.39.93 0 .15-.1.3-.12.39 0 .12-.1.21-.1.27 1.08-1.11 1.86-1.35 1.86-1.35h.1v.1c-.21.84-.39 1.62-.57 2.37-.48 2.13-.78 3.84-.93 5.1-.15.87-.21 1.5-.24 1.95v.45c.12-.15.33-.42.63-.75.39-.45.96-1.02 1.71-1.74 0 .1-.1.12-.1.18-.66.63-1.17 1.17-1.56 1.59-.45.48-.69.81-.72.93h-.1l-.1-.1s.1-3.54 1.77-10.02c-.24.12-.96.48-1.89 1.47h-.1v-.1s3.57-11.07 10.14-14.55c-.1 0-.12 0-.18 0-.75.1-2.49.24-3.96.99h-.1v-.1s2.04-2.91 13.02-8.58c-.18-.1-.51-.12-1.08-.12-.66 0-1.59.1-2.85.42h-.1v-.1s9.6-6.33 15.72-7.23v-.66c-.1 0-.18 0-.33.1-1.77.48-9.27 2.73-16.71 8.52.75-.15 3.18-.66 4.05-.66l.1.1v.1s-.15.1-.42.18c-1.86.87-9.33 4.56-12.36 8.64.3-.1.93-.33 1.62-.54.45-.15.93-.3 1.32-.42s.69-.18.84-.18v.1s-.12.1-.3.21c-1.29.93-6.57 5.34-8.91 14.88.12-.15.36-.42.57-.66.42-.48.93-.99 1.32-1.17h.1v.1s-.1.33-.24.84c-.39 1.53-1.2 5.01-1.2 7.86v.9c.69-.66 5.64-5.46 9.21-8.04 2.55-1.86 8.55-4.11 8.55-4.11h.1v.1l-.72 1.38c.1 0 .21-.1.39-.15.96-.45 3.27-1.56 5.94-3.45 2.43-1.68 4.71-5.13 5.82-7.02v-.6c-.39.72-.93 1.59-1.59 2.55v-.21c.69-.99 1.23-1.92 1.62-2.61h.1v.1l-.1.81h-.1.1-.1.1c-1.11 1.89-3.39 5.34-5.85 7.05-1.2.84-2.28 1.53-3.24 2.07-1.92 1.08-3.24 1.59-3.24 1.59h-.1v-.1l.72-1.41c-.18.1-.48.18-.87.33-1.77.72-5.64 2.34-7.53 3.72-1.92 1.38-4.23 3.42-6.09 5.1-.9.84-1.71 1.59-2.28 2.13-.57.57-.9.9-.9.9h-.1z" fill="#10649e" transform="translate(593.68 69.833)"/><path d="m-419.35 441.4c0-.1.1-.15.1-.24.48-.42.96-.87 1.53-1.38v.15c-.54.48-1.02.9-1.47 1.32-.1.1-.1.1-.15.15" fill="#10649e" transform="translate(593.77 69.732)"/><path d="m-417.67 439.89v-.15c.48-.42.99-.81 1.53-1.26v.12c-.54.45-1.05.9-1.53 1.29" fill="#10649e" transform="translate(593.83 69.679)"/><path d="m-416.09 438.58v-.15c1.11-.87 2.4-1.83 3.81-2.79 4.11-2.79 8.34-4.05 8.34-4.05h.1v.1l-.1.6-.1.45c.3-.1 1.5-.51 5.16-3.15 1.74-1.29 3.21-3 4.35-4.56v.1h.1c-1.14 1.59-2.61 3.3-4.35 4.56-4.35 3.18-5.25 3.21-5.28 3.21v-.1l.15-1.05c-.12 0-.33.12-.63.21-1.41.51-4.56 1.71-7.62 3.81-1.44.99-2.76 1.95-3.87 2.85" fill="#10649e" transform="translate(593.89 69.634)"/><path d="m-417.12 436.68c.39-.69.84-1.44 1.29-2.16v.1c-.48.72-.9 1.41-1.29 2.07" fill="#1f60ad" transform="translate(593.85 69.569)"/><path d="m-415.79 434.56c.57-.84 1.14-1.71 1.77-2.55v.18c-.63.81-1.2 1.59-1.71 2.37" fill="#1f60ad" transform="translate(593.9 69.496)"/><path d="m-414.02 432.14h-.1c2.14-2.88 4.77-5.58 7.66-7.14 10.23-5.49 13.64-9.78 14.42-10.92v.1.45c-.42.57-.95 1.2-1.61 1.86v-.21h-.1-.1v.33c-.48.48-.99.99-1.55 1.5v-.27h-.1v.36c-.52.45-1.05.9-1.63 1.35v-.18h-.1v.27c-.5.39-1.02.78-1.56 1.17v-.33h-.1-.1v.45c-.51.36-1.02.69-1.56 1.05v-.3h-.1v.39c-.51.33-1.02.66-1.56.99v-.15h-.1v.24c-.51.33-1.05.63-1.57.93v-.18h-.1-.1v.24c-.49.27-.97.54-1.47.78h-.1-.1v.1c-.54.3-1.06.6-1.56.9v-.1h-.1v.18c-.54.33-1.07.72-1.59 1.11v-.36h-.1l-.1.45c-.54.42-1.05.87-1.56 1.32h-.1v.1c-.56.51-1.11 1.05-1.61 1.62v-.15.3c-.61.63-1.14 1.26-1.65 1.92" fill="#1f60ad" transform="translate(593.96 69.412)"/><path d="m-419.47 441.58c1.47-4.2 6.66-13.47 13.17-16.98 10.83-5.85 14.04-10.29 14.49-11.07h.1l.1.1h-.1.1-.1.1l-.1.66s0 .1-.1.1l.1-.48h-.1v-.1c-.78 1.14-4.2 5.43-14.43 10.92-2.88 1.56-5.52 4.26-7.68 7.14-.63.84-1.23 1.68-1.77 2.55-.45.72-.9 1.47-1.29 2.16.39-.66.81-1.35 1.29-2.07v.24c-.1.1-.1.15-.15.24-.6.9-1.08 1.77-1.53 2.55v-.12h-.1v.36c-.39.69-.72 1.35-.96 1.89-.3.6-.51 1.08-.66 1.41 0 .1 0 .1-.1.15 0 .1-.1.18-.1.24l-.1.15h-.1z" fill="#10649e" transform="translate(593.77 69.738)"/><path d="m-415.77 434.71v-.15c.51-.78 1.08-1.56 1.71-2.37v.21c-.6.78-1.14 1.56-1.65 2.31" fill="#10649e" transform="translate(593.9 69.501)"/><path d="m-414.04 432.33v-.18c.51-.67 1.05-1.32 1.62-1.95v.18c-.6.62-1.14 1.29-1.65 1.95" fill="#10649e" transform="translate(593.96 69.419)"/><path d="m-412.33 430.32v-.18c.54-.54 1.05-1.08 1.62-1.59v.15c-.57.54-1.11 1.08-1.62 1.62" fill="#10649e" transform="translate(594.01 69.349)"/><path d="m-410.66 428.65v-.15c.51-.45 1.02-.9 1.56-1.32v.15c-.54.42-1.05.87-1.56 1.32" fill="#10649e" transform="translate(594.07 69.292)"/><path d="m-409.04 427.29v-.16c.51-.38 1.05-.74 1.59-1.1v.15c-.21.12-.42.26-.63.41-.3.22-.63.46-.93.7" fill="#10649e" transform="translate(594.13 69.245)"/><path d="m-407.41 426.13v-.12c.51-.33 1.02-.63 1.56-.9v.12c-.51.27-1.02.57-1.53.9" fill="#10649e" transform="translate(594.19 69.205)"/><path d="m-405.81 425.19v-.12s.1 0 .1-.1c.51-.24.96-.51 1.47-.78v.15c-.45.24-.93.51-1.38.75-.1 0-.1 0-.15.1" fill="#10649e" transform="translate(594.24 69.173)"/><path d="m-404.22 424.34v-.12c.54-.3 1.05-.63 1.59-.93v.15c-.51.3-1.02.6-1.56.9" fill="#10649e" transform="translate(594.3 69.143)"/><path d="m-402.59 423.39v-.12c.54-.33 1.05-.66 1.56-.99v.12c-.51.33-1.02.66-1.56.99" fill="#10649e" transform="translate(594.35 69.11)"/><path d="m-400.98 422.36v-.15c.54-.33 1.05-.69 1.56-1.04v.14c-.51.33-1.02.69-1.56 1.05" fill="#10649e" transform="translate(594.41 69.075)"/><path d="m-399.37 421.26v-.15c.54-.4 1.08-.79 1.56-1.18v.16c-.51.39-1.02.78-1.56 1.17" fill="#10649e" transform="translate(594.46 69.037)"/><path d="m-397.75 420.04v-.15c.6-.45 1.11-.9 1.62-1.35v.15c-.51.45-1.05.9-1.62 1.35" fill="#10649e" transform="translate(594.52 68.995)"/><path d="m-396.07 418.66v-.15c.6-.52 1.11-1.02 1.59-1.5v.18c-.48.48-1.02.96-1.59 1.47" fill="#10649e" transform="translate(594.58 68.947)"/><path d="m-394.43 417.12v-.19c.66-.66 1.2-1.29 1.62-1.86v.21c-.45.58-.99 1.17-1.62 1.84" fill="#10649e" transform="translate(594.63 68.894)"/><path d="m-417.78 440.14v-.15-.18l.12-2.04v-.39h.12v.15l-.15 2.01v.21.15.24h-.12z" fill="#10649e" transform="translate(593.83 69.688)"/><path d="m-416.19 438.65.36-3.9v-.21-.1-.1h.1v.15l-.27 3.63v.21.15.1h-.1z" fill="#10649e" transform="translate(593.88 69.637)"/><path d="m-414.49 437.13h-.1l.42-4.79v-.21-.22h.1v.21l-.39 4.8v.17z" fill="#10649e" transform="translate(593.94 69.584)"/><path d="m-412.85 435.8h-.1l.45-5.52v-.21-.27h.1.1v.15.18l-.51 5.64z" fill="#10649e" transform="translate(594 69.539)"/><path d="m-408.02 432.78h-.1l.57-6.81v-.12-.18h.1.1v.1.15l-.54 6.54v.36h-.1z" fill="#10649e" transform="translate(594.16 69.434)"/><path d="m-411.23 434.63h.1zm.6-6.18-.54 6.18z" fill="#73a5c1" transform="translate(594.05 69.498)"/><path d="m-411.23 434.63h-.1l.54-6.06v-.18-.12h.1.1v.15l-.54 6.18h-.1z" fill="#10649e" transform="translate(594.05 69.498)"/><path d="m-409.69 433.69.57-6.54v-.15l.1-.45v.36.15l-.54 6.63h-.12z" fill="#10649e" transform="translate(594.11 69.466)"/><g transform="translate(594.22 69.405)"><path d="m-406.43 431.94h.1zm.66-6.96-.6 6.99z" fill="#80b1c7"/><path d="m-406.43 431.94h-.1l.57-6.9v-.15-.1h.12v.15l-.6 6.99h-.1z" fill="#10649e"/></g><path d="m-404.86 431.37h.1zm.66-7.26-.6 7.26z" fill="#80b1c7" transform="translate(594.27 69.385)"/><path d="m-404.86 431.37h-.1l.63-7.17v-.15-.24h.1v.15.15z" fill="#10649e" transform="translate(594.27 69.385)"/><path d="m-403.43 431.86.75-8.7v-.12-.21h.1.1v.12.15l-.75 8.76h-.12z" fill="#10649e" transform="translate(594.32 69.403)"/><path d="m-401.83 431.03.77-8.88v-.15-.39h.1v.33.12l-.78 9h-.12z" fill="#10649e" transform="translate(594.38 69.374)"/><path d="m-400.22 430.04.76-9v-.15-.45h.1.1v.33.18l-.74 9.06h-.13z" fill="#10649e" transform="translate(594.43 69.34)"/><path d="m-398.6 428.86.75-9.03v-.15-.27h.12v.18.15l-.75 9.12z" fill="#10649e" transform="translate(594.49 69.299)"/><path d="m-396.88 427.22h.1zm.81-8.85-.75 8.88z" fill="#80b1c7" transform="translate(594.55 69.242)"/><path d="m-396.88 427.25h-.1l.75-8.77v-.18-.39h.12v.27.15l-.81 8.89z" fill="#10649e" transform="translate(594.55 69.243)"/><path d="m-395.18 425.5h-.1l.75-8.56v-.17-.31h.1.1v.19.18l-.69 8.37v.1.2z" fill="#10649e" transform="translate(594.61 69.183)"/><path d="m-393.48 422.83.66-7.71v-.24-.45h.1.1v.45l-.66 7.65v.3h-.1z" fill="#10649e" transform="translate(594.66 69.091)"/></g></svg>