<svg fill="none" height="32" viewBox="0 0 32 32" width="32" xmlns="http://www.w3.org/2000/svg"><path d="m28.5936 12.5059c-.4395-.4583-.8939-.9322-1.0422-1.2905-.1327-.321-.1426-.9788-.1515-1.5589-.0188-1.24975-.0424-2.805-1.1469-3.9095s-2.6597-1.12813-3.9095-1.14688c-.5802-.00875-1.2379-.01874-1.5588-.15149-.3584-.14838-.8323-.60275-1.2905-1.04226-.8857-.84937-1.9878-1.90637-3.4942-1.90637-1.5063 0-2.6085 1.057-3.4941 1.90637-.4583.43951-.9322.89388-1.2905 1.04226-.321.13262-.9788.14262-1.5589.15149-1.24975.01875-2.805.04238-3.9095 1.14688s-1.12825 2.65975-1.147 3.9095c-.00875.5802-.01875 1.2379-.1515 1.5588-.14837.3584-.60275.8323-1.04225 1.2904-.84925.8858-1.90625 1.9879-1.90625 3.4943 0 1.5063 1.057 2.6085 1.90637 3.4941.43951.4583.89388.9321 1.04226 1.2905.13262.321.14262.9788.15149 1.5589.01875 1.2498.04238 2.805 1.14688 3.9095s2.65975 1.1281 3.9095 1.1469c.5802.0087 1.2379.0187 1.5588.1515.3584.1483.8323.6027 1.2904 1.0422.8858.8494 1.9879 1.9064 3.4943 1.9064 1.5063 0 2.6085-1.057 3.4941-1.9064.4583-.4395.9321-.8939 1.2905-1.0422.321-.1327.9788-.1426 1.5589-.1515 1.2498-.0188 2.805-.0424 3.9095-1.1469s1.1281-2.6597 1.1469-3.9095c.0087-.5802.0187-1.2379.1515-1.5588.1483-.3584.6027-.8323 1.0422-1.2905.8494-.8857 1.9064-1.9878 1.9064-3.4942 0-1.5063-1.057-2.6085-1.9064-3.4941zm-2.1652 4.9118c-.6023.6279-1.2849 1.3398-1.649 2.2201-.3518.85-.3657 1.7703-.3792 2.6605-.01.6705-.0238 1.589-.2684 1.8335-.2445.2446-1.163.2583-1.8335.2684-.8902.0135-1.8105.0274-2.6605.3792-.8803.3641-1.5922 1.0467-2.2201 1.649-.445.4267-1.1174 1.0716-1.4177 1.0716s-.9728-.645-1.4178-1.0716c-.6278-.6023-1.3397-1.2849-2.2199-1.649-.8501-.3518-1.7704-.3657-2.66055-.3792-.6705-.01-1.589-.0238-1.8335-.2684-.24463-.2445-.25837-1.163-.2685-1.8335-.0135-.8902-.02738-1.8105-.37913-2.6605-.36412-.8803-1.04674-1.5922-1.64899-2.2201-.42663-.445-1.07163-1.1174-1.07163-1.4177s.645-.9728 1.07163-1.4178c.60225-.6278 1.28487-1.3397 1.64899-2.2199.35175-.8501.36563-1.7704.37913-2.66055.01-.6705.02387-1.589.2685-1.8335.2445-.24463 1.163-.25837 1.8335-.2685.89015-.0135 1.81045-.02738 2.66055-.37913.8802-.36412 1.5921-1.04674 2.2199-1.64899.445-.42663 1.1175-1.07163 1.4178-1.07163s.9727.645 1.4177 1.07163c.6279.60225 1.3398 1.28487 2.2201 1.64899.85.35175 1.7703.36563 2.6605.37913.6705.01 1.589.02387 1.8335.2685.2446.2445.2583 1.163.2684 1.8335.0135.89015.0274 1.81045.3792 2.66055.3641.8802 1.0467 1.5921 1.649 2.2199.4267.445 1.0716 1.1175 1.0716 1.4178s-.645.9727-1.0716 1.4177zm-3.8434-5.4535c.2747.2879.4238.673.4145 1.0707s-.1761.7755-.4639 1.0502l-7.3334 7c-.279.2663-.6499.4149-1.0357.4149s-.7567-.1486-1.0358-.4149l-3.66658-3.5c-.28779-.2747-.45467-.6524-.46393-1.0502-.00926-.3977.13986-.7829.41456-1.0707.2747-.2877.65245-.4546 1.05025-.4639.3977-.0092.7828.1399 1.0706.4146l2.6309 2.5114 6.2975-6.0113c.2878-.2747.673-.4238 1.0707-.4145.3977.0092.7755.176 1.0503.4637z" fill="#2c1b2d"/></svg>