<svg width="399" height="297" viewBox="0 0 399 297" fill="none" xmlns="http://www.w3.org/2000/svg">
<path opacity="0.1" d="M27.0063 117.702H62.5952V164.982H29.6085C29.5243 165.47 29.4402 165.956 29.3455 166.445H62.5952V204.567C62.5391 204.567 62.483 204.526 62.4304 204.506C61.4952 204.144 60.56 203.76 59.6248 203.354C59.4249 203.265 59.2285 203.173 59.0251 203.088C58.0899 202.657 57.1547 202.201 56.2195 201.72C55.8934 201.553 55.5672 201.379 55.2481 201.201C50.0562 198.377 45.3375 194.798 41.2552 190.585C41.1325 190.472 41.0202 190.349 40.9045 190.243C40.3364 189.642 39.7788 189.033 39.2387 188.411C39.0353 188.182 38.8389 187.95 38.639 187.728C38.0007 186.969 37.3835 186.183 36.7873 185.393C36.6961 185.274 36.6119 185.157 36.5243 185.051C34.082 181.758 32.0567 178.189 30.4923 174.422C30.4432 174.309 30.3976 174.186 30.352 174.08C29.868 172.884 29.4296 171.671 29.0509 170.433C28.8896 169.917 28.7317 169.408 28.5985 168.871C28.5494 168.717 28.5108 168.56 28.4687 168.406C26.4978 160.836 26.2698 152.968 26.2698 145.138C26.2698 144.226 26.2698 143.315 26.2698 142.403C26.2979 139.206 26.3365 136.013 26.3856 132.823C26.4043 132.003 26.4218 131.179 26.4382 130.352C26.4873 128.258 26.5574 126.159 26.6486 124.056C26.6696 123.475 26.6977 122.891 26.7293 122.313C26.7433 121.978 26.7608 121.643 26.7819 121.308C26.845 120.098 26.9198 118.896 27.0063 117.702Z" fill="#8C588F"/>
<path opacity="0.1" d="M61.0159 64.004H42.0635C45.1457 58.9187 48.5118 54.0315 52.144 49.368C54.9628 45.718 57.9315 42.1614 61.0159 38.7341V64.004Z" fill="#8C588F"/>
<path opacity="0.1" d="M62.5952 64.0039V114.544H27.8492C27.8492 114.398 27.8698 114.248 27.8836 114.102C27.9145 113.703 27.9454 113.307 27.9797 112.907C28.0141 112.442 28.0587 111.976 28.1034 111.518C28.148 111.059 28.1927 110.503 28.2476 110C28.3026 109.496 28.3473 108.985 28.4022 108.481C28.4572 107.978 28.5121 107.474 28.5739 106.974C28.6358 106.473 28.6907 105.966 28.7594 105.466C28.8109 105.053 28.8625 104.636 28.9209 104.219C28.9999 103.632 29.0823 103.045 29.1682 102.461C29.1682 102.371 29.1956 102.284 29.2094 102.197C29.8371 97.925 30.6902 93.6899 31.7648 89.51C32.8934 85.1259 34.334 80.8301 36.0755 76.6562C37.9259 72.2829 40.0934 68.054 42.5603 64.0039L62.5952 64.0039Z" fill="#8C588F"/>
<path opacity="0.1" fill-rule="evenodd" clip-rule="evenodd" d="M143.021 64.0954V0.835136C134.909 0.745456 126.818 1.69781 118.945 3.66907C100.179 8.40603 83.3269 18.6803 68.9127 31.8023V64.0919H72.6427V65.5587H68.9127V115.532H143.021V65.5587H87.9014V64.0885L143.021 64.0954ZM68.9127 164.519V117.002H143.021V164.519H68.9127ZM68.9127 206.798V165.99H143.018V198.173C134.389 195.057 124.515 196.318 115.584 198.877C112.227 199.84 108.905 200.975 105.584 202.109C102.068 203.31 98.5526 204.511 94.9957 205.507C91.9182 206.397 88.7821 207.067 85.6107 207.513L84.8346 207.609L84.6087 207.633C84.3036 207.666 84.0065 207.698 83.6961 207.726C83.3098 207.76 82.9269 207.791 82.5474 207.815C82.5087 207.812 82.4698 207.812 82.4311 207.815C82.267 207.836 82.0961 207.836 81.9251 207.836C81.8671 207.839 81.8088 207.839 81.7508 207.836C81.5456 207.86 81.3439 207.86 81.1388 207.86H81.1217C80.8311 207.887 80.5371 207.887 80.243 207.887H79.8669H78.9883H78.3421C78.2823 207.887 78.2291 207.888 78.1764 207.889C78.0723 207.89 77.9699 207.892 77.8224 207.887C77.7383 207.885 77.6547 207.881 77.5714 207.877C77.4346 207.87 77.2986 207.863 77.1626 207.863C76.807 207.85 76.4514 207.829 76.0924 207.802L75.4326 207.753L75.3225 207.744L75.1681 207.731L75.1657 207.731L75.1632 207.73L75.1604 207.73L75.1574 207.73L75.1542 207.73C74.9746 207.715 74.7945 207.699 74.6189 207.681C74.0513 207.626 73.4804 207.564 72.9094 207.482C72.6804 207.455 72.4513 207.424 72.2256 207.386L71.8837 207.338C71.3059 207.252 70.7384 207.152 70.1743 207.042C69.7906 206.977 69.4098 206.899 69.0241 206.821L68.9127 206.798ZM224.795 38.8031C228.973 41.0874 233.589 42.5611 238.232 42.7259L257.361 63.8173L257.097 64.0955H151.312V1.26122C170.147 3.03372 188.507 10.1821 203.311 22.0228C205.53 23.7923 207.677 25.6644 209.822 27.5353L209.822 27.5353L209.822 27.5355C214.565 31.6716 219.301 35.8017 224.795 38.8031ZM247.87 41.0084L258.089 52.2789V38.0439C254.649 38.4802 251.654 39.4935 247.87 40.9947V41.0084ZM258.089 216.925V216.932L258.41 216.925H258.089ZM258.089 165.99V216.925H258.068V248.074C254.21 247.747 250.368 247.3 246.543 246.735C229.312 244.209 212.513 239.294 196.627 232.129C194.904 231.357 193.194 230.556 191.498 229.724C190.368 229.17 189.245 228.605 188.131 228.027C186.455 227.158 184.79 226.269 183.143 225.345C175.79 221.254 168.746 216.626 162.068 211.498C161.647 211.18 161.227 210.856 160.81 210.526C159.976 209.873 159.147 209.214 158.325 208.547C157.914 208.221 157.501 207.877 157.094 207.534L156.246 206.83C155.405 206.113 154.558 205.404 153.706 204.703C152.916 204.064 152.119 203.429 151.312 202.828V165.99H236.293C236.235 165.774 236.177 165.554 236.112 165.334C236.18 165.554 236.242 165.774 236.297 165.99H258.089ZM151.312 65.5587V115.532H258.089V65.5587H151.312ZM151.312 164.52V116.996L258.089 117.002V164.52H151.312ZM266.376 37.9753V53.8797L279.416 39.497C275.095 38.7802 270.748 38.273 266.376 37.9753ZM266.376 164.519V117.002H370.226V164.519H266.376ZM369.86 220.7L370.226 165.99H266.376V248.627C273.066 248.907 279.765 248.825 286.445 248.383H286.562C289.753 248.177 292.929 247.884 296.09 247.504H296.162C313.033 245.531 329.529 241.104 345.131 234.361L369.86 220.7ZM389.048 122.059C389.462 122.975 389.867 123.891 390.261 124.807C395.591 137.321 398.983 151.061 399 164.52H378.517V117.006H386.62C387.461 118.672 388.275 120.341 389.048 122.059ZM378.517 165.99V213.05C384.285 207.496 389.164 201.137 392.672 193.869C396.894 185.113 398.826 175.639 398.986 165.986L378.517 165.99ZM378.517 115.522V103.156C381.183 107.143 383.635 111.271 385.861 115.522H378.517ZM308.087 47.3014C307.547 47.0918 307.003 46.8823 306.46 46.6831C300.728 44.5547 294.871 42.7857 288.921 41.3862L268.961 63.3913L268.571 63.8138L268.828 64.092H339.866C329.972 57.2514 319.304 51.6151 308.087 47.3014ZM267.833 65.5587H341.952C352.485 73.0823 361.991 81.9609 370.226 91.9675V115.532H279.146H266.376V66.8949L267.833 65.5587Z" fill="#8C588F"/>
<path opacity="0.1" d="M62.5952 89.2737V114.544H27.8492C27.8492 114.396 27.8698 114.246 27.8836 114.098C27.9145 113.695 27.9454 113.296 27.9797 112.893C28.0141 112.423 28.0587 111.953 28.1034 111.49C28.148 111.028 28.1927 110.467 28.2476 109.959C28.3026 109.45 28.3473 108.935 28.4022 108.427C28.4572 107.918 28.5121 107.41 28.5739 106.905C28.6358 106.401 28.6907 105.889 28.7594 105.384C28.8109 104.967 28.8625 104.546 28.9209 104.126C28.9999 103.533 29.0823 102.941 29.1682 102.352C29.1682 102.261 29.1956 102.173 29.2094 102.086C29.8371 97.7751 30.6902 93.5018 31.7648 89.2842L62.5952 89.2737Z" fill="#8C588F"/>
<path opacity="0.1" d="M27.0063 117.702H62.5952V164.982H29.6085C29.5243 165.47 29.4402 165.956 29.3455 166.445H62.5952V204.567C62.5391 204.567 62.483 204.526 62.4304 204.506C61.4952 204.144 60.56 203.76 59.6248 203.354C59.4249 203.265 59.2285 203.173 59.0251 203.088C58.0899 202.657 57.1547 202.201 56.2195 201.72C55.8934 201.553 55.5672 201.379 55.2481 201.201C50.0562 198.377 45.3375 194.798 41.2552 190.585C41.1325 190.472 41.0202 190.349 40.9045 190.243C40.3364 189.642 39.7788 189.033 39.2387 188.411C39.0353 188.182 38.8389 187.95 38.639 187.728C38.0007 186.969 37.3835 186.183 36.7873 185.393C36.6961 185.274 36.6119 185.157 36.5243 185.051C34.082 181.758 32.0567 178.189 30.4923 174.422C30.4432 174.309 30.3976 174.186 30.352 174.08C29.868 172.884 29.4296 171.671 29.0509 170.433C28.8896 169.917 28.7317 169.408 28.5985 168.871C28.5494 168.717 28.5108 168.56 28.4687 168.406C26.4978 160.836 26.2698 152.968 26.2698 145.138C26.2698 144.226 26.2698 143.315 26.2698 142.403C26.2979 139.206 26.3365 136.013 26.3856 132.823C26.4043 132.003 26.4218 131.179 26.4382 130.352C26.4873 128.258 26.5574 126.159 26.6486 124.056C26.6696 123.475 26.6977 122.891 26.7293 122.313C26.7433 121.978 26.7608 121.643 26.7819 121.308C26.845 120.098 26.9198 118.896 27.0063 117.702Z" fill="#8C588F"/>
<path opacity="0.1" d="M95.7619 72.0678V114.544H70.4921V72.0678H74.0949V57.6865H88.884V72.0678H95.7619Z" fill="#8C588F"/>
<rect opacity="0.1" x="70.4921" y="116.123" width="25.2698" height="47.381" fill="#8C588F"/>
<path opacity="0.1" d="M70.4921 165.083H95.7619V203.8C92.7811 204.673 89.743 205.328 86.6707 205.763C86.419 205.8 86.1706 205.83 85.9189 205.857C85.548 205.901 85.1804 205.941 84.8127 205.975L83.7033 206.066H83.5907L83.1005 206.093H82.9316C82.7329 206.093 82.5375 206.116 82.3388 206.12H82.3222C82.0374 206.12 81.7559 206.14 81.471 206.147H81.1067C80.8252 206.147 80.5437 206.147 80.2556 206.147H79.6329H79.1262C78.9109 206.147 78.699 206.147 78.4837 206.12C78.1437 206.106 77.7992 206.086 77.4504 206.059L76.8112 206.012C76.5462 205.992 76.2813 205.965 76.0196 205.938C75.4632 205.889 74.9113 205.825 74.3637 205.746L73.7013 205.652L73.3701 205.605C72.817 205.521 72.2672 205.426 71.7142 205.319C71.3035 205.244 70.8994 205.16 70.4921 205.073L70.4921 165.083Z" fill="#8C588F"/>
<rect opacity="0.1" x="237.905" y="67.1626" width="20.5317" height="47.381" fill="#8C588F"/>
<path opacity="0.1" d="M260.016 116.123V163.504H152.619V143.067H209.823V155.123H238.376V116.123H260.016Z" fill="#8C588F"/>
<path opacity="0.1" d="M260.016 215.702C259.903 215.702 259.79 215.702 259.673 215.681V247.21C255.809 246.888 251.958 246.438 248.121 245.859C230.839 243.305 213.989 238.336 198.053 231.093C193.452 228.99 188.946 226.698 184.533 224.217C177.163 220.078 170.102 215.397 163.407 210.212C161.72 208.906 160.059 207.571 158.423 206.207C157.288 205.255 156.164 204.282 155.019 203.34C154.23 202.691 153.431 202.048 152.619 201.436V164.167H237.824C237.762 163.945 237.707 163.726 237.645 163.504C237.71 163.726 237.772 163.945 237.827 164.167H259.677V215.677C259.79 215.681 259.903 215.691 260.016 215.702Z" fill="#8C588F"/>
<path opacity="0.1" d="M313.714 64.0039H299.5V59.6375H305.869V46.6309C306.421 46.8319 306.971 47.0376 307.519 47.2478V59.6375H313.711L313.714 64.0039Z" fill="#8C588F"/>
<path opacity="0.1" d="M348.457 114.542H279.186C279.193 114.544 279.2 114.544 279.207 114.542H279.176H266.333V66.1334H269.974V101.915H286.609V80.7238H300.356V64.0039H314.465V80.7343H328.206V101.925H348.46L348.457 114.542Z" fill="#8C588F"/>
<path opacity="0.1" fill-rule="evenodd" clip-rule="evenodd" d="M266.333 163.957V116.123H348.234V163.957H266.333ZM370.571 182.395L370.455 220.26L345.383 234.265C329.722 241.053 313.164 245.509 296.23 247.495H296.158C292.985 247.878 289.797 248.173 286.594 248.381H286.477C279.772 248.826 273.048 248.908 266.333 248.626V165.451H348.234V182.395H370.571Z" fill="#8C588F"/>
<path opacity="0.1" d="M381.377 165.083H399C398.848 174.797 397.063 184.339 393.153 193.15C389.905 200.471 385.388 206.872 380.048 212.464V182.032H381.377V165.083Z" fill="#8C588F"/>
<path opacity="0.1" d="M399 163.504H380.048V124.02H390.305C395.608 136.462 398.983 150.123 399 163.504Z" fill="#8C588F"/>
<rect opacity="0.1" x="247.381" y="81.377" width="11.0556" height="14.2143" fill="#8C588F"/>
<rect opacity="0.1" x="247.381" y="109.805" width="11.0556" height="3.15873" fill="#8C588F"/>
<rect opacity="0.1" x="247.381" y="116.123" width="11.0556" height="11.0556" fill="#8C588F"/>
<rect opacity="0.1" x="247.381" y="141.393" width="11.0556" height="14.2143" fill="#8C588F"/>
<rect opacity="0.1" x="247.381" y="172.98" width="11.0556" height="14.2143" fill="#8C588F"/>
<path opacity="0.1" d="M259.652 215.476C259.772 215.476 259.892 215.476 260.016 215.499C259.896 215.499 259.776 215.499 259.652 215.479V218.782H247.381V204.567H259.652V215.476Z" fill="#8C588F"/>
<path opacity="0.1" d="M258.437 234.575V247.21C254.737 246.863 251.052 246.378 247.381 245.754V234.575H258.437Z" fill="#8C588F"/>
<rect opacity="0.1" x="152.619" y="161.925" width="48.9603" height="1.57937" fill="#8C588F"/>
<rect opacity="0.1" x="152.619" y="165.083" width="48.9603" height="4.7381" fill="#8C588F"/>
<rect opacity="0.1" x="152.619" y="182.456" width="48.9603" height="7.89683" fill="#8C588F"/>
<path opacity="0.1" d="M201.579 202.988V210.885H163.931C162.291 209.389 160.677 207.853 159.086 206.278C157.98 205.188 156.887 204.07 155.778 202.988H201.579Z" fill="#8C588F"/>
<path opacity="0.1" d="M201.579 225.099V232.996H197.545C193.006 230.585 188.56 227.958 184.206 225.115L201.579 225.099Z" fill="#8C588F"/>
<rect opacity="0.1" x="285.286" y="120.861" width="11.0556" height="11.0556" fill="#8C588F"/>
<rect opacity="0.1" x="76.8095" y="75.0596" width="11.0556" height="11.0556" fill="#8C588F"/>
<rect opacity="0.1" x="76.8095" y="97.1707" width="11.0556" height="11.0556" fill="#8C588F"/>
<rect opacity="0.1" x="76.8095" y="120.861" width="11.0556" height="11.0556" fill="#8C588F"/>
<rect opacity="0.1" x="76.8095" y="142.972" width="11.0556" height="11.0556" fill="#8C588F"/>
<rect opacity="0.1" x="76.8095" y="165.083" width="11.0556" height="11.0556" fill="#8C588F"/>
<rect opacity="0.1" x="76.8095" y="188.774" width="11.0556" height="11.0556" fill="#8C588F"/>
<rect opacity="0.1" x="323.19" y="120.861" width="11.0556" height="11.0556" fill="#8C588F"/>
<rect opacity="0.1" x="285.286" y="144.552" width="11.0556" height="11.0556" fill="#8C588F"/>
<rect opacity="0.1" x="323.19" y="144.552" width="11.0556" height="11.0556" fill="#8C588F"/>
<rect opacity="0.1" x="285.286" y="168.242" width="11.0556" height="11.0556" fill="#8C588F"/>
<rect opacity="0.1" x="323.19" y="168.242" width="11.0556" height="11.0556" fill="#8C588F"/>
<rect opacity="0.1" x="285.286" y="191.933" width="11.0556" height="11.0556" fill="#8C588F"/>
<rect opacity="0.1" x="323.19" y="191.933" width="11.0556" height="11.0556" fill="#8C588F"/>
<rect opacity="0.1" x="285.286" y="217.202" width="11.0556" height="11.0556" fill="#8C588F"/>
<rect opacity="0.1" x="323.19" y="217.202" width="11.0556" height="11.0556" fill="#8C588F"/>
<path opacity="0.1" d="M285.286 247.21V239.313H296.341V246.086L285.286 247.21Z" fill="#8C588F"/>
<path opacity="0.1" fill-rule="evenodd" clip-rule="evenodd" d="M29.4286 103.488V109.805H62.5952V103.488H29.4286ZM32.7309 109.409H30.0045V103.888H32.7309V109.409ZM33.3069 109.409H36.0333V103.888H33.3069V109.409ZM39.3288 109.409H36.6024V103.888H39.3288V109.409ZM39.9048 109.409H42.6312V103.888H39.9048V109.409ZM45.9301 109.409H43.2037V103.888H45.9301V109.409ZM46.5061 109.409H49.2325V103.888H46.5061V109.409ZM52.5348 109.409H49.8084V103.888H52.5348V109.409ZM53.1074 109.409H55.8338V103.888H53.1074V109.409ZM59.1327 109.409H56.4063V103.888H59.1327V109.409ZM59.7086 109.409H62.435V103.888H59.7086V109.409Z" fill="#8C588F"/>
<path opacity="0.1" fill-rule="evenodd" clip-rule="evenodd" d="M29.4286 117.702V124.02H62.5952V117.702H29.4286ZM32.7309 123.624H30.0045V118.102H32.7309V123.624ZM33.3069 123.624H36.0333V118.102H33.3069V123.624ZM39.3288 123.624H36.6024V118.102H39.3288V123.624ZM39.9048 123.624H42.6312V118.102H39.9048V123.624ZM45.9301 123.624H43.2037V118.102H45.9301V123.624ZM46.5061 123.624H49.2325V118.102H46.5061V123.624ZM52.5348 123.624H49.8084V118.102H52.5348V123.624ZM53.1074 123.624H55.8338V118.102H53.1074V123.624ZM59.1327 123.624H56.4063V118.102H59.1327V123.624ZM59.7086 123.624H62.435V118.102H59.7086V123.624Z" fill="#8C588F"/>
<path opacity="0.1" fill-rule="evenodd" clip-rule="evenodd" d="M29.4286 135.075V141.393H62.5952V135.075H29.4286ZM32.7309 140.993H30.0045V135.468H32.7309V140.993ZM33.3069 140.993H36.0333V135.468H33.3069V140.993ZM39.3288 140.993H36.6024V135.468H39.3288V140.993ZM39.9048 140.993H42.6312V135.468H39.9048V140.993ZM45.9301 140.993H43.2037V135.468H45.9301V140.993ZM46.5061 140.993H49.2325V135.468H46.5061V140.993ZM52.5348 140.993H49.8084V135.468H52.5348V140.993ZM53.1074 140.993H55.8338V135.468H53.1074V140.993ZM59.1327 140.993H56.4063V135.468H59.1327V140.993ZM59.7086 140.993H62.435V135.468H59.7086V140.993Z" fill="#8C588F"/>
<path opacity="0.1" fill-rule="evenodd" clip-rule="evenodd" d="M29.4286 150.869V157.187H62.5952V150.869H29.4286ZM32.7309 156.79H30.0045V151.258H32.7309V156.79ZM33.3069 156.79H36.0333V151.258H33.3069V156.79ZM39.3288 156.79H36.6024V151.258H39.3288V156.79ZM39.9048 156.79H42.6312V151.258H39.9048V156.79ZM45.9301 156.79H43.2037V151.258H45.9301V156.79ZM46.5061 156.79H49.2325V151.258H46.5061V156.79ZM52.5348 156.79H49.8084V151.258H52.5348V156.79ZM53.1074 156.79H55.8338V151.258H53.1074V156.79ZM59.1327 156.79H56.4063V151.258H59.1327V156.79ZM59.7086 156.79H62.435V151.258H59.7086V156.79Z" fill="#8C588F"/>
<path opacity="0.1" fill-rule="evenodd" clip-rule="evenodd" d="M29.8701 170.02C29.7127 169.432 29.5586 168.841 29.4286 168.242H62.5952V174.559H31.2736C31.2257 174.439 31.1812 174.303 31.1401 174.17H32.6086V168.643H29.8701V170.02ZM33.194 174.17H35.9325V168.642H33.194V174.17ZM39.2427 174.17H36.5042V168.642H39.2427V174.17ZM39.8212 174.17H42.5597V168.642H39.8212V174.17ZM45.8733 174.17H43.1347V168.642H45.8733V174.17ZM46.4518 174.17H49.1903V168.642H46.4518V174.17ZM52.5073 174.17H49.7688V168.642H52.5073V174.17ZM53.0824 174.17H55.8209V168.642H53.0824V174.17ZM59.1345 174.17H56.396V168.642H59.1345V174.17ZM59.713 174.17H62.4515V168.642H59.713V174.17Z" fill="#8C588F"/>
<path opacity="0.1" fill-rule="evenodd" clip-rule="evenodd" d="M37.3254 182.456C37.3746 182.525 37.4218 182.599 37.4685 182.672L37.4685 182.672L37.4685 182.672C37.5058 182.731 37.5428 182.789 37.5805 182.844H39.3799V185.491L39.9616 186.266V182.828H42.6828V188.386H41.5637C41.5905 188.418 41.6172 188.45 41.6439 188.482L41.644 188.482C41.7258 188.58 41.809 188.68 41.9038 188.774H62.5953V182.456H37.3254ZM45.9857 188.386H43.2645V182.852H45.9857V188.386ZM46.5605 188.386H49.2817V182.852H46.5605V188.386ZM52.5778 188.386H49.8566V182.852H52.5778V188.386ZM53.1492 188.386H55.8704V182.852H53.1492V188.386ZM59.1631 188.386H56.4419V182.852H59.1631V188.386ZM59.738 188.386H62.4592V182.852H59.738V188.386Z" fill="#8C588F"/>
<path opacity="0.1" d="M54.6984 201.409C54.9759 201.576 55.2563 201.73 55.5367 201.893V201.733H57.9491V203.181C58.124 203.261 58.2899 203.348 58.4618 203.431V201.733H60.8742V204.513C60.92 204.535 60.9674 204.553 61.0159 204.567V201.409L54.6984 201.409Z" fill="#8C588F"/>
<path opacity="0.1" fill-rule="evenodd" clip-rule="evenodd" d="M73.6508 63.8983V62.4314L88.9706 62.4246V63.8983H73.6508ZM237.789 164.495C237.737 164.303 237.685 164.108 237.628 163.914C237.696 164.135 237.758 164.355 237.81 164.572L237.789 164.495Z" fill="#8C588F"/>
<ellipse opacity="0.1" cx="301.079" cy="289.853" rx="33.1667" ry="6.31746" fill="#8C588F"/>
<ellipse opacity="0.1" cx="151.04" cy="283.536" rx="33.1667" ry="6.31746" fill="#8C588F"/>
<path fill-rule="evenodd" clip-rule="evenodd" d="M190.345 142.333C190.337 142.3 190.319 142.269 190.293 142.245C189.78 141.742 183.237 132.56 183.237 132.56C183.237 132.56 182.892 131.535 182.335 130.202C182.513 129.972 182.648 129.711 182.731 129.433C182.761 129.315 182.783 129.195 182.796 129.074C182.796 129.052 182.806 129.032 182.816 129.011C182.823 128.997 182.83 128.983 182.834 128.968C182.953 128.505 182.942 128.017 182.799 127.56C182.761 127.678 182.714 127.792 182.658 127.902C182.529 127.504 182.355 127.121 182.142 126.761C181.677 125.966 181.105 125.238 180.534 124.511L180.534 124.511C180.039 123.881 179.545 123.252 179.121 122.581C177.739 120.335 177.19 117.681 177.568 115.077V115.48C177.603 114.963 177.672 114.45 177.775 113.942C177.919 113.365 178.111 112.8 178.35 112.254C178.754 111.335 179.282 110.475 179.809 109.615L179.809 109.615C180.351 108.731 180.893 107.846 181.301 106.899C181.572 106.269 181.777 105.612 181.914 104.941C182.198 103.819 182.302 102.66 182.221 101.506C182.221 101.763 182.181 102.02 182.142 102.273L182.142 102.274L182.135 102.323C182.048 99.5494 180.919 96.9081 178.97 94.9179C176.156 92.1122 172.117 91.0221 168.253 90.448C166.629 90.26 165.078 89.6727 163.741 88.7393C162.257 87.7859 160.339 87.5569 158.603 87.7654C156.608 87.9794 154.754 88.8888 153.372 90.3318C152.581 91.1946 151.983 92.2121 151.387 93.2259C150.601 94.5653 149.818 95.8981 148.599 96.8589C147.669 97.5927 146.562 98.0464 145.453 98.5006C145.012 98.681 144.572 98.8615 144.142 99.0597C142.63 99.7568 141.201 100.768 140.716 102.265V102.32L140.695 102.374C140.311 103.726 140.786 105.096 141.258 106.454C141.404 106.875 141.55 107.295 141.669 107.712C142.196 109.541 142.231 111.471 142.258 113.361C142.296 115.671 142.331 117.985 142.293 120.298C142.276 121.207 142.245 122.127 142.176 123.032C141.361 123.277 140.569 123.592 139.81 123.976C139.038 124.474 136.152 127.567 136.152 127.567L130.508 148.967L130.584 149.052L130.508 149.342L130.794 149.278C131.593 150.132 133.979 152.565 136.555 154.082L136.796 158.279C136.796 158.279 137.086 162.489 140.988 164.228C141.077 165.688 141.356 171.613 140.065 173.961C139.17 175.676 138.75 177.596 138.846 179.524C138.846 179.524 139.297 183.085 138.784 184.958C138.484 186.21 138.461 187.511 138.718 188.772V189.896C138.718 190.993 138.722 192.791 138.726 194.825C138.737 199.816 138.75 206.229 138.718 207.205C138.653 208.828 138.718 232.835 138.718 232.835C138.718 232.835 138.398 244.833 137.372 248.083C136.345 251.333 136.604 262.094 136.604 262.094C136.604 262.094 135.96 274.913 138.236 277.442C138.236 277.503 138.23 277.566 138.224 277.628C138.219 277.68 138.213 277.732 138.212 277.783V277.944C138.184 278.918 138.374 279.953 139.217 280.271C140.939 280.927 143.216 282.896 143.646 283.459C144.077 284.023 146.58 285.428 149.845 285.052C151.89 284.824 153.949 284.73 156.006 284.772C156.006 284.772 157.294 284.539 156.878 282.95C156.609 281.959 155.603 280.435 154.887 279.434C155.018 279.468 155.145 279.495 155.266 279.519L155.39 279.543H155.486C155.539 279.546 155.592 279.546 155.645 279.543H155.714C155.778 279.548 155.842 279.548 155.906 279.543C156.771 279.461 159.994 280.951 160.569 281.935C161.144 282.92 163.173 283.668 164.702 283.856C165.611 283.965 167.905 283.781 169.83 283.535C170.799 283.435 171.76 283.262 172.702 283.015C173.157 282.844 173.253 282.298 173.122 281.682C172.968 280.901 172.547 280.197 171.931 279.687C171.373 279.294 170.636 278.258 170.092 277.411L169.947 277.182C170.554 276.607 171.471 275.208 172.196 274.101L172.197 274.101C172.619 273.457 172.977 272.911 173.17 272.685C173.811 271.936 172.137 244.567 172.137 244.567V230.846L174.703 217.86L176.497 210.988L178.037 200.613C178.037 200.613 180.73 188.495 179.9 187.306C179.9 187.282 179.211 174.805 178.488 171.808C178.174 170.472 178.254 167.465 178.44 164.539C178.836 164.148 178.97 163.566 178.784 163.043C178.733 162.867 178.666 162.697 178.584 162.533V162.376C180.072 161.697 181.626 161.172 183.223 160.811C185.789 160.312 185.148 159 185.148 159C185.148 159 185.727 157.876 186.109 157.189C186.491 156.502 186.174 150.439 186.109 149.94C186.085 149.739 185.926 148.625 185.744 147.36C186.567 146.779 187.638 146.058 188.806 145.375C191.027 144.069 190.527 142.692 190.345 142.333ZM156.871 228.973C156.871 228.973 154.946 233.847 155.717 235.094C156.488 236.341 155.59 240.972 155.59 240.972L154.946 247.844C154.946 247.844 153.151 260.591 153.792 263.588C154.295 265.939 154.481 272.961 154.539 275.89C154.495 275.907 154.452 275.928 154.412 275.952L154.326 275.996C154.622 274.844 154.498 272.514 153.027 267.825L152.903 248.459C152.903 248.459 152.676 226.089 154.457 223.588C156.237 221.086 156.867 216.838 156.867 216.838C156.867 216.838 156.481 222.966 156.23 224.589C155.979 226.212 156.871 228.973 156.871 228.973ZM153.234 277.23C153.248 277.192 153.268 277.151 153.286 277.11C153.236 277.113 153.187 277.111 153.138 277.107L153.234 277.23Z" fill="url(#paint0_linear)"/>
<path d="M171.126 287.288C170.175 287.715 165.024 288.443 163.584 288.238C162.144 288.034 160.238 287.18 159.695 286.063C159.153 284.947 156.112 283.26 155.297 283.368C154.963 283.38 154.629 283.325 154.311 283.207C153.748 283.007 153.199 282.76 152.667 282.467C152.593 281.982 152.605 281.484 152.703 281.004C152.722 280.908 152.746 280.813 152.775 280.719C152.967 280.088 153.364 279.57 153.88 279.28L153.998 279.214C154.226 279.099 154.464 279.014 154.708 278.96C157.292 278.379 167.953 279.545 167.953 279.545C167.953 279.545 168.252 280.173 168.663 280.95C169.176 281.913 169.873 283.087 170.399 283.53C170.982 284.113 171.377 284.912 171.52 285.794C171.645 286.475 171.553 287.099 171.126 287.288Z" fill="white"/>
<path opacity="0.1" d="M171.121 287.346C170.171 287.748 165.023 288.432 163.583 288.241C162.143 288.049 160.237 287.241 159.691 286.195C159.145 285.149 156.111 283.559 155.296 283.661C154.481 283.762 152.666 282.814 152.666 282.814C152.666 282.814 152.383 281.365 153.205 280.377L154.849 281.662C154.849 281.662 159.247 283.165 160.063 284.559C160.878 285.952 162.364 286.731 164.51 286.872C166.114 286.988 169.8 286.3 171.525 285.956C171.641 286.582 171.552 287.169 171.121 287.346Z" fill="black"/>
<path d="M156.481 289.45C154.576 289.404 152.67 289.514 150.776 289.78C147.742 290.217 145.426 288.587 145.022 287.915C144.618 287.243 142.528 284.973 140.922 284.177C140.137 283.804 139.953 282.587 139.988 281.45C139.988 281.39 139.988 281.322 139.988 281.263C140.018 280.542 140.105 279.827 140.247 279.128L152.818 278.798L153.906 280.615L154.074 280.893L154.737 282.002C154.737 282.002 155.037 282.487 155.431 283.195C156.097 284.388 157.027 286.149 157.276 287.314C157.673 289.179 156.481 289.45 156.481 289.45Z" fill="white"/>
<path opacity="0.1" d="M156.469 287.894C154.564 287.851 152.66 287.955 150.767 288.205C147.739 288.616 145.421 287.083 145.021 286.451C144.621 285.819 142.526 283.664 140.921 282.943C140.137 282.591 139.953 281.447 139.988 280.377C140.886 280.62 142.771 281.241 143.51 282.322C144.479 283.765 146.212 286.193 148.676 286.346C150.664 286.469 155.507 286.058 157.282 285.893C157.663 287.64 156.469 287.894 156.469 287.894Z" fill="black"/>
<path opacity="0.1" d="M154.198 280.677C154.061 281.828 153.636 282.139 153.33 282.208C153.255 282.224 153.178 282.224 153.103 282.208C153.063 282.204 153.023 282.197 152.984 282.187C152.984 282.187 142.297 284.849 140.137 282.694C140.082 282.638 140.031 282.578 139.984 282.515C140.012 281.89 140.094 281.27 140.229 280.663L152.131 280.377L153.161 281.953C153.34 281.387 153.709 280.924 154.189 280.663L154.198 280.677Z" fill="black"/>
<path opacity="0.1" d="M169.992 281.397C169.744 281.793 169.537 282.019 169.406 281.941C168.82 281.6 164.018 280.416 162.493 281.434C160.968 282.452 155.806 281.6 155.806 281.6C155.806 281.6 155.806 280.715 155.778 279.296C155.999 279.158 156.229 279.056 156.466 278.992C158.968 278.296 169.295 279.692 169.295 279.692C169.295 279.692 169.597 280.466 169.992 281.397Z" fill="black"/>
<path d="M177.566 203.307L176.112 213.79L174.422 220.737L172.002 233.87V247.772C172.002 247.772 173.574 275.432 172.968 276.187C172.363 276.943 170.065 281.244 169.46 280.993C168.855 280.742 163.896 279.857 162.321 280.612C160.745 281.367 155.415 280.739 155.415 280.739C155.415 280.739 155.293 270.005 154.688 266.974C154.083 263.943 155.777 251.061 155.777 251.061L156.382 244.117C156.382 244.117 157.23 239.441 156.503 238.178C155.777 236.915 157.592 232 157.592 232C157.592 232 156.747 229.216 156.99 227.575C157.233 225.934 157.592 219.745 157.592 219.745C157.592 219.745 156.99 224.043 155.31 226.566C153.629 229.089 153.843 251.699 153.843 251.699L153.961 271.265C156.99 281.625 153.961 280.612 153.961 280.612C153.961 280.612 142.472 283.265 140.15 281.117C137.828 278.968 138.493 265.443 138.493 265.443C138.493 265.443 138.253 254.583 139.219 251.301C140.186 248.019 140.492 235.892 140.492 235.892C140.492 235.892 140.43 211.641 140.492 210.004C140.538 208.631 140.492 196.338 140.492 192.497C140.492 191.783 140.492 191.361 140.492 191.361L141.88 187.764L158.322 185.615H166.188C166.188 185.615 178.026 188.519 179.249 189.772C179.275 189.793 179.298 189.818 179.315 189.847C180.108 191.059 177.566 203.307 177.566 203.307Z" fill="#8C588F"/>
<path opacity="0.1" d="M157.357 256.687C157.357 256.687 161.444 266.995 163.373 267.711C165.301 268.427 157.357 256.687 157.357 256.687Z" fill="black"/>
<path opacity="0.1" d="M157.357 270.901C157.357 270.901 170.118 271.748 169.991 273.613C169.864 275.478 157.357 270.901 157.357 270.901Z" fill="black"/>
<path opacity="0.1" d="M139.984 267.742C140.515 268.212 150.212 269.094 149.414 269.952C148.616 270.811 140.782 272.48 140.782 272.48L139.984 267.742Z" fill="black"/>
<path opacity="0.1" d="M139.984 253.528C139.984 253.878 141.676 264.76 142.13 265.228C142.583 265.695 146.302 266.163 146.302 266.163L139.984 253.528Z" fill="black"/>
<path d="M154.435 91.916C152.674 93.9133 151.912 96.7449 149.86 98.4337C148.614 99.451 147.037 99.9359 145.587 100.628C144.136 101.32 142.7 102.374 142.269 103.941C141.787 105.704 142.716 107.505 143.204 109.268C143.709 111.093 143.739 112.999 143.769 114.908C143.802 117.217 143.839 119.526 143.799 121.836C143.739 125.434 143.445 129.198 141.563 132.246C148.357 134.441 155.581 134.739 162.705 135.02C164.074 135.12 165.449 135.084 166.812 134.915C167.992 134.677 169.16 134.377 170.31 134.017C172.585 133.406 174.928 133.102 177.281 133.111C178.307 133.111 179.352 133.176 180.341 132.904C181.331 132.633 182.283 131.938 182.55 130.934C182.787 130.032 182.44 129.072 181.985 128.262C181.157 126.783 179.981 125.549 179.092 124.091C177.252 120.967 176.983 117.142 178.367 113.785C179.155 111.924 180.425 110.303 181.2 108.437C182.822 104.348 181.947 99.6749 178.961 96.4736C176.265 93.6725 172.395 92.5874 168.693 92.0109C167.134 91.824 165.647 91.2408 164.369 90.3153C162.949 89.3658 161.108 89.1352 159.444 89.3455C157.524 89.5638 155.746 90.4763 154.435 91.916Z" fill="#3F3D56"/>
<g opacity="0.1">
<path d="M178.324 112.665C177.643 114.366 177.351 116.211 177.472 118.053C177.547 116.736 177.835 115.443 178.324 114.228C179.108 112.291 180.377 110.605 181.151 108.664C181.785 107.044 182.051 105.289 181.929 103.541C181.86 104.767 181.597 105.971 181.151 107.105C180.377 109.045 179.108 110.728 178.324 112.665Z" fill="black"/>
<path d="M143.754 115.389C143.774 116.772 143.794 118.159 143.797 119.542C143.797 117.637 143.78 115.735 143.754 113.833C143.727 111.861 143.693 109.864 143.189 107.962C142.855 106.755 142.361 105.531 142.188 104.314C141.891 106.043 142.735 107.796 143.189 109.522C143.693 111.406 143.727 113.417 143.754 115.389Z" fill="black"/>
<path d="M180.307 132.576C179.305 132.862 178.277 132.798 177.252 132.791C174.903 132.775 172.563 133.086 170.291 133.716C169.142 134.089 167.975 134.4 166.796 134.647C165.434 134.826 164.058 134.864 162.689 134.76C155.812 134.474 148.838 134.167 142.251 132.089C142.056 132.55 141.833 132.998 141.584 133.43C148.371 135.709 155.588 136.023 162.703 136.316C164.072 136.42 165.447 136.382 166.809 136.203C167.984 135.958 169.147 135.648 170.291 135.275C172.558 134.643 174.894 134.329 177.239 134.34C178.264 134.34 179.305 134.407 180.293 134.121C181.282 133.836 182.233 133.119 182.5 132.075C182.613 131.591 182.601 131.085 182.467 130.607C182.17 131.595 181.252 132.283 180.307 132.576Z" fill="black"/>
</g>
<path d="M169.972 127.439C169.716 128.025 168.637 133.092 168.381 133.612C168.125 134.131 166.728 142.446 166.6 142.912C166.472 143.379 157.39 140.962 157.39 140.962L151.922 136.28L146.303 130.566C146.303 130.566 146.137 125.41 150.276 123.757C150.558 123.644 150.846 123.552 151.141 123.481C156.162 122.248 155.657 106.647 155.657 106.647L165.963 111.195C165.963 111.195 164.054 120.297 164.12 122.053C164.137 122.643 164.59 123.011 165.182 123.234C166.096 123.499 167.048 123.605 167.997 123.545C167.997 123.545 170.228 126.856 169.972 127.439Z" fill="#FBBEBE"/>
<path d="M187.374 143.825L188.732 144.256C188.732 144.256 189.737 146.102 187.374 147.819C185.873 148.92 184.432 150.136 183.061 151.461L176.076 154.028L174.73 148.928L181.23 142.972L187.374 143.825Z" fill="#8C588F"/>
<path opacity="0.1" d="M187.374 143.825L188.732 144.256C188.732 144.256 189.737 146.102 187.374 147.819C185.873 148.92 184.432 150.136 183.061 151.461L176.076 154.028L174.73 148.928L181.23 142.972L187.374 143.825Z" fill="black"/>
<path d="M134.684 148.606L132.087 151.71C132.087 151.71 136.771 158.331 140.375 158.743C143.978 159.156 146.302 153.709 146.302 153.709L143.183 147.71L134.684 148.606Z" fill="#8C588F"/>
<path opacity="0.1" d="M134.684 148.606L132.087 151.71C132.087 151.71 136.771 158.331 140.375 158.743C143.978 159.156 146.302 153.709 146.302 153.709L143.183 147.71L134.684 148.606Z" fill="black"/>
<ellipse opacity="0.1" cx="160.516" cy="107.437" rx="9.47619" ry="10.2659" fill="black"/>
<ellipse cx="160.516" cy="105.857" rx="9.47619" ry="10.2659" fill="#FBBEBE"/>
<path opacity="0.1" d="M179.468 191.309C177.228 191.588 175.021 192.127 172.885 192.915C169.207 194.247 140.385 192.937 139.984 192.915C139.984 192.157 139.984 191.71 139.984 191.71L141.395 187.894L158.113 185.615H166.111C166.111 185.615 178.148 188.695 179.391 190.024C179.442 190.825 179.468 191.309 179.468 191.309Z" fill="black"/>
<path opacity="0.1" d="M169.972 126.478C169.716 127.041 168.637 131.907 168.381 132.405C168.125 132.904 166.728 140.888 166.6 141.335C166.472 141.783 157.39 139.463 157.39 139.463L151.922 134.967L146.303 129.481C146.303 129.481 146.137 124.53 150.276 122.943L160.554 134.536L165.182 122.44C166.096 122.696 167.048 122.797 167.997 122.739C167.997 122.739 170.228 125.918 169.972 126.478Z" fill="black"/>
<path d="M160.716 135.635L150.402 123.571C149.175 122.775 147.637 122.66 146.309 123.264C144 124.281 141.132 125.105 140.382 125.611C139.633 126.118 136.825 129.255 136.825 129.255L145.187 151.49L141.505 166.135C141.505 166.135 142.067 173.618 140.633 176.344C139.76 178.088 139.351 180.033 139.446 181.987C139.446 181.987 139.884 185.602 139.385 187.501C139.094 188.771 139.072 190.09 139.321 191.369C139.321 191.369 168.952 192.637 172.692 191.369C174.858 190.621 177.096 190.111 179.369 189.849C179.369 189.849 178.69 177.165 178.012 174.121C177.334 171.078 178.575 159.476 178.575 159.476L177.765 147.047L182.627 134.294C182.627 134.294 179.992 126.118 177.246 125.294C177.246 125.294 172.258 124.088 171.197 123.519C170.136 122.951 167.016 122.44 167.016 122.44L165.378 122.999L160.716 135.635Z" fill="#8C588F"/>
<path opacity="0.1" d="M151.652 148.451C151.761 146.83 153.165 145.606 154.785 145.716L172.73 146.942C174.35 147.052 175.573 148.454 175.463 150.074L173.383 180.802C173.273 182.423 171.87 183.648 170.249 183.537L152.304 182.311C150.685 182.201 149.462 180.799 149.571 179.18L151.652 148.451Z" fill="black"/>
<path d="M152.403 147.7C152.513 146.079 153.916 144.855 155.536 144.965L173.481 146.191C175.101 146.301 176.324 147.703 176.214 149.323L174.134 180.051C174.024 181.672 172.621 182.897 171 182.786L153.055 181.56C151.436 181.45 150.213 180.048 150.322 178.429L152.403 147.7Z" fill="#3F3D56"/>
<path d="M153.949 147.617L174.694 149.034L172.562 180.521L151.817 179.104L153.949 147.617Z" fill="white"/>
<path opacity="0.1" d="M155.888 155.879L172.834 157.071L172.503 161.814L155.557 160.623L155.888 155.879Z" fill="black"/>
<path opacity="0.1" d="M169.531 175.737L172.22 175.92L172.053 178.392L169.364 178.209L169.531 175.737Z" fill="black"/>
<path opacity="0.1" d="M155.802 169.014L169.568 169.954L169.4 172.426L155.635 171.486L155.802 169.014Z" fill="black"/>
<path d="M157.793 146.877L172.126 147.856L171.869 151.656L157.536 150.678L157.793 146.877Z" fill="#3F3D56"/>
<path opacity="0.1" d="M157.793 146.877L172.126 147.856L171.869 151.656L157.536 150.678L157.793 146.877Z" fill="black"/>
<path opacity="0.1" d="M162.996 188.774C162.996 188.774 162.855 207.836 157.357 218.782C157.357 218.782 163.985 204.357 163.985 203.779C163.985 203.202 167.647 197.146 166.666 195.344C165.686 193.541 162.996 188.774 162.996 188.774Z" fill="black"/>
<path opacity="0.1" d="M161.622 103.022C161.434 101.373 161.839 99.711 162.767 98.3318C162.539 101.189 164.449 103.781 167.255 104.422C167.018 104.217 166.932 103.888 167.038 103.594C167.743 104.388 168.282 105.328 169.079 106.026C169.877 106.724 171.073 107.142 172.011 106.646C173.286 105.961 173.299 104.158 172.969 102.756C172.261 99.7683 170.809 97.0067 168.746 94.7258C167.703 93.3281 166.062 92.4975 164.313 92.4814C162.361 92.3309 160.334 92.5019 158.585 93.3744C157.6 93.9091 156.678 94.5505 155.836 95.2869L151.025 99.194C150.562 99.526 150.165 99.9415 149.856 100.419C149.65 100.818 149.526 101.254 149.492 101.702C149.241 104.312 150.495 106.838 152.729 108.226C152.682 106.158 153.894 104.266 155.798 103.436C156.093 103.682 156.267 104.042 156.275 104.425L157.289 102.626C157.44 102.298 157.678 102.018 157.976 101.815C158.602 101.473 159.382 101.876 159.915 102.359C160.447 102.841 160.966 103.443 161.681 103.519L161.708 100.84" fill="black"/>
<path d="M161.614 103.025C161.424 101.374 161.83 99.7104 162.759 98.3299C162.449 101.068 164.522 103.894 167.252 104.421C167.015 104.218 166.928 103.889 167.036 103.596C167.74 104.39 168.28 105.328 169.078 106.029C169.875 106.731 171.072 107.145 172.01 106.645C173.286 105.961 173.299 104.158 172.969 102.758C172.261 99.7701 170.808 97.0079 168.744 94.7266C168.104 93.9496 167.297 93.3252 166.382 92.8993C165.72 92.6556 165.025 92.5147 164.32 92.4818C162.367 92.3312 160.338 92.4989 158.589 93.3715C157.604 93.9087 156.682 94.5513 155.838 95.2878L151.025 99.1957C150.561 99.5269 150.165 99.9426 149.856 100.421C149.649 100.82 149.525 101.256 149.492 101.704C149.242 104.313 150.496 106.839 152.73 108.226C152.685 106.158 153.897 104.266 155.8 103.436C156.094 103.682 156.268 104.042 156.278 104.424L157.289 102.631C157.439 102.303 157.677 102.023 157.977 101.82C158.602 101.478 159.383 101.882 159.916 102.364C160.448 102.847 160.968 103.446 161.683 103.524L161.71 100.842" fill="#3F3D56"/>
<path d="M166.612 166.483C165.75 166.054 151.501 168.242 151.501 168.242C151.501 168.242 149.154 167.582 143.481 166.664C137.808 165.747 137.446 160.288 137.446 160.288L136.825 149.36L138.74 147.71L146.941 152.991C146.941 152.991 147.068 155.661 146.941 156.143C146.86 156.473 146.646 156.865 146.666 157.133C146.679 157.282 146.791 157.404 146.941 157.43C147.497 157.568 155.081 158.776 155.081 158.776C155.081 158.776 172.66 157.592 177.042 163.42C177.389 163.848 177.652 164.336 177.817 164.859C178.903 168.843 167.393 166.862 166.612 166.483Z" fill="#FBBEBE"/>
<path opacity="0.1" d="M177.889 164.502C177.181 164.84 176.742 165.083 176.742 165.083C176.742 165.083 170.103 164.874 166.373 163.423C162.643 161.971 158.109 162.23 158.109 162.23C158.109 162.23 142.566 159.357 144.976 155.607C144.99 155.779 145.109 155.919 145.266 155.949C145.854 156.109 153.859 157.499 153.859 157.499C153.859 157.499 172.414 156.135 177.04 162.845C177.417 163.335 177.706 163.897 177.889 164.502Z" fill="black"/>
<path d="M183.122 144.552C183.122 144.552 183.971 151.045 184.03 151.573C184.089 152.1 184.395 158.458 184.03 159.182C183.665 159.906 183.122 161.082 183.122 161.082C183.122 161.082 183.727 162.459 181.306 162.987C178.885 163.514 176.043 165.083 176.043 165.083C176.043 165.083 169.868 164.887 166.42 163.511C162.972 162.134 158.735 162.395 158.735 162.395C158.735 162.395 140.395 158.982 148.264 154.817C156.133 150.653 161.699 156.294 161.699 156.294L170.473 155.705C170.473 155.705 173.743 153.537 174.651 153.737C175.292 153.825 175.943 153.712 176.526 153.409L176.589 146.52L183.122 144.552Z" fill="#FBBEBE"/>
<path opacity="0.1" d="M138.688 130.434L137.05 130.337L132.087 152.18C132.087 152.18 137.446 150.647 139.756 152.18C142.066 153.712 146.302 154.028 146.302 154.028L144.722 136.616L138.688 130.434Z" fill="black"/>
<path d="M138.688 130.434L137.05 130.337L132.087 152.18C132.087 152.18 137.446 150.647 139.756 152.18C142.066 153.712 146.302 154.028 146.302 154.028L144.722 136.616L138.688 130.434Z" fill="#8C588F"/>
<path opacity="0.1" d="M180.078 135.075L182.425 135.666C182.425 135.666 188.421 145.271 188.89 145.808C189.36 146.345 186.654 148.298 185.54 148.298C184.425 148.298 178.96 149.01 177.372 150.653C175.785 152.297 176.446 144.026 176.446 143.837C176.446 143.649 178.417 138.43 178.417 138.43L180.078 135.075Z" fill="black"/>
<path d="M180.078 135.075L182.425 135.662C182.425 135.662 188.421 145.285 188.89 145.808C189.36 146.331 186.654 148.298 185.54 148.298C184.425 148.298 178.96 149.01 177.372 150.653C175.785 152.297 176.446 144.026 176.446 143.837C176.446 143.649 178.43 138.412 178.43 138.412L180.078 135.075Z" fill="#8C588F"/>
<g opacity="0.1">
<path d="M162.639 98.3039C162.624 98.0011 162.63 97.6975 162.656 97.3958C162.141 98.2978 161.786 99.3116 161.614 100.377V101.293C161.614 101.293 161.614 101.273 161.614 101.261V101.478C161.614 102.118 161.614 102.762 161.597 103.401H161.549V103.697C161.549 103.595 161.549 103.496 161.532 103.393C160.855 103.267 160.371 102.604 159.867 102.075C159.363 101.546 158.574 101.04 157.958 101.447C157.663 101.68 157.429 102.004 157.282 102.383L156.276 104.452C156.267 104.011 156.096 103.597 155.806 103.314C153.931 104.271 152.737 106.455 152.784 108.842C150.908 107.471 149.712 105.13 149.572 102.552C149.452 105.441 150.681 108.18 152.784 109.711C152.739 107.324 153.932 105.142 155.806 104.183C156.095 104.467 156.267 104.883 156.276 105.324L157.271 103.255C157.419 102.877 157.653 102.553 157.948 102.319C158.564 101.925 159.332 102.39 159.857 102.947C160.382 103.504 160.893 104.195 161.597 104.286C161.597 103.275 161.606 102.267 161.624 101.261C161.79 100.206 162.135 99.2008 162.639 98.3039Z" fill="black"/>
<path d="M161.495 102.28C161.512 102.012 161.539 101.743 161.573 101.49L161.61 100.401C161.508 101.02 161.47 101.65 161.495 102.28Z" fill="black"/>
<path d="M171.763 106.99C170.839 107.567 169.662 107.085 168.876 106.279C168.091 105.474 167.56 104.388 166.866 103.472C166.761 103.811 166.846 104.191 167.079 104.428C167.012 104.428 166.947 104.388 166.883 104.368C167.56 105.277 168.098 106.343 168.876 107.132C169.655 107.922 170.839 108.42 171.763 107.843C172.687 107.267 172.951 105.916 172.87 104.601C172.809 105.636 172.491 106.532 171.763 106.99Z" fill="black"/>
<path d="M166.863 104.361C164.545 103.624 162.864 101.285 162.646 98.4937C162.453 101.593 164.456 104.701 167.079 105.297C166.851 105.065 166.765 104.695 166.863 104.361Z" fill="black"/>
</g>
<path fill-rule="evenodd" clip-rule="evenodd" d="M328.863 157.515C328.863 159.472 330.19 159.659 330.19 159.659C330.19 159.659 331.624 161.373 330.866 162.633C330.109 163.893 329.792 166.985 329.792 166.985C329.792 166.985 330.048 172.922 328.91 173.741C327.772 174.561 327.52 176.52 327.52 176.52C327.52 176.52 325.436 180.248 325.499 181.129C325.563 182.01 322.594 188.008 322.594 188.008C322.594 188.008 322.368 187.878 321.998 187.667L321.836 188.008C321.836 188.008 321.863 187.865 321.89 187.615C321.506 187.393 321.001 187.083 320.436 186.694C319.833 187.141 320.506 188.199 320.506 188.199C320.358 188.289 320.218 188.391 320.085 188.503C320.093 188.519 320.102 188.535 320.111 188.55C320.117 188.559 320.123 188.569 320.129 188.578C319.982 188.668 319.841 188.768 319.708 188.878C319.456 189.196 319.318 189.582 319.624 189.954C320.318 190.777 319.88 194.532 319.88 194.532L317.984 197.669C317.984 197.669 318.106 199.69 318.106 202.421C318.112 206.668 317.857 212.663 316.469 215.394L316.658 237.806C316.658 237.806 315.597 238.191 313.964 238.611C313.998 238.857 314.028 239.106 314.059 239.345C314.146 239.943 314.193 240.547 314.2 241.151C314.139 241.848 314.2 243.988 314.2 243.988L314.516 250.43C314.311 251.105 314.204 251.806 314.2 252.512C314.267 253.332 315.463 265.075 315.463 265.075C315.463 265.075 317.55 272.07 316.853 272.586C316.156 273.101 317.863 279.414 317.863 279.414C317.863 279.414 317.641 279.414 317.325 279.424H317.826H317.924C317.863 282.011 322.22 284.982 322.22 284.982C326.853 286.712 327.537 288.651 327.574 289.536C327.587 289.701 327.571 289.868 327.526 290.027C327.526 290.027 326.597 290.188 325.207 290.369C321.654 290.819 315.102 291.434 313.375 290.027C312.031 288.903 310.297 288.373 308.564 288.559C308.526 288.562 308.489 288.568 308.453 288.576C308.453 288.576 303.907 288.699 303.15 287.19C302.833 286.562 302.914 285.343 303.109 284.145C303.31 283.018 303.576 281.905 303.907 280.81C304.217 280.472 304.217 278.164 304.217 278.164C299.547 271.784 303.523 269.199 303.523 269.199C303.523 269.199 301.439 259.159 301.062 255.438C300.796 252.84 300.47 245.845 300.294 241.858C300.274 241.594 300.264 241.348 300.264 241.12C299.47 241.152 298.684 241.168 297.907 241.168C295.782 241.165 293.659 241.002 291.557 240.68C291.493 240.922 291.433 241.165 291.382 241.411C291.098 243.06 291.02 244.739 291.15 246.409C291.274 248.808 291.15 264.905 291.15 264.905C291.15 264.905 288.436 269.206 286.918 270.708C285.399 272.21 290.012 274.941 290.012 274.941C290.705 278.854 286.537 283.275 286.537 283.275L286.641 283.534C287.099 284.698 288.928 289.413 288.874 290.406C288.869 290.92 289.072 291.414 289.436 291.772C289.625 291.977 289.838 292.157 290.072 292.308C290.072 292.308 285.561 293.967 281.894 294.469C281.514 294.52 281.126 294.557 280.79 294.581C278.783 294.714 277.733 293.489 277.19 292.301C276.894 291.644 276.702 290.943 276.621 290.225L277.116 284.787L277.147 284.446C276.786 283.828 274.359 279.601 273.719 278.024C273.15 276.626 275.341 275.559 276.809 274.844C277.13 274.688 277.416 274.548 277.632 274.426C278.834 273.743 277.571 269.647 277.571 269.647C277.571 269.647 276.557 266.048 275.359 262.764C274.16 259.48 276.685 243.135 276.685 243.135C276.685 243.135 276.813 240.243 277.13 239.219C277.284 238.488 277.315 237.735 277.221 236.993L277.13 236.945L277.16 236.392C277.13 236.263 277.13 236.187 277.13 236.187L277.254 233.856C277.254 233.856 277.568 207.399 276.685 205.381C275.803 203.363 275.11 193.074 275.611 191.493C275.698 190.898 275.719 190.294 275.672 189.694L274.918 190.23C274.746 190.188 274.58 190.127 274.423 190.046L274.16 190.23C270.497 189.411 261.531 173.441 261.531 173.441C261.531 173.441 258.817 167.194 258.942 166.497C259.066 165.801 258.436 161.257 258.436 161.257L259.571 151.016L265.756 138.138C266.591 136.335 267.309 134.478 267.908 132.581C268.978 129.235 273.968 125.954 273.968 125.954C273.968 125.954 279.083 122.67 281.103 122.797C283.123 122.923 285.776 119.892 285.776 119.892C286.648 117.669 287.561 116.887 288.301 116.703V116.672L288.332 116.696C288.473 116.664 288.618 116.651 288.763 116.659C289.191 116.647 289.602 116.833 289.88 117.164C289.971 116.154 289.983 115.138 289.918 114.126C289.915 114.075 289.911 114.025 289.907 113.974C289.9 113.892 289.894 113.81 289.894 113.73C286.689 111.636 284.712 108.07 284.615 104.205V103.925V103.823C284.262 103.439 283.853 103.111 283.445 102.783C282.944 102.381 282.444 101.979 282.049 101.477C281.935 101.332 281.832 101.18 281.739 101.02C281.726 100.998 281.714 100.975 281.702 100.953C281.69 100.931 281.679 100.909 281.665 100.887C281.605 100.781 281.544 100.665 281.493 100.545L281.492 100.541C281.466 100.487 281.462 100.478 281.419 100.368C281.376 100.255 281.322 100.091 281.301 100.026C281.295 100.004 281.285 99.9825 281.276 99.9609C281.258 99.9192 281.241 99.8779 281.241 99.8352C281.2 99.6884 281.16 99.4938 281.14 99.3846C281.131 99.3389 281.125 99.2844 281.119 99.2311C281.111 99.1568 281.103 99.0849 281.089 99.0432C281.077 99.0057 281.077 98.9794 281.076 98.9471C281.076 98.9178 281.075 98.8836 281.066 98.8315C281.046 98.7223 281.046 98.6062 281.046 98.4901V98.3263V97.9473C281.063 97.5955 281.105 97.2453 281.17 96.8993C281.483 95.3153 282.237 93.861 282.985 92.4306C283.447 91.5589 283.903 90.6884 284.352 89.819C284.904 88.7641 285.493 87.6751 286.476 86.9923C287.584 86.236 288.938 86.1668 290.305 86.0969C291.117 86.0555 291.933 86.0138 292.705 85.8282C293.248 85.6997 293.767 85.4992 294.287 85.2984C294.693 85.1417 295.099 84.9848 295.517 84.8621C297.415 84.3056 299.448 84.4644 301.241 85.3093C301.241 85.3476 301.765 85.6911 302.282 86.0293C302.73 86.323 303.173 86.6128 303.261 86.6953C303.792 87.2379 304.274 87.8274 304.702 88.4568C305.482 89.4643 306.492 89.5198 307.638 89.5827C307.863 89.595 308.093 89.6076 308.328 89.6278C309.591 89.72 311.028 89.9316 311.719 90.9933C312.19 91.7171 312.17 92.6627 311.968 93.5025C311.877 93.8793 311.755 94.2479 311.632 94.6162C311.482 95.0688 311.331 95.521 311.24 95.9878C311.21 96.1516 311.187 96.3258 311.166 96.493C311.146 96.5886 311.146 96.6842 311.146 96.7798C311.102 97.4958 311.157 98.2186 311.213 98.9422C311.246 99.3675 311.278 99.793 311.291 100.218C311.341 101.627 311.065 103.181 309.995 104.106C309.863 104.218 309.72 104.321 309.577 104.424C309.26 104.651 308.944 104.878 308.749 105.212C308.613 105.444 308.551 105.707 308.489 105.972C308.44 106.178 308.392 106.385 308.308 106.578C308.178 106.866 307.933 107.085 307.634 107.178C307.623 107.219 307.612 107.26 307.601 107.3C307.576 107.393 307.551 107.484 307.523 107.574C306.635 110.271 304.816 112.552 302.402 113.999V114.368C302.456 115.512 302.621 116.775 302.793 117.877C302.793 117.877 304.436 117.888 304.813 118.386C304.982 118.546 305.167 118.688 305.365 118.809C307.53 120.274 315.17 124.766 315.17 124.766C315.17 124.766 319.385 126.426 320.399 128.846C320.491 129.067 320.581 129.282 320.668 129.491C321.536 131.568 322.145 133.026 322.607 133.656C323.116 134.349 323.365 137.568 323.365 137.568C323.365 137.568 324.823 143.502 325.957 144.512C327.092 145.523 327.914 151.896 327.914 151.896C327.914 151.896 328.863 155.559 328.863 157.515ZM273.426 158.458L273.369 157.027L272.847 157.515C272.847 157.515 273.089 157.908 273.426 158.458Z" fill="url(#paint1_linear)"/>
<path d="M323.19 187.081L322.457 190.353C322.457 190.353 316.585 187.205 315.53 183.221C314.474 179.237 317.298 177.718 317.298 177.718L322.773 180.144L323.19 187.081Z" fill="white"/>
<path opacity="0.1" d="M323.19 187.081L322.457 190.353C322.457 190.353 316.585 187.205 315.53 183.221C314.474 179.237 317.298 177.718 317.298 177.718L322.773 180.144L323.19 187.081Z" fill="black"/>
<path d="M290.024 292.395C290.024 292.395 284.86 294.337 281.31 294.582C279.425 294.71 278.435 293.528 277.925 292.388C277.648 291.76 277.467 291.091 277.389 290.406L277.857 285.17L278.102 282.385L285.644 280.377L286.713 283.723L286.813 283.974C287.239 285.094 288.962 289.633 288.91 290.581C288.902 291.077 289.092 291.554 289.436 291.903C289.611 292.091 289.808 292.257 290.024 292.395Z" fill="white"/>
<path d="M327.924 289.929C327.937 290.112 327.922 290.297 327.878 290.474C327.878 290.474 316.587 292.631 314.277 290.474C312.964 289.2 311.244 288.619 309.539 288.874C309.539 288.874 305.17 289.01 304.441 287.36C304.137 286.668 304.217 285.324 304.405 284.004C304.597 282.762 304.852 281.534 305.17 280.326L305.345 280.167L306.384 279.21L318.553 278.798H318.645C318.586 281.65 322.773 284.923 322.773 284.923C327.231 286.815 327.888 288.953 327.924 289.929Z" fill="white"/>
<path opacity="0.1" d="M327.925 289.835C327.937 290.03 327.92 290.226 327.875 290.414C327.875 290.414 316.586 292.706 314.28 290.414C312.967 289.059 311.246 288.442 309.54 288.714C309.54 288.714 305.169 288.858 304.44 287.105C304.139 286.37 304.215 284.943 304.403 283.536C306.086 283.741 308.741 284.251 309.784 285.473C311.361 287.323 314.033 289.172 315.669 289.321C316.963 289.417 324.652 289.715 327.925 289.835Z" fill="black"/>
<path opacity="0.1" d="M291.603 293.603C291.603 293.603 286.211 295.874 282.504 296.159C280.535 296.31 279.501 294.927 278.968 293.595C280.343 294.124 282.247 294.676 283.248 294.171C284.435 293.564 288.641 293.178 291 293.012C291.178 293.238 291.381 293.437 291.603 293.603Z" fill="black"/>
<path d="M299.135 131.521C294.614 129.8 288.799 124.112 290.251 121.455C290.572 120.784 290.763 120.06 290.816 119.321C290.909 118.317 290.923 117.307 290.857 116.301C290.755 114.652 290.553 113.01 290.251 111.385C290.251 111.385 304.365 111.697 303.543 113.734C303.303 114.334 303.262 115.371 303.33 116.529C303.399 117.687 303.567 119.005 303.745 120.116C303.988 121.636 304.238 122.8 304.238 122.8C304.238 122.8 303.372 123.985 302.868 124.049C302.365 124.112 305.622 133.988 299.135 131.521Z" fill="#CF6F80"/>
<path opacity="0.1" d="M288.444 284.991L288.321 285.135C283.413 278.822 277.477 286.694 277.477 286.694L277.389 286.525L277.692 282.953L287.002 280.377L288.321 284.669L288.444 284.991Z" fill="black"/>
<path opacity="0.1" d="M316.873 280.852C316.873 280.852 313.74 280.773 312.069 282.62C310.398 284.466 302.322 283.016 302.67 282.62C302.771 282.419 302.833 282.19 302.851 281.953L303.947 280.852L316.786 280.377C316.835 280.682 316.873 280.852 316.873 280.852Z" fill="black"/>
<path d="M291.57 239.833C291.352 240.407 291.186 241.001 291.075 241.609C290.803 243.272 290.728 244.965 290.85 246.649C290.971 249.072 290.85 265.311 290.85 265.311C290.85 265.311 288.275 269.641 286.837 271.168C285.398 272.695 289.766 275.436 289.766 275.436C290.417 279.386 286.472 283.845 286.472 283.845C282.462 278.687 277.612 285.115 277.612 285.115C277.612 285.115 274.975 280.269 274.318 278.538C273.66 276.807 276.892 275.613 278.028 274.907C279.164 274.2 277.97 270.06 277.97 270.06C277.97 270.06 277.013 266.429 275.873 263.116C274.734 259.803 277.13 243.315 277.13 243.315C277.13 243.315 277.254 240.383 277.55 239.362C277.698 238.625 277.727 237.867 277.638 237.119C277.618 236.866 277.595 236.659 277.579 236.513C277.563 236.368 277.55 236.305 277.55 236.305L277.595 236.222L279.223 232.996C279.223 232.996 292.351 237.801 291.57 239.833Z" fill="#8C588F"/>
<path d="M316.873 279.844C316.873 279.844 313.845 279.778 312.23 281.233C310.616 282.688 302.81 281.552 303.147 281.233C303.483 280.913 303.453 278.552 303.453 278.552C298.874 272.098 302.78 269.48 302.78 269.48C302.78 269.48 300.738 259.324 300.368 255.557C300.109 252.928 299.789 245.835 299.618 241.818C299.544 240.082 299.5 238.884 299.5 238.884L303.207 238.123L303.688 238.026L312.711 236.155C312.711 236.155 312.96 237.891 313.129 239.311C313.214 239.917 313.26 240.528 313.267 241.141C313.209 241.835 313.267 244.012 313.267 244.012L313.576 250.526C313.376 251.209 313.272 251.919 313.267 252.633C313.33 253.467 314.505 265.345 314.505 265.345C314.505 265.345 316.547 272.435 315.85 272.945C315.154 273.455 316.873 279.844 316.873 279.844Z" fill="#8C588F"/>
<path opacity="0.1" d="M302.626 110.957C302.399 111.656 302.36 112.861 302.425 114.207C298.767 116.854 294.171 116.751 290.599 113.942C290.502 112.025 290.31 110.116 290.024 108.226C290.024 108.226 303.405 108.589 302.626 110.957Z" fill="black"/>
<path d="M308.969 104.209C309.048 110.71 303.809 116.044 297.269 116.122C290.729 116.2 285.364 110.993 285.286 104.491C285.286 104.394 285.286 104.305 285.286 104.209C285.286 97.7049 290.589 92.4326 297.131 92.4326C303.673 92.4326 308.976 97.7049 308.976 104.209H308.969Z" fill="#CF6F80"/>
<path opacity="0.1" d="M299.135 129.94C294.614 128.214 288.799 122.509 290.251 119.843C290.572 119.17 290.763 118.444 290.816 117.702L297.005 122.704L300.834 125.79L303.745 118.51C303.988 120.035 304.238 121.203 304.238 121.203C304.238 121.203 303.372 122.391 302.868 122.455C302.365 122.519 305.622 132.414 299.135 129.94Z" fill="black"/>
<path d="M313.714 153.308L308.711 240.449L302.186 240.893L285.286 190.365L288.058 130.377L288.644 117.702L296.158 124.1L299.865 127.252L302.766 119.596L308.161 124.471L313.714 153.308Z" fill="#8C588F"/>
<path opacity="0.1" d="M291.569 240.512C291.349 241.145 291.182 241.802 291.069 242.472C286.352 241.629 281.771 239.969 277.478 237.547L277.389 237.493L277.419 236.878V236.557L279.064 232.996C279.064 232.996 292.359 238.269 291.569 240.512Z" fill="black"/>
<path opacity="0.1" d="M302.659 242.097C301.645 242.282 300.623 242.407 299.597 242.472C299.536 240.995 299.5 239.975 299.5 239.975L302.567 239.313L302.659 242.097Z" fill="black"/>
<path opacity="0.1" d="M315.294 239.707C312.492 240.43 308.162 241.242 304.293 240.734L304.238 238.261L314.805 236.155C314.805 236.155 315.085 238.093 315.294 239.707Z" fill="black"/>
<path opacity="0.1" d="M304.238 240.39C290.258 242.766 277.454 235.953 277.454 235.953L277.577 233.644C277.577 233.644 277.894 207.473 277.014 205.467C276.134 203.461 275.449 193.3 275.947 191.748C276.444 190.197 274.129 166.773 274.129 166.773L273.754 157.267L260.016 151.71L266.154 138.969C266.982 137.183 267.695 135.346 268.288 133.469C269.355 130.159 274.31 126.91 274.31 126.91C274.31 126.91 279.391 123.665 281.399 123.787C283.407 123.909 286.04 120.915 286.04 120.915C287.983 115.982 289.743 118.199 289.743 118.199C289.743 118.437 289.743 118.199 289.647 118.929C288.965 124.344 300.675 141.454 300.842 141.759L301.971 168.803L303.099 203.026L304.238 240.39Z" fill="black"/>
<path d="M304.238 240.39C290.261 242.766 277.457 235.953 277.457 235.953L277.583 233.644C277.583 233.644 277.896 207.473 277.017 205.467C276.137 203.461 275.452 193.29 275.953 191.725C276.454 190.16 274.126 166.759 274.126 166.759L273.748 157.253L260.016 151.696L266.152 138.955C266.979 137.17 267.692 135.334 268.286 133.459C269.353 130.159 274.324 126.907 274.324 126.907C274.324 126.907 279.403 123.661 281.408 123.784C283.412 123.906 286.058 120.915 286.058 120.915C288.004 115.982 290.148 118.199 290.148 118.199C290.148 118.437 289.944 118.539 290.053 118.929C291.553 124.181 300.703 141.454 300.87 141.759L301.998 168.803L303.103 203.043L304.238 240.39Z" fill="white"/>
<path opacity="0.1" d="M299.5 142.972C298.025 142.316 290.21 132.801 290.21 132.801V130.635C289.926 129.922 288.233 130.357 286.865 130.856L287.454 117.702L288.123 118.295C289.585 123.81 299.339 142.655 299.5 142.972Z" fill="black"/>
<path d="M301.079 142.972C299.601 142.312 291.789 132.796 291.789 132.796V130.626C291.505 129.913 289.816 130.348 288.444 130.848L289.023 117.702L289.692 118.291C291.167 123.802 300.916 142.651 301.079 142.972Z" fill="white"/>
<path opacity="0.1" d="M278.075 188.182C278.242 188.182 286.765 187.194 286.765 187.194C286.765 187.194 291.926 198.386 291.587 201.105C291.249 203.824 290.636 206.237 288.56 205.811C286.485 205.384 277.389 206.147 277.389 206.147L278.075 188.182Z" fill="black"/>
<path d="M278.075 188.183C278.245 188.183 286.766 187.194 286.766 187.194C286.766 187.194 291.923 198.411 291.588 201.102C291.252 203.792 290.634 206.238 288.561 205.81C286.489 205.383 277.389 206.147 277.389 206.147L278.075 188.183Z" fill="white"/>
<path d="M284.203 180.877C284.203 180.877 292.989 186.473 293.177 188.176C293.365 189.88 288.706 187.43 287.699 187.13C287.036 186.944 286.362 186.819 285.682 186.757L278.968 186.972L284.203 180.877Z" fill="#CF6F80"/>
<ellipse opacity="0.1" cx="297.131" cy="141.393" rx="0.789683" ry="1.57937" fill="black"/>
<ellipse cx="297.131" cy="141.393" rx="0.789683" ry="1.57937" fill="#3F3D56"/>
<ellipse opacity="0.1" cx="300.29" cy="182.456" rx="0.789683" ry="1.57937" fill="black"/>
<ellipse cx="300.29" cy="182.456" rx="0.789683" ry="1.57937" fill="#3F3D56"/>
<ellipse opacity="0.1" cx="298.71" cy="161.925" rx="0.789683" ry="1.57937" fill="black"/>
<ellipse cx="298.71" cy="161.925" rx="0.789683" ry="1.57937" fill="#3F3D56"/>
<path d="M320.805 186.565C320.805 186.565 321.41 187.512 320.805 187.937C320.2 188.362 320.864 189.453 320.864 189.453C320.864 189.453 319.356 190.373 320.02 191.206C320.684 192.04 320.263 195.782 320.263 195.782L318.448 198.934C318.448 198.934 318.557 200.955 318.563 203.685C318.563 207.946 318.324 213.935 316.996 216.665L317.173 239.068C317.173 239.068 310.819 241.493 305.5 240.752L304.711 204.803C304.711 204.803 305.862 184.418 306.286 180.507C306.534 178.477 306.635 176.43 306.588 174.384C306.588 174.384 306.408 168.265 305.799 165.428C305.799 165.428 305.142 153.121 305.076 149.714C305.047 148.085 305.129 143.331 305.221 138.81C305.323 133.867 305.438 129.205 305.438 129.205L304.238 119.295C304.238 119.295 305.438 119.172 305.799 119.673C305.961 119.83 306.138 119.972 306.325 120.094C308.4 121.556 315.717 126.049 315.717 126.049C315.717 126.049 319.767 127.73 320.736 130.138C321.706 132.546 322.38 134.254 322.85 134.94C323.32 135.626 323.576 138.851 323.576 138.851C323.576 138.851 324.97 144.785 326.058 145.79C327.146 146.795 327.929 153.175 327.929 153.175L318.314 161.065C318.314 161.065 317.469 174.189 317.288 174.697C317.107 175.204 320.805 186.565 320.805 186.565Z" fill="white"/>
<path d="M320.903 186.619C320.903 186.619 321.494 187.565 320.903 187.989C320.311 188.414 320.958 189.504 320.958 189.504C320.958 189.504 319.473 190.423 320.127 191.255C320.78 192.088 320.366 195.827 320.366 195.827L318.588 198.976C318.588 198.976 318.694 200.994 318.704 203.722C318.704 207.978 318.468 213.961 317.162 216.689L317.339 239.07C317.339 239.07 311.089 241.492 305.858 240.752L305.085 204.839C305.085 204.839 306.214 184.474 306.634 180.567C306.878 178.539 306.977 176.494 306.928 174.45C306.928 174.45 306.75 168.337 306.155 165.503C306.155 165.503 305.509 153.207 305.441 149.804C305.412 148.177 305.493 143.427 305.583 138.911C305.683 133.973 305.797 129.315 305.797 129.315L304.238 119.282C304.238 119.282 305.797 119.282 306.155 119.792C306.313 119.952 306.487 120.093 306.673 120.214C308.71 121.674 315.907 126.163 315.907 126.163C315.907 126.163 319.881 127.842 320.851 130.248C321.821 132.653 322.468 134.36 322.93 135.045C323.392 135.73 323.644 138.952 323.644 138.952C323.644 138.952 325.015 144.88 326.086 145.884C327.156 146.888 327.929 153.262 327.929 153.262L318.471 161.144C318.471 161.144 317.64 174.255 317.459 174.762C317.278 175.269 320.903 186.619 320.903 186.619Z" fill="white"/>
<path opacity="0.1" d="M309.272 132.034L310.138 134.794L305.596 139.813C305.697 134.647 305.812 129.775 305.812 129.775L304.238 119.282C304.238 119.282 305.812 119.282 306.174 119.816C306.334 119.983 306.509 120.131 306.697 120.257L310.556 132.478L309.272 132.034Z" fill="black"/>
<path d="M307.675 130.459L308.537 133.216L304.015 138.234C304.113 133.069 304.23 128.198 304.23 128.198L302.659 117.702C302.659 117.702 304.23 117.702 304.588 118.236C304.747 118.402 304.922 118.55 305.108 118.677L308.976 130.908L307.675 130.459Z" fill="white"/>
<path opacity="0.1" d="M308.969 104.053C308.971 105.276 308.774 106.492 308.388 107.656C308.256 107.677 308.121 107.646 308.014 107.567C307.92 104.511 306.39 101.639 304.504 99.197C303.973 98.4605 303.331 97.8078 302.6 97.2614C301.86 96.7164 300.939 96.461 300.018 96.5449C298.979 96.6841 298.062 97.3768 297.013 97.4651C295.629 97.5772 294.389 96.6366 293.015 96.5924C291.885 96.6016 290.813 97.0894 290.076 97.9303C289.354 98.7664 288.817 99.7415 288.501 100.793C287.957 102.388 287.661 104.055 287.622 105.737C287.605 106.688 287.511 107.88 286.611 108.226C286.749 106.813 286.276 105.409 285.306 104.355L285.286 104.331C285.286 104.236 285.286 104.148 285.286 104.053C285.286 97.6352 290.589 92.4326 297.131 92.4326C303.673 92.4326 308.976 97.6352 308.976 104.053H308.969Z" fill="black"/>
<path d="M302.669 86.8985C300.855 86.0439 298.791 85.8822 296.866 86.4439C295.899 86.7306 294.987 87.1956 294.006 87.4299C291.911 87.9368 289.467 87.3879 287.669 88.6151C286.67 89.3143 286.07 90.4191 285.511 91.4959L284.114 94.1565C283.353 95.6144 282.585 97.0968 282.267 98.7016C281.949 100.306 282.141 102.103 283.158 103.397C283.894 104.334 284.991 104.925 285.794 105.809C286.769 106.9 287.245 108.348 287.107 109.805C288.015 109.456 288.105 108.222 288.126 107.243C288.165 105.511 288.464 103.795 289.013 102.152C289.332 101.07 289.873 100.066 290.602 99.205C291.345 98.3382 292.426 97.8348 293.566 97.824C294.963 97.873 296.217 98.8414 297.599 98.7226C298.647 98.6351 299.576 97.9219 300.63 97.7786C301.56 97.6905 302.489 97.9536 303.235 98.5163C303.973 99.0771 304.62 99.7494 305.152 100.509C307.058 103.026 308.605 105.97 308.696 109.127C309.091 109.414 309.66 109.036 309.855 108.589C310.051 108.141 310.058 107.617 310.306 107.19C310.592 106.697 311.14 106.432 311.57 106.061C312.659 105.121 312.931 103.537 312.889 102.1C312.848 100.663 312.568 99.205 312.841 97.7926C313.005 96.929 313.375 96.1144 313.577 95.2578C313.78 94.4013 313.804 93.4398 313.326 92.7021C312.628 91.6218 311.158 91.405 309.876 91.3036C308.42 91.1778 307.118 91.3386 306.189 90.1114C305.752 89.4719 305.261 88.8707 304.722 88.3144C304.53 88.1291 302.669 86.9754 302.669 86.8985Z" fill="#512E4E"/>
<path opacity="0.1" d="M264.794 158.856L261.166 152.448L260.016 162.336C260.016 162.336 260.655 166.729 260.527 167.403C260.398 168.076 263.147 174.115 263.147 174.115C263.147 174.115 272.227 189.56 275.935 190.353L288.444 181.806L285.122 177.778C285.122 177.778 283.972 177.35 283.684 177.778C283.684 177.778 277.512 167.645 276.876 166.915C276.24 166.185 276.362 164.715 276.362 164.715C276.362 164.715 275.403 163.74 275.723 162.824C276.042 161.908 273.888 158.736 273.888 158.736L275.869 156.968L264.794 158.856Z" fill="black"/>
<path d="M262.124 150.869L261.165 151.618L260.016 161.723C260.016 161.723 260.655 166.212 260.526 166.9C260.398 167.588 263.148 173.759 263.148 173.759C263.148 173.759 272.218 189.543 275.923 190.353L288.444 181.619L285.121 177.503C285.121 177.503 283.972 177.065 283.684 177.503C283.684 177.503 277.52 167.148 276.881 166.402C276.242 165.656 276.371 164.154 276.371 164.154C276.371 164.154 275.413 163.157 275.732 162.221C276.051 161.285 273.878 158.044 273.878 158.044L275.857 156.237L262.124 150.869Z" fill="white"/>
<path opacity="0.1" d="M319.166 191.994C319.84 192.865 319.415 196.779 319.415 196.779L317.556 200.051C317.556 200.051 317.667 202.165 317.674 205.018L314.548 206.057C313.974 206.247 313.348 206.131 312.869 205.744C312.391 205.357 312.117 204.747 312.136 204.108L312.678 185.615L319.971 188.579C319.351 189.038 320.032 190.163 320.032 190.163C320.032 190.163 318.486 191.123 319.166 191.994Z" fill="black"/>
<path d="M319.165 191.993C319.84 192.859 319.415 196.769 319.415 196.769L317.56 200.042C317.56 200.042 317.672 202.152 317.682 205.002L314.496 206.058C313.934 206.245 313.323 206.132 312.854 205.754C312.385 205.377 312.118 204.781 312.136 204.157L312.679 185.615L319.974 188.584C319.351 189.042 320.032 190.166 320.032 190.166C320.032 190.166 318.484 191.122 319.165 191.993Z" fill="white"/>
<path d="M321.611 182.41C321.611 182.41 321.075 186.04 319.733 186.253C318.391 186.465 317.789 192.125 316.451 191.927C315.113 191.73 315.999 186.663 316.046 185.681C316.094 184.699 314.588 180.632 315.711 179.708C316.834 178.784 320.408 179.708 320.408 179.708L321.611 182.41Z" fill="#CF6F80"/>
<path opacity="0.1" d="M324.407 158.861L326.588 154.028C326.588 154.028 327.459 157.711 327.459 159.679C327.459 161.646 328.674 161.84 328.674 161.84C328.674 161.84 330.005 163.566 329.304 164.826C328.602 166.086 328.322 169.206 328.322 169.206C328.322 169.206 328.551 175.175 327.51 176C326.468 176.825 326.235 178.796 326.235 178.796C326.235 178.796 324.325 182.541 324.385 183.432C324.444 184.323 321.722 190.353 321.722 190.353C321.722 190.353 323.053 182.859 315.295 179.621C315.295 179.621 315.236 177.08 315.815 176.383C316.394 175.686 317.297 175.347 316.731 171.84C316.164 168.333 316.567 164.104 316.567 163.258C316.567 162.413 318.304 157.142 318.304 157.142L324.407 158.861Z" fill="black"/>
<path d="M326.255 152.448L328.164 153.126C328.164 153.126 329.037 156.741 329.037 158.672C329.037 160.602 330.253 160.792 330.253 160.792C330.253 160.792 331.585 162.486 330.883 163.722C330.18 164.959 329.897 168.021 329.897 168.021C329.897 168.021 330.13 173.879 329.087 174.688C328.045 175.498 327.827 177.432 327.827 177.432C327.827 177.432 325.915 181.108 325.975 181.982C326.035 182.856 323.307 188.774 323.307 188.774C323.307 188.774 324.639 181.419 316.875 178.242C316.875 178.242 316.818 175.749 317.397 175.064C317.977 174.38 318.881 174.048 318.314 170.606C317.747 167.164 318.15 163.014 318.15 162.184C318.15 161.355 319.889 156.182 319.889 156.182L326.255 152.448Z" fill="white"/>
<path opacity="0.1" d="M280.548 276.893C280.548 276.893 284.11 274.562 286.447 276.256C288.785 277.949 280.548 276.893 280.548 276.893Z" fill="black"/>
<path opacity="0.1" d="M305.817 270.92C305.817 270.92 308.972 270.532 311.621 273.255C314.27 275.977 305.817 270.92 305.817 270.92Z" fill="black"/>
<g opacity="0.1">
<path d="M311.472 103.7C311.045 104.059 310.497 104.312 310.212 104.785C309.969 105.192 309.962 105.696 309.768 106.129C309.573 106.563 309.007 106.922 308.612 106.647C308.521 103.623 306.984 100.783 305.092 98.3637C304.563 97.6345 303.92 96.9895 303.186 96.4516C302.444 95.9097 301.519 95.6557 300.593 95.7392C299.552 95.877 298.636 96.5625 297.584 96.6499C296.195 96.7608 294.949 95.83 293.571 95.7863C292.438 95.7946 291.365 96.2775 290.628 97.1103C289.903 97.9377 289.365 98.9026 289.048 99.943C288.503 101.522 288.206 103.171 288.167 104.836C288.146 105.773 288.056 106.943 287.16 107.292C287.181 107.542 287.181 107.792 287.16 108.041C288.066 107.705 288.156 106.519 288.177 105.578C288.216 103.914 288.513 102.265 289.059 100.686C289.376 99.6452 289.914 98.6803 290.638 97.8529C291.376 97.0203 292.449 96.5365 293.582 96.5256C294.97 96.5726 296.22 97.5034 297.594 97.3892C298.636 97.3052 299.559 96.6197 300.604 96.4819C301.529 96.3973 302.454 96.6502 303.197 97.1909C303.931 97.73 304.573 98.3762 305.102 99.1063C306.994 101.526 308.532 104.355 308.622 107.39C309.018 107.665 309.584 107.302 309.778 106.872C309.972 106.442 309.979 105.938 310.222 105.528C310.507 105.054 311.055 104.799 311.482 104.443C312.565 103.539 312.836 102.016 312.794 100.635C312.794 100.592 312.794 100.551 312.794 100.508C312.725 101.711 312.395 102.93 311.472 103.7Z" fill="black"/>
<path d="M285.845 103.465C285.05 102.614 283.96 102.043 283.227 101.143C282.609 100.348 282.256 99.3884 282.217 98.3938C282.108 99.6374 282.467 100.877 283.227 101.885C283.96 102.786 285.05 103.354 285.845 104.204C286.612 105.035 287.074 106.089 287.157 107.201C287.262 105.835 286.788 104.486 285.845 103.465Z" fill="black"/>
<path d="M313.468 93.3163C313.263 94.1396 312.899 94.9225 312.732 95.7525C312.632 96.3138 312.596 96.884 312.624 97.4529C312.636 97.1315 312.672 96.8114 312.732 96.4952C312.899 95.6652 313.263 94.8822 313.468 94.0589C313.585 93.6045 313.624 93.1344 313.582 92.6677C313.56 92.8862 313.522 93.103 313.468 93.3163Z" fill="black"/>
</g>
<ellipse opacity="0.1" cx="46.8016" cy="283.536" rx="33.1667" ry="6.31746" fill="#8C588F"/>
<rect x="45.2222" y="180.877" width="1.57937" height="47.381" fill="#535461"/>
<path d="M61.0096 228.417L60.876 230.62L60.6924 233.738L60.6155 235.033L60.4285 238.15L60.3484 239.446L60.1647 242.563L58.0507 277.917C57.8636 281.075 55.3398 283.536 52.2897 283.536H41.3121C38.2528 283.537 35.7247 281.061 35.5511 277.893L33.4371 242.539L33.2534 239.422L33.1766 238.126L32.9862 235.009L32.9094 233.713L32.7257 230.596L32.5921 228.393C32.5454 227.54 32.8386 226.704 33.4031 226.081C33.9675 225.459 34.7537 225.103 35.5778 225.099H58.0273C58.8551 225.104 59.6443 225.463 60.2088 226.091C60.7733 226.719 61.063 227.561 61.0096 228.417Z" fill="#3F3D56"/>
<path d="M61.0159 231.417L60.827 234.575H32.7762L32.5873 231.417H61.0159Z" fill="#9D9CB5"/>
<path d="M61.0159 234.575L60.8269 237.734H32.7798L32.5873 234.575H61.0159Z" fill="#9D9CB5"/>
<path d="M61.0159 239.313L60.8232 242.472H32.7835L32.5873 239.313H61.0159Z" fill="#9D9CB5"/>
<path d="M28.8916 198.449C41.5356 207.611 46.8016 221.94 46.8016 221.94C46.8016 221.94 31.5679 221.417 18.9204 212.255C6.27295 203.092 1 188.774 1 188.774C1 188.774 16.2337 189.287 28.8916 198.449Z" fill="#8C588F"/>
<path d="M1 188.774C1 188.774 16.8167 197.563 21.8904 204.84C26.964 212.118 46.8016 221.94 46.8016 221.94" stroke="#535461" stroke-width="2"/>
<path d="M35.9553 179.632C42.4974 184.427 45.2222 191.933 45.2222 191.933C45.2222 191.933 37.3243 191.659 30.7986 186.864C24.273 182.068 21.5317 174.56 21.5317 174.56C21.5317 174.56 29.4165 174.833 35.9553 179.632Z" fill="#8C588F"/>
<path d="M21.5317 174.56C21.5317 174.56 29.7127 179.165 32.3387 182.976C34.9648 186.787 45.2222 191.933 45.2222 191.933" stroke="#535461" stroke-width="2"/>
<path d="M56.3145 192.347C48.4627 201.067 46.8016 212.464 46.8016 212.464C46.8016 212.464 57.8724 209.718 65.7173 200.994C73.5621 192.27 75.2301 180.877 75.2301 180.877C75.2301 180.877 64.1662 183.626 56.3145 192.347Z" fill="#8C588F"/>
<path d="M75.2301 180.877C75.2301 180.877 65.0044 189.817 62.405 195.977C59.8055 202.137 46.8016 212.464 46.8016 212.464" stroke="#535461" stroke-width="2"/>
<defs>
<linearGradient id="paint0_linear" x1="190.519" y1="285.113" x2="190.519" y2="87.7107" gradientUnits="userSpaceOnUse">
<stop stop-color="#808080" stop-opacity="0.25"/>
<stop offset="0.54" stop-color="#808080" stop-opacity="0.12"/>
<stop offset="1" stop-color="#808080" stop-opacity="0.1"/>
</linearGradient>
<linearGradient id="paint1_linear" x1="331.073" y1="294.574" x2="331.073" y2="84.507" gradientUnits="userSpaceOnUse">
<stop stop-color="#808080" stop-opacity="0.25"/>
<stop offset="0.54" stop-color="#808080" stop-opacity="0.12"/>
<stop offset="1" stop-color="#808080" stop-opacity="0.1"/>
</linearGradient>
</defs>
</svg>
