<svg fill="none" height="297" viewBox="0 0 399 297" width="399" xmlns="http://www.w3.org/2000/svg" xmlns:xlink="http://www.w3.org/1999/xlink"><linearGradient id="a"><stop offset="0" stop-color="#808080" stop-opacity=".25"/><stop offset=".54" stop-color="#808080" stop-opacity=".12"/><stop offset="1" stop-color="#808080" stop-opacity=".1"/></linearGradient><linearGradient id="b" gradientUnits="userSpaceOnUse" x1="190.519" x2="190.519" xlink:href="#a" y1="285.113" y2="87.7107"/><linearGradient id="c" gradientUnits="userSpaceOnUse" x1="331.073" x2="331.073" xlink:href="#a" y1="294.574" y2="84.507"/><g fill="#8c588f"><path d="m27.0063 117.702h35.5889v47.28h-32.9867c-.0842.488-.1683.974-.263 1.463h33.2497v38.122c-.0561 0-.1122-.041-.1648-.061-.9352-.362-1.8704-.746-2.8056-1.152-.1999-.089-.3963-.181-.5997-.266-.9352-.431-1.8704-.887-2.8056-1.368-.3261-.167-.6523-.341-.9714-.519-5.1919-2.824-9.9106-6.403-13.9929-10.616-.1227-.113-.235-.236-.3507-.342-.5681-.601-1.1257-1.21-1.6658-1.832-.2034-.229-.3998-.461-.5997-.683-.6383-.759-1.2555-1.545-1.8517-2.335-.0912-.119-.1754-.236-.263-.342-2.4423-3.293-4.4676-6.862-6.032-10.629-.0491-.113-.0947-.236-.1403-.342-.484-1.196-.9224-2.409-1.3011-3.647-.1613-.516-.3192-1.025-.4524-1.562-.0491-.154-.0877-.311-.1298-.465-1.9709-7.57-2.1989-15.438-2.1989-23.268 0-.912 0-1.823 0-2.735.0281-3.197.0667-6.39.1158-9.58.0187-.82.0362-1.644.0526-2.471.0491-2.094.1192-4.193.2104-6.296.021-.581.0491-1.165.0807-1.743.014-.335.0315-.67.0526-1.005.0631-1.21.1379-2.412.2244-3.606z" opacity=".1"/><path d="m61.0159 64.004h-18.9524c3.0822-5.0853 6.4483-9.9725 10.0805-14.636 2.8188-3.65 5.7875-7.2066 8.8719-10.6339z" opacity=".1"/><path d="m62.5952 64.0039v50.5401h-34.746c0-.146.0206-.296.0344-.442.0309-.399.0618-.795.0961-1.195.0344-.465.079-.931.1237-1.389.0446-.459.0893-1.015.1442-1.518.055-.504.0997-1.015.1546-1.519.055-.503.1099-1.007.1717-1.507.0619-.501.1168-1.008.1855-1.508.0515-.413.1031-.83.1615-1.247.079-.587.1614-1.174.2473-1.758 0-.09.0274-.177.0412-.264.6277-4.272 1.4808-8.5071 2.5554-12.687 1.1286-4.3841 2.5692-8.6799 4.3107-12.8538 1.8504-4.3733 4.0179-8.6022 6.4848-12.6523z" opacity=".1"/><path clip-rule="evenodd" d="m143.021 64.0954v-63.260264c-8.112-.08968-16.203.862674-24.076 2.833934-18.766 4.73696-35.6181 15.01123-50.0323 28.13323v32.2896h3.73v1.4668h-3.73v49.9733h74.1083v-49.9733h-55.1196v-1.4702zm-74.1083 100.4236v-47.517h74.1083v47.517zm0 42.279v-40.808h74.1053v32.183c-8.629-3.116-18.503-1.855-27.434.704-3.357.963-6.679 2.098-10 3.232-3.516 1.201-7.0314 2.402-10.5883 3.398-3.0775.89-6.2136 1.56-9.385 2.006l-.7761.096-.2259.024c-.3051.033-.6022.065-.9126.093-.3863.034-.7692.065-1.1487.089-.0387-.003-.0776-.003-.1163 0-.1641.021-.335.021-.506.021-.058.003-.1163.003-.1743 0-.2052.024-.4069.024-.612.024h-.0171c-.2906.027-.5846.027-.8787.027h-.3761-.8786-.6462c-.0598 0-.113.001-.1657.002-.1041.001-.2065.003-.354-.002-.0841-.002-.1677-.006-.251-.01-.1368-.007-.2728-.014-.4088-.014-.3556-.013-.7112-.034-1.0702-.061l-.6598-.049-.1101-.009-.1544-.013h-.0024l-.0025-.001h-.0028-.003-.0032c-.1796-.015-.3597-.031-.5353-.049-.5676-.055-1.1385-.117-1.7095-.199-.229-.027-.4581-.058-.6838-.096l-.3419-.048c-.5778-.086-1.1453-.186-1.7094-.296-.3837-.065-.7645-.143-1.1502-.221zm155.8823-167.9949c4.178 2.2843 8.794 3.758 13.437 3.9228l19.129 21.0914-.264.2782h-105.785v-62.83428c18.835 1.7725 37.195 8.92088 51.999 20.76158 2.219 1.7695 4.366 3.6416 6.511 5.5125v.0002c4.743 4.1361 9.479 8.2662 14.973 11.2676zm23.075 2.2053 10.219 11.2705v-14.235c-3.44.4363-6.435 1.4496-10.219 2.9508zm10.219 175.9166v.007l.321-.007zm0-50.935v50.935h-.021v31.149c-3.858-.327-7.7-.774-11.525-1.339-17.231-2.526-34.03-7.441-49.916-14.606-1.723-.772-3.433-1.573-5.129-2.405-1.13-.554-2.253-1.119-3.367-1.697-1.676-.869-3.341-1.758-4.988-2.682-7.353-4.091-14.397-8.719-21.075-13.847-.421-.318-.841-.642-1.258-.972-.834-.653-1.663-1.312-2.485-1.979-.411-.326-.824-.67-1.231-1.013l-.848-.704c-.841-.717-1.688-1.426-2.54-2.127-.79-.639-1.587-1.274-2.394-1.875v-36.838h84.981c-.058-.216-.116-.436-.181-.656.068.22.13.44.185.656zm-106.777-100.4313v49.9733h106.777v-49.9733zm0 98.9613v-47.524l106.777.006v47.518zm115.064-126.5447v15.9044l13.04-14.3827c-4.321-.7168-8.668-1.224-13.04-1.5217zm0 126.5437v-47.517h103.85v47.517zm103.484 56.181.366-54.71h-103.85v82.637c6.69.28 13.389.198 20.069-.244h.117c3.191-.206 6.367-.499 9.528-.879h.072c16.871-1.973 33.367-6.4 48.969-13.143zm19.188-98.641c.414.916.819 1.832 1.213 2.748 5.33 12.514 8.722 26.254 8.739 39.713h-20.483v-47.514h8.103c.841 1.666 1.655 3.335 2.428 5.053zm-10.531 43.931v47.06c5.768-5.554 10.647-11.913 14.155-19.181 4.222-8.756 6.154-18.23 6.314-27.883zm0-50.468v-12.366c2.666 3.987 5.118 8.115 7.344 12.366zm-70.43-68.2206c-.54-.2096-1.084-.4191-1.627-.6183-5.732-2.1284-11.589-3.8974-17.539-5.2969l-19.96 22.0051-.39.4225.257.2782h71.038c-9.894-6.8406-20.562-12.4769-31.779-16.7906zm-40.254 18.2573h74.119c10.533 7.5236 20.039 16.4022 28.274 26.4088v23.5645h-91.08-12.77v-48.6371z" fill-rule="evenodd" opacity=".1"/><path d="m62.5952 89.2737v25.2703h-34.746c0-.148.0206-.298.0344-.446.0309-.403.0618-.802.0961-1.205.0344-.47.079-.94.1237-1.403.0446-.462.0893-1.023.1442-1.531.055-.509.0997-1.024.1546-1.532.055-.509.1099-1.017.1717-1.522.0619-.504.1168-1.016.1855-1.521.0515-.417.1031-.838.1615-1.258.079-.593.1614-1.185.2473-1.774 0-.091.0274-.179.0412-.266.6277-4.3109 1.4808-8.5842 2.5554-12.8018z" opacity=".1"/><path d="m27.0063 117.702h35.5889v47.28h-32.9867c-.0842.488-.1683.974-.263 1.463h33.2497v38.122c-.0561 0-.1122-.041-.1648-.061-.9352-.362-1.8704-.746-2.8056-1.152-.1999-.089-.3963-.181-.5997-.266-.9352-.431-1.8704-.887-2.8056-1.368-.3261-.167-.6523-.341-.9714-.519-5.1919-2.824-9.9106-6.403-13.9929-10.616-.1227-.113-.235-.236-.3507-.342-.5681-.601-1.1257-1.21-1.6658-1.832-.2034-.229-.3998-.461-.5997-.683-.6383-.759-1.2555-1.545-1.8517-2.335-.0912-.119-.1754-.236-.263-.342-2.4423-3.293-4.4676-6.862-6.032-10.629-.0491-.113-.0947-.236-.1403-.342-.484-1.196-.9224-2.409-1.3011-3.647-.1613-.516-.3192-1.025-.4524-1.562-.0491-.154-.0877-.311-.1298-.465-1.9709-7.57-2.1989-15.438-2.1989-23.268 0-.912 0-1.823 0-2.735.0281-3.197.0667-6.39.1158-9.58.0187-.82.0362-1.644.0526-2.471.0491-2.094.1192-4.193.2104-6.296.021-.581.0491-1.165.0807-1.743.014-.335.0315-.67.0526-1.005.0631-1.21.1379-2.412.2244-3.606z" opacity=".1"/><path d="m95.7619 72.0678v42.4762h-25.2698v-42.4762h3.6028v-14.3813h14.7891v14.3813z" opacity=".1"/><path d="m70.4921 116.123h25.2698v47.381h-25.2698z" opacity=".1"/><path d="m70.4921 165.083h25.2698v38.717c-2.9808.873-6.0189 1.528-9.0912 1.963-.2517.037-.5001.067-.7518.094-.3709.044-.7385.084-1.1062.118l-1.1094.091h-.1126l-.4902.027h-.1689c-.1987 0-.3941.023-.5928.027h-.0166c-.2848 0-.5663.02-.8512.027h-.3643c-.2815 0-.563 0-.8511 0h-.6227-.5067c-.2153 0-.4272 0-.6425-.027-.34-.014-.6845-.034-1.0333-.061l-.6392-.047c-.265-.02-.5299-.047-.7916-.074-.5564-.049-1.1083-.113-1.6559-.192l-.6624-.094-.3312-.047c-.5531-.084-1.1029-.179-1.6559-.286-.4107-.075-.8148-.159-1.2221-.246z" opacity=".1"/><path d="m237.905 67.1626h20.5317v47.381h-20.5317z" opacity=".1"/><path d="m260.016 116.123v47.381h-107.397v-20.437h57.204v12.056h28.553v-39z" opacity=".1"/><path d="m260.016 215.702c-.113 0-.226 0-.343-.021v31.529c-3.864-.322-7.715-.772-11.552-1.351-17.282-2.554-34.132-7.523-50.068-14.766-4.601-2.103-9.107-4.395-13.52-6.876-7.37-4.139-14.431-8.82-21.126-14.005-1.687-1.306-3.348-2.641-4.984-4.005-1.135-.952-2.259-1.925-3.404-2.867-.789-.649-1.588-1.292-2.4-1.904v-37.269h85.205c-.062-.222-.117-.441-.179-.663.065.222.127.441.182.663h21.85v51.51c.113.004.226.014.339.025z" opacity=".1"/><path d="m313.714 64.0039h-14.214v-4.3664h6.369v-13.0066c.552.201 1.102.4067 1.65.6169v12.3897h6.192z" opacity=".1"/><path d="m348.457 114.542h-69.271c.007.002.014.002.021 0h-.031-12.843v-48.4086h3.641v35.7816h16.635v-21.1912h13.747v-16.7199h14.109v16.7304h13.741v21.1907h20.254z" opacity=".1"/><path clip-rule="evenodd" d="m266.333 163.957v-47.834h81.901v47.834zm104.238 18.438-.116 37.865-25.072 14.005c-15.661 6.788-32.219 11.244-49.153 13.23h-.072c-3.173.383-6.361.678-9.564.886h-.117c-6.705.445-13.429.527-20.144.245v-83.175h81.901v16.944z" fill-rule="evenodd" opacity=".1"/><path d="m381.377 165.083h17.623c-.152 9.714-1.937 19.256-5.847 28.067-3.248 7.321-7.765 13.722-13.105 19.314v-30.432h1.329z" opacity=".1"/><path d="m399 163.504h-18.952v-39.484h10.257c5.303 12.442 8.678 26.103 8.695 39.484z" opacity=".1"/><path d="m247.381 81.377h11.0556v14.2143h-11.0556z" opacity=".1"/><path d="m247.381 109.805h11.0556v3.15873h-11.0556z" opacity=".1"/><path d="m247.381 116.123h11.0556v11.0556h-11.0556z" opacity=".1"/><path d="m247.381 141.393h11.0556v14.2143h-11.0556z" opacity=".1"/><path d="m247.381 172.98h11.0556v14.2143h-11.0556z" opacity=".1"/><path d="m259.652 215.476c.12 0 .24 0 .364.023-.12 0-.24 0-.364-.02v3.303h-12.271v-14.215h12.271z" opacity=".1"/><path d="m258.437 234.575v12.635c-3.7-.347-7.385-.832-11.056-1.456v-11.179z" opacity=".1"/><path d="m152.619 161.925h48.9603v1.57937h-48.9603z" opacity=".1"/><path d="m152.619 165.083h48.9603v4.7381h-48.9603z" opacity=".1"/><path d="m152.619 182.456h48.9603v7.89683h-48.9603z" opacity=".1"/><path d="m201.579 202.988v7.897h-37.648c-1.64-1.496-3.254-3.032-4.845-4.607-1.106-1.09-2.199-2.208-3.308-3.29z" opacity=".1"/><path d="m201.579 225.099v7.897h-4.034c-4.539-2.411-8.985-5.038-13.339-7.881z" opacity=".1"/><path d="m285.286 120.861h11.0556v11.0556h-11.0556z" opacity=".1"/><path d="m76.8095 75.0596h11.0556v11.0556h-11.0556z" opacity=".1"/><path d="m76.8095 97.1707h11.0556v11.0556h-11.0556z" opacity=".1"/><path d="m76.8095 120.861h11.0556v11.0556h-11.0556z" opacity=".1"/><path d="m76.8095 142.972h11.0556v11.0556h-11.0556z" opacity=".1"/><path d="m76.8095 165.083h11.0556v11.0556h-11.0556z" opacity=".1"/><path d="m76.8095 188.774h11.0556v11.0556h-11.0556z" opacity=".1"/><path d="m323.19 120.861h11.0556v11.0556h-11.0556z" opacity=".1"/><path d="m285.286 144.552h11.0556v11.0556h-11.0556z" opacity=".1"/><path d="m323.19 144.552h11.0556v11.0556h-11.0556z" opacity=".1"/><path d="m285.286 168.242h11.0556v11.0556h-11.0556z" opacity=".1"/><path d="m323.19 168.242h11.0556v11.0556h-11.0556z" opacity=".1"/><path d="m285.286 191.933h11.0556v11.0556h-11.0556z" opacity=".1"/><path d="m323.19 191.933h11.0556v11.0556h-11.0556z" opacity=".1"/><path d="m285.286 217.202h11.0556v11.0556h-11.0556z" opacity=".1"/><path d="m323.19 217.202h11.0556v11.0556h-11.0556z" opacity=".1"/><path d="m285.286 247.21v-7.897h11.055v6.773z" opacity=".1"/><path clip-rule="evenodd" d="m29.4286 103.488v6.317h33.1666v-6.317zm3.3023 5.921h-2.7264v-5.521h2.7264zm.576 0h2.7264v-5.521h-2.7264zm6.0219 0h-2.7264v-5.521h2.7264zm.576 0h2.7264v-5.521h-2.7264zm6.0253 0h-2.7264v-5.521h2.7264zm.576 0h2.7264v-5.521h-2.7264zm6.0287 0h-2.7264v-5.521h2.7264zm.5726 0h2.7264v-5.521h-2.7264zm6.0253 0h-2.7264v-5.521h2.7264zm.5759 0h2.7264v-5.521h-2.7264z" fill-rule="evenodd" opacity=".1"/><path clip-rule="evenodd" d="m29.4286 117.702v6.318h33.1666v-6.318zm3.3023 5.922h-2.7264v-5.522h2.7264zm.576 0h2.7264v-5.522h-2.7264zm6.0219 0h-2.7264v-5.522h2.7264zm.576 0h2.7264v-5.522h-2.7264zm6.0253 0h-2.7264v-5.522h2.7264zm.576 0h2.7264v-5.522h-2.7264zm6.0287 0h-2.7264v-5.522h2.7264zm.5726 0h2.7264v-5.522h-2.7264zm6.0253 0h-2.7264v-5.522h2.7264zm.5759 0h2.7264v-5.522h-2.7264z" fill-rule="evenodd" opacity=".1"/><path clip-rule="evenodd" d="m29.4286 135.075v6.318h33.1666v-6.318zm3.3023 5.918h-2.7264v-5.525h2.7264zm.576 0h2.7264v-5.525h-2.7264zm6.0219 0h-2.7264v-5.525h2.7264zm.576 0h2.7264v-5.525h-2.7264zm6.0253 0h-2.7264v-5.525h2.7264zm.576 0h2.7264v-5.525h-2.7264zm6.0287 0h-2.7264v-5.525h2.7264zm.5726 0h2.7264v-5.525h-2.7264zm6.0253 0h-2.7264v-5.525h2.7264zm.5759 0h2.7264v-5.525h-2.7264z" fill-rule="evenodd" opacity=".1"/><path clip-rule="evenodd" d="m29.4286 150.869v6.318h33.1666v-6.318zm3.3023 5.921h-2.7264v-5.532h2.7264zm.576 0h2.7264v-5.532h-2.7264zm6.0219 0h-2.7264v-5.532h2.7264zm.576 0h2.7264v-5.532h-2.7264zm6.0253 0h-2.7264v-5.532h2.7264zm.576 0h2.7264v-5.532h-2.7264zm6.0287 0h-2.7264v-5.532h2.7264zm.5726 0h2.7264v-5.532h-2.7264zm6.0253 0h-2.7264v-5.532h2.7264zm.5759 0h2.7264v-5.532h-2.7264z" fill-rule="evenodd" opacity=".1"/><path clip-rule="evenodd" d="m29.8701 170.02c-.1574-.588-.3115-1.179-.4415-1.778h33.1666v6.317h-31.3216c-.0479-.12-.0924-.256-.1335-.389h1.4685v-5.527h-2.7385zm3.3239 4.15h2.7385v-5.528h-2.7385zm6.0487 0h-2.7385v-5.528h2.7385zm.5785 0h2.7385v-5.528h-2.7385zm6.0521 0h-2.7386v-5.528h2.7386zm.5785 0h2.7385v-5.528h-2.7385zm6.0555 0h-2.7385v-5.528h2.7385zm.5751 0h2.7385v-5.528h-2.7385zm6.0521 0h-2.7385v-5.528h2.7385zm.5785 0h2.7385v-5.528h-2.7385z" fill-rule="evenodd" opacity=".1"/><path clip-rule="evenodd" d="m37.3254 182.456c.0492.069.0964.143.1431.216.0373.059.0743.117.112.172h1.7994v2.647l.5817.775v-3.438h2.7212v5.558h-1.1191c.0268.032.0535.064.0802.096h.0001c.0818.098.165.198.2598.292h20.6915v-6.318zm8.6603 5.93h-2.7212v-5.534h2.7212zm.5748 0h2.7212v-5.534h-2.7212zm6.0173 0h-2.7212v-5.534h2.7212zm.5714 0h2.7212v-5.534h-2.7212zm6.0139 0h-2.7212v-5.534h2.7212zm.5749 0h2.7212v-5.534h-2.7212z" fill-rule="evenodd" opacity=".1"/><path d="m54.6984 201.409c.2775.167.5579.321.8383.484v-.16h2.4124v1.448c.1749.08.3408.167.5127.25v-1.698h2.4124v2.78c.0458.022.0932.04.1417.054v-3.158z" opacity=".1"/><path clip-rule="evenodd" d="m73.6508 63.8983v-1.4669l15.3198-.0068v1.4737zm164.1382 100.5967c-.052-.192-.104-.387-.161-.581.068.221.13.441.182.658z" fill-rule="evenodd" opacity=".1"/><ellipse cx="301.079" cy="289.853" opacity=".1" rx="33.1667" ry="6.31746"/><ellipse cx="151.04" cy="283.536" opacity=".1" rx="33.1667" ry="6.31746"/></g><path clip-rule="evenodd" d="m190.345 142.333c-.008-.033-.026-.064-.052-.088-.513-.503-7.056-9.685-7.056-9.685s-.345-1.025-.902-2.358c.178-.23.313-.491.396-.769.03-.118.052-.238.065-.359 0-.022.01-.042.02-.063.007-.014.014-.028.018-.043.119-.463.108-.951-.035-1.408-.038.118-.085.232-.141.342-.129-.398-.303-.781-.516-1.141-.465-.795-1.037-1.523-1.608-2.25-.495-.63-.989-1.259-1.413-1.93-1.382-2.246-1.931-4.9-1.553-7.504v.403c.035-.517.104-1.03.207-1.538.144-.577.336-1.142.575-1.688.404-.919.932-1.779 1.459-2.639.542-.884 1.084-1.769 1.492-2.716.271-.63.476-1.287.613-1.958.284-1.122.388-2.281.307-3.435 0 .257-.04.514-.079.767v.001l-.007.049c-.087-2.7736-1.216-5.4149-3.165-7.4051-2.814-2.8057-6.853-3.8958-10.717-4.4699-1.624-.188-3.175-.7753-4.512-1.7087-1.484-.9534-3.402-1.1824-5.138-.9739-1.995.214-3.849 1.1234-5.231 2.5664-.791.8628-1.389 1.8803-1.985 2.8941-.786 1.3394-1.569 2.6722-2.788 3.633-.93.7338-2.037 1.1875-3.146 1.6417-.441.1804-.881.3609-1.311.5591-1.512.6971-2.941 1.7083-3.426 3.2053v.055l-.021.054c-.384 1.352.091 2.722.563 4.08.146.421.292.841.411 1.258.527 1.829.562 3.759.589 5.649.038 2.31.073 4.624.035 6.937-.017.909-.048 1.829-.117 2.734-.815.245-1.607.56-2.366.944-.772.498-3.658 3.591-3.658 3.591l-5.644 21.4.076.085-.076.29.286-.064c.799.854 3.185 3.287 5.761 4.804l.241 4.197s.29 4.21 4.192 5.949c.089 1.46.368 7.385-.923 9.733-.895 1.715-1.315 3.635-1.219 5.563 0 0 .451 3.561-.062 5.434-.3 1.252-.323 2.553-.066 3.814v1.124c0 1.097.004 2.895.008 4.929.011 4.991.024 11.404-.008 12.38-.065 1.623 0 25.63 0 25.63s-.32 11.998-1.346 15.248c-1.027 3.25-.768 14.011-.768 14.011s-.644 12.819 1.632 15.348c0 .061-.006.124-.012.186-.005.052-.011.104-.012.155v.161c-.028.974.162 2.009 1.005 2.327 1.722.656 3.999 2.625 4.429 3.188.431.564 2.934 1.969 6.199 1.593 2.045-.228 4.104-.322 6.161-.28 0 0 1.288-.233.872-1.822-.269-.991-1.275-2.515-1.991-3.516.131.034.258.061.379.085l.124.024h.096c.053.003.106.003.159 0h.069c.064.005.128.005.192 0 .865-.082 4.088 1.408 4.663 2.392.575.985 2.604 1.733 4.133 1.921.909.109 3.203-.075 5.128-.321.969-.1 1.93-.273 2.872-.52.455-.171.551-.717.42-1.333-.154-.781-.575-1.485-1.191-1.995-.558-.393-1.295-1.429-1.839-2.276l-.145-.229c.607-.575 1.524-1.974 2.249-3.081h.001c.422-.644.78-1.19.973-1.416.641-.749-1.033-28.118-1.033-28.118v-13.721l2.566-12.986 1.794-6.872 1.54-10.375s2.693-12.118 1.863-13.307c0-.024-.689-12.501-1.412-15.498-.314-1.336-.234-4.343-.048-7.269.396-.391.53-.973.344-1.496-.051-.176-.118-.346-.2-.51v-.157c1.488-.679 3.042-1.204 4.639-1.565 2.566-.499 1.925-1.811 1.925-1.811s.579-1.124.961-1.811.065-6.75 0-7.249c-.024-.201-.183-1.315-.365-2.58.823-.581 1.894-1.302 3.062-1.985 2.221-1.306 1.721-2.683 1.539-3.042zm-33.474 86.64s-1.925 4.874-1.154 6.121-.127 5.878-.127 5.878l-.644 6.872s-1.795 12.747-1.154 15.744c.503 2.351.689 9.373.747 12.302-.044.017-.087.038-.127.062l-.086.044c.296-1.152.172-3.482-1.299-8.171l-.124-19.366s-.227-22.37 1.554-24.871c1.78-2.502 2.41-6.75 2.41-6.75s-.386 6.128-.637 7.751.641 4.384.641 4.384zm-3.637 48.257c.014-.038.034-.079.052-.12-.05.003-.099.001-.148-.003z" fill="url(#b)" fill-rule="evenodd"/><path d="m171.126 287.288c-.951.427-6.102 1.155-7.542.95-1.44-.204-3.346-1.058-3.889-2.175-.542-1.116-3.583-2.803-4.398-2.695-.334.012-.668-.043-.986-.161-.563-.2-1.112-.447-1.644-.74-.074-.485-.062-.983.036-1.463.019-.096.043-.191.072-.285.192-.631.589-1.149 1.105-1.439l.118-.066c.228-.115.466-.2.71-.254 2.584-.581 13.245.585 13.245.585s.299.628.71 1.405c.513.963 1.21 2.137 1.736 2.58.583.583.978 1.382 1.121 2.264.125.681.033 1.305-.394 1.494z" fill="#fff"/><path d="m171.121 287.346c-.95.402-6.098 1.086-7.538.895-1.44-.192-3.346-1-3.892-2.046s-3.58-2.636-4.395-2.534c-.815.101-2.63-.847-2.63-.847s-.283-1.449.539-2.437l1.644 1.285s4.398 1.503 5.214 2.897c.815 1.393 2.301 2.172 4.447 2.313 1.604.116 5.29-.572 7.015-.916.116.626.027 1.213-.404 1.39z" fill="#000" opacity=".1"/><path d="m156.481 289.45c-1.905-.046-3.811.064-5.705.33-3.034.437-5.35-1.193-5.754-1.865s-2.494-2.942-4.1-3.738c-.785-.373-.969-1.59-.934-2.727 0-.06 0-.128 0-.187.03-.721.117-1.436.259-2.135l12.571-.33 1.088 1.817.168.278.663 1.109s.3.485.694 1.193c.666 1.193 1.596 2.954 1.845 4.119.397 1.865-.795 2.136-.795 2.136z" fill="#fff"/><path d="m156.469 287.894c-1.905-.043-3.809.061-5.702.311-3.028.411-5.346-1.122-5.746-1.754s-2.495-2.787-4.1-3.508c-.784-.352-.968-1.496-.933-2.566.898.243 2.783.864 3.522 1.945.969 1.443 2.702 3.871 5.166 4.024 1.988.123 6.831-.288 8.606-.453.381 1.747-.813 2.001-.813 2.001z" fill="#000" opacity=".1"/><path d="m154.198 280.677c-.137 1.151-.562 1.462-.868 1.531-.075.016-.152.016-.227 0-.04-.004-.08-.011-.119-.021 0 0-10.687 2.662-12.847.507-.055-.056-.106-.116-.153-.179.028-.625.11-1.245.245-1.852l11.902-.286 1.03 1.576c.179-.566.548-1.029 1.028-1.29z" fill="#000" opacity=".1"/><path d="m169.992 281.397c-.248.396-.455.622-.586.544-.586-.341-5.388-1.525-6.913-.507s-6.687.166-6.687.166 0-.885-.028-2.304c.221-.138.451-.24.688-.304 2.502-.696 12.829.7 12.829.7s.302.774.697 1.705z" fill="#000" opacity=".1"/><path d="m177.566 203.307-1.454 10.483-1.69 6.947-2.42 13.133v13.902s1.572 27.66.966 28.415c-.605.756-2.903 5.057-3.508 4.806s-5.564-1.136-7.139-.381c-1.576.755-6.906.127-6.906.127s-.122-10.734-.727-13.765 1.089-15.913 1.089-15.913l.605-6.944s.848-4.676.121-5.939c-.726-1.263 1.089-6.178 1.089-6.178s-.845-2.784-.602-4.425.602-7.83.602-7.83-.602 4.298-2.282 6.821c-1.681 2.523-1.467 25.133-1.467 25.133l.118 19.566c3.029 10.36 0 9.347 0 9.347s-11.489 2.653-13.811.505c-2.322-2.149-1.657-15.674-1.657-15.674s-.24-10.86.726-14.142c.967-3.282 1.273-15.409 1.273-15.409s-.062-24.251 0-25.888c.046-1.373 0-13.666 0-17.507 0-.714 0-1.136 0-1.136l1.388-3.597 16.442-2.149h7.866s11.838 2.904 13.061 4.157c.026.021.049.046.066.075.793 1.212-1.749 13.46-1.749 13.46z" fill="#8c588f"/><path d="m157.357 256.687s4.087 10.308 6.016 11.024c1.928.716-6.016-11.024-6.016-11.024z" fill="#000" opacity=".1"/><path d="m157.357 270.901s12.761.847 12.634 2.712-12.634-2.712-12.634-2.712z" fill="#000" opacity=".1"/><path d="m139.984 267.742c.531.47 10.228 1.352 9.43 2.21-.798.859-8.632 2.528-8.632 2.528z" fill="#000" opacity=".1"/><path d="m139.984 253.528c0 .35 1.692 11.232 2.146 11.7.453.467 4.172.935 4.172.935z" fill="#000" opacity=".1"/><path d="m154.435 91.916c-1.761 1.9973-2.523 4.8289-4.575 6.5177-1.246 1.0173-2.823 1.5022-4.273 2.1943-1.451.692-2.887 1.746-3.318 3.313-.482 1.763.447 3.564.935 5.327.505 1.825.535 3.731.565 5.64.033 2.309.07 4.618.03 6.928-.06 3.598-.354 7.362-2.236 10.41 6.794 2.195 14.018 2.493 21.142 2.774 1.369.1 2.744.064 4.107-.105 1.18-.238 2.348-.538 3.498-.898 2.275-.611 4.618-.915 6.971-.906 1.026 0 2.071.065 3.06-.207.99-.271 1.942-.966 2.209-1.97.237-.902-.11-1.862-.565-2.672-.828-1.479-2.004-2.713-2.893-4.171-1.84-3.124-2.109-6.949-.725-10.306.788-1.861 2.058-3.482 2.833-5.348 1.622-4.089.747-8.7621-2.239-11.9634-2.696-2.8011-6.566-3.8862-10.268-4.4627-1.559-.1869-3.046-.7701-4.324-1.6956-1.42-.9495-3.261-1.1801-4.925-.9698-1.92.2183-3.698 1.1308-5.009 2.5705z" fill="#3f3d56"/><g fill="#000" opacity=".1"><path d="m178.324 112.665c-.681 1.701-.973 3.546-.852 5.388.075-1.317.363-2.61.852-3.825.784-1.937 2.053-3.623 2.827-5.564.634-1.62.9-3.375.778-5.123-.069 1.226-.332 2.43-.778 3.564-.774 1.94-2.043 3.623-2.827 5.56z"/><path d="m143.754 115.389c.02 1.383.04 2.77.043 4.153 0-1.905-.017-3.807-.043-5.709-.027-1.972-.061-3.969-.565-5.871-.334-1.207-.828-2.431-1.001-3.648-.297 1.729.547 3.482 1.001 5.208.504 1.884.538 3.895.565 5.867z"/><path d="m180.307 132.576c-1.002.286-2.03.222-3.055.215-2.349-.016-4.689.295-6.961.925-1.149.373-2.316.684-3.495.931-1.362.179-2.738.217-4.107.113-6.877-.286-13.851-.593-20.438-2.671-.195.461-.418.909-.667 1.341 6.787 2.279 14.004 2.593 21.119 2.886 1.369.104 2.744.066 4.106-.113 1.175-.245 2.338-.555 3.482-.928 2.267-.632 4.603-.946 6.948-.935 1.025 0 2.066.067 3.054-.219.989-.285 1.94-1.002 2.207-2.046.113-.484.101-.99-.033-1.468-.297.988-1.215 1.676-2.16 1.969z"/></g><path d="m169.972 127.439c-.256.586-1.335 5.653-1.591 6.173-.256.519-1.653 8.834-1.781 9.3-.128.467-9.21-1.95-9.21-1.95l-5.468-4.682-5.619-5.714s-.166-5.156 3.973-6.809c.282-.113.57-.205.865-.276 5.021-1.233 4.516-16.834 4.516-16.834l10.306 4.548s-1.909 9.102-1.843 10.858c.017.59.47.958 1.062 1.181.914.265 1.866.371 2.815.311 0 0 2.231 3.311 1.975 3.894z" fill="#fbbebe"/><path d="m187.374 143.825 1.358.431s1.005 1.846-1.358 3.563c-1.501 1.101-2.942 2.317-4.313 3.642l-6.985 2.567-1.346-5.1 6.5-5.956z" fill="#8c588f"/><path d="m187.374 143.825 1.358.431s1.005 1.846-1.358 3.563c-1.501 1.101-2.942 2.317-4.313 3.642l-6.985 2.567-1.346-5.1 6.5-5.956z" fill="#000" opacity=".1"/><path d="m134.684 148.606-2.597 3.104s4.684 6.621 8.288 7.033c3.603.413 5.927-5.034 5.927-5.034l-3.119-5.999z" fill="#8c588f"/><path d="m134.684 148.606-2.597 3.104s4.684 6.621 8.288 7.033c3.603.413 5.927-5.034 5.927-5.034l-3.119-5.999z" fill="#000" opacity=".1"/><ellipse cx="160.516" cy="107.437" fill="#000" opacity=".1" rx="9.47619" ry="10.2659"/><ellipse cx="160.516" cy="105.857" fill="#fbbebe" rx="9.47619" ry="10.2659"/><path d="m179.468 191.309c-2.24.279-4.447.818-6.583 1.606-3.678 1.332-32.5.022-32.901 0 0-.758 0-1.205 0-1.205l1.411-3.816 16.718-2.279h7.998s12.037 3.08 13.28 4.409c.051.801.077 1.285.077 1.285z" fill="#000" opacity=".1"/><path d="m169.972 126.478c-.256.563-1.335 5.429-1.591 5.927-.256.499-1.653 8.483-1.781 8.93-.128.448-9.21-1.872-9.21-1.872l-5.468-4.496-5.619-5.486s-.166-4.951 3.973-6.538l10.278 11.593 4.628-12.096c.914.256 1.866.357 2.815.299 0 0 2.231 3.179 1.975 3.739z" fill="#000" opacity=".1"/><path d="m160.716 135.635-10.314-12.064c-1.227-.796-2.765-.911-4.093-.307-2.309 1.017-5.177 1.841-5.927 2.347-.749.507-3.557 3.644-3.557 3.644l8.362 22.235-3.682 14.645s.562 7.483-.872 10.209c-.873 1.744-1.282 3.689-1.187 5.643 0 0 .438 3.615-.061 5.514-.291 1.27-.313 2.589-.064 3.868 0 0 29.631 1.268 33.371 0 2.166-.748 4.404-1.258 6.677-1.52 0 0-.679-12.684-1.357-15.728-.678-3.043.563-14.645.563-14.645l-.81-12.429 4.862-12.753s-2.635-8.176-5.381-9c0 0-4.988-1.206-6.049-1.775-1.061-.568-4.181-1.079-4.181-1.079l-1.638.559z" fill="#8c588f"/><path d="m151.652 148.451c.109-1.621 1.513-2.845 3.133-2.735l17.945 1.226c1.62.11 2.843 1.512 2.733 3.132l-2.08 30.728c-.11 1.621-1.513 2.846-3.134 2.735l-17.945-1.226c-1.619-.11-2.842-1.512-2.733-3.131z" fill="#000" opacity=".1"/><path d="m152.403 147.7c.11-1.621 1.513-2.845 3.133-2.735l17.945 1.226c1.62.11 2.843 1.512 2.733 3.132l-2.08 30.728c-.11 1.621-1.513 2.846-3.134 2.735l-17.945-1.226c-1.619-.11-2.842-1.512-2.733-3.131z" fill="#3f3d56"/><path d="m153.949 147.617 20.745 1.417-2.132 31.487-20.745-1.417z" fill="#fff"/><path d="m155.888 155.879 16.946 1.192-.331 4.743-16.946-1.191z" fill="#000" opacity=".1"/><path d="m169.531 175.737 2.689.183-.167 2.472-2.689-.183z" fill="#000" opacity=".1"/><path d="m155.802 169.014 13.766.94-.168 2.472-13.765-.94z" fill="#000" opacity=".1"/><path d="m157.793 146.877 14.333.979-.257 3.8-14.333-.978z" fill="#3f3d56"/><path d="m157.793 146.877 14.333.979-.257 3.8-14.333-.978z" fill="#000" opacity=".1"/><path d="m162.996 188.774s-.141 19.062-5.639 30.008c0 0 6.628-14.425 6.628-15.003 0-.577 3.662-6.633 2.681-8.435-.98-1.803-3.67-6.57-3.67-6.57z" fill="#000" opacity=".1"/><path d="m161.622 103.022c-.188-1.649.217-3.311 1.145-4.6902-.228 2.8572 1.682 5.4492 4.488 6.0902-.237-.205-.323-.534-.217-.828.705.794 1.244 1.734 2.041 2.432.798.698 1.994 1.116 2.932.62 1.275-.685 1.288-2.488.958-3.89-.708-2.9877-2.16-5.7493-4.223-8.0302-1.043-1.3977-2.684-2.2283-4.433-2.2444-1.952-.1505-3.979.0205-5.728.893-.985.5347-1.907 1.1761-2.749 1.9125l-4.811 3.9071c-.463.332-.86.7475-1.169 1.225-.206.399-.33.835-.364 1.283-.251 2.61 1.003 5.136 3.237 6.524-.047-2.068 1.165-3.96 3.069-4.79.295.246.469.606.477.989l1.014-1.799c.151-.328.389-.608.687-.811.626-.342 1.406.061 1.939.544.532.482 1.051 1.084 1.766 1.16l.027-2.679" fill="#000" opacity=".1"/><path d="m161.614 103.025c-.19-1.651.216-3.3146 1.145-4.6951-.31 2.7381 1.763 5.5641 4.493 6.0911-.237-.203-.324-.532-.216-.825.704.794 1.244 1.732 2.042 2.433.797.702 1.994 1.116 2.932.616 1.276-.684 1.289-2.487.959-3.887-.708-2.9879-2.161-5.7501-4.225-8.0314-.64-.777-1.447-1.4014-2.362-1.8273-.662-.2437-1.357-.3846-2.062-.4175-1.953-.1506-3.982.0171-5.731.8897-.985.5372-1.907 1.1798-2.751 1.9163l-4.813 3.9079c-.464.3312-.86.7469-1.169 1.2253-.207.399-.331.835-.364 1.283-.25 2.609 1.004 5.135 3.238 6.522-.045-2.068 1.167-3.96 3.07-4.79.294.246.468.606.478.988l1.011-1.793c.15-.328.388-.608.688-.811.625-.342 1.406.062 1.939.544.532.483 1.052 1.082 1.767 1.16l.027-2.682" fill="#3f3d56"/><path d="m166.612 166.483c-.862-.429-15.111 1.759-15.111 1.759s-2.347-.66-8.02-1.578c-5.673-.917-6.035-6.376-6.035-6.376l-.621-10.928 1.915-1.65 8.201 5.281s.127 2.67 0 3.152c-.081.33-.295.722-.275.99.013.149.125.271.275.297.556.138 8.14 1.346 8.14 1.346s17.579-1.184 21.961 4.644c.347.428.61.916.775 1.439 1.086 3.984-10.424 2.003-11.205 1.624z" fill="#fbbebe"/><path d="m177.889 164.502c-.708.338-1.147.581-1.147.581s-6.639-.209-10.369-1.66c-3.73-1.452-8.264-1.193-8.264-1.193s-15.543-2.873-13.133-6.623c.014.172.133.312.29.342.588.16 8.593 1.55 8.593 1.55s18.555-1.364 23.181 5.346c.377.49.666 1.052.849 1.657z" fill="#000" opacity=".1"/><path d="m183.122 144.552s.849 6.493.908 7.021c.059.527.365 6.885 0 7.609s-.908 1.9-.908 1.9.605 1.377-1.816 1.905c-2.421.527-5.263 2.096-5.263 2.096s-6.175-.196-9.623-1.572c-3.448-1.377-7.685-1.116-7.685-1.116s-18.34-3.413-10.471-7.578c7.869-4.164 13.435 1.477 13.435 1.477l8.774-.589s3.27-2.168 4.178-1.968c.641.088 1.292-.025 1.875-.328l.063-6.889z" fill="#fbbebe"/><path d="m138.688 130.434-1.638-.097-4.963 21.843s5.359-1.533 7.669 0c2.31 1.532 6.546 1.848 6.546 1.848l-1.58-17.412z" fill="#000" opacity=".1"/><path d="m138.688 130.434-1.638-.097-4.963 21.843s5.359-1.533 7.669 0c2.31 1.532 6.546 1.848 6.546 1.848l-1.58-17.412z" fill="#8c588f"/><path d="m180.078 135.075 2.347.591s5.996 9.605 6.465 10.142c.47.537-2.236 2.49-3.35 2.49-1.115 0-6.58.712-8.168 2.355-1.587 1.644-.926-6.627-.926-6.816 0-.188 1.971-5.407 1.971-5.407z" fill="#000" opacity=".1"/><path d="m180.078 135.075 2.347.587s5.996 9.623 6.465 10.146c.47.523-2.236 2.49-3.35 2.49-1.115 0-6.58.712-8.168 2.355-1.587 1.644-.926-6.627-.926-6.816 0-.188 1.984-5.425 1.984-5.425z" fill="#8c588f"/><g fill="#000" opacity=".1"><path d="m162.639 98.3039c-.015-.3028-.009-.6064.017-.9081-.515.902-.87 1.9158-1.042 2.9812v.916s0-.02 0-.032v.217c0 .64 0 1.284-.017 1.923h-.048v.296c0-.102 0-.201-.017-.304-.677-.126-1.161-.789-1.665-1.318s-1.293-1.035-1.909-.628c-.295.233-.529.557-.676.936l-1.006 2.069c-.009-.441-.18-.855-.47-1.138-1.875.957-3.069 3.141-3.022 5.528-1.876-1.371-3.072-3.712-3.212-6.29-.12 2.889 1.109 5.628 3.212 7.159-.045-2.387 1.148-4.569 3.022-5.528.289.284.461.7.47 1.141l.995-2.069c.148-.378.382-.702.677-.936.616-.394 1.384.071 1.909.628s1.036 1.248 1.74 1.339c0-1.011.009-2.019.027-3.025.166-1.055.511-2.0602 1.015-2.9571z"/><path d="m161.495 102.28c.017-.268.044-.537.078-.79l.037-1.089c-.102.619-.14 1.249-.115 1.879z"/><path d="m171.763 106.99c-.924.577-2.101.095-2.887-.711-.785-.805-1.316-1.891-2.01-2.807-.105.339-.02.719.213.956-.067 0-.132-.04-.196-.06.677.909 1.215 1.975 1.993 2.764.779.79 1.963 1.288 2.887.711.924-.576 1.188-1.927 1.107-3.242-.061 1.035-.379 1.931-1.107 2.389z"/><path d="m166.863 104.361c-2.318-.737-3.999-3.076-4.217-5.8673-.193 3.0993 1.81 6.2073 4.433 6.8033-.228-.232-.314-.602-.216-.936z"/></g><path clip-rule="evenodd" d="m328.863 157.515c0 1.957 1.327 2.144 1.327 2.144s1.434 1.714.676 2.974c-.757 1.26-1.074 4.352-1.074 4.352s.256 5.937-.882 6.756c-1.138.82-1.39 2.779-1.39 2.779s-2.084 3.728-2.021 4.609c.064.881-2.905 6.879-2.905 6.879s-.226-.13-.596-.341l-.162.341s.027-.143.054-.393c-.384-.222-.889-.532-1.454-.921-.603.447.07 1.505.07 1.505-.148.09-.288.192-.421.304.008.016.017.032.026.047.006.009.012.019.018.028-.147.09-.288.19-.421.3-.252.318-.39.704-.084 1.076.694.823.256 4.578.256 4.578l-1.896 3.137s.122 2.021.122 4.752c.006 4.247-.249 10.242-1.637 12.973l.189 22.412s-1.061.385-2.694.805c.034.246.064.495.095.734.087.598.134 1.202.141 1.806-.061.697 0 2.837 0 2.837l.316 6.442c-.205.675-.312 1.376-.316 2.082.067.82 1.263 12.563 1.263 12.563s2.087 6.995 1.39 7.511c-.697.515 1.01 6.828 1.01 6.828s-.222 0-.538.01h.501.098c-.061 2.587 4.296 5.558 4.296 5.558 4.633 1.73 5.317 3.669 5.354 4.554.013.165-.003.332-.048.491 0 0-.929.161-2.319.342-3.553.45-10.105 1.065-11.832-.342-1.344-1.124-3.078-1.654-4.811-1.468-.038.003-.075.009-.111.017 0 0-4.546.123-5.303-1.386-.317-.628-.236-1.847-.041-3.045.201-1.127.467-2.24.798-3.335.31-.338.31-2.646.31-2.646-4.67-6.38-.694-8.965-.694-8.965s-2.084-10.04-2.461-13.761c-.266-2.598-.592-9.593-.768-13.58-.02-.264-.03-.51-.03-.738-.794.032-1.58.048-2.357.048-2.125-.003-4.248-.166-6.35-.488-.064.242-.124.485-.175.731-.284 1.649-.362 3.328-.232 4.998.124 2.399 0 18.496 0 18.496s-2.714 4.301-4.232 5.803c-1.519 1.502 3.094 4.233 3.094 4.233.693 3.913-3.475 8.334-3.475 8.334l.104.259c.458 1.164 2.287 5.879 2.233 6.872-.005.514.198 1.008.562 1.366.189.205.402.385.636.536 0 0-4.511 1.659-8.178 2.161-.38.051-.768.088-1.104.112-2.007.133-3.057-1.092-3.6-2.28-.296-.657-.488-1.358-.569-2.076l.495-5.438.031-.341c-.361-.618-2.788-4.845-3.428-6.422-.569-1.398 1.622-2.465 3.09-3.18.321-.156.607-.296.823-.418 1.202-.683-.061-4.779-.061-4.779s-1.014-3.599-2.212-6.883c-1.199-3.284 1.326-19.629 1.326-19.629s.128-2.892.445-3.916c.154-.731.185-1.484.091-2.226l-.091-.048.03-.553c-.03-.129-.03-.205-.03-.205l.124-2.331s.314-26.457-.569-28.475c-.882-2.018-1.575-12.307-1.074-13.888.087-.595.108-1.199.061-1.799l-.754.536c-.172-.042-.338-.103-.495-.184l-.263.184c-3.663-.819-12.629-16.789-12.629-16.789s-2.714-6.247-2.589-6.944c.124-.696-.506-5.24-.506-5.24l1.135-10.241 6.185-12.878c.835-1.803 1.553-3.66 2.152-5.557 1.07-3.346 6.06-6.627 6.06-6.627s5.115-3.284 7.135-3.157c2.02.126 4.673-2.905 4.673-2.905.872-2.223 1.785-3.005 2.525-3.189v-.031l.031.024c.141-.032.286-.045.431-.037.428-.012.839.174 1.117.505.091-1.01.103-2.026.038-3.038-.003-.051-.007-.101-.011-.152-.007-.082-.013-.164-.013-.244-3.205-2.094-5.182-5.66-5.279-9.525v-.28-.102c-.353-.384-.762-.712-1.17-1.04-.501-.402-1.001-.804-1.396-1.306-.114-.145-.217-.297-.31-.457-.013-.022-.025-.045-.037-.067s-.023-.044-.037-.066c-.06-.106-.121-.222-.172-.342l-.001-.004c-.026-.054-.03-.063-.073-.173-.043-.113-.097-.277-.118-.342-.006-.022-.016-.0435-.025-.0651-.018-.0417-.035-.083-.035-.1257-.041-.1468-.081-.3414-.101-.4506-.009-.0457-.015-.1002-.021-.1535-.008-.0743-.016-.1462-.03-.1879-.012-.0375-.012-.0638-.013-.0961 0-.0293-.001-.0635-.01-.1156-.02-.1092-.02-.2253-.02-.3414v-.1638-.379c.017-.3518.059-.702.124-1.048.313-1.584 1.067-3.0383 1.815-4.4687.462-.8717.918-1.7422 1.367-2.6116.552-1.0549 1.141-2.1439 2.124-2.8267 1.108-.7563 2.462-.8255 3.829-.8954.812-.0414 1.628-.0831 2.4-.2687.543-.1285 1.062-.329 1.582-.5298.406-.1567.812-.3136 1.23-.4363 1.898-.5565 3.931-.3977 5.724.4472 0 .0383.524.3818 1.041.72.448.2937.891.5835.979.666.531.5426 1.013 1.1321 1.441 1.7615.78 1.0075 1.79 1.063 2.936 1.1259.225.0123.455.0249.69.0451 1.263.0922 2.7.3038 3.391 1.3655.471.7238.451 1.6694.249 2.5092-.091.3768-.213.7454-.336 1.1137-.15.4526-.301.9048-.392 1.3716-.03.1638-.053.338-.074.5052-.02.0956-.02.1912-.02.2868-.044.716.011 1.4388.067 2.1624.033.4253.065.8508.078 1.2758.05 1.409-.226 2.963-1.296 3.888-.132.112-.275.215-.418.318-.317.227-.633.454-.828.788-.136.232-.198.495-.26.76-.049.206-.097.413-.181.606-.13.288-.375.507-.674.6-.011.041-.022.082-.033.122-.025.093-.05.184-.078.274-.888 2.697-2.707 4.978-5.121 6.425v.369c.054 1.144.219 2.407.391 3.509 0 0 1.643.011 2.02.509.169.16.354.302.552.423 2.165 1.465 9.805 5.957 9.805 5.957s4.215 1.66 5.229 4.08c.092.221.182.436.269.645.868 2.077 1.477 3.535 1.939 4.165.509.693.758 3.912.758 3.912s1.458 5.934 2.592 6.944c1.135 1.011 1.957 7.384 1.957 7.384s.949 3.663.949 5.619zm-55.437.943-.057-1.431-.522.488s.242.393.579.943z" fill="url(#c)" fill-rule="evenodd"/><path d="m323.19 187.081-.733 3.272s-5.872-3.148-6.927-7.132c-1.056-3.984 1.768-5.503 1.768-5.503l5.475 2.426z" fill="#fff"/><path d="m323.19 187.081-.733 3.272s-5.872-3.148-6.927-7.132c-1.056-3.984 1.768-5.503 1.768-5.503l5.475 2.426z" fill="#000" opacity=".1"/><path d="m290.024 292.395s-5.164 1.942-8.714 2.187c-1.885.128-2.875-1.054-3.385-2.194-.277-.628-.458-1.297-.536-1.982l.468-5.236.245-2.785 7.542-2.008 1.069 3.346.1.251c.426 1.12 2.149 5.659 2.097 6.607-.008.496.182.973.526 1.322.175.188.372.354.588.492z" fill="#fff"/><path d="m327.924 289.929c.013.183-.002.368-.046.545 0 0-11.291 2.157-13.601 0-1.313-1.274-3.033-1.855-4.738-1.6 0 0-4.369.136-5.098-1.514-.304-.692-.224-2.036-.036-3.356.192-1.242.447-2.47.765-3.678l.175-.159 1.039-.957 12.169-.412h.092c-.059 2.852 4.128 6.125 4.128 6.125 4.458 1.892 5.115 4.03 5.151 5.006z" fill="#fff"/><path d="m327.925 289.835c.012.195-.005.391-.05.579 0 0-11.289 2.292-13.595 0-1.313-1.355-3.034-1.972-4.74-1.7 0 0-4.371.144-5.1-1.609-.301-.735-.225-2.162-.037-3.569 1.683.205 4.338.715 5.381 1.937 1.577 1.85 4.249 3.699 5.885 3.848 1.294.096 8.983.394 12.256.514z" fill="#000" opacity=".1"/><path d="m291.603 293.603s-5.392 2.271-9.099 2.556c-1.969.151-3.003-1.232-3.536-2.564 1.375.529 3.279 1.081 4.28.576 1.187-.607 5.393-.993 7.752-1.159.178.226.381.425.603.591z" fill="#000" opacity=".1"/><path d="m299.135 131.521c-4.521-1.721-10.336-7.409-8.884-10.066.321-.671.512-1.395.565-2.134.093-1.004.107-2.014.041-3.02-.102-1.649-.304-3.291-.606-4.916 0 0 14.114.312 13.292 2.349-.24.6-.281 1.637-.213 2.795.069 1.158.237 2.476.415 3.587.243 1.52.493 2.684.493 2.684s-.866 1.185-1.37 1.249c-.503.063 2.754 9.939-3.733 7.472z" fill="#cf6f80"/><path d="m288.444 284.991-.123.144c-4.908-6.313-10.844 1.559-10.844 1.559l-.088-.169.303-3.572 9.31-2.576 1.319 4.292z" fill="#000" opacity=".1"/><path d="m316.873 280.852s-3.133-.079-4.804 1.768c-1.671 1.846-9.747.396-9.399 0 .101-.201.163-.43.181-.667l1.096-1.101 12.839-.475c.049.305.087.475.087.475z" fill="#000" opacity=".1"/><path d="m291.57 239.833c-.218.574-.384 1.168-.495 1.776-.272 1.663-.347 3.356-.225 5.04.121 2.423 0 18.662 0 18.662s-2.575 4.33-4.013 5.857c-1.439 1.527 2.929 4.268 2.929 4.268.651 3.95-3.294 8.409-3.294 8.409-4.01-5.158-8.86 1.27-8.86 1.27s-2.637-4.846-3.294-6.577c-.658-1.731 2.574-2.925 3.71-3.631 1.136-.707-.058-4.847-.058-4.847s-.957-3.631-2.097-6.944c-1.139-3.313 1.257-19.801 1.257-19.801s.124-2.932.42-3.953c.148-.737.177-1.495.088-2.243-.02-.253-.043-.46-.059-.606-.016-.145-.029-.208-.029-.208l.045-.083 1.628-3.226s13.128 4.805 12.347 6.837z" fill="#8c588f"/><path d="m316.873 279.844s-3.028-.066-4.643 1.389c-1.614 1.455-9.42.319-9.083 0 .336-.32.306-2.681.306-2.681-4.579-6.454-.673-9.072-.673-9.072s-2.042-10.156-2.412-13.923c-.259-2.629-.579-9.722-.75-13.739-.074-1.736-.118-2.934-.118-2.934l3.707-.761.481-.097 9.023-1.871s.249 1.736.418 3.156c.085.606.131 1.217.138 1.83-.058.694 0 2.871 0 2.871l.309 6.514c-.2.683-.304 1.393-.309 2.107.063.834 1.238 12.712 1.238 12.712s2.042 7.09 1.345 7.6c-.696.51 1.023 6.899 1.023 6.899z" fill="#8c588f"/><path d="m302.626 110.957c-.227.699-.266 1.904-.201 3.25-3.658 2.647-8.254 2.544-11.826-.265-.097-1.917-.289-3.826-.575-5.716 0 0 13.381.363 12.602 2.731z" fill="#000" opacity=".1"/><path d="m308.969 104.209c.079 6.501-5.16 11.835-11.7 11.913s-11.905-5.129-11.983-11.631c0-.097 0-.186 0-.282 0-6.5041 5.303-11.7764 11.845-11.7764s11.845 5.2723 11.845 11.7764z" fill="#cf6f80"/><path d="m299.135 129.94c-4.521-1.726-10.336-7.431-8.884-10.097.321-.673.512-1.399.565-2.141l6.189 5.002 3.829 3.086 2.911-7.28c.243 1.525.493 2.693.493 2.693s-.866 1.188-1.37 1.252c-.503.064 2.754 9.959-3.733 7.485z" fill="#000" opacity=".1"/><path d="m313.714 153.308-5.003 87.141-6.525.444-16.9-50.528 2.772-59.988.586-12.675 7.514 6.398 3.707 3.152 2.901-7.656 5.395 4.875z" fill="#8c588f"/><path d="m291.569 240.512c-.22.633-.387 1.29-.5 1.96-4.717-.843-9.298-2.503-13.591-4.925l-.089-.054.03-.615v-.321l1.645-3.561s13.295 5.273 12.505 7.516z" fill="#000" opacity=".1"/><path d="m302.659 242.097c-1.014.185-2.036.31-3.062.375-.061-1.477-.097-2.497-.097-2.497l3.067-.662z" fill="#000" opacity=".1"/><path d="m315.294 239.707c-2.802.723-7.132 1.535-11.001 1.027l-.055-2.473 10.567-2.106s.28 1.938.489 3.552z" fill="#000" opacity=".1"/><path d="m304.238 240.39c-13.98 2.376-26.784-4.437-26.784-4.437l.123-2.309s.317-26.171-.563-28.177-1.565-12.167-1.067-13.719c.497-1.551-1.818-24.975-1.818-24.975l-.375-9.506-13.738-5.557 6.138-12.741c.828-1.786 1.541-3.623 2.134-5.5 1.067-3.31 6.022-6.559 6.022-6.559s5.081-3.245 7.089-3.123 4.641-2.872 4.641-2.872c1.943-4.933 3.703-2.716 3.703-2.716 0 .238 0 0-.096.73-.682 5.415 11.028 22.525 11.195 22.83l1.129 27.044 1.128 34.223z" fill="#000" opacity=".1"/><path d="m304.238 240.39c-13.977 2.376-26.781-4.437-26.781-4.437l.126-2.309s.313-26.171-.566-28.177c-.88-2.006-1.565-12.177-1.064-13.742s-1.827-24.966-1.827-24.966l-.378-9.506-13.732-5.557 6.136-12.741c.827-1.785 1.54-3.621 2.134-5.496 1.067-3.3 6.038-6.552 6.038-6.552s5.079-3.246 7.084-3.123c2.004.122 4.65-2.869 4.65-2.869 1.946-4.933 4.09-2.716 4.09-2.716 0 .238-.204.34-.095.73 1.5 5.252 10.65 22.525 10.817 22.83l1.128 27.044 1.105 34.24z" fill="#fff"/><path d="m299.5 142.972c-1.475-.656-9.29-10.171-9.29-10.171v-2.166c-.284-.713-1.977-.278-3.345.221l.589-13.154.669.593c1.462 5.515 11.216 24.36 11.377 24.677z" fill="#000" opacity=".1"/><path d="m301.079 142.972c-1.478-.66-9.29-10.176-9.29-10.176v-2.17c-.284-.713-1.973-.278-3.345.222l.579-13.146.669.589c1.475 5.511 11.224 24.36 11.387 24.681z" fill="#fff"/><path d="m278.075 188.182c.167 0 8.69-.988 8.69-.988s5.161 11.192 4.822 13.911c-.338 2.719-.951 5.132-3.027 4.706-2.075-.427-11.171.336-11.171.336z" fill="#000" opacity=".1"/><path d="m278.075 188.183c.17 0 8.691-.989 8.691-.989s5.157 11.217 4.822 13.908c-.336 2.69-.954 5.136-3.027 4.708-2.072-.427-11.172.337-11.172.337z" fill="#fff"/><path d="m284.203 180.877s8.786 5.596 8.974 7.299c.188 1.704-4.471-.746-5.478-1.046-.663-.186-1.337-.311-2.017-.373l-6.714.215z" fill="#cf6f80"/><ellipse cx="297.131" cy="141.393" fill="#000" opacity=".1" rx=".789683" ry="1.57937"/><ellipse cx="297.131" cy="141.393" fill="#3f3d56" rx=".789683" ry="1.57937"/><ellipse cx="300.29" cy="182.456" fill="#000" opacity=".1" rx=".789683" ry="1.57937"/><ellipse cx="300.29" cy="182.456" fill="#3f3d56" rx=".789683" ry="1.57937"/><ellipse cx="298.71" cy="161.925" fill="#000" opacity=".1" rx=".789683" ry="1.57937"/><ellipse cx="298.71" cy="161.925" fill="#3f3d56" rx=".789683" ry="1.57937"/><path d="m320.805 186.565s.605.947 0 1.372.059 1.516.059 1.516-1.508.92-.844 1.753c.664.834.243 4.576.243 4.576l-1.815 3.152s.109 2.021.115 4.751c0 4.261-.239 10.25-1.567 12.98l.177 22.403s-6.354 2.425-11.673 1.684l-.789-35.949s1.151-20.385 1.575-24.296c.248-2.03.349-4.077.302-6.123 0 0-.18-6.119-.789-8.956 0 0-.657-12.307-.723-15.714-.029-1.629.053-6.383.145-10.904.102-4.943.217-9.605.217-9.605l-1.2-9.91s1.2-.123 1.561.378c.162.157.339.299.526.421 2.075 1.462 9.392 5.955 9.392 5.955s4.05 1.681 5.019 4.089c.97 2.408 1.644 4.116 2.114 4.802s.726 3.911.726 3.911 1.394 5.934 2.482 6.939 1.871 7.385 1.871 7.385l-9.615 7.89s-.845 13.124-1.026 13.632c-.181.507 3.517 11.868 3.517 11.868z" fill="#fff"/><path d="m320.903 186.619s.591.946 0 1.37c-.592.425.055 1.515.055 1.515s-1.485.919-.831 1.751c.653.833.239 4.572.239 4.572l-1.778 3.149s.106 2.018.116 4.746c0 4.256-.236 10.239-1.542 12.967l.177 22.381s-6.25 2.422-11.481 1.682l-.773-35.913s1.129-20.365 1.549-24.272c.244-2.028.343-4.073.294-6.117 0 0-.178-6.113-.773-8.947 0 0-.646-12.296-.714-15.699-.029-1.627.052-6.377.142-10.893.1-4.938.214-9.596.214-9.596l-1.559-10.033s1.559 0 1.917.51c.158.16.332.301.518.422 2.037 1.46 9.234 5.949 9.234 5.949s3.974 1.679 4.944 4.085c.97 2.405 1.617 4.112 2.079 4.797s.714 3.907.714 3.907 1.371 5.928 2.442 6.932c1.07 1.004 1.843 7.378 1.843 7.378l-9.458 7.882s-.831 13.111-1.012 13.618 3.444 11.857 3.444 11.857z" fill="#fff"/><path d="m309.272 132.034.866 2.76-4.542 5.019c.101-5.166.216-10.038.216-10.038l-1.574-10.493s1.574 0 1.936.534c.16.167.335.315.523.441l3.859 12.221z" fill="#000" opacity=".1"/><path d="m307.675 130.459.862 2.757-4.522 5.018c.098-5.165.215-10.036.215-10.036l-1.571-10.496s1.571 0 1.929.534c.159.166.334.314.52.441l3.868 12.231z" fill="#fff"/><path d="m308.969 104.053c.002 1.223-.195 2.439-.581 3.603-.132.021-.267-.01-.374-.089-.094-3.056-1.624-5.928-3.51-8.37-.531-.7365-1.173-1.3892-1.904-1.9356-.74-.545-1.661-.8004-2.582-.7165-1.039.1392-1.956.8319-3.005.9202-1.384.1121-2.624-.8285-3.998-.8727-1.13.0092-2.202.497-2.939 1.3379-.722.8361-1.259 1.8112-1.575 2.8627-.544 1.595-.84 3.262-.879 4.944-.017.951-.111 2.143-1.011 2.489.138-1.413-.335-2.817-1.305-3.871l-.02-.024c0-.095 0-.183 0-.278 0-6.4178 5.303-11.6204 11.845-11.6204s11.845 5.2026 11.845 11.6204z" fill="#000" opacity=".1"/><path d="m302.669 86.8985c-1.814-.8546-3.878-1.0163-5.803-.4546-.967.2867-1.879.7517-2.86.986-2.095.5069-4.539-.042-6.337 1.1852-.999.6992-1.599 1.804-2.158 2.8808l-1.397 2.6606c-.761 1.4579-1.529 2.9403-1.847 4.5451-.318 1.6044-.126 3.4014.891 4.6954.736.937 1.833 1.528 2.636 2.412.975 1.091 1.451 2.539 1.313 3.996.908-.349.998-1.583 1.019-2.562.039-1.732.338-3.448.887-5.091.319-1.082.86-2.086 1.589-2.947.743-.8668 1.824-1.3702 2.964-1.381 1.397.049 2.651 1.0174 4.033.8986 1.048-.0875 1.977-.8007 3.031-.944.93-.0881 1.859.175 2.605.7377.738.5608 1.385 1.2331 1.917 1.9927 1.906 2.517 3.453 5.461 3.544 8.618.395.287.964-.091 1.159-.538.196-.448.203-.972.451-1.399.286-.493.834-.758 1.264-1.129 1.089-.94 1.361-2.524 1.319-3.961-.041-1.437-.321-2.895-.048-4.3074.164-.8636.534-1.6782.736-2.5348.203-.8565.227-1.818-.251-2.5557-.698-1.0803-2.168-1.2971-3.45-1.3985-1.456-.1258-2.758.035-3.687-1.1922-.437-.6395-.928-1.2407-1.467-1.797-.192-.1853-2.053-1.339-2.053-1.4159z" fill="#512e4e"/><path d="m264.794 158.856-3.628-6.408-1.15 9.888s.639 4.393.511 5.067c-.129.673 2.62 6.712 2.62 6.712s9.08 15.445 12.788 16.238l12.509-8.547-3.322-4.028s-1.15-.428-1.438 0c0 0-6.172-10.133-6.808-10.863s-.514-2.2-.514-2.2-.959-.975-.639-1.891c.319-.916-1.835-4.088-1.835-4.088l1.981-1.768z" fill="#000" opacity=".1"/><path d="m262.124 150.869-.959.749-1.149 10.105s.639 4.489.51 5.177c-.128.688 2.622 6.859 2.622 6.859s9.07 15.784 12.775 16.594l12.521-8.734-3.323-4.116s-1.149-.438-1.437 0c0 0-6.164-10.355-6.803-11.101s-.51-2.248-.51-2.248-.958-.997-.639-1.933-1.854-4.177-1.854-4.177l1.979-1.807z" fill="#fff"/><path d="m319.166 191.994c.674.871.249 4.785.249 4.785l-1.859 3.272s.111 2.114.118 4.967l-3.126 1.039c-.574.19-1.2.074-1.679-.313-.478-.387-.752-.997-.733-1.636l.542-18.493 7.293 2.964c-.62.459.061 1.584.061 1.584s-1.546.96-.866 1.831z" fill="#000" opacity=".1"/><path d="m319.165 191.993c.675.866.25 4.776.25 4.776l-1.855 3.273s.112 2.11.122 4.96l-3.186 1.056c-.562.187-1.173.074-1.642-.304-.469-.377-.736-.973-.718-1.597l.543-18.542 7.295 2.969c-.623.458.058 1.582.058 1.582s-1.548.956-.867 1.827z" fill="#fff"/><path d="m321.611 182.41s-.536 3.63-1.878 3.843c-1.342.212-1.944 5.872-3.282 5.674-1.338-.197-.452-5.264-.405-6.246.048-.982-1.458-5.049-.335-5.973s4.697 0 4.697 0z" fill="#cf6f80"/><path d="m324.407 158.861 2.181-4.833s.871 3.683.871 5.651c0 1.967 1.215 2.161 1.215 2.161s1.331 1.726.63 2.986c-.702 1.26-.982 4.38-.982 4.38s.229 5.969-.812 6.794c-1.042.825-1.275 2.796-1.275 2.796s-1.91 3.745-1.85 4.636c.059.891-2.663 6.921-2.663 6.921s1.331-7.494-6.427-10.732c0 0-.059-2.541.52-3.238s1.482-1.036.916-4.543c-.567-3.507-.164-7.736-.164-8.582 0-.845 1.737-6.116 1.737-6.116z" fill="#000" opacity=".1"/><path d="m326.255 152.448 1.909.678s.873 3.615.873 5.546c0 1.93 1.216 2.12 1.216 2.12s1.332 1.694.63 2.93c-.703 1.237-.986 4.299-.986 4.299s.233 5.858-.81 6.667c-1.042.81-1.26 2.744-1.26 2.744s-1.912 3.676-1.852 4.55-2.668 6.792-2.668 6.792 1.332-7.355-6.432-10.532c0 0-.057-2.493.522-3.178.58-.684 1.484-1.016.917-4.458s-.164-7.592-.164-8.422c0-.829 1.739-6.002 1.739-6.002z" fill="#fff"/><path d="m280.548 276.893s3.562-2.331 5.899-.637c2.338 1.693-5.899.637-5.899.637z" fill="#000" opacity=".1"/><path d="m305.817 270.92s3.155-.388 5.804 2.335c2.649 2.722-5.804-2.335-5.804-2.335z" fill="#000" opacity=".1"/><g fill="#000" opacity=".1"><path d="m311.472 103.7c-.427.359-.975.612-1.26 1.085-.243.407-.25.911-.444 1.344-.195.434-.761.793-1.156.518-.091-3.024-1.628-5.864-3.52-8.2833-.529-.7292-1.172-1.3742-1.906-1.9121-.742-.5419-1.667-.7959-2.593-.7124-1.041.1378-1.957.8233-3.009.9107-1.389.1109-2.635-.8199-4.013-.8636-1.133.0083-2.206.4912-2.943 1.324-.725.8274-1.263 1.7923-1.58 2.8327-.545 1.579-.842 3.228-.881 4.893-.021.937-.111 2.107-1.007 2.456.021.25.021.5 0 .749.906-.336.996-1.522 1.017-2.463.039-1.664.336-3.313.882-4.892.317-1.0408.855-2.0057 1.579-2.8331.738-.8326 1.811-1.3164 2.944-1.3273 1.388.047 2.638.9778 4.012.8636 1.042-.084 1.965-.7695 3.01-.9073.925-.0846 1.85.1683 2.593.709.734.5391 1.376 1.1853 1.905 1.9154 1.892 2.4197 3.43 5.2487 3.52 8.2837.396.275.962-.088 1.156-.518s.201-.934.444-1.344c.285-.474.833-.729 1.26-1.085 1.083-.904 1.354-2.427 1.312-3.808 0-.043 0-.084 0-.127-.069 1.203-.399 2.422-1.322 3.192z"/><path d="m285.845 103.465c-.795-.851-1.885-1.422-2.618-2.322-.618-.795-.971-1.7546-1.01-2.7492-.109 1.2436.25 2.4832 1.01 3.4912.733.901 1.823 1.469 2.618 2.319.767.831 1.229 1.885 1.312 2.997.105-1.366-.369-2.715-1.312-3.736z"/><path d="m313.468 93.3163c-.205.8233-.569 1.6062-.736 2.4362-.1.5613-.136 1.1315-.108 1.7004.012-.3214.048-.6415.108-.9577.167-.83.531-1.613.736-2.4363.117-.4544.156-.9245.114-1.3912-.022.2185-.06.4353-.114.6486z"/></g><ellipse cx="46.8016" cy="283.536" fill="#8c588f" opacity=".1" rx="33.1667" ry="6.31746"/><path d="m45.2222 180.877h1.57937v47.381h-1.57937z" fill="#535461"/><path d="m61.0096 228.417-.1336 2.203-.1836 3.118-.0769 1.295-.187 3.117-.0801 1.296-.1837 3.117-2.114 35.354c-.1871 3.158-2.7109 5.619-5.761 5.619h-10.9776c-3.0593.001-5.5874-2.475-5.761-5.643l-2.114-35.354-.1837-3.117-.0768-1.296-.1904-3.117-.0768-1.296-.1837-3.117-.1336-2.203c-.0467-.853.2465-1.689.811-2.312.5644-.622 1.3506-.978 2.1747-.982h22.4495c.8278.005 1.617.364 2.1815.992s.8542 1.47.8008 2.326z" fill="#3f3d56"/><path d="m61.0159 231.417-.1889 3.158h-28.0508l-.1889-3.158z" fill="#9d9cb5"/><path d="m61.0159 234.575-.189 3.159h-28.0471l-.1925-3.159z" fill="#9d9cb5"/><path d="m61.0159 239.313-.1927 3.159h-28.0397l-.1962-3.159z" fill="#9d9cb5"/><path d="m28.8916 198.449c12.644 9.162 17.91 23.491 17.91 23.491s-15.2337-.523-27.8812-9.685c-12.64745-9.163-17.9204-23.481-17.9204-23.481s15.2337.513 27.8916 9.675z" fill="#8c588f"/><path d="m1 188.774s15.8167 8.789 20.8904 16.066c5.0736 7.278 24.9112 17.1 24.9112 17.1" stroke="#535461" stroke-width="2"/><path d="m35.9553 179.632c6.5421 4.795 9.2669 12.301 9.2669 12.301s-7.8979-.274-14.4236-5.069c-6.5256-4.796-9.2669-12.304-9.2669-12.304s7.8848.273 14.4236 5.072z" fill="#8c588f"/><path d="m21.5317 174.56s8.181 4.605 10.807 8.416c2.6261 3.811 12.8835 8.957 12.8835 8.957" stroke="#535461" stroke-width="2"/><path d="m56.3145 192.347c-7.8518 8.72-9.5129 20.117-9.5129 20.117s11.0708-2.746 18.9157-11.47c7.8448-8.724 9.5128-20.117 9.5128-20.117s-11.0639 2.749-18.9156 11.47z" fill="#8c588f"/><path d="m75.2301 180.877s-10.2257 8.94-12.8251 15.1c-2.5995 6.16-15.6034 16.487-15.6034 16.487" stroke="#535461" stroke-width="2"/></svg>