<svg width="40" height="36" viewBox="0 0 40 36" fill="none" xmlns="http://www.w3.org/2000/svg">
<circle cx="17.561" cy="17.561" r="17.561" fill="#C7A6C9" fill-opacity="0.4"/>
<circle cx="17.561" cy="17.561" r="6.82927" fill="#8C588F" fill-opacity="0.4"/>
<g clip-path="url(#clip0)">
<path d="M21.7665 8.83168C21.4353 8.90616 21.2276 9.23445 21.302 9.56568L21.4945 10.4213C19.6399 12.2954 17.2898 13.7659 14.8066 14.6487L16.2205 20.9361C18.8425 20.6708 21.5959 20.9937 24.0742 21.8934L24.2666 22.749C24.3411 23.0802 24.6694 23.288 25.0006 23.2135C25.3318 23.139 25.5396 22.8107 25.4651 22.4795L22.5005 9.29617C22.426 8.96495 22.0978 8.7572 21.7665 8.83168Z" fill="#301044"/>
<path d="M15.772 25.4019C14.9969 24.5328 14.2579 23.4734 14.3942 22.3642L11.3608 22.7003C11.1327 22.7256 10.9077 22.7258 10.6857 22.7122C10.532 24.087 10.8541 25.3332 11.1034 26.2636C11.1669 26.5021 11.2268 26.7247 11.273 26.9301C11.3474 27.2613 11.6757 27.4691 12.007 27.3946L15.6024 26.5861C15.8102 26.5394 15.9791 26.3883 16.0482 26.1871C16.1179 25.9857 16.0782 25.7629 15.9434 25.5983L15.772 25.4019Z" fill="#301044"/>
<path d="M8.3225 19.4094C8.62175 20.7401 9.86948 21.6301 11.225 21.4796L14.9896 21.0621L13.6403 15.0616L10.0594 16.2959C8.76988 16.7402 8.02325 18.0786 8.3225 19.4094Z" fill="#301044"/>
</g>
<path d="M32.439 14.8582C36.6146 14.8582 40 11.6413 40 7.673C40 3.70472 36.6146 0.487808 32.439 0.487808C28.2635 0.487808 24.8781 3.70472 24.8781 7.673C24.8781 9.47956 25.5803 11.1322 26.7399 12.3947C26.6483 13.4376 26.3458 14.581 26.0113 15.4392C25.9366 15.6301 26.0812 15.8436 26.2693 15.8107C28.4015 15.431 29.6689 14.8479 30.2199 14.5441C30.9438 14.7538 31.6898 14.8594 32.439 14.8582Z" fill="#58D1A5"/>
<g clip-path="url(#clip1)">
<path d="M36.2562 5.57579L34.6597 4.01824C34.5723 3.93293 34.4304 3.93293 34.3429 4.01824C34.2554 4.10361 34.2554 4.24198 34.3429 4.32729L34.5836 4.56218L33.5542 5.56649L34.6692 6.65431L35.6987 5.65001L35.9395 5.88484C35.9832 5.9275 36.0405 5.94888 36.0978 5.94888C36.1551 5.94888 36.2125 5.92755 36.2562 5.88484C36.3437 5.79947 36.3437 5.66116 36.2562 5.57579Z" fill="white"/>
<path d="M32.4646 5.12155C32.3772 5.03624 32.2353 5.03624 32.1478 5.12155C32.0603 5.20692 32.0603 5.34529 32.1478 5.4306L32.5216 5.79525L32.0401 6.26498L32.7307 6.93868C32.8182 7.02405 32.8182 7.16242 32.7307 7.24773C32.687 7.29044 32.6296 7.31177 32.5723 7.31177C32.515 7.31177 32.4576 7.29044 32.4139 7.24773L31.7233 6.57403L31.2419 7.04376L31.9324 7.71746C32.0199 7.80283 32.0199 7.9412 31.9324 8.02651C31.8887 8.06922 31.8314 8.09055 31.7741 8.09055C31.7167 8.09055 31.6594 8.06922 31.6156 8.02651L30.9251 7.35281L30.3326 7.93085C30.2778 7.98432 30.2337 8.04541 30.2012 8.11165L32.0602 9.92525C32.1273 9.89404 32.1904 9.85161 32.2459 9.7974L34.4349 7.66186L34.8087 8.02651C34.8524 8.06916 34.9098 8.09055 34.9671 8.09055C35.0243 8.09055 35.0817 8.06922 35.1254 8.02651C35.2129 7.9412 35.2129 7.80283 35.1254 7.71746L32.4646 5.12155Z" fill="white"/>
<path d="M29.6981 9.06897C29.4943 9.2678 29.4943 9.5913 29.6981 9.79012L29.8607 9.94872L28.6221 11.1571C28.5347 11.2424 28.5347 11.3807 28.6221 11.4661C28.6659 11.5088 28.7232 11.5301 28.7805 11.5301C28.8378 11.5301 28.8952 11.5088 28.9389 11.466L30.1775 10.2578L30.34 10.4164C30.4387 10.5127 30.57 10.5657 30.7096 10.5657C30.8492 10.5657 30.9805 10.5127 31.0792 10.4164L31.5045 10.0014L30.1234 8.65398L29.6981 9.06897Z" fill="white"/>
</g>
<defs>
<clipPath id="clip0">
<rect width="20.9649" height="20.9649" fill="white" transform="translate(6.15759 9.78156) rotate(-12.6734)"/>
</clipPath>
<clipPath id="clip1">
<rect width="7.76533" height="7.56098" fill="white" transform="translate(28.5565 3.96173)"/>
</clipPath>
</defs>
</svg>
