<svg width="43" height="43" viewBox="0 0 43 43" fill="none" xmlns="http://www.w3.org/2000/svg">
<circle cx="20" cy="23" r="20" fill="#C7A6C9" fill-opacity="0.4"/>
<g clip-path="url(#clip0)">
<rect x="13.3335" y="13.2778" width="13.3333" height="20.8333" fill="#8C588F" fill-opacity="0.4"/>
<path d="M24.8144 9.38889H14.961C13.2859 9.38889 11.8625 10.7548 11.8625 12.4295V35.5184C11.8625 37.1931 13.2558 38.5556 14.9309 38.5556L24.8005 38.5449C26.4754 38.5449 27.8457 37.1822 27.8457 35.5073L27.8601 12.4278C27.8598 10.7471 26.4963 9.38889 24.8144 9.38889ZM18.4643 11.2118H21.323C21.5741 11.2118 21.7787 11.4157 21.7787 11.6675C21.7787 11.9193 21.5741 12.1232 21.323 12.1232H18.4643C18.2124 12.1232 18.0086 11.9193 18.0086 11.6675C18.0086 11.4157 18.2124 11.2118 18.4643 11.2118ZM16.7465 11.3569C16.9154 11.1882 17.2228 11.1859 17.3914 11.3569C17.476 11.4412 17.526 11.5596 17.526 11.6805C17.526 11.7991 17.476 11.9173 17.3914 12.0018C17.3073 12.0864 17.1885 12.1362 17.0701 12.1362C16.9494 12.1362 16.8334 12.0864 16.7465 12.0018C16.6624 11.9175 16.6144 11.7991 16.6144 11.6805C16.6142 11.5596 16.6624 11.4412 16.7465 11.3569ZM19.8017 37.6523C19.0497 37.6523 18.4381 37.0402 18.4381 36.2885C18.4381 35.5365 19.0497 34.9247 19.8017 34.9247C20.5536 34.9247 21.1652 35.5365 21.1652 36.2885C21.1652 37.0402 20.5534 37.6523 19.8017 37.6523ZM26.4455 33.9978H13.4576V13.7184H26.4455V33.9978Z" fill="#301044"/>
<path fill-rule="evenodd" clip-rule="evenodd" d="M24.7222 23.8333C24.7222 25.1594 24.1954 26.4312 23.2577 27.3689C22.32 28.3065 21.0483 28.8333 19.7222 28.8333C18.3961 28.8333 17.1243 28.3065 16.1866 27.3689C15.249 26.4312 14.7222 25.1594 14.7222 23.8333C14.7222 22.5072 15.249 21.2355 16.1866 20.2978C17.1243 19.3601 18.3961 18.8333 19.7222 18.8333C21.0483 18.8333 22.32 19.3601 23.2577 20.2978C24.1954 21.2355 24.7222 22.5072 24.7222 23.8333ZM19.7222 21.3333C19.6432 21.3334 19.5651 21.35 19.4929 21.382C19.4207 21.4141 19.356 21.4609 19.303 21.5195C19.25 21.5781 19.2099 21.6471 19.1852 21.7222C19.1605 21.7972 19.1518 21.8766 19.1597 21.9552L19.3784 24.1471C19.3858 24.2332 19.4252 24.3134 19.4888 24.3719C19.5525 24.4303 19.6357 24.4627 19.7222 24.4627C19.8086 24.4627 19.8919 24.4303 19.9555 24.3719C20.0192 24.3134 20.0586 24.2332 20.0659 24.1471L20.2847 21.9552C20.2925 21.8766 20.2838 21.7972 20.2591 21.7222C20.2345 21.6471 20.1943 21.5781 20.1413 21.5195C20.0883 21.4609 20.0237 21.4141 19.9515 21.382C19.8793 21.35 19.8012 21.3334 19.7222 21.3333ZM19.7234 25.0833C19.5577 25.0833 19.3987 25.1492 19.2815 25.2664C19.1643 25.3836 19.0984 25.5426 19.0984 25.7083C19.0984 25.8741 19.1643 26.0331 19.2815 26.1503C19.3987 26.2675 19.5577 26.3333 19.7234 26.3333C19.8892 26.3333 20.0481 26.2675 20.1654 26.1503C20.2826 26.0331 20.3484 25.8741 20.3484 25.7083C20.3484 25.5426 20.2826 25.3836 20.1654 25.2664C20.0481 25.1492 19.8892 25.0833 19.7234 25.0833Z" fill="white"/>
</g>
<circle cx="34.7223" cy="8.27778" r="5.55556" fill="#F58D77" stroke="white" stroke-width="5"/>
<defs>
<clipPath id="clip0">
<rect width="29.1667" height="29.1667" fill="white" transform="translate(5.27783 9.38889)"/>
</clipPath>
</defs>
</svg>
