<svg width="74" height="80" viewBox="0 0 74 80" fill="none" xmlns="http://www.w3.org/2000/svg">
<path opacity="0.7" d="M73.2505 12.7785V72.9429C73.2557 73.8778 73.04 74.8006 72.6206 75.6362C72.6288 75.7011 72.6288 75.7668 72.6206 75.8317C72.4987 76.0584 72.3608 76.2762 72.2079 76.4833C71.6437 77.2762 70.8993 77.9238 70.0359 78.3729C69.3943 78.7197 68.6952 78.9478 67.9725 79.0462C67.7704 79.0686 67.5664 79.0686 67.3643 79.0462H6.54834C6.13684 79.027 5.72882 78.9615 5.33203 78.8507H5.15827C4.71953 78.7076 4.29724 78.5183 3.8985 78.286C3.62172 78.1378 3.3599 77.9632 3.11661 77.7647C2.60646 77.3702 2.16596 76.893 1.8134 76.353C1.21639 75.4621 0.871165 74.4265 0.814265 73.3556C0.803448 73.2182 0.803448 73.0802 0.814265 72.9429V12.7785C0.81346 11.1758 1.43647 9.63579 2.55134 8.48443C3.66621 7.33307 5.1854 6.66084 6.78727 6.61005H67.1255C68.7539 6.62151 70.3118 7.27646 71.4592 8.43203C72.6066 9.58761 73.2505 11.15 73.2505 12.7785Z" fill="#EDE2EE"/>
<path d="M26.531 7.91271C30.1209 4.77149 34.4445 2.58555 39.1024 1.55678C43.7604 0.52801 48.6024 0.689603 53.1814 2.0266C68.6244 6.82672 61.8694 35.5623 61.8694 35.5623C64.4511 38.4756 66.1799 42.0442 66.8658 45.8759C67.5516 49.7077 67.1681 53.6543 65.7573 57.2823C60.9355 70.0319 24.0549 72.8555 11.5659 61.8435C-0.923088 50.8315 13.6076 23.1819 20.7535 19.9673C27.8994 16.7528 26.531 7.91271 26.531 7.91271Z" fill="#2C1B2D"/>
<path d="M69.9925 78.3725C69.3509 78.7193 68.6519 78.9473 67.9292 79.0458C67.7271 79.0682 67.5231 79.0682 67.321 79.0458H6.505C6.0935 79.0266 5.68548 78.961 5.28869 78.8503H5.11492C4.67619 78.7072 4.2539 78.5179 3.85516 78.2856C3.57838 78.1374 3.31653 77.9628 3.07324 77.7643C2.56308 77.3697 2.12258 76.8926 1.77002 76.3525C1.57454 75.3968 1.37907 74.3977 1.16187 73.3986C5.50587 72.6601 9.67613 72.0736 13.9767 71.6827C17.1478 71.3786 20.3406 71.1831 23.5552 71.0745C25.0973 71.0745 26.6611 71.0745 28.2033 70.9442C33.4595 70.9442 38.7375 70.9442 43.972 71.4655L47.3386 71.7696C52.269 72.3777 57.4819 73.3334 61.5652 74.1588C65.6486 74.9841 69.0369 75.7661 69.0369 75.7661C69.0369 75.7661 69.6233 75.9833 69.9925 78.3725Z" fill="#407BFF"/>
<path opacity="0.3" d="M69.9925 78.3725C69.3509 78.7193 68.6519 78.9473 67.9292 79.0458C67.7271 79.0682 67.5231 79.0682 67.321 79.0458H6.505C6.0935 79.0266 5.68548 78.961 5.28869 78.8503H5.11492C4.67619 78.7072 4.2539 78.5179 3.85516 78.2856C3.57838 78.1374 3.31653 77.9628 3.07324 77.7643C2.56308 77.3697 2.12258 76.8926 1.77002 76.3525C1.57454 75.3968 1.37907 74.3977 1.16187 73.3986C5.50587 72.6601 9.67613 72.0736 13.9767 71.6827C17.1478 71.3786 20.3406 71.1831 23.5552 71.0745C25.0973 71.0745 26.6611 71.0745 28.2033 70.9442C33.4595 70.9442 38.7375 70.9442 43.972 71.4655L47.3386 71.7696C52.269 72.3777 57.4819 73.3334 61.5652 74.1588C65.6486 74.9841 69.0369 75.7661 69.0369 75.7661C69.0369 75.7661 69.6233 75.9833 69.9925 78.3725Z" fill="black"/>
<path d="M45.8618 79.1112H32.4388C29.8011 77.7852 27.5551 75.7938 25.9229 73.3337C26.8669 72.6626 27.7083 71.8578 28.4206 70.9445C29.068 70.1497 29.6084 69.2734 30.0279 68.3381C31.624 64.2496 31.9346 59.7714 30.9184 55.5016C30.5926 53.8726 30.2234 52.7431 30.1582 52.5042L45.3622 57.4781C45.0581 58.499 44.8192 59.4546 44.602 60.3451C44.2762 61.6701 44.059 62.8647 43.8852 63.929C43.6529 65.3645 43.5728 66.8206 43.6463 68.273C43.6698 69.3629 43.8982 70.4386 44.3196 71.4441C45.2319 73.6161 46.7523 73.8984 46.7523 73.8984C47.0563 74.7718 47.1341 75.708 46.9784 76.6195C46.8226 77.5311 46.4385 78.3883 45.8618 79.1112Z" fill="#E4897B"/>
<path opacity="0.2" d="M45.0363 57.413C44.4018 59.5503 43.9084 61.727 43.5593 63.929C36.3266 61.1922 29.9409 52.5042 29.9409 52.5042L45.0363 57.413Z" fill="black"/>
<path d="M37 12.6697C50.5315 11.3231 55.6357 18.1432 58.0032 32.0005C60.9789 49.3765 58.3508 62.1045 41.0399 60.0628C17.6257 57.1957 14.498 14.9069 37 12.6697Z" fill="#E4897B"/>
<path d="M46.4412 39.9602C47.3894 39.6498 48.3755 39.4484 49.3772 39.3606C49.8378 39.2999 50.2737 39.2012 50.3395 38.9051C50.3626 38.4607 50.2362 38.0206 49.9776 37.6451L48.4643 34.4267C46.3589 29.8724 44.8127 26.0771 45.0183 26.0012C45.224 25.9253 47.0826 29.5763 49.1881 34.1534L50.6438 37.387C50.9596 37.8945 51.0703 38.4889 50.9563 39.0645C50.8978 39.2184 50.8011 39.3576 50.674 39.4709C50.547 39.5842 50.393 39.6686 50.2243 39.7173C49.9578 39.7946 49.6811 39.838 49.4019 39.8464C48.4243 40.0007 47.4293 40.039 46.4412 39.9602Z" fill="#2C1B2D"/>
<path d="M40.7574 31.8267C40.9095 32.9344 40.4099 33.9987 39.6714 33.9987C38.9329 33.9987 38.2162 33.2602 38.0858 32.1525C37.9555 31.0448 38.4334 29.9805 39.1719 29.9805C39.9103 29.9805 40.6271 30.719 40.7574 31.8267Z" fill="#2C1B2D"/>
<path d="M38.8679 30.0676L41.1702 28.8296C41.1702 28.8296 40.2146 31.0015 38.8679 30.0676Z" fill="#2C1B2D"/>
<path d="M54.5497 29.8934C54.6801 31.0011 54.2022 32.0654 53.442 32.0654C52.6818 32.0654 52.0086 31.3486 51.8565 30.2192C51.7045 29.0897 52.2257 28.0472 52.9642 28.0472C53.7027 28.0472 54.3977 28.7856 54.5497 29.8934Z" fill="#2C1B2D"/>
<path d="M52.6602 28.1561L54.9625 26.8963C54.9625 26.8963 54.0068 29.09 52.6602 28.1561Z" fill="#2C1B2D"/>
<path d="M34.0243 25.8968C33.8698 25.8973 33.7187 25.8519 33.5899 25.7665C33.4214 25.6479 33.3048 25.469 33.2644 25.2669C33.224 25.0648 33.2628 24.8549 33.3727 24.6805C34.1245 23.7242 35.0896 22.957 36.1908 22.4404C37.2921 21.9237 38.4989 21.6718 39.7149 21.7049C39.9243 21.7106 40.1231 21.7977 40.2692 21.9478C40.4152 22.0979 40.4969 22.2991 40.4968 22.5085C40.4713 22.7124 40.3744 22.9006 40.2233 23.0398C40.0722 23.1789 39.8767 23.2601 39.6715 23.2687C38.7213 23.2518 37.7795 23.4478 36.9151 23.8425C36.0506 24.2371 35.2855 24.8203 34.6759 25.5493C34.6074 25.6593 34.5111 25.7494 34.3967 25.8104C34.2823 25.8714 34.1539 25.9012 34.0243 25.8968Z" fill="#2C1B2D"/>
<path d="M55.0058 22.2918C54.8848 22.3241 54.7576 22.3241 54.6366 22.2918C53.9306 21.8425 53.1322 21.5584 52.3011 21.4606C51.4699 21.3629 50.6275 21.454 49.8365 21.7271C49.6493 21.8193 49.4331 21.8333 49.2355 21.7661C49.038 21.6989 48.8752 21.556 48.7831 21.3687C48.6909 21.1815 48.6769 20.9654 48.7441 20.7678C48.8113 20.5703 48.9542 20.4075 49.1414 20.3153C50.1559 19.9286 51.2457 19.7804 52.3266 19.8821C53.4075 19.9838 54.4505 20.3326 55.3751 20.9017C55.4668 20.9497 55.5481 21.0155 55.6143 21.0951C55.6804 21.1748 55.7301 21.2668 55.7604 21.3658C55.7907 21.4648 55.8011 21.5689 55.7909 21.6719C55.7806 21.7749 55.75 21.8749 55.7008 21.966C55.6214 22.074 55.5161 22.1604 55.3947 22.2173C55.2733 22.2742 55.1396 22.2998 55.0058 22.2918Z" fill="#2C1B2D"/>
<path d="M48.8157 44.7501C48.3211 46.3422 47.9436 47.9682 47.6862 49.6154C47.4039 49.6154 47.0998 49.6154 46.8174 49.6154C42.821 49.6154 40.9748 48.2904 40.1494 46.8352C39.753 46.1157 39.5369 45.3108 39.5196 44.4894C39.4551 44.0283 39.4551 43.5605 39.5196 43.0994C41.9799 44.1939 44.646 44.7494 47.3387 44.7284C48.2727 44.7718 48.8157 44.7501 48.8157 44.7501Z" fill="#2C1B2D"/>
<path d="M47.4474 44.7284L47.0781 46.1619C43.3423 46.1619 40.6925 45.6189 39.5196 44.4895C39.4551 44.0283 39.4551 43.5605 39.5196 43.0994C42.0133 44.2092 44.7181 44.765 47.4474 44.7284Z" fill="white"/>
<path d="M46.8175 49.6156C42.821 49.6156 40.9748 48.2907 40.1494 46.8354C41.6373 46.8849 43.1061 47.186 44.4934 47.726C45.4514 48.0891 46.2665 48.7519 46.8175 49.6156Z" fill="#DE5753"/>
<path d="M24.4459 36.9744C24.4459 36.9744 29.6804 25.2022 27.8777 16.7097C27.8777 16.7097 53.6376 3.0695 57.6558 30.1978C57.6558 30.1978 57.873 5.74103 34.5457 7.50035C11.2184 9.25967 14.6719 43.3601 27.7256 52.3088C27.7256 52.3088 21.2314 44.3158 24.4459 36.9744Z" fill="#2C1B2D"/>
<path d="M26.9435 39.6026C26.8023 38.8339 26.5111 38.1005 26.0865 37.4443C25.6619 36.7882 25.1122 36.2221 24.4688 35.7784C23.8254 35.3346 23.101 35.022 22.3367 34.8583C21.5725 34.6946 20.7835 34.683 20.0148 34.8242C15.8663 35.693 14.7151 44.5113 25.3579 45.5539C26.9001 45.6842 27.5951 44.1638 26.9435 39.6026Z" fill="#E4897B"/>
<path d="M69.9925 78.3725C69.3509 78.7193 68.6519 78.9473 67.9292 79.0458C67.7271 79.0682 67.5231 79.0682 67.321 79.0458H6.505C6.0935 79.0266 5.68548 78.961 5.28869 78.8503H5.11492C4.67619 78.7072 4.2539 78.5179 3.85516 78.2856C3.57838 78.1374 3.31653 77.9628 3.07324 77.7643C2.56308 77.3697 2.12258 76.8926 1.77002 76.3525C1.57454 75.3968 1.37907 74.3977 1.16187 73.3986C5.50587 72.6601 9.67613 72.0736 13.9767 71.6827C17.1478 71.3786 20.3406 71.1831 23.5552 71.0745C25.0973 71.0745 26.6611 71.0745 28.2033 70.9442C33.4595 70.9442 38.7375 70.9442 43.972 71.4655L47.3386 71.7696C52.269 72.3777 57.4819 73.3334 61.5652 74.1588C65.6486 74.9841 69.0369 75.7661 69.0369 75.7661C69.0369 75.7661 69.6233 75.9833 69.9925 78.3725Z" fill="#E4897B"/>
<path d="M17.3433 79.1111H6.48334C6.07183 79.092 5.66382 79.0264 5.26702 78.9157H5.09326C4.65453 78.7726 4.23224 78.5833 3.8335 78.351C3.55672 78.2027 3.29487 78.0281 3.05158 77.8297C2.54143 77.4351 2.10096 76.9579 1.7484 76.4179C1.15139 75.527 0.806167 74.4914 0.749268 73.4205L12.8256 69.663C12.8256 69.663 13.26 70.4014 13.955 71.835C14.6501 73.2685 16.0618 75.9183 17.3433 79.1111Z" fill="white"/>
<path d="M72.6208 75.6362C72.629 75.7011 72.629 75.7668 72.6208 75.8317C72.4989 76.0584 72.361 76.2762 72.2081 76.4833C71.6439 77.2762 70.8995 77.9239 70.0361 78.3729C69.3945 78.7197 68.6954 78.9478 67.9727 79.0462C67.7706 79.0687 67.5666 79.0687 67.3645 79.0462H57.5253C57.1561 75.6362 56.7869 71.2704 56.7869 71.2704L72.6208 75.6362Z" fill="white"/>
<path d="M36.9999 12.6694C36.9999 12.6694 39.628 29.85 23.8159 35.3451C4.724 41.9914 3.79001 61.8 20.9054 66.6219C20.9054 66.6219 3.52938 62.4951 1.63974 50.5057C-0.249899 38.5162 11.8699 22.1394 11.8699 22.1394C11.8699 22.1394 7.80822 11.692 23.2946 5.97967C32.026 2.76511 36.9999 12.6694 36.9999 12.6694Z" fill="#2C1B2D"/>
<path d="M35.0019 28.7861C34.9161 28.8057 34.827 28.8057 34.7412 28.7861C34.6184 28.7133 34.5276 28.5967 34.4873 28.4596C34.447 28.3226 34.4601 28.1754 34.524 28.0476C40.9314 16.5795 35.5014 11.1495 35.2625 10.9106C35.163 10.8091 35.1073 10.6726 35.1073 10.5305C35.1073 10.3883 35.163 10.2519 35.2625 10.1504C35.3676 10.0495 35.5077 9.99316 35.6535 9.99316C35.7992 9.99316 35.9392 10.0495 36.0444 10.1504C36.305 10.411 42.3431 16.3406 35.5014 28.5906C35.4409 28.6621 35.3635 28.7174 35.2763 28.7515C35.1891 28.7856 35.0948 28.7975 35.0019 28.7861Z" fill="#2C1B2D"/>
<path d="M63.3679 63.1252C63.2944 63.1242 63.2218 63.1083 63.1546 63.0785C63.0874 63.0486 63.027 63.0054 62.9769 62.9514C62.925 62.9027 62.8836 62.8438 62.8553 62.7784C62.827 62.7131 62.8124 62.6426 62.8124 62.5714C62.8124 62.5001 62.827 62.4296 62.8553 62.3643C62.8836 62.2989 62.925 62.24 62.9769 62.1913C64.6967 60.6867 66.0718 58.8292 67.0089 56.7453C67.9459 54.6613 68.4228 52.3998 68.4069 50.1149C68.1246 41.6007 60.262 34.7589 60.1968 34.6937C60.1449 34.645 60.1035 34.5861 60.0752 34.5207C60.0469 34.4554 60.0322 34.3849 60.0322 34.3136C60.0322 34.2424 60.0469 34.1719 60.0752 34.1066C60.1035 34.0412 60.1449 33.9823 60.1968 33.9335C60.2983 33.834 60.4347 33.7783 60.5769 33.7783C60.719 33.7783 60.8555 33.834 60.957 33.9335C61.3045 34.2376 69.254 41.1446 69.645 50.1367C69.6676 52.5742 69.1652 54.9881 68.1721 57.2143C67.1789 59.4405 65.7182 61.4268 63.8891 63.0383C63.8191 63.1001 63.7331 63.141 63.641 63.1564C63.5488 63.1717 63.4542 63.1609 63.3679 63.1252Z" fill="#2C1B2D"/>
</svg>
