<svg width="74" height="76" viewBox="0 0 74 76" fill="none" xmlns="http://www.w3.org/2000/svg">
<path opacity="0.7" d="M73.2507 9.27526V69.4397C73.2503 70.4466 73.0042 71.4381 72.5339 72.3284C72.4121 72.5552 72.2741 72.773 72.1213 72.9801C71.6373 73.6735 71.015 74.2592 70.2935 74.7003C69.5721 75.1414 68.7671 75.4283 67.9293 75.543C67.7272 75.5654 67.5232 75.5654 67.3212 75.543H6.50514C6.09364 75.5238 5.68562 75.4583 5.28883 75.3475H5.11506C4.67633 75.2044 4.25404 75.0151 3.8553 74.7828C3.57852 74.6346 3.31667 74.46 3.07338 74.2615C2.34508 73.6872 1.75726 72.9545 1.35456 72.119C0.951863 71.2834 0.74488 70.3672 0.749338 69.4397V9.27526C0.748533 7.67259 1.37153 6.13253 2.4864 4.98117C3.60127 3.82982 5.12047 3.15758 6.72234 3.10679H67.0605C67.8724 3.10393 68.6768 3.26137 69.4277 3.57008C70.1786 3.8788 70.8612 4.33273 71.4363 4.90581C72.0114 5.47889 72.4677 6.15986 72.7791 6.90968C73.0904 7.65949 73.2507 8.46337 73.2507 9.27526Z" fill="#EDE2EE"/>
<path d="M67.2995 75.5858H43.755H13.651L13.8031 75.89C13.7371 75.7934 13.679 75.6917 13.6293 75.5858H6.61377C8.63373 75.26 10.8492 74.9342 13.1298 74.6736L14.585 74.4998C16.5181 74.2609 18.4946 74.0654 20.4494 73.9133H20.9924C24.511 73.631 28.008 73.4137 31.5266 73.2617H32.3303C34.0027 73.2617 35.6534 73.1314 37.3041 73.1097C39.7585 73.1097 42.2129 73.1097 44.6672 73.1097H46.079C47.8818 73.1097 49.7063 73.1097 51.509 73.2183L53.529 73.3921C54.1154 73.3921 54.6802 73.5007 55.2666 73.5224C56.8739 73.6962 58.4377 73.8916 59.9364 74.1088L62.1084 74.4346L63.1727 74.6084L64.1718 74.7604H64.3455C65.2716 74.9112 66.176 75.1738 67.0388 75.5424L67.2995 75.5858Z" fill="#2C1B2D"/>
<path d="M54.2458 75.6077H43.7551H23.1211C22.3574 75.0799 21.6316 74.4993 20.9491 73.8701L19.9934 72.9796C21.4175 71.7823 22.5785 70.3033 23.4034 68.6356C26.0098 63.5097 25.5755 57.1457 24.9021 52.6062C24.6198 50.4342 24.2722 48.7835 24.1854 47.7626C24.1761 47.647 24.1761 47.5308 24.1854 47.4151C24.1854 47.0893 24.1854 46.8721 24.3157 46.8069L24.7284 46.959L25.7492 47.3283L26.2488 47.502L43.4945 53.6922C43.3641 54.2569 43.2555 54.8216 43.1469 55.3864C43.0383 55.9511 42.9297 56.5375 42.8646 57.1023L42.7342 58.1665C42.6481 58.931 42.6046 59.6996 42.6039 60.4688C42.5744 61.9354 42.7573 63.3986 43.1469 64.8128C43.5268 66.2392 44.2249 67.561 45.1886 68.679C45.4733 69.0363 45.7935 69.3638 46.1443 69.6564C48.1826 71.2983 50.6037 72.3967 53.1816 72.8493C53.2958 73.0378 53.3974 73.2337 53.4856 73.4357C53.85 74.1159 54.1065 74.8487 54.2458 75.6077Z" fill="#EBB376"/>
<path opacity="0.2" d="M43.1902 64.6607C36.6742 63.3141 29.2459 58.7963 27.2911 53.236C26.5332 51.3189 26.0294 49.3109 25.7925 47.263L43.5377 53.627C42.5182 57.2207 42.3989 61.01 43.1902 64.6607Z" fill="black"/>
<path d="M21.7742 26.1514C22.9688 40.0956 22.9906 48.3275 30.2668 55.2779C41.1268 65.7904 58.2421 58.9486 61.2612 44.8957C63.9545 32.2547 61.5001 11.5555 47.6645 6.34271C42.9457 4.51748 37.6961 4.63533 33.0641 6.67052C28.432 8.70571 24.7944 12.4926 22.9471 17.2027C21.8635 20.0533 21.4618 23.1178 21.7742 26.1514Z" fill="#EBB376"/>
<path d="M43.1034 29.5181C43.1034 30.6476 43.7333 31.5381 44.4935 31.5381C45.2537 31.5381 45.8184 30.5607 45.7967 29.366C45.775 28.1714 45.1234 27.3243 44.3849 27.3461C43.6464 27.3678 43.0817 28.3452 43.1034 29.5181Z" fill="#2C1B2D"/>
<path d="M55.9615 29.1704C55.9615 30.2998 56.6131 31.2121 57.3516 31.1904C58.0901 31.1686 58.6765 30.2347 58.6548 29.0184C58.6331 27.8021 58.0032 26.9767 57.2647 26.9984C56.5263 27.0201 55.9398 28.1061 55.9615 29.1704Z" fill="#2C1B2D"/>
<path d="M50.6814 38.9517C51.7877 38.5747 52.9381 38.3302 54.1067 38.2236C54.6441 38.1498 55.1526 38.03 55.2294 37.6705C55.2564 37.1309 55.1089 36.5964 54.8072 36.1405L53.0417 32.2324C50.5854 26.7022 48.7815 22.0936 49.0214 22.0014C49.2613 21.9092 51.4298 26.3427 53.8861 31.9006L55.5844 35.8271C55.9528 36.4433 56.082 37.165 55.949 37.8641C55.8807 38.051 55.768 38.2199 55.6197 38.3575C55.4715 38.4952 55.2918 38.5976 55.095 38.6568C54.7841 38.7506 54.4613 38.8033 54.1355 38.8135C52.995 39.0008 51.8342 39.0473 50.6814 38.9517Z" fill="#2C1B2D"/>
<path d="M38.9983 25.4343C39.1171 25.4533 39.2389 25.439 39.35 25.3929C39.4612 25.3469 39.5575 25.271 39.6282 25.1737C40.1102 24.4621 40.7568 23.8774 41.513 23.469C42.2693 23.0606 43.1129 22.8407 43.9722 22.8279C44.1493 22.8282 44.3198 22.761 44.4489 22.6399C44.5781 22.5188 44.6562 22.353 44.6672 22.1763C44.6626 22.0007 44.5937 21.833 44.4736 21.7048C44.3535 21.5767 44.1905 21.4972 44.0156 21.4813C42.9554 21.4951 41.9146 21.7674 40.9835 22.2746C40.0524 22.7818 39.2591 23.5085 38.6725 24.3918C38.6108 24.4506 38.5616 24.5213 38.528 24.5998C38.4944 24.6782 38.4771 24.7626 38.4771 24.8479C38.4771 24.9332 38.4944 25.0176 38.528 25.096C38.5616 25.1744 38.6108 25.2452 38.6725 25.304L38.9983 25.4343Z" fill="#2C1B2D"/>
<path d="M46.9477 45.9165C45.3028 45.818 43.7062 45.3218 42.2952 44.4707C40.8841 43.6195 39.7006 42.4387 38.8462 41.0296C38.8067 40.9454 38.8005 40.8495 38.8287 40.7609C38.8568 40.6723 38.9174 40.5976 38.9982 40.5517C39.0766 40.5116 39.1673 40.5028 39.252 40.527C39.3367 40.5512 39.409 40.6066 39.4544 40.682C40.2732 41.9671 41.3812 43.0429 42.6898 43.8235C43.9984 44.6042 45.4714 45.068 46.9912 45.178C47.0369 45.1808 47.0815 45.1926 47.1226 45.2126C47.1637 45.2327 47.2005 45.2607 47.2308 45.295C47.261 45.3293 47.2842 45.3693 47.299 45.4126C47.3138 45.4558 47.3199 45.5016 47.317 45.5473C47.317 45.5929 47.308 45.6381 47.2905 45.6803C47.2731 45.7224 47.2475 45.7607 47.2152 45.793C47.1829 45.8253 47.1446 45.8509 47.1024 45.8684C47.0603 45.8858 47.0151 45.8948 46.9694 45.8948L46.9477 45.9165Z" fill="#2C1B2D"/>
<path d="M61.37 24.6958C61.4318 24.722 61.4983 24.7356 61.5655 24.7356C61.6326 24.7356 61.6991 24.722 61.7609 24.6958C61.8407 24.6587 61.9121 24.6059 61.9709 24.5406C62.0297 24.4752 62.0746 24.3986 62.103 24.3154C62.1314 24.2322 62.1427 24.1441 62.1362 24.0564C62.1296 23.9687 62.1054 23.8833 62.065 23.8052C61.5988 22.8484 60.9096 22.0176 60.0554 21.3826C59.2011 20.7476 58.2069 20.327 57.1563 20.1563C56.9788 20.1438 56.8032 20.2 56.6658 20.3131C56.5284 20.4263 56.4397 20.5878 56.4179 20.7645C56.4058 20.9396 56.4625 21.1126 56.5762 21.2465C56.6898 21.3804 56.8512 21.4646 57.026 21.4812C57.8519 21.6421 58.629 21.9926 59.2962 22.5053C59.9634 23.0179 60.5023 23.6786 60.8704 24.4351C60.9265 24.5157 61.0012 24.5814 61.0882 24.6268C61.1752 24.6722 61.2719 24.6958 61.37 24.6958Z" fill="#2C1B2D"/>
<path d="M25.7056 37.5542C25.7056 37.5542 32.9601 25.0218 29.3111 14.9003C34.0099 13.6189 39.015 14.0978 43.3857 16.2469C43.2536 14.6224 42.9329 13.0188 42.43 11.4685C42.43 11.4685 54.919 10.6648 62.13 17.7456C61.4502 13.1429 59.2749 8.89162 55.9398 5.64751C57.7388 5.10518 59.6577 5.10518 61.4567 5.64751C61.4567 5.64751 50.0971 -3.4966 32.265 1.7162C14.4329 6.929 8.87257 17.7456 12.9559 33.6446C17.0393 49.5436 25.6404 53.0189 25.6404 53.0189C25.6404 53.0189 22.0783 40.9208 22.8602 38.2058C23.6422 35.4908 25.7056 37.5542 25.7056 37.5542Z" fill="#2C1B2D"/>
<path d="M15.8665 41.7244C17.8305 44.6448 20.8661 46.6737 24.3156 47.3716C28.8985 48.2622 30.8316 44.0702 29.2243 39.9217C27.7908 36.2728 23.6857 31.2337 19.2331 32.298C18.2629 32.5238 17.3649 32.9896 16.6215 33.6526C15.878 34.3156 15.3128 35.1546 14.9778 36.0927C14.6428 37.0308 14.5486 38.038 14.7038 39.0219C14.8591 40.0059 15.2589 40.9351 15.8665 41.7244Z" fill="#EBB376"/>
<path d="M37.5866 75.3034L38.3902 75.6075H13.6294C13.4557 75.3034 13.3037 74.9993 13.1516 74.6735L21.1011 67.0498C21.8673 67.6359 22.6649 68.1797 23.4903 68.6788C26.3356 70.4015 29.2966 71.9256 32.3521 73.24C33.2643 73.6527 34.22 74.0436 35.2408 74.4563L37.5866 75.3034Z" fill="#2C1B2D"/>
<path d="M55.2882 73.4356V75.6076H43.7549L43.9069 75.2601C44.2203 74.5607 44.4675 73.8335 44.6454 73.0881C44.6556 73.0452 44.6556 73.0006 44.6454 72.9578C44.754 72.4799 44.8626 71.9804 44.9495 71.4157C45.0857 70.444 45.1582 69.4645 45.1667 68.4834C45.1667 67.7667 45.1667 66.9847 45.1667 66.1376L55.2882 73.4356Z" fill="#2C1B2D"/>
<path opacity="0.2" d="M46.1007 73.0231C45.9464 73.7752 45.6983 74.5049 45.3622 75.1951V75.5209H43.7549L43.9286 75.1734C44.242 74.474 44.4892 73.7468 44.6671 73.0014C44.6671 73.0014 44.6671 73.0014 44.6671 72.8711C44.7994 72.3636 44.901 71.8487 44.9712 71.329C45.1255 70.3664 45.2053 69.3934 45.2101 68.4185C45.2101 67.68 45.2101 66.8981 45.2101 66.0727C45.7977 67.0903 46.1537 68.225 46.2527 69.3959C46.3999 70.6052 46.3485 71.8304 46.1007 73.0231Z" fill="black"/>
</svg>
