<svg width="72" height="86" viewBox="0 0 72 86" fill="none" xmlns="http://www.w3.org/2000/svg">
<path opacity="0.7" d="M71.9911 19.9828V79.8609C72.003 79.9397 72.003 80.0198 71.9911 80.0986C71.9642 81.0189 71.7281 81.9208 71.3008 82.7359C71.1797 82.9615 71.0428 83.1782 70.8909 83.3844C70.1354 84.4748 69.0442 85.2872 67.7843 85.6973C67.4401 85.8096 67.0862 85.8892 66.7272 85.9351C66.5265 85.9574 66.3239 85.9574 66.1232 85.9351H5.71722C5.30849 85.916 4.90319 85.8508 4.50908 85.7406V85.7406H4.33652C3.90074 85.5982 3.4813 85.4098 3.08525 85.1785C2.81033 85.031 2.55025 84.8573 2.3086 84.6597C1.92168 84.3584 1.57379 84.0098 1.27304 83.6221C1.06881 83.3619 0.895105 83.079 0.755299 82.7791C0.25195 81.8898 -0.00850779 80.8832 0.000211963 79.8609V19.9828C-0.000587558 18.3878 0.618191 16.855 1.72554 15.7092C2.83289 14.5633 4.34187 13.8942 5.93294 13.8437H65.8643C66.6688 13.8437 67.4656 14.0025 68.2089 14.311C68.9523 14.6195 69.6277 15.0717 70.1966 15.6418C70.7656 16.2119 71.2169 16.8886 71.5248 17.6335C71.8327 18.3783 71.9911 19.1766 71.9911 19.9828Z" fill="#EDE2EE"/>
<path d="M60.2767 86H18.8555C18.7481 84.9941 18.7481 83.9796 18.8555 82.9737C18.8555 82.6711 18.8555 82.3901 18.8555 82.1307C18.8911 81.89 18.9415 81.6517 19.0065 81.4173C19.1596 80.3245 19.5598 79.2812 20.1768 78.367C20.7937 77.4529 21.611 76.6922 22.5662 76.1429C23.386 75.9483 24.3783 75.7538 25.5002 75.5376L27.4418 75.2133L29.405 74.9107C33.6112 74.2876 37.8601 73.9985 42.1118 74.046C43.4672 74.0644 44.8209 74.151 46.1676 74.3055C46.559 74.3403 46.9479 74.3981 47.3326 74.4784C49.5172 74.7309 51.6179 75.4694 53.4811 76.64V76.64C54.8287 77.6427 56.0084 78.854 56.976 80.2284C57.5381 80.9985 58.0566 81.7996 58.5293 82.6278C59.1897 83.7096 59.7736 84.8364 60.2767 86V86Z" fill="#2C1B2D"/>
<path d="M61.2458 85.6077H50.7551H30.1211C29.3574 85.0799 28.6316 84.4993 27.9491 83.8701L26.9934 82.9796C28.4175 81.7823 29.5785 80.3033 30.4034 78.6356C33.0098 73.5097 32.5755 67.1457 31.9021 62.6062C31.6198 60.4342 31.2722 58.7835 31.1854 57.7626C31.1761 57.647 31.1761 57.5308 31.1854 57.4151C31.1854 57.0893 31.1854 56.8721 31.3157 56.8069L31.7284 56.959L32.7492 57.3283L33.2488 57.502L50.4945 63.6922C50.3641 64.2569 50.2555 64.8216 50.1469 65.3864C50.0383 65.9511 49.9297 66.5375 49.8646 67.1023L49.7342 68.1665C49.6481 68.931 49.6046 69.6996 49.6039 70.4688C49.5744 71.9354 49.7573 73.3986 50.1469 74.8128C50.5268 76.2392 51.2249 77.561 52.1886 78.679C52.4733 79.0363 52.7935 79.3638 53.1443 79.6564C55.1826 81.2983 57.6037 82.3967 60.1816 82.8493C60.2958 83.0378 60.3974 83.2337 60.4856 83.4357C60.85 84.1159 61.1065 84.8487 61.2458 85.6077V85.6077Z" fill="#C86668"/>
<path d="M71.9696 80.0982C71.9427 81.0185 71.7066 81.9204 71.2793 82.7355C71.1583 82.9611 71.0213 83.1779 70.8694 83.384C70.1139 84.4744 69.0227 85.2868 67.7628 85.697C67.4186 85.8092 67.0647 85.8888 66.7057 85.9347C66.505 85.9571 66.3024 85.9571 66.1016 85.9347H5.69567C5.28694 85.9157 4.88168 85.8504 4.48756 85.7402V85.7402H4.31497C3.87919 85.5978 3.45975 85.4094 3.0637 85.1782C2.78878 85.0306 2.5287 84.8569 2.28705 84.6594C1.90013 84.358 1.55228 84.0094 1.25153 83.6218C3.94822 83.3624 7.72358 83.0165 12.2972 82.649L16.6119 82.3031L18.1868 82.1734H18.8771L23.4291 81.8492C23.7527 81.8492 24.0979 81.8492 24.4647 81.8492C28.7794 81.5249 33.6118 81.2439 38.5522 80.9845L46.4481 80.6386L51.9925 80.4441H53.6537H55.2933H57.0407H57.7095H60.2983C64.2895 80.0766 68.1511 80.055 71.9696 80.0982Z" fill="#263238"/>
<path opacity="0.8" d="M71.9696 80.0982C71.9427 81.0185 71.7066 81.9204 71.2793 82.7355C71.1583 82.9611 71.0213 83.1779 70.8694 83.384C70.1139 84.4744 69.0227 85.2868 67.7628 85.697C67.4186 85.8092 67.0647 85.8888 66.7057 85.9347C66.505 85.9571 66.3024 85.9571 66.1016 85.9347H5.69567C5.28694 85.9157 4.88168 85.8504 4.48756 85.7402V85.7402H4.31497C3.87919 85.5978 3.45975 85.4094 3.0637 85.1782C2.78878 85.0306 2.5287 84.8569 2.28705 84.6594C1.90013 84.358 1.55228 84.0094 1.25153 83.6218C3.94822 83.3624 7.72358 83.0165 12.2972 82.649L16.6119 82.3031L18.1868 82.1734H18.8771L23.4291 81.8492C23.7527 81.8492 24.0979 81.8492 24.4647 81.8492C28.7794 81.5249 33.6118 81.2439 38.5522 80.9845L46.4481 80.6386L51.9925 80.4441H53.6537H55.2933H57.0407H57.7095H60.2983C64.2895 80.0766 68.1511 80.055 71.9696 80.0982Z" fill="white"/>
<path opacity="0.2" d="M31.476 55.6282C31.3034 67.9713 41.1194 72.1649 45.995 73.2458C45.5296 70.9345 45.5296 68.5533 45.995 66.242L31.476 55.6282Z" fill="black"/>
<path d="M56.976 85.9996H23.1918L18.8771 82.9732L18.0573 82.3896L18.2946 82.1734L19.1359 81.4169L22.674 78.2176L25.6296 75.5371L27.6791 73.6781L27.9811 73.8726L29.556 74.9102L38.7032 80.8764L44.8516 84.9187L46.5991 80.5954L47.8935 77.3097L48.0877 72.3097L53.8047 80.2279L54.3871 80.5306C54.8559 80.7729 55.2792 81.0947 55.6384 81.4817C56.0134 81.8781 56.3131 82.3395 56.5229 82.8435C56.5825 82.9694 56.633 83.0995 56.6739 83.2326C57.0019 84.1156 57.1057 85.0664 56.976 85.9996Z" fill="white"/>
<path d="M58.7881 16.8696C64.915 20.4364 66.2741 35.4167 57.8173 45.2522C49.3605 55.0878 40.9037 19.3123 40.9037 19.3123C40.9037 19.3123 54.8833 14.5999 58.7881 16.8696Z" fill="#2C1B2D"/>
<path d="M31.8428 67.6043C34.7308 70.2455 38.3998 71.8707 42.2931 72.2335C46.1865 72.5963 50.0917 71.6769 53.4163 69.6146C57.7683 66.9952 60.9618 62.8138 62.3478 57.9201C62.5419 57.25 62.6929 56.5582 62.8439 55.7584C65.0013 42.7884 61.7868 21.8419 47.5483 17.0647C44.4065 15.9894 41.0421 15.7393 37.7763 16.3383C34.5106 16.9373 31.4527 18.3653 28.8948 20.486C26.3369 22.6067 24.3644 25.3491 23.1657 28.4514C21.9671 31.5536 21.5824 34.912 22.0483 38.2057C23.8605 52.4294 24.2057 60.7735 31.8428 67.6043Z" fill="#C86668"/>
<path d="M43.8808 40.9074C43.8808 42.0531 44.6143 43.0691 45.3694 42.8962C46.1245 42.7232 46.6638 41.8802 46.5991 40.7345C46.5344 39.5888 45.844 38.7025 45.1105 38.7458C44.377 38.789 43.8161 39.7401 43.8808 40.9074Z" fill="#2C1B2D"/>
<path d="M56.9112 40.0645C56.9112 41.2318 57.6663 42.2262 58.4214 42.0749C59.1765 41.9235 59.7158 41.0373 59.6511 39.9132C59.5864 38.7891 58.896 37.7515 58.1409 37.9029C57.3858 38.0542 56.8465 38.9837 56.9112 40.0645Z" fill="#2C1B2D"/>
<path d="M52.4412 47.9574C53.3894 47.6248 54.3755 47.409 55.3772 47.3149C55.8378 47.2498 56.2737 47.1441 56.3395 46.8269C56.3626 46.3508 56.2362 45.8792 55.9776 45.4769L54.4643 42.0286C52.3589 37.149 50.8127 33.0826 51.0183 33.0012C51.224 32.9199 53.0826 36.8318 55.1881 41.7358L56.6438 45.2004C56.9596 45.7441 57.0703 46.3809 56.9563 46.9977C56.8978 47.1626 56.8011 47.3117 56.674 47.4331C56.547 47.5545 56.393 47.645 56.2243 47.6971C55.9578 47.78 55.6811 47.8265 55.4019 47.8354C54.4243 48.0007 53.4293 48.0417 52.4412 47.9574V47.9574Z" fill="#2C1B2D"/>
<path d="M61.377 34.1845C61.2728 34.2474 61.1535 34.2807 61.0318 34.2807C60.9102 34.2807 60.7908 34.2474 60.6866 34.1845C59.9454 33.7663 59.1178 33.5253 58.2683 33.4803C57.4189 33.4353 56.5705 33.5876 55.7894 33.9251C55.7126 33.977 55.6258 34.0122 55.5347 34.0287C55.4435 34.0452 55.3499 34.0425 55.2598 34.0209C55.1698 33.9992 55.0852 33.959 55.0114 33.9029C54.9376 33.8467 54.8763 33.7758 54.8313 33.6947C54.7863 33.6136 54.7587 33.5239 54.7501 33.4315C54.7414 33.3391 54.7521 33.2459 54.7813 33.1578C54.8106 33.0697 54.8577 32.9887 54.9198 32.9199C54.982 32.851 55.0577 32.7958 55.1422 32.7579V32.7579C56.1176 32.308 57.1857 32.097 58.2585 32.1421C59.3312 32.1872 60.3779 32.4872 61.3123 33.0173C61.3922 33.0563 61.4636 33.111 61.5222 33.178C61.5808 33.245 61.6254 33.3231 61.6536 33.4076C61.6817 33.4922 61.6927 33.5815 61.6859 33.6703C61.6792 33.7592 61.6548 33.8458 61.6143 33.9251V33.9251C61.548 34.0225 61.4681 34.1099 61.377 34.1845V34.1845Z" fill="#2C1B2D"/>
<path d="M40.9684 35.8489C40.8412 35.8829 40.7073 35.8829 40.5801 35.8489C40.5174 35.7867 40.4677 35.7126 40.4338 35.6309C40.3999 35.5493 40.3824 35.4618 40.3824 35.3734C40.3824 35.285 40.3999 35.1974 40.4338 35.1158C40.4677 35.0342 40.5174 34.9601 40.5801 34.8978C41.3383 34.131 42.2682 33.5564 43.2925 33.2218C44.3168 32.8872 45.406 32.8022 46.4697 32.9739C46.6464 33.0152 46.7998 33.1245 46.8967 33.2782C46.9936 33.432 47.0262 33.6177 46.9874 33.7954V33.7954C46.9416 33.9684 46.8305 34.117 46.6776 34.2097C46.5247 34.3024 46.3419 34.3321 46.1676 34.2925C45.3238 34.1848 44.4666 34.273 43.6623 34.5504C42.858 34.8278 42.1282 35.2869 41.5293 35.8922C41.4386 35.9277 41.341 35.9423 41.2439 35.9348C41.1468 35.9273 41.0526 35.898 40.9684 35.8489V35.8489Z" fill="#2C1B2D"/>
<path d="M31.3897 19.9395L31.8643 22.1011C29.9658 23.4197 29.9442 29.9263 31.1739 32.2825C33.7628 37.2976 31.6917 45.7497 28.0458 49.4461C28.0458 49.4461 27.679 47.2845 25.8884 47.9546C24.0978 48.6247 25.8884 60.4706 30.2031 65.6802C30.2031 65.6802 23.99 61.2056 19.4164 49.1651C15.1017 38.0109 13.7425 28.4996 15.6194 23.7872L31.3897 19.9395Z" fill="#2C1B2D"/>
<path d="M16.6765 50.3541C18.4492 53.4652 21.3826 55.7434 24.8314 56.6878C29.405 57.8983 31.6486 53.7695 30.3326 49.4678C29.1245 45.6633 25.3275 40.3024 20.7324 41.0374C19.7341 41.1959 18.7918 41.6038 17.9923 42.2235C17.1928 42.8431 16.5619 43.6544 16.1578 44.5827C15.7537 45.511 15.5894 46.5262 15.6801 47.5349C15.7707 48.5436 16.1134 49.5131 16.6765 50.3541Z" fill="#C86668"/>
<path d="M52.8122 55.5422C52.1882 57.2395 51.6906 58.9808 51.3237 60.7518H50.3744C46.0597 60.514 44.1612 58.9792 43.3414 57.358C42.9695 56.5525 42.7851 55.6729 42.8021 54.7856C42.799 54.2804 42.8717 53.7776 43.0179 53.2941C45.607 54.6043 48.4469 55.3415 51.3452 55.4557C51.8324 55.5107 52.322 55.5396 52.8122 55.5422Z" fill="#2C1B2D"/>
<path d="M51.3453 55.4338L50.8706 56.9686C46.8148 56.7308 44.0102 56.0175 42.8021 54.807C42.7989 54.3018 42.8717 53.799 43.0178 53.3154C45.6103 54.6107 48.4501 55.3331 51.3453 55.4338V55.4338Z" fill="white"/>
<path d="M50.3745 60.773C46.0597 60.5352 44.1612 59.0004 43.3414 57.3792C44.9752 57.5004 46.5747 57.9102 48.0661 58.5897C49.0447 59.0573 49.8521 59.821 50.3745 60.773V60.773Z" fill="#DE5753"/>
<path d="M57.7526 56.2121C56.9195 55.0418 55.7139 54.1902 54.3338 53.7974C52.9538 53.4045 51.4814 53.4938 50.1587 54.0504C48.7573 52.4335 46.8179 51.3812 44.7006 51.089C43.2988 51.0304 41.8994 51.2526 40.5844 51.7425C39.2694 52.2325 38.0651 52.9803 37.042 53.9423C36.7868 54.2153 36.549 54.5041 36.3301 54.807C35.6544 55.8295 35.1651 56.9639 34.8846 58.1576C34.1978 61.01 34.2797 63.994 35.122 66.8042C35.122 66.8042 35.122 66.8042 35.122 66.8042C35.55 68.3993 36.3317 69.8771 37.4087 71.1276C38.349 72.201 39.5225 73.0441 40.839 73.5918C41.3136 73.7864 41.7666 73.9377 42.2412 74.089C43.5843 74.4867 44.9846 74.6547 46.3833 74.5862C46.7501 74.5862 47.0953 74.5862 47.462 74.5862C49.3752 74.365 51.2091 73.6936 52.8138 72.6266C54.4185 71.5597 55.7486 70.1275 56.6955 68.4471C57.0623 67.7498 57.3795 67.0275 57.6447 66.2854C59.1117 62.3512 59.2843 57.8982 57.7526 56.2121ZM39.1562 55.7798C39.3529 55.0495 39.7372 54.3837 40.271 53.8488C40.8048 53.314 41.4693 52.9288 42.1981 52.7318C43.537 52.3667 44.9501 52.375 46.2847 52.756C47.6192 53.137 48.8246 53.8761 49.7704 54.8935C49.7704 54.8935 55.8326 52.4724 56.6524 59.0439C57.4722 65.6153 53.028 68.793 50.4176 67.1285C47.8072 65.464 50.0293 62.4809 50.0293 62.4809L47.1816 61.6811C47.3234 63.1651 46.8995 64.6478 45.995 65.8315L45.8009 66.0693C45.5282 66.4174 45.1845 66.7032 44.7929 66.9078C44.4012 67.1123 43.9705 67.2307 43.5295 67.2553C43.0885 67.2798 42.6474 67.2099 42.2355 67.0501C41.8236 66.8903 41.4505 66.6444 41.141 66.3287C39.7323 64.8488 38.8851 62.9216 38.7463 60.8813C38.4865 59.1719 38.6268 57.4255 39.1562 55.7798V55.7798Z" fill="#2C1B2D"/>
<path d="M28.5205 23.7656C30.6996 22.2513 33.2179 21.2992 35.8522 20.9938C38.4865 20.6883 41.1553 21.039 43.622 22.0147C51.4532 24.7383 53.7184 25.5598 56.3288 19.7017C58.9392 13.8436 54.3225 0.419642 43.6651 0.00892613C33.0078 -0.40179 26.5142 13.4977 26.5142 13.4977C26.5142 13.4977 9.7515 19.6801 15.5116 35.3089L28.5205 23.7656Z" fill="#2C1B2D"/>
<path d="M1.27299 83.622C1.06876 83.3618 0.895055 83.0789 0.755249 82.779L14.9722 80.012L15.6626 79.8823L16.806 82.3034C17.2806 83.2761 17.8631 84.465 18.5966 85.9998H5.84661C5.43788 85.9807 5.03261 85.9155 4.6385 85.8053V85.8053H4.46591C4.03013 85.6629 3.61068 85.4745 3.21463 85.2432C2.93972 85.0957 2.67963 84.922 2.43798 84.7245C2.00135 84.4119 1.60938 84.0409 1.27299 83.622Z" fill="#2C1B2D"/>
<path d="M71.9911 78.9962V79.8609C72.003 79.9397 72.003 80.0199 71.9911 80.0987C71.9642 81.0189 71.7281 81.9209 71.3008 82.7359C71.1797 82.9616 71.0428 83.1783 70.8909 83.3844C70.1354 84.4748 69.0442 85.2872 67.7843 85.6974C67.4401 85.8097 67.0862 85.8893 66.7272 85.9352C66.5265 85.9575 66.3239 85.9575 66.1232 85.9352H59.8668C59.4569 84.6598 59.0901 83.5141 58.745 82.5414C58.3998 81.5686 58.1194 80.7688 57.8605 80.1203C57.429 78.9746 57.1486 78.3045 57.0838 78.1532L71.9911 78.9962Z" fill="#2C1B2D"/>
<path d="M24.9177 85.9998H10.1614C10.7745 84.8179 11.4968 83.6962 12.3187 82.6492V82.6492C13.112 81.6825 14.001 80.7989 14.9723 80.012C17.1861 78.0499 19.8818 76.7143 22.7819 76.1426C22.648 76.857 22.648 77.59 22.7819 78.3043C22.985 79.5193 23.2733 80.7183 23.6448 81.8926C23.8606 83.0599 24.3352 84.5515 24.9177 85.9998Z" fill="#2C1B2D"/>
<path d="M67.7627 85.6974C67.4186 85.8096 67.0646 85.8892 66.7056 85.9352C66.5049 85.9575 66.3023 85.9575 66.1016 85.9352H57.6232C57.3211 85.0273 57.0191 84.141 56.6955 83.2763C56.6546 83.1432 56.6041 83.0131 56.5445 82.8872C56.1993 81.9577 55.8326 81.0714 55.4227 80.1851C54.891 78.9364 54.2933 77.7169 53.632 76.5319V76.5319C54.7799 77.0003 55.9032 77.527 56.9975 78.1099V78.1099C57.9683 78.6071 59.1549 79.234 60.363 80.0338C62.9886 81.7034 65.4645 83.5984 67.7627 85.6974V85.6974Z" fill="#2C1B2D"/>
</svg>
