<svg fill="none" height="40" viewBox="0 0 32 40" width="32" xmlns="http://www.w3.org/2000/svg"><path d="m6.83781 0h-4.34333c-1.37766 0-2.49448 1.11682-2.49448 2.49448v34.54122c0 1.3777 1.11682 2.4945 2.49448 2.4945h26.91102c1.3777 0 2.4945-1.1168 2.4945-2.4945v-34.54122c0-1.37766-1.1168-2.49448-2.4945-2.49448h-4.2846v1.58473c0 2.41496-1.9577 4.37268-4.3727 4.37268h-9.5377c-2.41498 0-4.37269-1.95772-4.37269-4.37268z" fill="#eee3ef"/><path clip-rule="evenodd" d="m12.9126 13.5879h6.0602v2.0543h-1.9956v2.0983h5.165v2.0542h-2.0102v6.9846c0 .9228-.3101 1.9793-.9844 2.8249-.5188.6506-1.2469 1.1647-2.1704 1.3859v3.0965h-2.0543v-3.1111c-.8501-.2268-1.5423-.7245-2.0472-1.3353-.6795-.822-1.0489-1.8781-1.0489-2.8609v-6.9846h-2.02492v-2.0542h5.12102v-2.0983h-2.0103zm.9685 6.2068v1.9516h2.0102v2.0543h-2.0102v1.1298h2.0102v2.0543h-1.9995c.0459.4508.2393.9499.5673 1.3467.3631.4393.8607.7223 1.4909.7223.7566 0 1.257-.3109 1.5915-.7303.3583-.4494.5362-1.0436.5362-1.5441v-6.9846z" fill="#2c1a2c" fill-rule="evenodd"/></svg>