<svg enable-background="new 0 0 595 842" height="156.98889" viewBox="0 0 800 156.98889" width="800" xmlns="http://www.w3.org/2000/svg" xmlns:xlink="http://www.w3.org/1999/xlink"><clipPath id="a"><path d="m32.247002 51.091h383.38v75.242996h-383.38z" height="842" width="595"/></clipPath><g transform="matrix(2.0867025 0 0 2.0867025 -67.289899 -106.61172)"><path clip-path="url(#a)" d="m-30.455999 51.081001h508.78601v75.242996h-508.78601z" fill="#ba2d20"/><g fill="#fff"><path clip-path="url(#a)" d="m168.875 107.78c-3.583 4.474-8.602 6.887-16.756 6.887h-15.86v-1.848l1.165-.141c1.792-.212 2.958-.854 2.958-3.124v-42.322c0-2.273-1.166-2.913-2.958-3.125l-1.165-.143v-1.846h15.771c6.988 0 11.2 2.059 14.784 5.184 5.825 5.042 7.885 13.35 7.885 22.511 0 6.249-1.702 12.851-5.824 17.967zm-15.143-43.816c-1.613 0-2.958.782-2.958 2.131v44.31c0 1.849.986 2.486 3.585 2.486 2.15 0 4.3-.569 6.003-1.99 2.868-2.412 3.584-8.378 3.584-21.089.001-20.521-1.97-25.848-10.214-25.848zm-41.118 50.703v-1.848l.896-.213c1.972-.497 2.688-1.561 2.061-3.764l-2.688-9.017h-12.276l-2.33 8.664c-.538 1.988-.269 3.905 2.688 4.188l1.344.141v1.848h-12.455v-1.848l1.255-.282c2.06-.498 3.404-1.847 4.032-4.047l12.635-46.371h4.122l14.158 47.79c.448 1.635 1.344 2.486 3.047 2.77l.806.141v1.848zm-6.093-36.357-5.197 18.958h10.842zm-17.792 36.357h-30.196v-1.848l1.165-.141c1.792-.212 2.509-.854 2.509-3.124v-42.322c0-2.273-.717-2.913-2.509-3.125l-1.165-.143v-1.846h18.637v1.846l-1.165.143c-2.061.284-3.405.852-3.405 3.125v44.027c0 .995.269 1.56 1.523 1.56 5.107 0 11.201-6.46 12.814-14.201l2.24.071z"/><path clip-path="url(#a)" d="m237.856 87.895c-3.047 1.351-6.719 1.989-11.827 1.989h-1.882v19.671c0 2.27 1.255 2.84 3.315 3.124l1.166.141v1.848h-18.548v-1.848l1.165-.141c1.792-.212 2.509-.854 2.509-3.124v-42.323c0-2.273-.717-2.913-2.509-3.125l-1.165-.143v-1.846h18.368c10.933 0 17.834 5.468 17.834 13.705 0 5.753-3.049 9.729-8.426 12.072zm-5.106-22.155c-1.255-1.35-3.495-1.776-5.824-1.776-1.166 0-2.778.213-2.778 1.207v22.866h1.882c4.032 0 5.645-1.064 7.078-2.557 2.24-2.342 2.33-6.39 2.33-9.657-.001-4.189-.538-7.953-2.688-10.083zm-25.126 48.927h-34.05v-1.848l1.165-.141c1.793-.212 2.51-.854 2.51-3.124v-42.322c0-2.273-.717-2.913-2.51-3.125l-1.165-.143v-1.846h34.05l.448 14.557-2.419.072c-2.509-7.314-5.376-12.783-14.695-12.783-1.881 0-3.315.709-3.315 2.983v19.74h.896c2.957 0 6.542-2.485 7.437-6.035l.807-3.195h2.599v21.515h-2.599l-1.166-4.117c-1.075-3.905-3.942-6.32-7.079-6.32h-.896v21.446c0 1.989 1.613 2.838 3.942 2.838 6.631 0 10.932-4.258 12.993-9.513l1.612-4.119 2.51.142zm-14.964-57.306-7.438 2.912-.986-1.137 8.423-6.533 4.063 3.151"/><path clip-path="url(#a)" d="m185.913 124.563h-3.083v-7.588h2.935c1.104 0 2.025.239 2.799 1.069.682.739 1.012 1.707 1.012 2.708.001 2.185-1.432 3.811-3.663 3.811zm-.147-5.858h-.604v4.107h.604c1.024 0 1.376-1.217 1.376-2.048 0-.853-.319-2.059-1.376-2.059zm202.501-4.038h-34.049v-1.848l1.164-.141c1.792-.212 2.51-.854 2.51-3.124v-42.322c0-2.273-.718-2.913-2.51-3.125l-1.164-.143v-1.846h34.049l.448 14.557-2.419.072c-2.509-7.314-5.376-12.783-14.695-12.783-1.881 0-3.315.709-3.315 2.983v19.74h.896c2.957 0 6.542-2.485 7.438-6.035l.805-3.195h2.6v21.515h-2.6l-1.164-4.117c-1.075-3.905-3.942-6.32-7.079-6.32h-.896v21.446c0 1.989 1.612 2.838 3.942 2.838 6.631 0 10.933-4.258 12.993-9.513l1.613-4.119 2.508.142zm-53.381 0v-1.848l1.165-.141c1.793-.212 2.509-.854 2.509-3.124v-20.666h-11.29v20.667c0 2.27.717 2.912 2.509 3.124l1.165.141v1.848h-17.742v-1.848l1.166-.141c1.792-.212 2.508-.854 2.508-3.124v-42.323c0-2.273-.716-2.913-2.508-3.125l-1.166-.143v-1.846h17.742v1.846l-1.165.143c-1.792.212-2.509.852-2.509 3.125v18.816h11.29v-18.816c0-2.273-.716-2.913-2.509-3.125l-1.165-.143v-1.846h17.741v1.846l-1.165.143c-1.791.212-2.508.852-2.508 3.125v42.323c0 2.27.717 2.912 2.508 3.124l1.165.141v1.848h-17.741zm-29.353-.64c-1.972.925-3.854 1.278-6.005 1.278-4.12 0-8.512-1.844-11.468-4.827-3.763-3.836-7.348-11.009-7.348-22.087 0-15.053 6.452-22.793 11.827-25.492 2.241-1.136 4.301-1.491 6.003-1.491 1.703 0 3.495.143 5.824 1.278.537.284 1.612.569 2.241.569.716 0 1.702-.498 3.046-1.847h1.972l.717 15.977-2.599.213-3.674-8.096c-1.792-3.977-3.226-6.391-6.542-6.391-1.791 0-3.494.923-4.569 3.053-1.882 3.764-2.868 10.937-2.868 22.225 0 11.292 1.345 18.464 3.584 22.228 1.075 1.775 3.314 2.629 5.108 2.629 4.212 0 10.394-3.196 9.945-13.847h2.15c.092 8.805-2.863 12.499-7.344 14.628zm-26.508.64h-34.05v-1.848l1.165-.141c1.793-.212 2.51-.854 2.51-3.124v-42.322c0-2.273-.717-2.913-2.51-3.125l-1.165-.143v-1.846h34.05l.448 14.557-2.419.072c-2.509-7.314-5.375-12.783-14.694-12.783-1.883 0-3.317.709-3.317 2.983v19.74h.897c2.958 0 6.541-2.485 7.437-6.035l.807-3.195h2.598v21.515h-2.598l-1.166-4.117c-1.075-3.905-3.942-6.32-7.078-6.32h-.897v21.446c0 1.989 1.613 2.838 3.944 2.838 6.63 0 10.932-4.258 12.993-9.513l1.613-4.119 2.508.142zm-7.526-54.395-7.437-2.912-7.437 2.912-.986-1.137 8.423-6.533 8.422 6.533z"/><path clip-path="url(#a)" d="m262.7 124.563v-7.588h2.344v7.588zm-11.467 0h-3.082v-7.588h2.934c1.104 0 2.025.239 2.799 1.069.683.739 1.012 1.707 1.012 2.708 0 2.185-1.432 3.811-3.663 3.811zm-.148-5.858h-.603v4.107h.603c1.024 0 1.377-1.217 1.377-2.048 0-.853-.318-2.059-1.377-2.059zm-13.422 5.858v-7.588h2.343v7.588zm-10.307 0v-5.426l-1.411 5.426h-1.468l-1.456-5.426v5.426h-1.752v-7.588h3.038l1.104 4.027 1.046-4.027h3.061v7.588zm-24.504-.66c-.648.614-1.513.774-2.377.774-.831 0-1.867-.182-2.503-.762-.535-.489-.671-1.092-.671-1.786v-5.153h2.366v4.88c0 .683.25 1.046.967 1.046.716 0 1.069-.341 1.069-1.058v-.421-4.448h1.832v5.028c-.001.718-.137 1.389-.683 1.9z"/></g></g></svg>