<svg height="73" width="317" xmlns="http://www.w3.org/2000/svg"><g fill="none" fill-rule="evenodd"><path d="m42 14.105c-.263-1.245-2.386-4.105-4.765-4.105-.533 0-.884.09-1.235.183 2.293.893 4.057 3.205 4.59 4.817l1.321-.803v-.092zm15 54.191-8.571-5.803c-1.031-.698-2.23-2.017-2.23-4.478v-21.015l-.858.53-.341.176v20.921c0 1.76.94 3.605 2.223 4.484l8.663 5.889zm-37.024-21.08c.168-3.565-.586-7.914-1.346-12.09-.76-4.26-1.439-8.61-1.353-12.431.086-2.346.508-4.607 1.435-6.695-1.602 2.52-2.612 5.388-2.699 8.433-.252 7.392 3.206 17.04 2.866 24.524a115.83 115.83 0 0 1 -.249 3.043l.166-.176c.677-.958 1.098-2.433 1.18-4.608m12.024 20.954c-1.286-2.59-4.368-4.17-7.97-4.17-.346.08-.689.08-1.03.08 3.516.587 6.514 2.502 7.631 4.92l1.369-.831zm31-30.92-3-3.25.091 2.165 1.583 1.835zm82.192-18.25-7.192-4.277 1.08-.723 6.92 4.093c-.27.271-.54.542-.808.907m1.71 50-2.952-2.082c-1.94-1.385-2.95-3.725-2.95-6.323v-28.934c0-3.985.845-6.758 2.191-8.661-.758 1.903-1.096 4.243-1.096 6.93l.083 29.623c0 3.206.93 5.286 3.123 6.845l2.699 1.91-1.097.692zm-23.902-.264s-.278.175-.462.264h-.74v-48.366c0-2.339-.185-2.339-1.666-3.382l-2.132-1.56 1.393-.692c1.11.864 2.778 2.08 2.778 2.168.648.605.829.95.829 2.338v49.315zm-35.353-59.736c-.738 1.93-.646 3.774.278 5.285.836 1.34 2.313 2.264 4.075 2.685-5.461.417-7.863-3.523-4.353-7.97m12.855 42c.355-1.379.5-2.93.5-4.565v-25.055c0-3.012-.145-3.353-1.002-4.3h.145c1.212-.26 1.855 0 1.855 2.579v25.141c0 2.928-.426 4.822-1.498 6.201m2.148 18c-.715-2.366-2.876-4.367-6.65-4.914.543-.087 1.08-.087 1.622-.087 4.668.086 6.018 2.996 6.289 3.907l.089.27-1.35.823zm128.35-.615-2.575-1.573c-2.323-1.404-3.527-3.586-3.527-6.911v-23.703c0-1.398-.083-1.31-.603-1.749 0 0-1.804-1.488-3.008-2.45l-1.287.705 2.49 1.92c1.378 1.047 1.207 1.135 1.207 3.236v23.001c0 3.149 1.288 5.335 3.092 6.39l3.094 1.748zm-24 .434v-35.514l-1.344-1.306-1.656.787 1.55 1.482v34.731h.835c.204-.09.514-.18.514-.18zm-28-.435-9.998-6.087c-2.002-1.233-2.78-2.73-2.78-5.376v-19.922l-.87.441-.352.175v20.276c0 2.381 1.042 4.14 2.871 5.203l9.995 5.905zm5-11.385v-19.755c0-1.04-.33-1.39-1.084-1.82l-3.916-2.425v1.3l2.25 1.297c1.666.952 1.666 1.127 1.666 2.95l-.08 17.76zm79-35.678v-.255c0-2.384-1.378-4.85-3.492-6.13-.81-.512-1.536-.937-1.536-.937l-.972.683.564.336c2.756 1.623 4.305 3.664 4.305 6.981zm32 46.974-8.594-5.803c-1.018-.698-2.212-2.017-2.212-4.478v-21.015l-.852.53-.342.176v20.654c0 2.288.855 3.872 2.298 4.84l8.508 5.8zm-37 .997-9.18-6.007c-2.202-1.408-2.63-2.736-2.63-5.302v-18.984l-.681.356-.509.262v18.81c0 3.008.936 4.333 2.379 5.302l9.513 6.27zm42-32.044-3-3.249.089 2.165 1.585 1.835zm-35 20.751v-28l-2 .798v26.404z" fill="#8f98a9"/><path d="m44.192 60.691-1.042-2.091-2.696 1.738c-2.001-2.441-5.227-5.313-12.89-5.313-8.102-.086-18.035 6.355-22.564 11.93l.785 1.045c6.181-4.095 12.544-5.918 18.119-5.918 4.53 0 8.274 2.176 9.84 5.396zm8.368-47.727c-1.57-2.438-5.75-6.964-14.026-6.964-9.927-.085-18.634 7.663-18.984 17.069-.264 7.489 3.309 17.154 2.958 24.643-.171 2.527-.698 4.355-1.739 5.745l1.041 1.223 6.1-4.44c2.964-2.185 4.617-4.881 4.529-9.58-.087-5.836-2.789-14.805-2.789-21.682 0-5.924 2.267-10.365 7.406-10.365 3.485 0 6.272 3.57 6.705 5.573.178.955 0 1.392-.87 2.001l-2.437 1.66v2.696l12.107-7.58zm22.44 23.166-11.672-12.888-18.208 10.621v2.438l3.747-2.086v24.122c0 1.39.524 2.262 1.393 2.874l9.67 6.267 13.678-7.927-1.133-2.438-7.144 3.832-6.444-4.443c-.785-.518-.872-1.042-.872-2.175v-7.837zm-9.147 1.916-7.838 4.875v-12.715l.697-.433zm39.567 29.69c-.876-2.454-3.411-4.988-7.964-5.162-4.292-.088-10.418 1.577-15.49 5.426l-.966-1.227c3.678-4.025 12.255-10.495 21.266-10.586 4.73 0 8.054 1.577 10.417 4.113l3.941-2.188 1.138 2.277zm53.997-53.625c-3.419 2.01-4.557 4.726-4.557 8.925v33.499c0 2.105.266 3.062 1.402 3.678l1.139.615 3.15-1.844 1.052 2.106-10.942 6.562-3.76-2.541c-1.669-1.136-2.371-2.537-2.371-5.25v-29.916c0-5.596 1.756-8.575 4.206-10.408l1.401-1.05-10.327-6.039-4.639 2.797v43.566c0 3.674-.525 4.2-3.768 5.86 0 0-2.531 1.227-6.026 3.064h-.703v-48.285c0-2.36-.266-2.889-1.579-3.937l-3.672-2.973-4.465 2.534v25.022c0 4.37-.7 7.52-4.2 9.705l-8.75 5.512-.88-1.485c2.716-2.103 3.327-5.08 3.327-8.577v-25.541c0-3.762-.52-5.248-4.463-4.548-1.486.26-3.762.611-5.162.786-5.778.789-8.23-3.324-4.29-8.484 0 0 .964-1.313 3.413-4.465l1.93 1.316-1.405 2.011c-1.836 2.629-.349 4.028 2.63 2.974 1.398-.526 4.11-1.572 6.035-2.364 8.311-3.233 11.377 2.103 11.815 5.252l10.329-6.21 8.92 6.82 11.025-6.82 8.492 4.813c2.886 1.657 4.287.958 6.301-.093l1.664-.873 1.311 2.189zm39.462 42.235-.784-1.905-3.043 1.556v-23.47c0-1.207-.432-2.163-1.65-2.86l-11.222-6.667-18.18 10.565v2.514l3.744-2.165v22.951c0 2.076.516 2.859 1.827 3.637l11.044 6.498zm43.121 4.937-.869-1.993-3.221 1.823-1.125-.696c-1.218-.693-1.481-1.563-1.481-3.64v-24.855c0-1.994-.434-2.856-1.655-3.724l-6.698-5.025-10.35 5.893-5.477-5.893-10.96 6.672 1.48 1.728 3.738-2.246 2.696 3.029v34.474h.696c4.35-1.913 5.741-2.516 5.741-2.516 2.087-.868 2.698-1.56 2.698-3.982v-28.76l3.569-2.076 4.174 3.293c1.127.95 1.3 1.73 1.3 3.2l.088 23.562c0 2.595.784 4.069 2.52 5.109l3.657 2.17zm-56.082-1.297-.519.087-7.136-4.16c-1.213-.693-1.48-1.472-1.48-3.034l.092-22.777.518-.175 6.874 3.987c1.388.78 1.651 1.473 1.651 2.943zm80.207.922-.524.088-6.199-4.034c-1.218-.785-1.655-1.4-1.655-2.971v-22.331l7.766-4.735.612.352v33.63zm12.918-3.591-.783-2.015-3.145 1.66v-37.125c0-5.429-2.442-8.929-6.457-11.383l-3.927-2.454-12.312 7.179 2.444 1.141 4.02-2.188 2.613 1.487c2.795 1.577 4.629 4.733 4.629 7.97v1.398l-21.125 12.259v2.367l3.578-1.927v22.244c0 1.922.523 2.714 1.745 3.501l10.475 6.569zm33.957-20.842-11.787-12.96-18.243 10.68v2.452l3.753-2.098v24.258c0 1.398.524 2.275 1.396 2.89l9.692 6.303 13.702-7.972-1.043-2.451-7.16 3.854-6.461-4.47c-.875-.61-.96-1.047-.96-2.185v-7.882zm-9.253 1.927-7.857 4.903v-12.787l.787-.436z" fill="#1a171b"/></g></svg>