<svg enable-background="new 0 0 613.9 70.5" viewBox="0 0 613.9 70.5" xmlns="http://www.w3.org/2000/svg"><g fill="#bd2e18"><path d="m36 68.6v-12.2h-21v-54.5h-15v66.7z"/><path d="m82.7 44.8h-16.9l3.6-12.4c1.9-6.7 3.3-13.5 4.7-20.2h.4c1.3 6.7 2.6 13.5 4.5 20.2zm22.9 23.8-21.4-66.7h-19.4l-21.4 66.7h16l3.9-13.8h21.7l4.2 13.8z"/><path d="m204.1 68.6-10.1-66.7h-16.9l-7.5 29.8c-1.4 6-2.3 12.1-3.1 18.2h-.4c-1-6.1-1.8-12.2-3.5-18.2l-8-29.8h-16.9l-9.4 66.7h14.9l3.5-30.5c.8-7 1.2-14.1 1.6-21.1h.5c1 6.1 1.8 12.2 3.3 18.2l8.4 33.4h11.1l8-33c1.6-6.2 2.4-12.4 3.3-18.6h.4c.5 7 .8 14.1 1.8 21.1l3.7 30.5z"/><path d="m253.5 34.9c0 8.1-1.4 23.6-14.8 23.6-13.2 0-14.8-15.6-14.8-23.6 0-7.9 1.9-23.1 14.8-23.1s14.8 15.3 14.8 23.1m15.2.1c0-16.3-6.8-35-29.9-35-23.6 0-29.9 18.4-29.9 34.9s6.3 35.6 29.9 35.6c23.8 0 29.9-18.9 29.9-35.5"/><path d="m331.9 68.6v-66.7h-14.9l.2 31c.1 6.6 1 13.2 1.8 19.8h-.5c-1.9-5.4-3.7-11-6.4-16.1l-18.8-34.7h-16.8v66.7h14.9l-.2-32.1c0-6.7-1-13.3-1.9-19.9h.5c1.9 6 3.8 12.2 6.9 17.8l18.5 34.2z"/><path d="m386.6 13.9v-12h-47.5v12h16.2v54.7h15.1v-54.7z"/><path d="m419.4 44.8h-16.8l3.6-12.4c1.9-6.7 3.3-13.5 4.7-20.2h.4c1.3 6.7 2.6 13.5 4.5 20.2zm22.9 23.8-21.4-66.7h-19.4l-21.4 66.7h16l3.9-13.8h21.7l4.2 13.8z"/><path d="m497.7 64.8v-34.6h-22.9v11.2h8.6v15.6c-3.3 1.2-6.3 1.8-10 1.8-14.7 0-17.1-13.6-17.1-23.2 0-10 2.9-23.8 17.9-23.8 6.8 0 13.2 1.9 19.3 4.2v-12.3c-7-2.4-12.8-3.7-20.4-3.7-24.6 0-32 17.6-32 35.4 0 9.2 1.9 18.9 8.8 26.4 6.2 6.6 13.6 8.6 23.4 8.6 9.1 0 16.4-1.9 24.4-5.6"/><path d="m561.8 68.6v-66.7h-14.9l.2 31c.1 6.6 1 13.2 1.8 19.8h-.5c-1.9-5.4-3.7-11-6.4-16.1l-18.7-34.7h-16.8v66.7h14.9l-.2-32.1c0-6.7-1-13.3-1.9-19.9h.5c1.9 6 3.8 12.2 6.9 17.8l18.5 34.2z"/><path d="m613.9 68.6v-11.2h-28v-17.6h24.2v-10.3h-24.2v-16.5h25.9v-11.1h-40.9v66.7z"/></g></svg>