<svg fill="none" height="40" viewBox="0 0 138 40" width="138" xmlns="http://www.w3.org/2000/svg"><g fill="#002b44"><path d="m43.6996 14.1517h3.7661l3.6448 8.5956 3.7965-8.5956h3.7359l-9.1422 19.8027h-3.675l3.4321-6.9853z"/><path d="m72.8093 20.8175c0 4.0394-3.1285 7.1983-7.1377 7.1983-4.0699 0-7.168-3.1589-7.168-7.2592 0-4.0092 3.1587-7.1071 7.2593-7.1071 3.9179.0003 7.0464 3.1894 7.0464 7.168zm-10.8127 0c0 2.3994 1.4883 4.0698 3.675 4.0698 2.1568 0 3.6448-1.6704 3.6448-4.0698 0-2.4296-1.4883-4.0394-3.7359-4.0394-2.0953 0-3.5839 1.6706-3.5839 4.0394z"/><path d="m83.7805 26.9085c-1.063.8505-1.8831 1.154-3.1282 1.154-1.5489 0-3.1283-.6684-4.1614-1.7918-1.0631-1.1239-1.4881-2.5818-1.4881-4.8902v-7.2288h3.4622v7.016c0 1.6707.1824 2.4905.6685 3.0372.425.4859 1.0326.7288 1.7916.7288.9419 0 1.7617-.3339 2.2174-.9415.4554-.5462.6378-1.4272.6378-3.1283v-6.7122h3.4625v13.4551h-3.4625v-.6983z"/><path d="m96.8579 18.2216c-.7596-1.1239-1.2457-1.4579-2.0351-1.4579-.8508 0-1.3973.4253-1.3973 1.0935 0 .5772.1824.7291 1.7313 1.3063l1.2149.4858c2.278.8807 3.2802 2.0047 3.2802 3.7968 0 2.6119-2.187 4.6166-5.0419 4.6166-1.7312 0-3.2195-.7288-4.1913-2.0655-.4255-.5769-.6685-1.0631-1.0633-2.1261l2.825-1.1237c.8506 1.7009 1.3973 2.1867 2.4603 2.1867.9109 0 1.5487-.5464 1.5487-1.397 0-.5769-.2737-.7897-1.7008-1.3364l-1.3666-.5163c-2.0046-.7595-3.0071-2.0046-3.0071-3.7359 0-2.4301 2.0351-4.2521 4.7378-4.2521 2.1264 0 3.5538.9717 4.7081 3.1891z"/><path d="m105.841 9.56554c-.007 1.18146-.97 2.13326-2.152 2.12606-.002 0-.003 0-.004 0-1.215 0-2.188-.9418-2.188-2.15649 0-1.15381.973-2.09566 2.218-2.09566 1.168.01426 2.112.95803 2.126 2.12609zm-.455 18.04126h-3.463v-13.4551h3.463z"/><path d="m118.29 26.7567c-1.397 1.0022-2.278 1.306-3.675 1.306-3.887 0-7.016-3.2193-7.016-7.1984 0-3.9788 3.129-7.1679 7.016-7.1679 1.397 0 2.278.3035 3.675 1.3057v-.8506h3.463v12.9685c0 4.3435-2.916 7.2592-7.259 7.2592-1.822 0-3.554-.5769-4.891-1.6399-.516-.3946-.668-.5465-1.761-1.8223l2.248-2.2473.546.6074c1.306 1.5187 2.187 1.9741 3.827 1.9741 2.43 0 3.827-1.5184 3.827-4.1307zm-7.198-5.8927c0 2.3995 1.489 4.0698 3.645 4.0698 2.126 0 3.584-1.6703 3.584-4.0698 0-2.4296-1.458-4.0394-3.645-4.0394-2.095 0-3.584 1.6707-3.584 4.0394z"/><path d="m128.318 14.8502c1.063-.8503 1.883-1.1538 3.129-1.1538 1.549 0 3.128.6682 4.161 1.7921 1.063 1.1236 1.488 2.5511 1.488 4.8896v7.2286h-3.463v-7.0161c0-1.6703-.182-2.4904-.668-3.0372-.425-.4859-1.032-.7291-1.792-.7291-.942 0-1.762.3343-2.217.9419-.456.5769-.638 1.397-.638 3.0978v6.7427h-3.462v-13.4552h3.462z"/><path d="m28.7947 1.74167c.0757 0 .1971.11077.2451.19824l-16.7836 36.31869h-8.03848c-.07568 0-.19824-.1102-.24595-.1982l16.78333-36.31873zm0-1.74167h-8.2455c-.5657 0-1.0409.287079-1.2608.762529l-16.94369 36.666871c-.51246 1.1092.55277 2.5706 1.87328 2.5706h8.24411c.5668 0 1.0409-.2871 1.2608-.762l16.944-36.6669c.5122-1.10883-.5528-2.5711-1.8722-2.5711z"/><path d="m11.2673 0h-10.06119c-.970365 0-1.49325.936367-1.042203 1.86506l3.086853 15.09214c.57334 1.1801 2.18888 1.4022 2.66735.3665l6.97439-15.09205c.445-.96269-.4793-2.23165-1.6252-2.23165z"/></g></svg>