<svg height="42" viewBox="0 0 303 42" width="303" xmlns="http://www.w3.org/2000/svg" xmlns:xlink="http://www.w3.org/1999/xlink"><mask id="a" fill="#fff"><path d="m0 .94814354h43.4664373v41.09448376h-43.4664373z" fill="#fff" fill-rule="evenodd"/></mask><mask id="b" fill="#fff"><path d="m.69834976.94814354h31.61203354v41.09491866h-31.61203354z" fill="#fff" fill-rule="evenodd"/></mask><mask id="c" fill="#fff"><path d="m0 42.5452593h302.740493v-41.09491863h-302.740493z" fill="#fff" fill-rule="evenodd"/></mask><g fill="#050008" fill-rule="evenodd" transform="translate(0 -1)"><path d="m21.7330737 35.3258856c-6.9834976 0-12.64481341-4.4754114-12.64481341-13.8307177 0-9.3553062 5.66131581-13.83071766 12.64481341-13.83071766s12.6448134 4.47541146 12.6448134 13.83071766c0 9.3553063-5.6613158 13.8307177-12.6448134 13.8307177m0-34.37817699c-11.3472775 0-21.73336365 8.01427751-21.73336365 20.54745929 0 12.5331819 10.38608615 20.5474594 21.73336365 20.5474594s21.7333636-8.0142775 21.7333636-20.5474594c0-12.53318178-10.3860861-20.54745929-21.7333636-20.54745929" mask="url(#a)" transform="translate(0 .502197)"/><path d="m65.199656 22.3930048h-7.902646v-13.43638279h7.902646c4.3652296 0 7.9026459 2.35296169 7.9026459 6.71819139s-3.4330335 6.7181914-7.9026459 6.7181914m0-20.15312442h-16.9911962v22.52348322 6.7181914 10.2730048h9.0885502v-3.9505981-8.6942153h7.902646c8.7290096 0 15.8067416-4.7059234 15.8067416-13.434933 0-8.72755981-7.077732-13.43493302-15.8067416-13.43493302"/><path d="m110.641972 41.7552847 1.185905-6.7181914-16.9926464 6.7181914z"/><path d="m85.7476952 2.24002536v19.75733974 19.7573397h9.0885503v-39.51467944z"/><path d="m139.092947 27.924422c0 2.1833397-.884354 4.1593636-2.315268 5.5888278-1.429464 1.4294641-3.405488 2.3152679-5.587378 2.3152679-2.183339 0-4.159363-.8858038-5.588827-2.3152679-1.429464-1.4294642-2.313818-3.4069378-2.313818-5.5888278v-25.68396171h-9.088551v3.95059808 20.54890913c0 9.9134641 8.262187 15.8052918 16.991196 15.8052918 8.72756 0 16.991197-5.8918277 16.991197-15.8052918v-24.49950721h-9.088551z"/><path d="m32.3103833 13.1971722c0-3.65049756-1.976024-6.85736837-5.1698469-9.09289947-2.7849905-1.95137799-6.5514689-3.15612919-10.6368948-3.15612919-7.5851483 0-15.80529184 2.94736364-15.80529184 12.24902866 0 9.3016651 8.09836364 11.1298134 15.21958854 12.2026364 2.4037033.36389 8.489799.8568086 8.489799 4.9857273 0 4.1303684-4.7581148 4.9407847-7.9040957 4.9407847-4.4188708 0-8.49559806-1.4265646-7.90264591-6.7181914l-7.90264593 1.1844545c0 3.6504976 1.97602392 6.8588182 5.16984689 9.0943493 2.78499043 1.9499282 6.55146895 3.1561292 10.63544495 3.1561292 7.5851484 0 15.8067417-3.3590957 15.8067417-12.2504785 0-8.889933-8.0983637-11.1283636-15.2195886-12.2026363-2.4037033-.3624402-8.48979901-.8553589-8.48979901-4.9857273 0-4.12891866 4.75811481-4.93933493 7.90264591-4.93933493 4.4203206 0 8.4970479 1.46280861 7.9040957 6.71674163z" mask="url(#b)" transform="translate(152.22488 .502197)"/><path d="m224.237397 11.7436421h1.249694v-9.50318181h-1.249694z" mask="url(#c)"/><path d="m262.225623 25.548844h-5.339468v-3.1880239h4.626186v-1.2134498h-4.626186v-2.7009043h5.126354v-1.2004019h-6.36445v9.5031818h6.577564z" mask="url(#c)"/><path d="m249.683888 3.36561962h2.049962c1.362775 0 1.964426.56250717 1.964426 1.4004689 0 .93799521-.875656 1.37582296-1.775957 1.37582296h-2.238431zm0 3.8389665 4.101373 4.53920098h1.549795l-4.112972-4.53920098c2.100704 0 3.725885-.48711961 3.725885-2.42544976 0-1.72521531-1.200402-2.5385311-3.176425-2.5385311h-3.325752v9.50318184h1.238096z" mask="url(#c)"/><path d="m261.300386 3.36561962h2.06301c1.362775 0 1.962976.6132488 1.962976 1.52659808 0 1.02498086-.762574 1.49905263-1.962976 1.49905263h-2.06301zm0 4.15211483h2.313818c1.974574 0 2.950263-1.03802871 2.950263-2.61391866 0-1.80060287-1.174306-2.66321053-2.938665-2.66321053h-3.563512v9.50318184h1.238096z" mask="url(#c)"/><path d="m217.458606 22.185544c.888703.3116986 1.638229.4494259 2.264526.6248469.662541.1870191 1.600536.5132153 1.600536 1.5497943 0 .9640909-.800268 1.4265646-2.038364 1.4265646-1.525148 0-2.676258-.4624737-3.064794-2.1137512h-1.298986c.149326 1.7759569 1.361326 3.2764593 4.163713 3.2764593 2.274675 0 3.425785-.8379617 3.425785-2.727 0-2.1369474-2.089105-2.5370813-2.863278-2.7255502-.737928-.1754211-1.101818-.2493589-1.726665-.4740718-.798818-.2885024-1.174306-.6262967-1.174306-1.3265311 0-1.3120335 1.362775-1.4744067 1.962976-1.4744067.949594 0 2.138397.3493923 2.276125 2.0006698h1.275789c-.050741-1.8513445-1.226497-3.1764258-3.414186-3.1764258-1.551244 0-3.389541.7248804-3.389541 2.8139857 0 1.3497272.837962 1.9122344 2.00067 2.3254162" mask="url(#c)"/><path d="m252.246775 26.748666h1.251144v-9.5031818h-1.251144z" mask="url(#c)"/><path d="m260.424731 14.307544h-1.63823l-1.349727 2.187689h.924947z" mask="url(#c)"/><path d="m223.073529 10.5436751h-5.001674v-8.30422965h-1.238096v9.50463155h6.23977z" mask="url(#c)"/><path d="m231.764265 11.7434971 3.763579-9.50318179h-1.400469l-3.038698 8.01572729-3.038699-8.01572729h-1.400469l3.763579 9.50318179z" mask="url(#c)"/><path d="m236.690842 11.7436421h1.251144v-9.50318181h-1.251144z" mask="url(#c)"/><path d="m242.305476 22.0347689c0 2.9386651 1.787555 4.914689 4.501507 4.914689 2.276124 0 3.963646-1.4642584 4.263746-3.6142536h-1.300435c-.249359 1.4381627-1.425115 2.4254498-2.987957 2.4254498-1.913684 0-3.163378-1.5121005-3.163378-3.763579 0-2.2500287 1.236646-3.7635789 3.138732-3.7635789 1.562842 0 2.763244.975689 3.012603 2.4138516h1.300435c-.3001-2.1383971-1.974574-3.6012057-4.226052-3.6012057-2.738599 0-4.539201 2.0122679-4.539201 4.9886268" mask="url(#c)"/><path d="m246.670415 10.5436751h-5.339469v-3.18947366h4.626187v-1.212h-4.626187v-2.70090431h5.126354v-1.20185168h-6.364449v9.50463155h6.577564z" mask="url(#c)"/><path d="m227.475148 25.7866048c-1.525148 0-2.676259-.4624737-3.063345-2.1137512h-1.300435c.149325 1.7759569 1.362775 3.2764593 4.163713 3.2764593 2.276124 0 3.427234-.8379617 3.427234-2.727 0-2.1369473-2.089105-2.5370813-2.864727-2.7241005-.736478-.1768708-1.100368-.2508086-1.725215-.4755215-.800268-.2885024-1.175756-.6262966-1.175756-1.3265311 0-1.3120335 1.362775-1.4744067 1.962976-1.4744067.951043 0 2.138397.3493924 2.276124 2.0006699h1.27579c-.050742-1.8513445-1.225048-3.1764259-3.414187-3.1764259-1.551244 0-3.388091.7248804-3.388091 2.8139857 0 1.3497272.836512 1.9122344 2.00067 2.3254162.887254.3116986 1.63823.4494259 2.263077.6248469.66254.1870192 1.600535.5132153 1.600535 1.5512441 0 .9626411-.800267 1.4251148-2.038363 1.4251148" mask="url(#c)"/><path d="m263.751062 36.5026565c-.737929-.1754211-1.100369-.2493589-1.725216-.4755216-.801717-.2870526-1.175756-.6248469-1.175756-1.3250813 0-1.3120335 1.362776-1.4758565 1.962977-1.4758565.949593 0 2.138397.3508421 2.276124 2.0021196h1.27434c-.049292-1.8513445-1.225048-3.1764258-3.412737-3.1764258-1.551244 0-3.389541.7248804-3.389541 2.8125359 0 1.351177.837962 1.9122344 2.00067 2.326866.888703.3116986 1.63823.4494259 2.264526.6248469.662541.1870192 1.600536.5117656 1.600536 1.5497943 0 .9626411-.800268 1.4251148-2.038363 1.4251148-1.526599 0-2.676259-.4624737-3.063345-2.1123014h-1.300435c.149325 1.7759569 1.362775 3.2764593 4.163713 3.2764593 2.276124 0 3.425784-.8379617 3.425784-2.727 0-2.1369474-2.087655-2.5385311-2.863277-2.7255502" mask="url(#c)"/><path d="m267.79024 21.4974876c-.737928-.1754211-1.100368-.2493589-1.725215-.4755216-.801718-.2870526-1.175756-.6248469-1.175756-1.3250813 0-1.3120335 1.362775-1.4758565 1.962976-1.4758565.951043 0 2.138397.3493924 2.276124 2.0006699h1.27579c-.050742-1.8498948-1.226498-3.1764259-3.414187-3.1764259-1.551244 0-3.38954.7248804-3.38954 2.8139857 0 1.351177.837961 1.9122344 2.000669 2.326866.888704.3116986 1.63823.4494259 2.264527.6248469.66254.1870192 1.600536.5117656 1.600536 1.5497943 0 .9626411-.800268 1.4251148-2.038364 1.4251148-1.526598 0-2.676258-.4624737-3.064794-2.1137512h-1.300436c.150775 1.7774067 1.364225 3.2764593 4.165163 3.2764593 2.276124 0 3.425785-.8365119 3.425785-2.7255502 0-2.1383971-2.087656-2.5385311-2.863278-2.7255502" mask="url(#c)"/><path d="m269.015723 7.77999617 1.57589-4.05063158 1.57589 4.05063158zm.900301-5.53953588-3.763579 9.50318181h1.362776l1.049626-2.75164593h4.052082l1.049627 2.75164593h1.364224l-3.763579-9.50318181z" mask="url(#c)"/><path d="m251.233392 32.251088v1.200402h2.914019v8.3027799h1.251144v-8.3027799h2.900971l-.013048-1.200402z" mask="url(#c)"/><path d="m245.581645 37.790334 1.57589-4.0506316 1.57589 4.0506316zm.900301-5.5395359-3.763579 9.5031818h1.362776l1.049626-2.7501962h4.052082l1.049627 2.7501962h1.364224l-3.763579-9.5031818z" mask="url(#c)"/><path d="m277.431004 3.36561962h2.051412c1.361325 0 1.962976.56250717 1.962976 1.4004689 0 .93799521-.875656 1.37582296-1.775957 1.37582296h-2.238431zm5.264082 1.41351674c0-1.72521531-1.200402-2.5385311-3.176426-2.5385311h-3.325751v9.50318184h1.238095v-4.53920098l4.101374 4.53920098h1.549794l-4.112972-4.53920098c2.100704 0 3.725886-.48711961 3.725886-2.42544976z" mask="url(#c)"/><path d="m298.163743 10.7560651c-1.976024 0-3.263411-1.52514835-3.263411-3.76357898 0-2.23843062 1.287387-3.76357894 3.263411-3.76357894s3.263412 1.52514832 3.263412 3.76357894c0 2.23843063-1.287388 3.76357898-3.263412 3.76357898m.013048-8.71596175c-2.763244 0-4.589943 1.98762201-4.589943 4.95238277 0 2.96331101 1.826699 4.95093298 4.589943 4.95093298 2.750196 0 4.563847-1.98762197 4.563847-4.95093298 0-2.96476076-1.813651-4.95238277-4.563847-4.95238277" mask="url(#c)"/><path d="m287.947424 10.556433h-2.200737v-7.12847367h2.200737c2.051411 0 3.014053 1.37582297 3.014053 3.55191388 0 2.46314354-1.201852 3.57655979-3.014053 3.57655979m.024646-8.31582774h-3.463479l-.011598 9.50318184 3.69979.0130478c2.776292.0115981 4.076727-1.83829662 4.076727-4.71462198 0-3.28805742-1.69912-4.80160766-4.30144-4.80160766" mask="url(#c)"/><path d="m233.089491 21.9973651c0-2.2384307 1.288838-3.763579 3.263412-3.763579 1.976024 0 3.264861 1.5251483 3.264861 3.763579 0 2.2384306-1.288837 3.7635789-3.264861 3.7635789-1.974574 0-3.263412-1.5251483-3.263412-3.7635789m7.840307 0c0-2.963311-1.813651-4.9523828-4.563847-4.9523828-2.763244 0-4.589943 1.9890718-4.589943 4.9523828s1.826699 4.9523827 4.589943 4.9523827c2.750196 0 4.563847-1.9890717 4.563847-4.9523827" mask="url(#c)"/><path d="m238.029116 33.23939c1.562842 0 2.763244.9742392 3.014053 2.4138516h1.300435c-.3001-2.1398469-1.976024-3.6012057-4.227502-3.6012057-2.738598 0-4.539201 2.0122679-4.539201 4.9886268 0 2.9386651 1.789005 4.914689 4.501507 4.914689 2.276125 0 3.965096-1.4642584 4.265196-3.6142536h-1.300435c-.250809 1.4381627-1.425115 2.4254497-2.989407 2.4254497-1.912234 0-3.163378-1.5121004-3.163378-3.7635789s1.236646-3.7635789 3.138732-3.7635789" mask="url(#c)"/><path d="m218.209582 40.2665254-3.038699-8.0157273h-1.401918l3.765028 9.5031818h1.349728l3.765028-9.5031818h-1.400469z" mask="url(#c)"/><path d="m210.131225 18.7339536 1.57589 4.0506316h-3.15178zm-2.025316 5.2640813h4.050632l1.051076 2.751646h1.362775l-3.763579-9.5031819h-1.349727l-3.765029 9.5031819h1.362776z" mask="url(#c)"/><path d="m208.555335 37.790334 1.57589-4.0506316 1.57589 4.0506316zm.901751-5.5395359-3.765029 9.5031818h1.362776l1.049626-2.7501962h4.052082l1.051076 2.7501962h1.362775l-3.763579-9.5031818z" mask="url(#c)"/><path d="m227.625343 40.7662579c-1.976024 0-3.263411-1.5251483-3.263411-3.763579 0-2.2384306 1.287387-3.7635789 3.263411-3.7635789s3.263412 1.5251483 3.263412 3.7635789c0 2.2384307-1.287388 3.763579-3.263412 3.763579m.013048-8.714512c-2.763244 0-4.589943 1.987622-4.589943 4.950933 0 2.9633111 1.826699 4.9523828 4.589943 4.9523828 2.750196 0 4.563847-1.9890717 4.563847-4.9523828 0-2.963311-1.813651-4.950933-4.563847-4.950933" mask="url(#c)"/><path d="m210.618924 3.22832727c1.976024 0 3.263412 1.52514833 3.263412 3.76357895s-1.287388 3.76357898-3.263412 3.76357898-3.263411-1.52514836-3.263411-3.76357898 1.287387-3.76357895 3.263411-3.76357895m.013048 8.71596173c2.750196 0 4.563847-1.98907178 4.563847-4.95238278s-1.813651-4.95093301-4.563847-4.95093301c-2.763244 0-4.589942 1.98762201-4.589942 4.95093301s1.826698 4.95238278 4.589942 4.95238278" mask="url(#c)"/><path d="m195.640576 17.2459191h-1.053976v4.2246029h-4.224603v1.0539761h4.224603v4.2246029h1.053976v-4.2246029h4.224603v-1.0539761h-4.224603z" mask="url(#c)"/></g></svg>