<svg height="32.1" viewBox="0 0 506.93 157" width="104" xmlns="http://www.w3.org/2000/svg"><path d="m112.37 122.21a36.15 36.15 0 0 1 -32.09-19.5 2 2 0 0 0 -3.55 0 36.17 36.17 0 1 1 .37-32.58 17.91 17.91 0 0 0 .84 24.56.8.8 0 0 0 1.12 0 17.91 17.91 0 0 0 .84-24.56 36.16 36.16 0 1 1 32.46 52.07z" fill="#fff"/><path d="m156 33.11a3.27 3.27 0 0 0 -4.63 0l-5.37 5.38a78.49 78.49 0 0 0 -135 0l-5.41-5.38a3.27 3.27 0 0 0 -5.59 2.32v43.07a78.5 78.5 0 0 0 157 0v-43.07a3.27 3.27 0 0 0 -1-2.32zm-43.67 89.09a36.15 36.15 0 0 1 -32.09-19.5 2 2 0 0 0 -3.55 0 36.17 36.17 0 1 1 .37-32.58 17.91 17.91 0 0 0 .84 24.56.8.8 0 0 0 1.12 0 17.91 17.91 0 0 0 .84-24.56 36.16 36.16 0 1 1 32.46 52.07z"/><path d="m43.34 57.86a15.83 15.83 0 1 1 -3 0 22.83 22.83 0 1 0 3 0z" fill="#18a5d6"/><path d="m45.25 60.69a6 6 0 0 1 2.27 4.72 5.69 5.69 0 0 1 -11.37 0 6 6 0 0 1 2.18-4.57l.34-.33a4.05 4.05 0 0 0 1.63-2.61 15.47 15.47 0 1 0 3 0h-.12c.12.9 1.11 1.92 2.07 2.79z" fill="#18a5d6"/><path d="m45.25 60.69a6 6 0 0 1 2.27 4.72 5.69 5.69 0 0 1 -11.37 0 6 6 0 0 1 2.18-4.57l.34-.33a4.05 4.05 0 0 0 1.63-2.61 15.47 15.47 0 1 0 3 0h-.12c.12.9 1.11 1.92 2.07 2.79z" fill="#004e69"/><path d="m116.56 57.87a15.48 15.48 0 1 1 -2.92 0 23 23 0 1 0 2.92 0z" fill="#f01446"/><path d="m118.58 60.69a6 6 0 0 1 2.27 4.72 5.69 5.69 0 0 1 -11.37 0 6 6 0 0 1 2.18-4.57l.34-.33c.87-.84 1.56-1.51 1.63-2.59a15.82 15.82 0 1 0 2.92 0c.11.9 1.08 1.91 2.03 2.77z" fill="#f01446"/><path d="m118.58 60.69a6 6 0 0 1 2.27 4.72 5.69 5.69 0 0 1 -11.37 0 6 6 0 0 1 2.18-4.57l.34-.33c.87-.84 1.56-1.51 1.63-2.59a15.82 15.82 0 1 0 2.92 0c.11.9 1.08 1.91 2.03 2.77z" fill="#8b0020"/><path d="m240.08 87.91c0 10.66-5.19 15.17-12.84 15.17s-12.85-4.51-12.85-15.17v-22a2 2 0 0 0 -2.15-2l-16.54 1.47a2 2 0 0 0 -1.81 2v20.53c0 22.82 13.39 34.3 33.34 34.3s33.34-11.61 33.34-34.3v-26a2 2 0 0 0 -2.15-2l-16.54 1.45a2 2 0 0 0 -1.81 2zm129.25 0c0 10.66-5.19 15.17-12.84 15.17s-12.85-4.51-12.85-15.17v-33.31a2 2 0 0 0 -2.15-2l-16.54 1.45a2 2 0 0 0 -1.81 2v31.86c0 22.82 13.39 34.3 33.34 34.3s33.34-11.61 33.34-34.3v-37.35a2 2 0 0 0 -2.15-2l-16.54 1.44a2 2 0 0 0 -1.81 2zm33.33 12.02v18.52a2 2 0 0 0 2 2h37.64a2 2 0 0 0 2-2v-16.54a2 2 0 0 0 -2-2h-19.14v-52.27a2 2 0 0 0 -2.15-2l-16.54 1.45a2 2 0 0 0 -1.81 2zm-129.25 0v18.52a2 2 0 0 0 2 2h37.66a2 2 0 0 0 2-2v-16.54a2 2 0 0 0 -2-2h-19.16v-41a2 2 0 0 0 -2.15-2l-16.54 1.45a2 2 0 0 0 -1.81 2zm233.52-43.01v-16.61a2 2 0 0 0 -2.15-2l-46.94 4.11a2 2 0 0 0 -1.81 2v74a2 2 0 0 0 2 2h46.97a2 2 0 0 0 2-2v-16.51a2 2 0 0 0 -2-2h-28.46v-11.1h17.28a2 2 0 0 0 2-2v-13.81a2 2 0 0 0 -2-2h-17.28v-9.61l28.59-2.5a2 2 0 0 0 1.8-1.97z"/></svg>