<svg enable-background="new 0 0 236.008 61.709" viewBox="0 0 236.008 61.709" xmlns="http://www.w3.org/2000/svg"><path d="m9.346 44.092h-9.346v12.583h9.346zm0-13.842h-9.346v12.584h9.346z" fill="#ce181e"/><path d="m14.437 30.249c2.814 0 5.094 2.584 5.094 5.54l-.002 7.047h-9.045v-12.584zm-5.154 19.002c0 2.956 2.283 5.352 5.095 5.352 2.813 0 5.095-2.396 5.095-5.352 0-2.953-2.281-5.349-5.095-5.349-2.812 0-5.095 2.396-5.095 5.349" fill="#ce181e"/><path d="m.038 0h5.076v26.363h-5.076z"/><path d="m19.391 26.363-.213-2.38c-2.023 1.822-3.586 2.639-6.178 2.639-2.875 0-5.465-1.449-5.465-5.317 0-4.238 3.798-6.209 11.359-6.506v-.669c0-2.082-.959-2.901-3.23-2.901-2.024 0-3.976.521-5.788 1.45l-1.348-3.159c2.556-1.414 5.219-2.045 8.273-2.045 5.111 0 6.992 2.008 6.992 6.024v12.865zm-.497-8.961c-5.183.371-6.567 1.526-6.567 3.384 0 1.636.958 2.417 2.732 2.417 1.491 0 2.592-.595 3.835-1.487z"/><path d="m49.41 26.363-10.579-17.327v17.327h-4.58v-25.804h5.112l9.975 16.435v-16.435h4.615v25.804z"/><path d="m65.34 26.736c-5.572 0-8.945-3.905-8.945-9.668 0-5.762 3.373-9.703 8.945-9.703 5.573 0 8.911 3.941 8.911 9.703-.001 5.762-3.338 9.668-8.911 9.668m0-16.028c-2.662 0-3.833 2.343-3.833 6.321 0 4.054 1.171 6.395 3.833 6.395 2.664 0 3.835-2.341 3.835-6.358-.001-4.015-1.171-6.358-3.835-6.358"/><path d="m88.834 26.363-.249-2.454c-2.058 1.82-3.62 2.751-6.283 2.751-3.692 0-5.538-2.491-5.538-6.469v-12.419h5.076v11.266c0 2.491.959 3.607 2.911 3.607 1.243 0 2.379-.484 3.586-1.45v-13.423h5.111v18.591z"/><path d="m107.026 26.401h-5.042l-6.601-18.629h5.252l4.153 13.163 4.156-13.163h4.65z"/><path d="m130.602 18.443h-12.14c.286 3.161 1.881 4.722 4.971 4.722 1.951 0 3.55-.521 5.503-1.823l1.561 2.863c-2.2 1.674-4.578 2.529-7.561 2.529-5.715 0-9.443-3.421-9.443-9.667 0-5.838 3.444-9.704 8.84-9.704s8.413 3.755 8.413 9.741c-.002.484-.072 1.005-.144 1.339m-8.342-7.919c-2.307 0-3.586 1.672-3.799 5.168h7.525c-.177-3.198-1.207-5.168-3.726-5.168"/><path d="m132.871 0h5.076v26.363h-5.076z"/><path d="m140.914 0h5.076v26.363h-5.076z"/><path d="m165.227 18.443h-12.142c.286 3.161 1.882 4.722 4.972 4.722 1.951 0 3.55-.521 5.5-1.823l1.564 2.863c-2.204 1.674-4.581 2.529-7.563 2.529-5.716 0-9.442-3.421-9.442-9.667 0-5.838 3.443-9.704 8.839-9.704s8.413 3.755 8.413 9.741c-.001.484-.072 1.005-.141 1.339m-8.343-7.919c-2.307 0-3.586 1.672-3.799 5.168h7.528c-.178-3.198-1.209-5.168-3.729-5.168"/><path d="m47.675 55.721-4.826-10.224h-3.302v10.224h-5.112v-25.803h8.414c6.389 0 9.797 2.9 9.797 7.696 0 3.346-1.562 5.837-4.686 7.028l5.36 11.08zm-4.934-21.788h-3.194v7.809h3.302c2.839 0 4.472-1.414 4.472-3.979 0-2.528-1.633-3.83-4.58-3.83"/><path d="m70.994 47.802h-12.14c.284 3.16 1.881 4.723 4.97 4.723 1.952 0 3.55-.522 5.502-1.824l1.563 2.863c-2.202 1.674-4.58 2.528-7.561 2.528-5.717 0-9.443-3.42-9.443-9.667 0-5.838 3.443-9.702 8.839-9.702s8.414 3.754 8.414 9.74c-.001.484-.074 1.004-.144 1.339m-8.342-7.919c-2.307 0-3.586 1.673-3.799 5.167h7.526c-.176-3.198-1.207-5.167-3.727-5.167m.959-5.17h-3.124l3.088-6.135h6.177z"/><path d="m84.11 55.982c-2.343 0-3.799-.855-5.254-2.268v7.994h-5.076v-24.578h4.578l.215 2.381c1.702-1.674 3.122-2.677 5.715-2.677 3.975 0 6.957 2.714 6.957 9.592 0 6.915-3.196 9.556-7.135 9.556m-1.705-15.132c-1.278 0-2.415.558-3.55 1.487v8.18c1.101.968 2.236 1.487 3.515 1.487 2.236 0 3.621-1.56 3.621-5.578 0-4.053-1.421-5.576-3.586-5.576"/><path d="m105.556 55.721-.249-2.455c-2.057 1.822-3.62 2.751-6.282 2.751-3.693 0-5.538-2.49-5.538-6.469v-12.42h5.076v11.269c0 2.491.958 3.605 2.911 3.605 1.242 0 2.378-.483 3.586-1.45v-13.424h5.111v18.592z"/><path d="m123.267 55.982c-2.415 0-4.366-1.041-5.929-2.64l-.604 2.38h-3.799v-26.362h5.075v9.89c1.563-1.489 2.984-2.417 5.432-2.417 3.976 0 6.959 2.714 6.959 9.592.001 6.916-3.195 9.557-7.134 9.557m-1.705-15.132c-1.278 0-2.414.558-3.552 1.487v8.18c1.137.968 2.238 1.487 3.515 1.487 2.236 0 3.622-1.56 3.622-5.578.001-4.053-1.418-5.576-3.585-5.576"/><path d="m132.704 29.359h5.076v26.362h-5.076z"/><path d="m145.895 34.157h-5.253v-4.808h5.253zm-.07 21.564h-5.075v-18.592h5.075z"/><path d="m160.518 61.708v-8.144c-1.597 1.524-3.019 2.417-5.468 2.417-3.939 0-6.922-2.677-6.922-9.556 0-6.953 3.16-9.555 7.1-9.555 2.414 0 4.364 1.042 5.929 2.64l.603-2.381h3.833v24.579zm0-19.372c-1.136-.967-2.274-1.487-3.551-1.487-2.236 0-3.622 1.524-3.622 5.577 0 4.017 1.421 5.578 3.622 5.578 1.277 0 2.378-.558 3.551-1.487z"/><path d="m180.285 55.721-.247-2.455c-2.059 1.822-3.623 2.751-6.284 2.751-3.693 0-5.538-2.49-5.538-6.469v-12.42h5.076v11.269c0 2.491.958 3.605 2.911 3.605 1.243 0 2.378-.483 3.585-1.45v-13.424h5.113v18.592z"/><path d="m204.218 47.802h-12.141c.283 3.16 1.881 4.723 4.97 4.723 1.952 0 3.55-.522 5.503-1.824l1.561 2.863c-2.201 1.674-4.581 2.528-7.563 2.528-5.714 0-9.442-3.42-9.442-9.667 0-5.838 3.444-9.702 8.84-9.702 5.397 0 8.414 3.755 8.414 9.74-.001.484-.072 1.004-.142 1.339m-8.342-7.919c-2.308 0-3.587 1.673-3.799 5.167h7.526c-.177-3.198-1.206-5.167-3.727-5.167"/><g fill="#ce181e"><path d="m207.322 50.185h5.644v5.536h-5.644z"/><path d="m212.283 40.551v-3.415h3.056v-1.438c0-1.654.515-3.007 1.546-4.061 1.03-1.055 2.588-1.582 4.672-1.582.455 0 .911.018 1.366.053.454.036.899.066 1.33.09v3.81c-.599-.071-1.222-.107-1.869-.107-.695 0-1.193.161-1.491.485-.3.324-.45.868-.45 1.635v1.114h3.523v3.415h-3.523v15.17h-5.104v-15.17h-3.056z"/><path d="m228.891 37.136v3.451h.072c.24-.575.561-1.108.971-1.599.407-.491.875-.911 1.402-1.258.526-.348 1.09-.617 1.69-.809.598-.192 1.221-.288 1.868-.288.336 0 .707.06 1.114.179v4.745c-.24-.048-.527-.09-.863-.126s-.66-.054-.972-.054c-.935 0-1.725.156-2.372.467-.647.312-1.169.737-1.563 1.277-.396.539-.677 1.169-.845 1.888-.169.719-.253 1.498-.253 2.337v8.376h-5.103v-18.586z"/></g></svg>