<svg fill="none" height="40" viewBox="0 0 141 40" width="141" xmlns="http://www.w3.org/2000/svg" xmlns:xlink="http://www.w3.org/1999/xlink"><mask id="a" height="40" maskUnits="userSpaceOnUse" width="40" x="0" y="0"><path d="m30.1561.860315c-2.2559-.52063-5.964-.860315-10.1561-.860315s-7.9003.339685-10.15612.860315c-4.49777.943825-8.03974 4.485795-8.983565 8.983565-.52063 2.25582-.860315 5.96402-.860315 10.15612s.339685 7.9002.860315 10.1561c.943825 4.4978 4.485795 8.0398 8.983565 8.9836 2.25582.5206 5.96402.8603 10.15612.8603s7.9002-.3397 10.1561-.8603c4.4978-.9438 8.0398-4.4858 8.9836-8.9836.5206-2.2559.8603-5.964.8603-10.1561s-.3397-7.9003-.8603-10.15612c-.9438-4.49777-4.4858-8.03974-8.9836-8.983565z" fill="#fff"/></mask><path clip-rule="evenodd" d="m30.1561.860315c-2.2559-.52063-5.964-.860315-10.1561-.860315s-7.9003.339685-10.15612.860315c-4.49777.943825-8.03974 4.485795-8.983565 8.983565-.52063 2.25582-.860315 5.96402-.860315 10.15612s.339685 7.9002.860315 10.1561c.943825 4.4978 4.485795 8.0398 8.983565 8.9836 2.25582.5206 5.96402.8603 10.15612.8603s7.9002-.3397 10.1561-.8603c4.4978-.9438 8.0398-4.4858 8.9836-8.9836.5206-2.2559.8603-5.964.8603-10.1561s-.3397-7.9003-.8603-10.15612c-.9438-4.49777-4.4858-8.03974-8.9836-8.983565z" fill="#00b388" fill-rule="evenodd"/><g mask="url(#a)"><path clip-rule="evenodd" d="m24.806 30.705c-.3796-.9034-1.1852-1.5837-2.1654-1.7894-.5865-.1354-1.5506-.2237-2.6406-.2237-1.0899 0-2.054.0883-2.6406.2237-.9731.2042-1.7742.8763-2.1571 1.7701-.1328.31-.4503.4991-.7862.4683-.0838-.0077-.1562-.0146-.2171-.0207-1.5684-.1561-2.8012-.374-3.5174-.6282-.0012-.0007-.0026-.0013-.0043-.0019-.4806-.1806-.82266-.6445-.82266-1.1883 0-.0135.00022-.027.00064-.0404.0011-.0219.00238-.0442.00385-.067.00043-.0051.00088-.0102.00137-.0153.00136-.0142.00222-.0279.00256-.0412.1221-1.6324 1.11344-5.4541 2.59414-9.8161 1.6928-4.9867 3.463-9.0238 4.2613-9.81123.1274-.13267.2744-.24378.4369-.32947.0634-.03623.1438-.07087.2392-.10356.0025-.00085.005-.00171.0075-.00255.5245-.17736 1.4911-.29616 2.597-.29616 1.1077 0 2.0744.1188 2.5979.29584.0034.00116.0059.00202.0084.00287.0955.03269.1758.06733.2393.10356.1625.08569.3095.1968.4357.32804.0004.00043.0008.00091.0012.00143.7983.78743 2.5685 4.82453 4.2613 9.81123 1.4807 4.362 2.472 8.1837 2.5941 9.8161.0003.0133.0012.027.0026.0412.0005.0051.0009.0102.0013.0153.0015.0228.0028.0451.0039.067.0004.0134.0006.0269.0006.0404 0 .5438-.342 1.0077-.8226 1.1883-.0017.0006-.0031.0012-.0043.0019-.7156.254-1.9469.4717-3.5133.6278-.0683.0068-.1509.0147-.2479.0235-.3221.0294-.6261-.1532-.7513-.4514z" fill="#fff" fill-rule="evenodd"/></g><path d="m63.8903 13.3259h3.8224v16.68h-3.8224v-2.9309c-1.1945 2.0789-3.2422 3.2717-5.9042 3.2717-4.4367 0-7.9861-3.8851-7.9861-8.6904s3.5494-8.6563 7.9861-8.6563c2.662 0 4.7097 1.1928 5.9042 3.2717zm57.2267 0h3.823v16.68h-3.823v-2.9309c-1.194 2.0789-3.242 3.2717-5.904 3.2717-4.437 0-7.986-3.8851-7.986-8.6904s3.549-8.6563 7.986-8.6563c2.662 0 4.71 1.1928 5.904 3.2717zm-62.2264 13.3959c2.9009 0 5.0851-2.1812 5.0851-5.078 0-2.8627-2.1842-5.0438-5.0851-5.0438-2.8327 0-5.0852 2.2493-5.0852 5.0438 0 2.8287 2.2525 5.078 5.0852 5.078zm57.0264 0c2.901 0 5.086-2.1812 5.086-5.078 0-2.8627-2.185-5.0438-5.086-5.0438-2.832 0-5.085 2.2493-5.085 5.0438 0 2.8287 2.253 5.078 5.085 5.078zm-42.4812-21.7218c1.331 0 2.4572 1.12464 2.4572 2.41968 0 1.3632-1.1262 2.45376-2.4572 2.45376s-2.4231-1.09056-2.4231-2.45376c0-1.29504 1.0921-2.41968 2.4231-2.41968zm-1.8771 8.28h3.7883v16.68h-3.7883zm15.688-.3259c.7298 0 1.4325.1082 1.9391.3005.2982.1132.5613.2383.7654.3439l-1.5415 3.2227c-.4858-.147-1.0121-.2206-1.5384-.2206-1.843 0-3.8907 1.5336-3.8907 4.4645v8.8949h-3.7883v-16.68h3.7883v2.4005c.7508-1.6018 2.6279-2.7264 4.2661-2.7264zm19.0263 12.78c-1.263 2.7605-4.198 4.5667-7.6793 4.5667-4.9486 0-8.7369-3.7147-8.7369-8.6563s3.7541-8.6904 8.7028-8.6904c3.2424 0 5.9724 1.6017 7.2014 4.0555l-3.208 1.8062c-.683-1.3291-2.185-2.2152-3.9934-2.2152-2.8668 0-4.9487 2.1812-4.9487 5.0439 0 2.8286 2.116 5.0097 4.9828 5.0097 1.9453 0 3.5493-.9201 4.3003-2.4537zm26.301-20.7341v24.96h-3.789v-24.96zm7.633 0v24.96h-3.788v-24.96z" fill="#101820"/></svg>