<svg fill="none" height="30" viewBox="0 0 214 30" width="214" xmlns="http://www.w3.org/2000/svg"><path d="m45.7578 9.42831c-2.1643 0-3.5508.70359-3.5508 1.95809 0 1.2546 1.4564 1.8056 3.6207 2.0283 3.077.2582 7.0666.7741 7.0666 4.8897 0 2.9313-2.8078 5.0183-7.1015 5.0183-2.7084 0-5.3116-.5861-7.6047-2.9313l1.8253-2.3451c1.5322 1.5127 3.5998 2.3558 5.7501 2.3451 1.8602 0 3.6855-.551 3.6855-2.0283 0-1.4776-1.4217-1.964-3.8901-2.187-3.1123-.2578-6.7975-1.1726-6.7975-4.6903 0-3.51737 3.8256-4.82475 6.9319-4.82475 2.3225-.04469 4.5914.69121 6.4348 2.08702l-1.8253 2.09323c-1.3138-.95684-2.913-1.45403-4.545-1.41299zm18.6666 10.81059c1.7551 0 3.7907-.5861 4.8378-1.7059l2.2698 2.0871c-1.7258 1.8351-4.6039 2.7026-7.1718 2.7026-5.4813 0-8.9971-3.2478-8.9971-8.3307 0-4.825 3.6503-8.33095 8.9269-8.33095 4.9079 0 8.289 2.73216 8.289 8.20765 0 .4455-.0352.9322-.0702 1.413h-13.5131c.2928 2.474 2.3401 3.9572 5.4287 3.9572zm-.1344-10.61708c-2.5333 0-4.7326 1.31888-5.265 3.89258h10.1144c-.199-2.5442-1.9538-3.89258-4.8494-3.89258zm24.4226 4.40268c0-2.7319-1.626-4.30888-4.4984-4.30888-.6294-.00521-1.2533.11706-1.833.35928-.5798.2422-1.1031.5992-1.5376 1.049-.4387.454-.7805.9903-1.0054 1.5772-.2249.5868-.3281 1.2123-.3037 1.8393v8.4012h-3.5101v-15.89382h3.1824l.2046 2.21622c1.3907-1.66076 3.4469-2.61475 5.6103-2.60295 4.0246 0 7.1715 2.38053 7.1715 7.33425v8.9466h-3.5095l.0292-8.9174zm24.7564 8.9174h-3.282l-.205-2.5154c-1.308 1.8894-3.486 2.9812-5.779 2.8962-4.8377 0-8.5229-3.0543-8.5229-8.3307 0-5.40558 3.6147-8.33095 8.4529-8.33095 2.03 0 4.767.93216 5.849 2.83186v-9.040707h3.511l-.024 22.489397zm-14.3086-7.9499c0 3.2183 2.2986 5.2469 5.2646 5.2469 2.882 0 5.218-2.3413 5.218-5.2295 0-2.8879-2.336-5.22947-5.218-5.22947-2.966 0-5.2646 1.99347-5.2646 5.21207zm20.8016-14.9616257c.279-.02265126.56.0132124.823.1052337.264.092022.505.238119.708.42869.204.192378.366.424475.475.681672.109.25719.163.53391.159.81272-.084 1.13629-1.028 2.01564-2.165 2.01564s-2.081-.87906-2.164-2.01564c-.005-.27881.049-.55553.159-.81272.109-.257197.27-.489294.475-.681672.202-.190571.443-.336668.707-.42869.264-.0920213.545-.12788496.823-.1052337zm1.726 22.9115257h-3.51v-15.89383h3.51zm17.38-8.9174c0-2.7319-1.621-4.30888-4.499-4.30888-.63-.00603-1.254.11569-1.834.35758-.58.242-1.104.599-1.538 1.0489-.439.4542-.781.9908-1.006 1.578-.224.5873-.327 1.2131-.302 1.8403v8.4012h-3.509v-15.89382h3.176l.205 2.21622c1.393-1.66076 3.451-2.61504 5.616-2.60295 4.024 0 7.171 2.38053 7.171 7.33425v8.9466h-3.51zm11.465-4.37348c1.083-1.8997 3.826-2.98997 5.85-2.98997 4.803 0 8.459 2.93127 8.459 8.33095 0 5.2764-3.925 8.3307-8.488 8.3307-2.1 0-4.499-.8675-5.821-2.8962l-.199 2.5154h-3.281v-22.489697h3.51zm.205 5.34098c-.012.6991.119 1.3933.385 2.0414.266.648.661 1.2366 1.162 1.7306.497.4894 1.089.8728 1.742 1.1265.652.2537 1.351.3723 2.052.3484 3.048 0 5.265-2.0283 5.265-5.2469s-2.229-5.21207-5.265-5.21207c-.698-.02293-1.393.09518-2.043.34707-.65.2519-1.241.6323-1.736 1.1178-.501.4901-.897 1.0742-1.165 1.7177-.268.6436-.403 1.3336-.397 2.0295zm21.439 7.9499h-3.509v-22.489697h3.51v22.489697zm8.085-7.2404c0 2.7026 1.591 4.5669 4.533 4.5669.626.0062 1.245-.1149 1.821-.3555.575-.2407 1.095-.5958 1.525-1.0433.435-.4517.773-.9853.994-1.569.222-.5837.321-1.2054.294-1.828v-8.42482h3.48v15.89382h-3.141l-.205-2.1923c-1.42 1.6982-3.541 2.6474-5.75 2.5734-4.095 0-7.02-2.7965-7.02-7.592v-8.68263h3.48zm25.435 4.5374c1.755 0 3.785-.5861 4.838-1.7059l2.263 2.0871c-1.725 1.8351-4.597 2.7026-7.171 2.7026-5.476 0-8.997-3.2478-8.997-8.3307 0-4.825 3.656-8.33095 8.932-8.33095 4.902 0 8.284 2.73216 8.284 8.20765 0 .4455-.035.9322-.065 1.413h-13.53c.31 2.474 2.369 3.9572 5.446 3.9572zm-.135-10.61708c-2.539 0-4.738 1.31888-5.264 3.89258h10.108c-.211-2.5442-1.972-3.89258-4.844-3.89258z" fill="#091e3f"/><path clip-rule="evenodd" d="m26.3022 21.4726c-.778 1.3331-2.0485 2.317-3.5451 2.7454.2139-.7251.3231-1.4763.3244-2.2316 0-3.761-2.625-6.9156-6.1486-7.7746.7304-.7054 1.6323-1.2134 2.619-1.4752.761-.2046 1.5557-.2573 2.3376-.1551.7818.1022 1.5352.3573 2.2161.7504 2.8658 1.6433 3.851 5.2949 2.1966 8.1407zm-11.2899 6.4728c-1.5675 0-3.0584-.6183-4.1647-1.674.7389-.1792 1.448-.4615 2.1061-.8384 3.279-1.8799 4.7174-5.7129 3.7068-9.1719 2.5091.7138 4.3529 3.0076 4.3529 5.7253 0 3.2853-2.6926 5.959-6.0011 5.959zm-11.29045-6.4728c-.78359-1.3481-.98643-2.9363-.62018-4.4136.52552.5426 1.12556 1.0097 1.78257 1.3876 1.22093.7022 2.60864 1.0721 4.0216 1.072 1.09024-.0009 2.16906-.2198 3.17126-.6434 1.0023-.4236 1.9074-1.0432 2.6607-1.8215.6294 2.5133-.4496 5.2422-2.818 6.6003-.9079.5221-1.93973.7972-2.99036.797-1.05682.0005-2.095-.2748-3.0095-.7978s-1.67287-1.2753-2.19839-2.1806zm-.0003-12.94576c.77807-1.33319 2.0487-2.31712 3.54542-2.74542-.21439.72519-.32381 1.47669-.32503 2.23215 0 3.75903 2.62381 6.91273 6.14566 7.77313-1.8773 1.8012-4.79955 2.2396-7.16913.8809-1.38853-.7965-2.38124-2.0812-2.79618-3.6189-.20618-.7556-.25938-1.544-.15655-2.3199.10283-.77592.35967-1.52419.75581-2.20196zm11.29075-6.47286c1.5681 0 3.0576.6177 4.1629 1.67257-.7382.18068-1.4468.46342-2.1049.83982-1.8671 1.0708-3.2024 2.79853-3.7599 4.86637-.382 1.41266-.3645 2.90176.0508 4.30536-2.5079-.7145-4.35021-3.008-4.35021-5.72453 0-3.28614 2.69191-5.95959 6.00131-5.95959zm11.2899 6.47286c.7845 1.34986.9876 2.93986.619 4.41886-.5242-.5449-1.1238-1.0139-1.7811-1.3929-1.8671-1.0699-4.0416-1.3543-6.1241-.8003-1.4255.3792-2.717 1.1402-3.7318 2.1988-.2488-.9815-.2404-2.0095.0245-2.98699.4143-1.53747 1.4073-2.82272 2.7959-3.61888 1.3882-.79558 3.0052-1.00708 4.5536-.59528 1.5484.41209 2.8422 1.39823 3.644 2.77669zm1.7915-1.02655c-1.0778-1.85398-2.818-3.17994-4.9005-3.73392-.4922-.13029-.9958-.21444-1.5041-.25133-1.4937-2.18112-4.001-3.51504-6.6768-3.51504-2.7714 0-5.22011 1.39499-6.67376 3.51416-2.6507.19351-5.06957 1.68318-6.40792 3.98554-1.078439 1.85369-1.36433 4.0136-.80689 6.0814.13264.4883.31116.9634.53325 1.4189-1.155217 2.3755-1.064999 5.1985.27305 7.5 1.38554 2.3829 3.82562 3.7897 6.40014 3.9808 1.49369 2.1829 4.00603 3.5192 6.68183 3.5192 2.7711 0 5.2199-1.3953 6.6732-3.5147 2.6507-.1936 5.0696-1.6826 6.4082-3.9853 1.3859-2.3835 1.393-5.1867.2716-7.4962 1.1567-2.3767 1.0671-5.20085-.2716-7.50351" fill="#0092ff" fill-rule="evenodd"/></svg>