<svg fill="none" height="78" viewBox="0 0 200 78" width="200" xmlns="http://www.w3.org/2000/svg"><path clip-rule="evenodd" d="m94.2448 1.76799c2.9285 2.92845 2.1372 8.46771-1.7674 12.37231s-9.4439 4.6959-12.3724 1.7675c-2.9284-2.9285-2.1371-8.46774 1.7675-12.37233 3.9046-3.904598 9.4439-4.69592 12.3723-1.76748zm-39.9059-.906169 14.1853-.04594.2441 75.363219-14.1853.046zm25.8361 21.754379h14.1853v53.5854h-14.1853zm-41.4623 24.9024c-2.6871-1.5311-5.9678-2.7496-9.9047-3.687-2.8433-.7811-5.093-1.4997-6.7802-2.1559-1.6872-.6561-2.8745-1.3748-3.5619-2.1247-.7187-.7498-1.0624-1.5935-1.0624-2.5308 0-1.406.5937-2.5309 1.8123-3.3432 1.2185-.8124 2.937-1.2186 5.1866-1.2186 1.9997 0 4.3119.4374 6.9052 1.281 2.5934.8749 4.9367 2.0622 7.0302 3.6245l7.0301-9.6235c-2.7495-2.031-5.9366-3.5932-9.5922-4.6868-3.6245-1.0936-7.3426-1.656-11.0921-1.656-4.2493 0-7.9987.6874-11.2169 2.0622-3.2183 1.3748-5.74915 3.2495-7.65511 5.6241-1.8747 2.3747-2.81206 5.1555-2.81206 8.28 0 3.2182.74989 5.9053 2.24965 8.0925 1.49977 2.1871 3.68692 3.9993 6.53022 5.4054 2.8433 1.406 6.2803 2.6246 10.2797 3.6244 2.687.7811 4.7805 1.4685 6.3427 2.0622 1.531.5936 2.6246 1.2185 3.2495 1.8747.6249.6561.9374 1.4998.9374 2.5309 0 1.6559-.7499 2.937-2.2497 3.9368-1.4997.9686-3.4994 1.4686-6.0303 1.4686-2.8433 0-5.7491-.5937-8.7174-1.7498-2.9683-1.1873-5.78033-2.812-8.46741-4.9367l-7.12389 9.8422c3.74941 2.6559 7.65506 4.6243 11.6544 5.9366 3.9994 1.281 8.2175 1.9372 12.6543 1.9372 7.1864 0 12.748-1.531 16.7161-4.6243 3.9682-3.0933 5.9366-7.1239 5.9366-12.1231 0-2.9058-.7186-5.4054-2.1246-7.5613-1.4061-2.1872-3.437-4.0306-6.1241-5.5616zm148.0083-22.4028c4.062 2.4684 7.311 5.8116 9.686 10.0297 2.374 4.2181 3.562 8.9673 3.593 14.154 0 .8147-.058 1.6585-.119 2.5315v.0006l-.006.0925c-.062.9061-.187 1.6873-.344 2.4059h-40.306c.344 1.2498.813 2.4371 1.437 3.5307 1.344 2.4371 3.187 4.3431 5.5 5.7491 2.28 1.406 4.936 2.1247 7.905 2.1247 2.718 0 5.249-.4375 7.561-1.3436 2.281-.9061 4.468-2.3121 6.499-4.2806l7.967 8.6862c-2.874 2.8433-6.155 4.968-9.842 6.4052-3.687 1.4373-7.624 2.156-11.842 2.156-5.468 0-10.404-1.2186-14.779-3.687-4.374-2.4683-7.811-5.8116-10.311-10.0297-2.499-4.2181-3.749-8.9361-3.749-14.1853 0-5.2491 1.187-9.9984 3.624-14.2477 2.406-4.2806 5.687-7.6238 9.843-10.0922 4.155-2.4684 8.748-3.6869 13.841-3.6869 5.156 0 9.78 1.2185 13.842 3.6869zm-26.309 15.8413c-.499.9998-.906 2.0934-1.187 3.2182h27.371c-.313-1.1873-.719-2.2809-1.281-3.3432-1.25-2.3746-2.937-4.3118-5.093-5.7491s-4.624-2.1559-7.436-2.1559c-2.656 0-5.093.7186-7.281 2.1559-2.187 1.4685-3.874 3.4057-5.093 5.8741zm-22.184 20.8717c-2.343 1.7497-4.624 2.6246-6.78 2.6246-2.281 0-4.03-.7811-5.343-2.3434-1.281-1.5622-1.937-3.7182-1.937-6.4365v-20.7467h16.435v-12.3106h-16.404v-17.716l-13.498 5.06171v12.65429h-9.811v12.3106h9.093v20.9967c0 6.7177 1.718 11.9669 5.155 15.7788 3.437 3.7806 8.28 5.6866 14.529 5.6866 2.906 0 5.749-.5312 8.624-1.5935 2.375-.8749 4.499-2.1247 6.436-3.7182.375-.3124.782-.6561 1.125-1.0311l-6.811-9.8422c-.25.2187-.531.4374-.813.6249z" fill="#2f2f30" fill-rule="evenodd"/></svg>