<svg fill-rule="evenodd" height="210mm" preserveAspectRatio="xMidYMid" stroke-linejoin="round" stroke-width="28.222" viewBox="0 0 21000 21000" width="210mm" xmlns="http://www.w3.org/2000/svg" xmlns:xlink="http://www.w3.org/1999/xlink"><clipPath id="a"><path d="m0 0h21000v21000h-21000z"/></clipPath><g clip-path="url(#a)"><path d="m21000 0h-17778v3216h-3222v17784h17784v-3216h3216z" fill="#fff"/><path d="m544 3754h16713v16714h-16713z" fill="#231f20"/><path d="m3018 16216 742-57v1098h622c391 0 753 114 793 589 28 363-198 606-402 640-243 0-170 0-504 0 113 0 430-198 362-470-68-255-288-260-498-272-209-11-1104-56-1104-56z" fill="#fff"/><path d="m2011 17546c-136 159-272 408-193 685 227 770 1467 1121 1982 1138l-57-911s-843 113-1268-334c-187-187-147-385-6-555-164-11-351-23-458-23z" fill="#fff"/><path d="m3754 544h16714v16713h-16714z" fill="#127bca"/><g fill="#fff"><path d="m5951 14477c0 261 11 555 158 787 130 204 323 329 578 329 770 0 770-985 770-1501 0-526 0-1511-753-1511-663 0-753 713-753 1217zm-1382-4399h1365v2254h34c232-465 622-691 1155-691 1347 0 1761 1342 1761 2451 0 1240-499 2458-1920 2458-679 0-1002-255-1347-821-170 204-221 475-306 724h-742z"/><path d="m9155 10078h1370v6375h-1370z"/><path d="m13974 13521c-29-510-199-986-799-986s-832 448-883 986zm-1671 804-11 232c0 560 317 1013 912 1013 424 0 843-306 843-741l1263 90c0 232-549 1631-2152 1631-1410 0-2332-985-2332-2390 0-1392 826-2525 2293-2525 668 0 1347 306 1738 844s492 1206 481 1846z"/><path d="m18402 16453v-815h-17c-221 595-708 912-1353 912-476 0-883-108-1149-538-261-408-233-855-233-1308v-2973h1365v2973c0 379 34 742 521 742 311 0 572-176 691-453 90-215 73-487 73-725v-2537h1365v4722z"/><path d="m11624 10961h-476v-1245h-192v-374h192c0-147-5-317 74-441 102-153 289-221 464-221 40 0 181 5 283 22v368c-73-5-107-5-181-5-164 0-164 96-164 238v39h300v374h-300z"/><path d="m12558 9298v311h6c51-175 147-362 362-345l79 6v481c-368-17-413 277-413 572v640h-481v-1665z"/><path d="m14092 10169c-181 17-515 62-515 300 0 136 74 221 210 221 96 0 187-51 243-136 68-108 62-204 62-323zm46 792c-17-84-23-175-23-260-136 198-277 294-526 294-301 0-527-158-527-470 0-249 153-413 374-492 192-74 453-85 656-108v-39c0-68 6-153-39-215-45-57-125-80-198-80-153 0-289 80-289 238l-459-40c51-402 448-526 799-526 169 0 390 45 526 158 170 136 153 317 153 516v775c0 85 6 170 28 249z"/><path d="m14823 9297h453v283h5c102-215 238-317 482-317 158 0 311 51 413 187 91 119 91 328 91 481v1030h-482v-894c0-170 23-419-226-419-85 0-164 45-198 124-51 91-57 187-57 295v894h-481z"/><path d="m17518 9931c0-147-79-294-249-294-266 0-300 260-300 469 0 204 5 493 277 493 170 0 255-136 272-289l459 29c-40 407-351 656-753 656-510 0-810-356-810-849 0-509 311-883 838-883 385 0 691 255 725 645z"/><path d="m19183 9931c-12-181-74-345-278-345-221 0-300 152-317 345zm-595 283v79c0 199 108 357 323 357 147 0 294-108 294-260l447 34c0 79-192 571-758 571-498 0-821-345-821-838 0-492 289-894 809-894 233 0 470 113 606 300 142 192 176 425 170 651z"/></g></g></svg>