<svg clip-rule="evenodd" fill-rule="evenodd" height=".404029in" image-rendering="optimizeQuality" shape-rendering="geometricPrecision" text-rendering="geometricPrecision" viewBox="0 0 3108.9999 403.99274" width="3.109221in" xmlns="http://www.w3.org/2000/svg"><g fill="#3d4a63" fill-rule="nonzero" transform="translate(0 -1354.0223)"><path d="m623 1485-57 144h115zm186 273h-76l-42-103h-135l-39 103h-35l160-404h1z"/><path d="m1187 1726h158v31h-232v-393h74z"/><path d="m1886 1389h-159v152h150v25h-150v166h161v25h-235v-393h233z"/><path d="m2469 1634h2v-270h31v393h-33l-239-314h-1v314h-32v-393h66z"/><path d="m2788 1757 218-368h-198v-25h301l-219 368h216v25z"/><path d="m0 1364h231v25h-79v368h-74v-368h-78z"/></g></svg>