<svg width="40" height="39" viewBox="0 0 40 39" fill="none" xmlns="http://www.w3.org/2000/svg">
<circle cx="19.4595" cy="19.4595" r="19.4595" fill="#C7A6C9" fill-opacity="0.4"/>
<g clip-path="url(#clip0)">
<path d="M9.51384 10.9608C9.226 10.497 8.59235 10 7.29708 10C6.00181 10 5.36857 10.4966 5.08032 10.9608C5.3459 11.2937 5.68313 11.5625 6.06692 11.7471C6.45072 11.9317 6.8712 12.0274 7.29708 12.027C7.72296 12.0274 8.14344 11.9317 8.52724 11.7471C8.91103 11.5625 9.24826 11.2937 9.51384 10.9608Z" fill="#301044"/>
<path fill-rule="evenodd" clip-rule="evenodd" d="M7.29727 9.5946C7.61983 9.5946 7.92918 9.46647 8.15727 9.23838C8.38535 9.0103 8.51349 8.70095 8.51349 8.37839C8.51349 8.05583 8.38535 7.74648 8.15727 7.51839C7.92918 7.29031 7.61983 7.16217 7.29727 7.16217C6.97471 7.16217 6.66536 7.29031 6.43728 7.51839C6.20919 7.74648 6.08105 8.05583 6.08105 8.37839C6.08105 8.70095 6.20919 9.0103 6.43728 9.23838C6.66536 9.46647 6.97471 9.5946 7.29727 9.5946Z" fill="#301044"/>
<path fill-rule="evenodd" clip-rule="evenodd" d="M7.2972 6.35136C6.54456 6.35136 5.82274 6.65034 5.29054 7.18254C4.75835 7.71474 4.45936 8.43656 4.45936 9.1892C4.45936 9.94184 4.75835 10.6637 5.29054 11.1959C5.82274 11.728 6.54456 12.027 7.2972 12.027C8.04984 12.027 8.77165 11.728 9.30385 11.1959C9.83605 10.6637 10.135 9.94184 10.135 9.1892C10.135 8.43656 9.83605 7.71474 9.30385 7.18254C8.77165 6.65034 8.04984 6.35136 7.2972 6.35136ZM4.05396 9.1892C4.05396 8.32904 4.39565 7.5041 5.00388 6.89588C5.61211 6.28765 6.43704 5.94595 7.2972 5.94595C8.15736 5.94595 8.98229 6.28765 9.59052 6.89588C10.1987 7.5041 10.5404 8.32904 10.5404 9.1892C10.5404 10.0494 10.1987 10.8743 9.59052 11.4825C8.98229 12.0907 8.15736 12.4324 7.2972 12.4324C6.43704 12.4324 5.61211 12.0907 5.00388 11.4825C4.39565 10.8743 4.05396 10.0494 4.05396 9.1892Z" fill="#301044"/>
</g>
<g clip-path="url(#clip1)">
<path d="M9.51384 21.2311C9.226 20.7673 8.59235 20.2703 7.29708 20.2703C6.00181 20.2703 5.36857 20.7669 5.08032 21.2311C5.3459 21.564 5.68313 21.8328 6.06692 22.0174C6.45072 22.202 6.8712 22.2976 7.29708 22.2973C7.72296 22.2976 8.14344 22.202 8.52724 22.0174C8.91103 21.8328 9.24826 21.564 9.51384 21.2311Z" fill="#301044"/>
<path fill-rule="evenodd" clip-rule="evenodd" d="M7.29727 19.8649C7.61983 19.8649 7.92918 19.7367 8.15727 19.5086C8.38535 19.2806 8.51349 18.9712 8.51349 18.6487C8.51349 18.3261 8.38535 18.0167 8.15727 17.7887C7.92918 17.5606 7.61983 17.4324 7.29727 17.4324C6.97471 17.4324 6.66536 17.5606 6.43728 17.7887C6.20919 18.0167 6.08105 18.3261 6.08105 18.6487C6.08105 18.9712 6.20919 19.2806 6.43728 19.5086C6.66536 19.7367 6.97471 19.8649 7.29727 19.8649Z" fill="#301044"/>
<path fill-rule="evenodd" clip-rule="evenodd" d="M7.2972 16.6216C6.54456 16.6216 5.82274 16.9206 5.29054 17.4528C4.75835 17.985 4.45936 18.7068 4.45936 19.4595C4.45936 20.2121 4.75835 20.9339 5.29054 21.4661C5.82274 21.9983 6.54456 22.2973 7.2972 22.2973C8.04984 22.2973 8.77165 21.9983 9.30385 21.4661C9.83605 20.9339 10.135 20.2121 10.135 19.4595C10.135 18.7068 9.83605 17.985 9.30385 17.4528C8.77165 16.9206 8.04984 16.6216 7.2972 16.6216ZM4.05396 19.4595C4.05396 18.5993 4.39565 17.7744 5.00388 17.1661C5.61211 16.5579 6.43704 16.2162 7.2972 16.2162C8.15736 16.2162 8.98229 16.5579 9.59052 17.1661C10.1987 17.7744 10.5404 18.5993 10.5404 19.4595C10.5404 20.3196 10.1987 21.1446 9.59052 21.7528C8.98229 22.361 8.15736 22.7027 7.2972 22.7027C6.43704 22.7027 5.61211 22.361 5.00388 21.7528C4.39565 21.1446 4.05396 20.3196 4.05396 19.4595Z" fill="#301044"/>
</g>
<g clip-path="url(#clip2)">
<path d="M9.51384 31.5013C9.226 31.0376 8.59235 30.5405 7.29708 30.5405C6.00181 30.5405 5.36857 31.0371 5.08032 31.5013C5.3459 31.8343 5.68313 32.103 6.06692 32.2876C6.45072 32.4722 6.8712 32.5679 7.29708 32.5676C7.72296 32.5679 8.14344 32.4722 8.52724 32.2876C8.91103 32.103 9.24826 31.8343 9.51384 31.5013Z" fill="#301044"/>
<path fill-rule="evenodd" clip-rule="evenodd" d="M7.29727 30.1351C7.61983 30.1351 7.92918 30.007 8.15727 29.7789C8.38535 29.5508 8.51349 29.2415 8.51349 28.9189C8.51349 28.5964 8.38535 28.287 8.15727 28.0589C7.92918 27.8308 7.61983 27.7027 7.29727 27.7027C6.97471 27.7027 6.66536 27.8308 6.43728 28.0589C6.20919 28.287 6.08105 28.5964 6.08105 28.9189C6.08105 29.2415 6.20919 29.5508 6.43728 29.7789C6.66536 30.007 6.97471 30.1351 7.29727 30.1351Z" fill="#301044"/>
<path fill-rule="evenodd" clip-rule="evenodd" d="M7.2972 26.8919C6.54456 26.8919 5.82274 27.1909 5.29054 27.7231C4.75835 28.2553 4.45936 28.9771 4.45936 29.7297C4.45936 30.4824 4.75835 31.2042 5.29054 31.7364C5.82274 32.2686 6.54456 32.5676 7.2972 32.5676C8.04984 32.5676 8.77165 32.2686 9.30385 31.7364C9.83605 31.2042 10.135 30.4824 10.135 29.7297C10.135 28.9771 9.83605 28.2553 9.30385 27.7231C8.77165 27.1909 8.04984 26.8919 7.2972 26.8919ZM4.05396 29.7297C4.05396 28.8696 4.39565 28.0446 5.00388 27.4364C5.61211 26.8282 6.43704 26.4865 7.2972 26.4865C8.15736 26.4865 8.98229 26.8282 9.59052 27.4364C10.1987 28.0446 10.5404 28.8696 10.5404 29.7297C10.5404 30.5899 10.1987 31.4148 9.59052 32.023C8.98229 32.6313 8.15736 32.973 7.2972 32.973C6.43704 32.973 5.61211 32.6313 5.00388 32.023C4.39565 31.4148 4.05396 30.5899 4.05396 29.7297Z" fill="#301044"/>
</g>
<rect x="18.1082" y="8.10811" width="18.6486" height="2.43243" rx="1.21622" fill="#C7A6C9"/>
<mask id="path-12-outside-1" maskUnits="userSpaceOnUse" x="10.8918" y="6.83784" width="7" height="6" fill="black">
<rect fill="white" x="10.8918" y="6.83784" width="7" height="6"/>
<path fill-rule="evenodd" clip-rule="evenodd" d="M16.6946 7.89738C16.7143 7.91621 16.7299 7.93857 16.7406 7.96319C16.7512 7.98781 16.7567 8.01421 16.7567 8.04086C16.7567 8.06752 16.7512 8.09392 16.7406 8.11854C16.7299 8.14316 16.7143 8.16552 16.6946 8.18435L13.7337 11.0215C13.7141 11.0404 13.6908 11.0554 13.6651 11.0656C13.6394 11.0758 13.6118 11.0811 13.584 11.0811C13.5562 11.0811 13.5287 11.0758 13.503 11.0656C13.4773 11.0554 13.4539 11.0404 13.4343 11.0215L11.9539 9.60295C11.9142 9.56489 11.8918 9.51328 11.8918 9.45947C11.8918 9.40565 11.9142 9.35404 11.9539 9.31599C11.9936 9.27793 12.0474 9.25655 12.1036 9.25655C12.1598 9.25655 12.2136 9.27793 12.2533 9.31599L13.584 10.5915L16.3951 7.89738C16.4148 7.87851 16.4381 7.86354 16.4638 7.85332C16.4895 7.8431 16.517 7.83784 16.5448 7.83784C16.5727 7.83784 16.6002 7.8431 16.6259 7.85332C16.6516 7.86354 16.6749 7.87851 16.6946 7.89738Z"/>
</mask>
<path fill-rule="evenodd" clip-rule="evenodd" d="M16.6946 7.89738C16.7143 7.91621 16.7299 7.93857 16.7406 7.96319C16.7512 7.98781 16.7567 8.01421 16.7567 8.04086C16.7567 8.06752 16.7512 8.09392 16.7406 8.11854C16.7299 8.14316 16.7143 8.16552 16.6946 8.18435L13.7337 11.0215C13.7141 11.0404 13.6908 11.0554 13.6651 11.0656C13.6394 11.0758 13.6118 11.0811 13.584 11.0811C13.5562 11.0811 13.5287 11.0758 13.503 11.0656C13.4773 11.0554 13.4539 11.0404 13.4343 11.0215L11.9539 9.60295C11.9142 9.56489 11.8918 9.51328 11.8918 9.45947C11.8918 9.40565 11.9142 9.35404 11.9539 9.31599C11.9936 9.27793 12.0474 9.25655 12.1036 9.25655C12.1598 9.25655 12.2136 9.27793 12.2533 9.31599L13.584 10.5915L16.3951 7.89738C16.4148 7.87851 16.4381 7.86354 16.4638 7.85332C16.4895 7.8431 16.517 7.83784 16.5448 7.83784C16.5727 7.83784 16.6002 7.8431 16.6259 7.85332C16.6516 7.86354 16.6749 7.87851 16.6946 7.89738Z" fill="#30B081"/>
<path d="M16.6946 8.18435L16.0036 7.46145L16.0027 7.46233L16.6946 8.18435ZM13.7337 11.0215L13.0419 10.2995L13.041 10.3004L13.7337 11.0215ZM13.4343 11.0215L14.1271 10.3004L14.1262 10.2995L13.4343 11.0215ZM11.8918 9.45947H10.8918H11.8918ZM12.2533 9.31599L12.9453 8.59408L12.9452 8.59397L12.2533 9.31599ZM13.584 10.5915L12.892 11.3134L13.584 11.9767L14.2759 11.3135L13.584 10.5915ZM16.3951 7.89738L17.087 8.61935L17.0879 8.61853L16.3951 7.89738ZM16.5448 7.83784V8.83784V7.83784ZM16.0036 8.62028C15.9283 8.54828 15.8661 8.46043 15.8229 8.36057L17.6582 7.56582C17.5936 7.41671 17.5002 7.28413 17.3855 7.17449L16.0036 8.62028ZM15.8229 8.36057C15.7796 8.26059 15.7567 8.15182 15.7567 8.04086H17.7567C17.7567 7.8766 17.7228 7.71503 17.6582 7.56582L15.8229 8.36057ZM15.7567 8.04086C15.7567 7.92991 15.7796 7.82113 15.8229 7.72116L17.6582 8.51591C17.7228 8.3667 17.7567 8.20513 17.7567 8.04086H15.7567ZM15.8229 7.72116C15.8661 7.6213 15.9283 7.53345 16.0036 7.46145L17.3855 8.90724C17.5002 8.7976 17.5936 8.66502 17.6582 8.51591L15.8229 7.72116ZM16.0027 7.46233L13.0419 10.2995L14.4256 11.7436L17.3865 8.90637L16.0027 7.46233ZM13.041 10.3004C13.116 10.2283 13.2029 10.1732 13.2956 10.1364L14.0346 11.9948C14.1786 11.9376 14.3122 11.8526 14.4265 11.7427L13.041 10.3004ZM13.2956 10.1364C13.3882 10.0996 13.4861 10.0811 13.584 10.0811V12.0811C13.7376 12.0811 13.8906 12.0521 14.0346 11.9948L13.2956 10.1364ZM13.584 10.0811C13.6819 10.0811 13.7798 10.0996 13.8724 10.1364L13.1335 11.9948C13.2775 12.0521 13.4305 12.0811 13.584 12.0811V10.0811ZM13.8724 10.1364C13.9651 10.1732 14.052 10.2283 14.1271 10.3004L12.7415 11.7427C12.8559 11.8526 12.9894 11.9376 13.1335 11.9948L13.8724 10.1364ZM14.1262 10.2995L12.6457 8.88093L11.262 10.325L12.7424 11.7436L14.1262 10.2995ZM12.6457 8.88093C12.798 9.0268 12.8918 9.23397 12.8918 9.45947H10.8918C10.8918 9.79259 11.0303 10.103 11.262 10.325L12.6457 8.88093ZM12.8918 9.45947C12.8918 9.68496 12.798 9.89213 12.6457 10.038L11.262 8.59397C11.0303 8.81595 10.8918 9.12634 10.8918 9.45947H12.8918ZM12.6457 10.038C12.495 10.1825 12.2992 10.2566 12.1036 10.2566V8.25655C11.7957 8.25655 11.4922 8.37338 11.262 8.59397L12.6457 10.038ZM12.1036 10.2566C11.908 10.2566 11.7122 10.1825 11.5615 10.038L12.9452 8.59397C12.715 8.37338 12.4115 8.25655 12.1036 8.25655V10.2566ZM11.5613 10.0379L12.892 11.3134L14.276 9.8696L12.9453 8.59408L11.5613 10.0379ZM14.2759 11.3135L17.087 8.61935L15.7032 7.17542L12.8921 9.86954L14.2759 11.3135ZM17.0879 8.61853C17.0128 8.69065 16.9259 8.74571 16.8333 8.78255L16.0943 6.92409C15.9502 6.98137 15.8167 7.06637 15.7023 7.17624L17.0879 8.61853ZM16.8333 8.78255C16.7407 8.81938 16.6428 8.83784 16.5448 8.83784V6.83784C16.3913 6.83784 16.2383 6.86683 16.0943 6.92409L16.8333 8.78255ZM16.5448 8.83784C16.4469 8.83784 16.349 8.81938 16.2564 8.78255L16.9954 6.92409C16.8514 6.86683 16.6984 6.83784 16.5448 6.83784V8.83784ZM16.2564 8.78255C16.1637 8.74571 16.0769 8.69065 16.0018 8.61853L17.3874 7.17624C17.273 7.06637 17.1394 6.98137 16.9954 6.92409L16.2564 8.78255Z" fill="#30B081" mask="url(#path-12-outside-1)"/>
<mask id="path-14-outside-2" maskUnits="userSpaceOnUse" x="10.8918" y="17.1081" width="7" height="6" fill="black">
<rect fill="white" x="10.8918" y="17.1081" width="7" height="6"/>
<path fill-rule="evenodd" clip-rule="evenodd" d="M16.6946 18.1676C16.7143 18.1865 16.7299 18.2088 16.7406 18.2335C16.7512 18.2581 16.7567 18.2845 16.7567 18.3111C16.7567 18.3378 16.7512 18.3642 16.7406 18.3888C16.7299 18.4134 16.7143 18.4358 16.6946 18.4546L13.7337 21.2918C13.7141 21.3107 13.6908 21.3257 13.6651 21.3359C13.6394 21.3461 13.6118 21.3514 13.584 21.3514C13.5562 21.3514 13.5287 21.3461 13.503 21.3359C13.4773 21.3257 13.4539 21.3107 13.4343 21.2918L11.9539 19.8732C11.9142 19.8352 11.8918 19.7835 11.8918 19.7297C11.8918 19.6759 11.9142 19.6243 11.9539 19.5862C11.9936 19.5482 12.0474 19.5268 12.1036 19.5268C12.1598 19.5268 12.2136 19.5482 12.2533 19.5862L13.584 20.8618L16.3951 18.1676C16.4148 18.1488 16.4381 18.1338 16.4638 18.1236C16.4895 18.1134 16.517 18.1081 16.5448 18.1081C16.5727 18.1081 16.6002 18.1134 16.6259 18.1236C16.6516 18.1338 16.6749 18.1488 16.6946 18.1676Z"/>
</mask>
<path fill-rule="evenodd" clip-rule="evenodd" d="M16.6946 18.1676C16.7143 18.1865 16.7299 18.2088 16.7406 18.2335C16.7512 18.2581 16.7567 18.2845 16.7567 18.3111C16.7567 18.3378 16.7512 18.3642 16.7406 18.3888C16.7299 18.4134 16.7143 18.4358 16.6946 18.4546L13.7337 21.2918C13.7141 21.3107 13.6908 21.3257 13.6651 21.3359C13.6394 21.3461 13.6118 21.3514 13.584 21.3514C13.5562 21.3514 13.5287 21.3461 13.503 21.3359C13.4773 21.3257 13.4539 21.3107 13.4343 21.2918L11.9539 19.8732C11.9142 19.8352 11.8918 19.7835 11.8918 19.7297C11.8918 19.6759 11.9142 19.6243 11.9539 19.5862C11.9936 19.5482 12.0474 19.5268 12.1036 19.5268C12.1598 19.5268 12.2136 19.5482 12.2533 19.5862L13.584 20.8618L16.3951 18.1676C16.4148 18.1488 16.4381 18.1338 16.4638 18.1236C16.4895 18.1134 16.517 18.1081 16.5448 18.1081C16.5727 18.1081 16.6002 18.1134 16.6259 18.1236C16.6516 18.1338 16.6749 18.1488 16.6946 18.1676Z" fill="#30B081"/>
<path d="M16.6946 18.4546L16.0036 17.7317L16.0027 17.7326L16.6946 18.4546ZM13.7337 21.2918L13.0419 20.5698L13.041 20.5707L13.7337 21.2918ZM13.4343 21.2918L14.1271 20.5707L14.1262 20.5698L13.4343 21.2918ZM11.8918 19.7297H10.8918H11.8918ZM12.2533 19.5862L12.9453 18.8643L12.9452 18.8642L12.2533 19.5862ZM13.584 20.8618L12.892 21.5837L13.584 22.2469L14.2759 21.5837L13.584 20.8618ZM16.3951 18.1676L17.087 18.8896L17.0879 18.8888L16.3951 18.1676ZM16.5448 18.1081V19.1081V18.1081ZM16.0036 18.8905C15.9283 18.8185 15.8661 18.7307 15.8229 18.6308L17.6582 17.8361C17.5936 17.687 17.5002 17.5544 17.3855 17.4448L16.0036 18.8905ZM15.8229 18.6308C15.7796 18.5309 15.7567 18.4221 15.7567 18.3111H17.7567C17.7567 18.1469 17.7228 17.9853 17.6582 17.8361L15.8229 18.6308ZM15.7567 18.3111C15.7567 18.2002 15.7796 18.0914 15.8229 17.9914L17.6582 18.7862C17.7228 18.637 17.7567 18.4754 17.7567 18.3111H15.7567ZM15.8229 17.9914C15.8661 17.8916 15.9283 17.8037 16.0036 17.7317L17.3855 19.1775C17.5002 19.0679 17.5936 18.9353 17.6582 18.7862L15.8229 17.9914ZM16.0027 17.7326L13.0419 20.5698L14.4256 22.0138L17.3865 19.1766L16.0027 17.7326ZM13.041 20.5707C13.116 20.4986 13.2029 20.4435 13.2956 20.4066L14.0346 22.2651C14.1786 22.2078 14.3122 22.1228 14.4265 22.013L13.041 20.5707ZM13.2956 20.4066C13.3882 20.3698 13.4861 20.3514 13.584 20.3514V22.3514C13.7376 22.3514 13.8906 22.3224 14.0346 22.2651L13.2956 20.4066ZM13.584 20.3514C13.6819 20.3514 13.7798 20.3698 13.8724 20.4066L13.1335 22.2651C13.2775 22.3224 13.4305 22.3514 13.584 22.3514V20.3514ZM13.8724 20.4066C13.9651 20.4435 14.052 20.4986 14.1271 20.5707L12.7415 22.013C12.8559 22.1228 12.9894 22.2078 13.1335 22.2651L13.8724 20.4066ZM14.1262 20.5698L12.6457 19.1512L11.262 20.5952L12.7424 22.0138L14.1262 20.5698ZM12.6457 19.1512C12.798 19.2971 12.8918 19.5042 12.8918 19.7297H10.8918C10.8918 20.0629 11.0303 20.3733 11.262 20.5952L12.6457 19.1512ZM12.8918 19.7297C12.8918 19.9552 12.798 20.1624 12.6457 20.3083L11.262 18.8642C11.0303 19.0862 10.8918 19.3966 10.8918 19.7297H12.8918ZM12.6457 20.3083C12.495 20.4528 12.2992 20.5268 12.1036 20.5268V18.5268C11.7957 18.5268 11.4922 18.6436 11.262 18.8642L12.6457 20.3083ZM12.1036 20.5268C11.908 20.5268 11.7122 20.4528 11.5615 20.3083L12.9452 18.8642C12.715 18.6436 12.4115 18.5268 12.1036 18.5268V20.5268ZM11.5613 20.3082L12.892 21.5837L14.276 20.1399L12.9453 18.8643L11.5613 20.3082ZM14.2759 21.5837L17.087 18.8896L15.7032 17.4457L12.8921 20.1398L14.2759 21.5837ZM17.0879 18.8888C17.0128 18.9609 16.9259 19.016 16.8333 19.0528L16.0943 17.1943C15.9502 17.2516 15.8167 17.3366 15.7023 17.4465L17.0879 18.8888ZM16.8333 19.0528C16.7407 19.0896 16.6428 19.1081 16.5448 19.1081V17.1081C16.3913 17.1081 16.2383 17.1371 16.0943 17.1943L16.8333 19.0528ZM16.5448 19.1081C16.4469 19.1081 16.349 19.0896 16.2564 19.0528L16.9954 17.1943C16.8514 17.1371 16.6984 17.1081 16.5448 17.1081V19.1081ZM16.2564 19.0528C16.1637 19.016 16.0769 18.9609 16.0018 18.8888L17.3874 17.4465C17.273 17.3366 17.1394 17.2516 16.9954 17.1943L16.2564 19.0528Z" fill="#30B081" mask="url(#path-14-outside-2)"/>
<mask id="path-16-outside-3" maskUnits="userSpaceOnUse" x="10.8918" y="27.3784" width="7" height="6" fill="black">
<rect fill="white" x="10.8918" y="27.3784" width="7" height="6"/>
<path fill-rule="evenodd" clip-rule="evenodd" d="M16.6946 28.4379C16.7143 28.4567 16.7299 28.4791 16.7406 28.5037C16.7512 28.5283 16.7567 28.5547 16.7567 28.5814C16.7567 28.608 16.7512 28.6344 16.7406 28.6591C16.7299 28.6837 16.7143 28.706 16.6946 28.7249L13.7337 31.5621C13.7141 31.581 13.6908 31.5959 13.6651 31.6061C13.6394 31.6164 13.6118 31.6216 13.584 31.6216C13.5562 31.6216 13.5287 31.6164 13.503 31.6061C13.4773 31.5959 13.4539 31.581 13.4343 31.5621L11.9539 30.1435C11.9142 30.1054 11.8918 30.0538 11.8918 30C11.8918 29.9462 11.9142 29.8946 11.9539 29.8565C11.9936 29.8185 12.0474 29.7971 12.1036 29.7971C12.1598 29.7971 12.2136 29.8185 12.2533 29.8565L13.584 31.132L16.3951 28.4379C16.4148 28.419 16.4381 28.4041 16.4638 28.3938C16.4895 28.3836 16.517 28.3784 16.5448 28.3784C16.5727 28.3784 16.6002 28.3836 16.6259 28.3938C16.6516 28.4041 16.6749 28.419 16.6946 28.4379Z"/>
</mask>
<path fill-rule="evenodd" clip-rule="evenodd" d="M16.6946 28.4379C16.7143 28.4567 16.7299 28.4791 16.7406 28.5037C16.7512 28.5283 16.7567 28.5547 16.7567 28.5814C16.7567 28.608 16.7512 28.6344 16.7406 28.6591C16.7299 28.6837 16.7143 28.706 16.6946 28.7249L13.7337 31.5621C13.7141 31.581 13.6908 31.5959 13.6651 31.6061C13.6394 31.6164 13.6118 31.6216 13.584 31.6216C13.5562 31.6216 13.5287 31.6164 13.503 31.6061C13.4773 31.5959 13.4539 31.581 13.4343 31.5621L11.9539 30.1435C11.9142 30.1054 11.8918 30.0538 11.8918 30C11.8918 29.9462 11.9142 29.8946 11.9539 29.8565C11.9936 29.8185 12.0474 29.7971 12.1036 29.7971C12.1598 29.7971 12.2136 29.8185 12.2533 29.8565L13.584 31.132L16.3951 28.4379C16.4148 28.419 16.4381 28.4041 16.4638 28.3938C16.4895 28.3836 16.517 28.3784 16.5448 28.3784C16.5727 28.3784 16.6002 28.3836 16.6259 28.3938C16.6516 28.4041 16.6749 28.419 16.6946 28.4379Z" fill="#30B081"/>
<path d="M16.6946 28.7249L16.0036 28.002L16.0027 28.0029L16.6946 28.7249ZM13.7337 31.5621L13.0419 30.8401L13.041 30.8409L13.7337 31.5621ZM13.4343 31.5621L14.1271 30.8409L14.1262 30.8401L13.4343 31.5621ZM11.8918 30H10.8918H11.8918ZM12.2533 29.8565L12.9453 29.1346L12.9452 29.1345L12.2533 29.8565ZM13.584 31.132L12.892 31.8539L13.584 32.5172L14.2759 31.854L13.584 31.132ZM16.3951 28.4379L17.087 29.1599L17.0879 29.1591L16.3951 28.4379ZM16.5448 28.3784V29.3784V28.3784ZM16.0036 29.1608C15.9283 29.0888 15.8661 29.001 15.8229 28.9011L17.6582 28.1063C17.5936 27.9572 17.5002 27.8247 17.3855 27.715L16.0036 29.1608ZM15.8229 28.9011C15.7796 28.8011 15.7567 28.6923 15.7567 28.5814H17.7567C17.7567 28.4171 17.7228 28.2556 17.6582 28.1063L15.8229 28.9011ZM15.7567 28.5814C15.7567 28.4704 15.7796 28.3617 15.8229 28.2617L17.6582 29.0564C17.7228 28.9072 17.7567 28.7457 17.7567 28.5814H15.7567ZM15.8229 28.2617C15.8661 28.1618 15.9283 28.074 16.0036 28.002L17.3855 29.4478C17.5002 29.3381 17.5936 29.2055 17.6582 29.0564L15.8229 28.2617ZM16.0027 28.0029L13.0419 30.8401L14.4256 32.2841L17.3865 29.4469L16.0027 28.0029ZM13.041 30.8409C13.116 30.7688 13.2029 30.7138 13.2956 30.6769L14.0346 32.5354C14.1786 32.4781 14.3122 32.3931 14.4265 32.2832L13.041 30.8409ZM13.2956 30.6769C13.3882 30.6401 13.4861 30.6216 13.584 30.6216V32.6216C13.7376 32.6216 13.8906 32.5926 14.0346 32.5354L13.2956 30.6769ZM13.584 30.6216C13.6819 30.6216 13.7798 30.6401 13.8724 30.6769L13.1335 32.5354C13.2775 32.5926 13.4305 32.6216 13.584 32.6216V30.6216ZM13.8724 30.6769C13.9651 30.7138 14.052 30.7688 14.1271 30.8409L12.7415 32.2832C12.8559 32.3931 12.9894 32.4781 13.1335 32.5354L13.8724 30.6769ZM14.1262 30.8401L12.6457 29.4215L11.262 30.8655L12.7424 32.2841L14.1262 30.8401ZM12.6457 29.4215C12.798 29.5673 12.8918 29.7745 12.8918 30H10.8918C10.8918 30.3331 11.0303 30.6435 11.262 30.8655L12.6457 29.4215ZM12.8918 30C12.8918 30.2255 12.798 30.4327 12.6457 30.5785L11.262 29.1345C11.0303 29.3565 10.8918 29.6669 10.8918 30H12.8918ZM12.6457 30.5785C12.495 30.723 12.2992 30.7971 12.1036 30.7971V28.7971C11.7957 28.7971 11.4922 28.9139 11.262 29.1345L12.6457 30.5785ZM12.1036 30.7971C11.908 30.7971 11.7122 30.723 11.5615 30.5785L12.9452 29.1345C12.715 28.9139 12.4115 28.7971 12.1036 28.7971V30.7971ZM11.5613 30.5784L12.892 31.8539L14.276 30.4101L12.9453 29.1346L11.5613 30.5784ZM14.2759 31.854L17.087 29.1599L15.7032 27.7159L12.8921 30.4101L14.2759 31.854ZM17.0879 29.1591C17.0128 29.2312 16.9259 29.2862 16.8333 29.3231L16.0943 27.4646C15.9502 27.5219 15.8167 27.6069 15.7023 27.7168L17.0879 29.1591ZM16.8333 29.3231C16.7407 29.3599 16.6428 29.3784 16.5448 29.3784V27.3784C16.3913 27.3784 16.2383 27.4074 16.0943 27.4646L16.8333 29.3231ZM16.5448 29.3784C16.4469 29.3784 16.349 29.3599 16.2564 29.3231L16.9954 27.4646C16.8514 27.4074 16.6984 27.3784 16.5448 27.3784V29.3784ZM16.2564 29.3231C16.1637 29.2862 16.0769 29.2312 16.0018 29.1591L17.3874 27.7168C17.273 27.6069 17.1394 27.5219 16.9954 27.4646L16.2564 29.3231Z" fill="#30B081" mask="url(#path-16-outside-3)"/>
<rect x="18.1082" y="18.3784" width="21.8919" height="2.43243" rx="1.21622" fill="#C7A6C9"/>
<rect x="18.1082" y="28.6487" width="18.6486" height="2.43243" rx="1.21622" fill="#C7A6C9"/>
<defs>
<clipPath id="clip0">
<rect width="6.48649" height="6.48649" fill="white" transform="translate(4.05396 5.94595)"/>
</clipPath>
<clipPath id="clip1">
<rect width="6.48649" height="6.48649" fill="white" transform="translate(4.05396 16.2162)"/>
</clipPath>
<clipPath id="clip2">
<rect width="6.48649" height="6.48649" fill="white" transform="translate(4.05396 26.4865)"/>
</clipPath>
</defs>
</svg>
