<svg fill="none" height="60" viewBox="0 0 61 60" width="61" xmlns="http://www.w3.org/2000/svg" xmlns:xlink="http://www.w3.org/1999/xlink"><clipPath id="a"><path d="m0 0h61v60h-61z"/></clipPath><g clip-path="url(#a)" fill="#000"><path d="m17.1577 47.33-1.5735-.7075c-.779-.3509-1.4573-.214-1.7654.4665-.3004.6612.0368 1.2743.8197 1.6251l1.9572.883 1.2926-2.8378-.3895-.1754zm-.7964 1.7504-1.5096-.6786c-.5756-.2602-.8488-.6458-.6279-1.1297.2267-.5012.6957-.534 1.2674-.2756l1.5095.6785zm-4.0075-4.2894-1.3236-1.0275-.1317-1.1509-.4419-.3432.1473 1.2223c-.5387-.2603-1.06775-.187-1.434.2795-.44764.5706-.26742 1.2454.41082 1.7736l1.69178 1.3148 1.9281-2.4541-.3372-.2603zm-1.186 1.5095-1.30415-1.016c-.49803-.3874-.6705-.827-.343-1.2434.33912-.4338.80225-.3547 1.29645.0289l1.3041 1.016zm-4.07334-7.8655-.30811.2468 1.70918 2.1109-.83522.669-1.6743-2.0686-.30424.2429 1.67624 2.0686-.68794.5513-1.69561-2.0936-.30812.2468 1.96498 2.4233 2.43975-1.9568zm-2.66648 3.1886.28293.347.86816-.0077-.26161-.3239zm-.39726-7.0558c.30037-.1465.63949.0617 1.03094.8675.29649.6053.35269 1.1798.16665 1.6136l.35657.2333c.23642-.5649.18991-1.2223-.20348-2.0262-.53097-1.0892-1.07938-1.2974-1.55221-1.0699-1.24604.5995.7732 2.8821-.02907 3.2676-.26742.1292-.58717-.0192-.93986-.7422-.2868-.5899-.35462-1.1335-.16665-1.5422l-.34688-.2237c-.24416.5186-.18022 1.1799.19185 1.9394.4864 1.0006 1.02125 1.1664 1.43982.9639 1.27317-.613-.77901-2.8821.05232-3.2811zm-.09689-2.9669-3.01529.8617.11821.4087 3.01529-.8617zm-.69956-3.7034c-.14146-1.361-.82165-1.9413-1.79832-1.8411-.924358.0945-1.4630799.8001-1.321617 2.1631l.182158 1.7658 3.119939-.32zm-2.587029 1.6213-.141463-1.3668c-.106581-1.0391.284864-1.5866.982492-1.6579.73444-.0752 1.2441.3797 1.35262 1.4169l.14146 1.3668zm2.873829-8.44-.39144-.052-.35463 2.6893-1.06388-.1408.34881-2.6334-.38563-.0501-.34881 2.6334-.873971-.1157.352688-2.6661-.391445-.0502-.412762 3.0884 3.10831.4087zm.58717-2.2536-2.38356-.9177 3.49395-1.8699.13371-.3413-2.94747-1.1374-.15115.3875 2.39324.9215-3.50363 1.8758-.13371.3412 2.94553 1.1355zm.73638-5.5309c.82552.5764 1.81189.2814 2.5192-.7249.43408-.615.59492-1.2859.38176-1.8526l-.39145.1773c.16085.4781.02907.9794-.30424 1.4517-.53097.7538-1.28285 1.0468-1.94366.5841-.66081-.4607-.63755-1.2589-.11627-2.0011.33137-.4684.76351-.7653 1.26154-.773l.03488-.42801c-.6298.00193-1.19371.38751-1.61423.98511-.69569.9928-.63949 2.0127.17247 2.5814zm6.96848-5.49819-.2616-.29303-2.03666 1.80252-.71313-.79619 1.99409-1.76589-.2578-.28917-1.99403 1.76588-.58716-.65546 2.0173-1.78709-.26161-.29303-2.33705 2.06663 2.08319 2.32881zm5.6818-3.16548c1.2809-.49738 1.6607-1.30514 1.3042-2.21314-.3372-.86367-1.1647-1.1914-2.4456-.69402l-1.6607.64582 1.1394 2.90716zm-.9767-2.54858c.9767-.37978 1.6123-.15037 1.8662.50123.2674.68438-.0369 1.29357-1.0135 1.67528l-1.2848.49931-.8527-2.17459zm7.67 1.00439-.0542-.38942-2.7014.37207-.1473-1.05644 2.6452-.36436-.0543-.38364-2.6451.36436-.1221-.869448 2.6781-.370142-.0543-.38942-3.1005.427977.4302 3.088373zm7.7708.39906-2.5231-.50894.5446-2.671964-.4186-.082896-.6221 3.0556 2.9417.59377zm2.2634.43184 1.9999.88487.0794.83282.4515.19856-.3488-3.59346-.3856-.17158-2.9223 2.1476.4496.19856zm1.7906-1.33213.0038.00193.1686 1.80058-1.6219-.71715zm5.2012 5.43646 1.1995 1.17404v1.16059l.4011.3932-.0077-1.23184c.5057.32002 1.0406.30652 1.4592-.11567.5116-.51858.4069-1.21067-.2035-1.81023l-1.5328-1.50177-2.2014 2.22471.3042.29881zm1.3526-1.36683 1.184 1.15862c.4515.44148.5736.89644.1977 1.27622-.3895.39328-.8391.26026-1.2868-.17543l-1.1821-1.15669zm6.1623 5.40366-.2403-.3798-.8662-.0886.2229.3528zm-3.0172 2.8648.3352-.2082-1.4591-2.2922.9069-.5706 1.4262 2.2459.3314-.2082-1.4282-2.246.7461-.4703 1.4475 2.2729.3334-.2082-1.6743-2.6315-2.651 1.6675zm.9806 2.1206.7809-.2699.5659 1.6232c.279.8039.8449 1.201 1.5561.9543.6879-.2371.9049-.9022.622-1.71l-.7034-2.0204-2.9611 1.0218zm2.6064-.8984.5426 1.5577c.2054.5938.1124 1.0564-.3934 1.2299-.5213.1813-.8682-.1349-1.0736-.7248l-.5426-1.5577zm-1.1221 7.3412c.1124 1.2048.6008 1.8256 1.6085 1.7331l1.7557-.1639-.0369-.4087-1.7053.1581c-.8081.0752-1.1472-.4029-1.2344-1.3495-.0891-.9523.1531-1.4844.9631-1.5596l1.7053-.1581-.0387-.4222-1.7557.1639c-1.0116.0925-1.3739.7981-1.2616 2.0069zm-.153 5.9068c-.1338.883.1414 1.3726.6821 1.4517.4399.0655.7286-.1909.8933-.5649l.0039.0019c.0446.3856.2325.642.5775.694.4922.0733.8216-.3065.9476-1.1451l.3197-2.1264-3.1025-.4626zm1.8564.241.2558-1.6926.8779.1291-.2617 1.7273c-.0775.5206-.2441.777-.5425.7326-.283-.0385-.4225-.2699-.3295-.8964zm-1.4863-.1658.2616-1.7466 1.1084.1639-.2519 1.6791c-.1046.6901-.3837.8964-.6918.8502-.3643-.0521-.5135-.374-.4263-.9466zm-2.182 5.8162.3682.1427.9301-2.3867 2.556.9832.1551-.3952-2.9242-1.1277zm-1.0465 1.818 2.7072 1.5711.2151-.3682-2.7072-1.5692zm.3062 2.5486c-.7616-.6497-1.777-.4415-2.6238.5397-.376.4338-.595.8791-.6589 1.2936l-.7267.3104.3197.2737.4147-.1754c.0311.3682.2016.696.5116.9601.7577.6458 1.7751.4376 2.6219-.5418.8449-.9812.8992-2.0126.1415-2.6603zm-.4341 2.4097c-.6472.7499-1.4262.9794-2.0386.455-.2616-.2236-.3837-.4993-.3972-.7962l1.3681-.5726-.3198-.2737-.9883.4087c.0775-.2738.2364-.5649.4787-.8444.6433-.748 1.4301-.9774 2.0425-.453.6104.5263.4999 1.3263-.1454 2.0762zm-6.3735 1.8989c-.9961.696-1.2984 1.4247-.7171 2.2479l1.0135 1.4362.3372-.2371-.9844-1.3958c-.467-.6612-.217-1.1914.5659-1.7389.7867-.5494 1.3739-.6034 1.839.0598l.9825 1.3957.3488-.2429-1.0135-1.4362c-.5775-.8251-1.374-.7865-2.3719-.0887zm-6.1411 3.1462.1453.3663 2.5367-.9909.3914.9948-2.4843.9697.1415.3605 2.4843-.9697.3217.8174-2.5153.9812.1453.3644 2.9126-1.1374-1.1453-2.9014zm5.6062-10.0285c.2112-.0173-.4341-1.1258-.9263-1.4555-.498-.3297-1.1782-.5996-1.6355-.7788-.0659-.0251-.1512-.0656-.252-.1234-.031-.2198-.031-.5514-.0348-.6054.3139-.586.4437-1.0603.5891-1.6598.1414-.5822.1608-1.1374-.0427-1.6252-.1492-.3585-.2616-.7325-.31-1.1374-.0078-.0578-.033-.1099-.0504-.1638-.0136.0019-.0252.0038-.0368.0057-.0233.0598-.0543.1176-.0659.1755-.0504.2197-.0891.4395-.1473.6612-.3565 1.3707-.467 2.6276-.2015 3.8634.0058.0308.0135.2024.0174.3238-.3236-.2004-.7519-.5012-1.2867-.9272.0019-.1119.0232-.3046.1318-.5321.2713-.0829.4767-.4897.4767-.9794 0-.5494-.2597-.9947-.5794-.9947-.3198 0-.5795.4453-.5795.9947 0 .4627.1841.8502.4341.964-.0194.079-.0659.1908-.1802.3065-.4651-.3875-.9999-.8579-1.6007-1.4285.2713-.2179.531-.4492.7771-.696.4438-.4415.8449-.9253 1.1957-1.4401.3546-.5205.6569-1.0776.903-1.654.219-.5148.3914-1.0449.5174-1.5847l.0058-.0039c.1473-.7769.2888-.9427.5446-1.4497.2558-.5089-.0601-.9311-.0601-.9311-.031-.0405-.0562-.0771-.0756-.1118 0 0-.0833-.1176-.0136-.4839.0679-.3663-.0387-.4955-.0387-.4955-.031-.0404-.0814-.0983-.1667-.133-.0659-.0231-.1162-.0366-.1608-.054-.031-.0115-.0601-.025-.0853-.0385-.1066-.0559-.1298-.106-.1298-.106-.2035-.2931-.064-.3509-.1957-.6517-.1047-.239-.405-.2602-.5291-.2583-.0155.0019-.0329.0019-.0484.0019h-.0019.0019c-.064.002-.1298-.0019-.2054-.0192-.0989-.0212-.1996-.1253-.3043-.0771.0194-.0155.0601-.0887.0601-.0887.0833-.1234-.0271-.376-.0426-.3335-.0485.1118-.1415.187-.25.2024-.0853.0115-.1453.0405-.188.0752v-.002c.0756-.0809.0659-.2101.0097-.2776-.0329-.0366-.1143-.1099-.1143-.158-.2461.1696-.0058.534-.3256.6612-.0659.0251-.1763.0598-.2364.1677-.1647.0289-.3023.1967-.3546.295-.0485.0867-.0582.0944-.0892.1118-.5387.3181-.6821.5899-.6646.6786.0251.133.1162.1716.1162.1716-.0019.0906.0291.1908.1124.2506.0368.0289.0795.0443.124.0501h.002c.0252.0058.0523.0077.0775.0058.0291.0906.126.1561.2035.1638-.0446-.0482-.0872-.1156-.0911-.1831.0097-.0019.0194-.0058.0271-.0077.0368.0578.1085.0867.1705.081-.0368-.0309-.0775-.0733-.091-.1254.031-.025.0697-.0597.0988-.1156l.0019.0019c.031.0231.1648.0964.25.1407.095.0502.0833.16.1047.295.031.2005-.031.1562-.1415.1754-.0543-.0308-.0833-.0944-.0969-.1503-.031.052-.0329.1253.0019.185-.0077.0039-.0155.0077-.0251.0135-.002.002-.002.002-.0039.002-.0543-.0347-.095-.0945-.1182-.1523-.0233.0674-.0097.1677.0445.2332-.0213.0405-.031.0868-.0252.1292.0175.0944.1415.214.3372.1831.1822-.0289.3585-.1253.4748-.2544v.0019s.0039-.0077.0136-.0174l.0135-.0135c.0039-.0038.0078-.0077.0117-.0135.0542-.0559.1414-.1426.2829-.079.1705.0925.0775.3123.0775.3123l-.0077.0887c-.6143 1.3205-1.9631 2.242-3.525 2.242-.5155 0-1.0057-.1002-1.4573-.2814.1279-.1369.2985-.3355.4845-.5861.1667-.2043.6046-.6516.9418-.1985.2984.4029.6279.2371.6279.2371.0833-.0501.0213-.162.0213-.162s-.0659-.1156.124-.025c.1938.0906.3469.1022.4651.0308.1182-.0713-.0136-.2024-.0213-.2371-.0078-.0347-.0388-.0945.3003-.0964.3392-.0019.3023-.1446.2326-.2467-.0717-.1022-.0504-.1041.0116-.1697.062-.0655.2287-.1407.1608-.3393-.0639-.187-.1802-.1292-.1879-.1292-.0078 0-.1299.056-.1686.0309-.0194-.0135-.0465-.0771-.0194-.2024.0329-.1581-.1511-.1812-.2597-.1022-.0775.054-.1705.1716-.2655.2063-.0949.0347-.0852-.0463-.0949-.1138-.0058-.0424-.0058-.1696-.1822-.0655-.1763.1041-.2732.3701-.2732.3701s-.064.1234-.1163-.0366c-.0465-.1465-.3352-.1022-.3333.1735 0 0 .0039.1909-.1608.3123-.0523.0386-.2423.0829-.3702.1118.2287-.3798.4496-.8212.6182-1.3148.25-.7287.3973-1.3629.624-1.9066.1376-.0636.3236-.1021.405-.1176.0485.295.2674.3567.438.3548l-.0039-.0868c.157-.0096.8236-.079.779-.5089 0 0-.0136-.4087-.8139-.2507l-.0039-.0829s-.3701.0347-.4011.4087c-.1376.0656-.2325.0521-.2849.0328.031-.0655.0659-.1292.1008-.1908.2384-.3432.8468-.9813 2.0754-.9987l.843-.0115v-.0019s.2267-.002.3081.1137c.1841.2641.4012.7885.7287.854.3585.0713.1957-.2583.1957-.2583s-.0659-.1735.0969-.0231c.2422.2197.4496.4376.593.3855.1434-.052.0794-.2371.0794-.2371s-.0562-.2275.1957.0116c.252.239.4806.3277.6821.2564.2035-.0714.0562-.3586.0582-.4222.0019-.0617-.0213-.1793.4864-.0367.5077.1427.5077-.1195.4399-.3258-.0659-.2062-.0368-.2024.0833-.2891.1202-.0868.591-.214.5659-.5861-.0252-.3509-.4147-.2313-.4264-.2352-.0116-.0019-.2131.0424-.2635-.0193-.0252-.0308-.0388-.1561.0484-.3585.1105-.2603-.155-.3779-.3488-.2892-.1356.0617-.3197.2255-.4748.2429-.155.0193-.1085-.1176-.0988-.2371.0078-.0752.0562-.2969-.2461-.1928-.3023.106-.5484.5244-.5484.5244s-.095.1214-.095-.1119c-.0019-.2332-.2829-.0867-.5154.1388-.2326.2256-.3101.2314-.3081.0849.0019-.1465-.0931-.2256-.3275-.0771-.343.2159-.4612.7287-.907.7865l-.0096.0019c-.1027.002-.9942.0309-1.593.1427.5562-.2776.9767-.4376 1.341-.6092l.0834-.0463s.3643-.1677.9766-.7248l.002-.002c.3488-.2756.8081-.5995 1.0619-.6014.5368-.0077.7984.0289.7984.0289.4341.0077.7596.0038.8856-.1639.126-.1696-.0794-.2949-.0794-.2949s-.2287-.1716.2325-.1523c.4612.0192.7829-.0849.965-.3201.1822-.2371-.1957-.3894-.2383-.4511-.0426-.0597-.1531-.1523.5271-.4376.6821-.2872.4922-.534.2674-.6766-.2248-.1427-.188-.1639-.1124-.3432.0737-.1812.3488-.4665.0504-.8-.281-.3123-.5271-.135-.5426-.1292-.0155.0077-.2132.2159-.3139.1986-.0485-.0078-.157-.1157-.2035-.3817-.0601-.3393-.4496-.2314-.6066.0115-.1104.1716-.2034.4781-.3662.6266-.1647.1465-.2093-.0212-.2849-.1466-.0465-.0771-.1492-.3296-.4185.0193-.2694.3509-.2462.9562-.2462.9562s.0059.1986-.1899-.0289c-.1841-.2121-.5019.0578-.4883.5591 0 0 .0484 1.2781 0 1.4902-.0484.2043-.9573.9427-1.0367 1.0217-.1822.1485-.4012.3104-.6764.4839-.3236.1735-.6472.2892-1.1685.5244l.031-.0617v-.0019l.2733-.5649h-.002l.0117-.0231s.0387-.1408.1724-.2371c.2519-.1832.8004-.2025.9302-.4936.1434-.3181-.1899-.239-.1899-.239s-.1706.025 0-.0964c.2519-.1793.4941-.3239.4786-.4704s-.1976-.1272-.1976-.1272-.219.0019.0542-.1813c.2733-.1831.4012-.3759.3837-.5822-.0194-.2062-.312-.131-.3682-.1465-.0542-.0154-.1666-.0192.0737-.4626.2383-.4434.0038-.5013-.1977-.4839-.2015.0173-.1899-.0097-.2422-.1408-.0504-.1291-.0427-.4029-.3837-.4607-.3217-.054-.3198.1407-.3256.1504-.0058.0096-.0097.2082-.0755.2429-.0311.0154-.1473.0019-.314-.1234-.2093-.16-.3759.0617-.3372.2622.0252.1407.1318.3489.1144.4973-.0175.1485-.1299.0772-.2365.0405-.0658-.0231-.2557-.1176-.2267.187.0271.3066.3546.6285.3546.6285s.0892.1157-.124.0655c-.2112-.0501-.1414.2449.0116.5128.1531.2661.1415.3413.0078.3066-.1318-.0347-.2248.0366-.1415.2891.1202.3683.595.5475.5097 1.0507 0 0-.0814.5128-.8875 1.0892-.0485.0309-.095.0617-.1376.0945-.1357.1002-.2578.2082-.3663.3239-.031-.1003-.0911-.3008-.0465-.3972.0562-.1214.3953-.5937.3953-.5937.1299-.2738.0756-.5418-.0775-.4974-.1531.0424-.1066-.0656-.1066-.0656s.1938-.3065.1648-.6014c-.0311-.295-.159-.2082-.2055-.189-.0755.0328-.1492.1003-.1879-.0443-.0388-.1446.0077-.3451.0038-.48-.0058-.1928-.1705-.4126-.3042-.2641-.1046.1176-.1918.1291-.219.1118-.0562-.0347-.093-.2256-.0988-.2372-.0058-.0096-.0368-.1985-.2752-.1523-.2519.0463-.1996.3124-.217.4377-.0175.1253-.0039.1523-.1628.1291-.157-.0212-.3275.027-.0698.4646.2597.4376.1744.4376.1357.4511-.0407.0135-.2791-.0655-.2577.135.0193.2005.153.3913.3914.5764.2403.1851.0717.1774.0717.1774s-.1415-.0232-.1298.1176c.0135.1407.2228.2891.4457.4684 0 0 .0232.0174.0891.0598.0155.0096.0368.0212.0581.0366.095.0598.2713.1812.3062.268 0 .0019.002.0019.002.0038 0 .002.0019.002.0019.002.0349.1137.0795.1812-.0795.5783-.3759.6266-.5774 1.415-.8836 2.3385-.062.187-.1357.3701-.2151.5436-.0581-.1292-.3004-.7441.1163-1.2627 0 0 .1298-.1446.0426-.2448-.0872-.1003-.217-.0675-.217-.0675s-.1512.0597-.0659-.1061c.0833-.1657.3081-.3296.341-.4202.033-.0906.0233-.1928-.1104-.2236-.1337-.0309-.219-.0502-.0853-.2102s.1744-.2544.1357-.3296c-.0407-.0771-.1551-.1581-.3179-.0637-.1608.0945-.2267.135-.2344-.1118-.0078-.2487-.1938-.3026-.2423-.3007-.0484.0019-.3061-.0308-.2325.3412.0562.2892-.2209.16-.2209.16s-.1066-.0424-.1531.054-.031.2236.0891.3759c.1182.1523-.1317.1176-.1317.1176s-.1299-.0462-.2016.0983c0 0-.093.1523.4167.6208.2868.2641-.0717.2738-.0717.2738s-.1725-.0309-.1066.1908.405.374.405.374.529.1639.6085.7943c.0097.187-.0175.4279-.1589.6786-.031.0482-.0601.0944-.0892.1407-.3682.5629-.7519.9813-.9534 1.1856-.0949-.0501-.188-.106-.279-.1639v-8.8872l-.1454-.0251c-.6182-.106-1.2073-.1523-1.7208-.1619v-.8309c.3779-.0945.6821-.3721.812-.7326 2.151.3702 1.9979 2.2806 1.9979 2.2806 2.6064-2.8724-.0039-5.3381-.0039-5.3381-.0484 1.7659-1.3042 2.1592-2.0057 2.2478-.1434-.3643-.4689-.6381-.8642-.7133.0038-.2949.1007-1.1933 1.0638-1.4458 0 0-.9825-.2603-1.2731-1.8122-.2907 1.5538-1.2732 1.8122-1.2732 1.8122.9592.2506 1.0581 1.1451 1.0639 1.442-.469.081-.843.4434-.936.9041-.3856-.0617-1.0561-.2872-1.2693-1.0911 0 0-.2616 1.0352-1.8216 1.3263 1.5619.2892 1.8216 1.3264 1.8216 1.3264.2132-.8039.8856-1.0295 1.2693-1.0912.0911.4415.4341.7904.872.8907v.8251c-.1918.0038-.3662.0135-.5212.0212-.7171.0463-1.1666.1369-1.1841.1407l-.1395.0289v8.8642c-.1531.0983-.312.187-.4748.2621-.1279-.1253-.4631-.4665-.8197-.96.0116-.0578.0427-.1311.1144-.2198.2073.0309.4515-.2082.5619-.559.1182-.3702.0368-.7249-.1763-.7943-.2151-.0656-.4825.1812-.6007.5513-.0969.3104-.0582.6092.0833.7384-.0233.0308-.0601.0655-.1124.1002-.2035-.2988-.4108-.6438-.5852-1.0217.0387-.1523.1182-.3528.1298-.3894.3314-.268.5096-.5514.7461-.8887.2267-.3278.403-.6709.4069-1.0623.0019-.2853.031-.5687.1066-.8482.0097-.0405.0077-.0829.0116-.1234-.0077-.0019-.0155-.0058-.0232-.0077-.0272.0308-.0601.0578-.0834.0906-.0852.1234-.1627.2545-.2519.3759-.5542.7615-.936 1.5384-1.091 2.4329-.0019.0193-.031.1003-.0562.1755-.0465-.1157-.0911-.2333-.1298-.3547-.1434-.4338-.2558-.8329-.3721-1.2011l.2597-.8559c.1802-.6497.5271-2.2999.6937-2.9573.0795-.3142.0756-.6497-.0038-.9928-.0136-.0637-.0524-.1234-.0814-.189-.0756.135-.1434.3817-.2074.4936-.1938.3354-.2752.5879-.467.9253-.1434.2545-.2229.5417-.2674.8463-.1124.7422-.1066 1.3611.0329 2.1341.0058.0367-.0465.1639-.0697.2526-.1861-.5283-.4031-.9813-.7694-1.363-.0639-.1465-.1162-.3779-.1124-.4627.0155-.3798.0194-.7595.0465-1.1393.0853-1.2685-.1957-2.4657-.6414-3.634-.031-.079-.0756-.1523-.1143-.2255-.0485.0617-.0601.1137-.0659.1677-.0291.2159-.0388.4357-.0892.6477-.0988.4203-.2054.8386-.3313 1.2531-.1395.4666-.1008.9138.0814 1.3553.2461.5938.5135 1.0429.8894 1.5557.0427.0559.0698.1485.0853.2526-.1705-.1369-.3662-.2622-.593-.3779-.1589-.0809-.312-.1523-.4573-.214-.4477-.2101-.5988-.4279-.6821-.6381-.2539-.6361-.5388-1.2608-.7752-1.9047-.4883-1.3379-1.3913-2.2825-2.6335-2.8936-.3488-.1716-.7519-.2333-1.1356-.3277-.0853-.0213-.1918.0366-.3236.0655.157.1234.2732.1986.3662.295.3547.3701.7171.7345 1.0504 1.12.529.6111 1.0483 1.2338 1.558 1.8642.4321.534.8313 1.0892 1.4728 1.4093.0019.0019.0038.0019.0058.0019 0 0 .0019 0 .0019.0019 0 0 .0019 0 .0019.0019.0194.0116.1047.0752.2035.3991 0 0 .0543.1523-.1201.106-.1241-.0308-.3004-.1137-.3915-.158-.1628-.0829-.3217-.1678-.4902-.2352-.3489-.1408-.7035-.2661-1.062-.376-.9999-.3103-1.3681-.4781-2.4223-.561-.3953-.0308-.7984.0309-1.246.0502.2751.3277 1.0231.8058 1.4301.9215 1.3294.3759 2.0599.3662 3.4416.4164.3566.0135.6802.0925.9922.2429.1705.0944.2674.2313.6647.4414.0019 0 .0019.002.0019.002.0136.0077.0252.0135.0407.0212-.1996.0424-.6666.1581-.7461.0925-.341-.2776-.8352-.214-1.3255-.079-1.3564.374-2.7149.7229-4.0733 1.0834-.0988.0251-.1977.0771-.2965.1157-.0019.0154-.0039.0328-.0078.0482.0698.0193.1357.0482.2074.0578 1.2596.1754 2.556.162 3.9009-.1793.3042-.0771.6123-.2641.9147-.4164.1647-.0829.3255-.1831.4747-.3027.2326-.1638 1.0096-.2139 1.3798-.1966 1.1317.6439 1.3565 1.5789 1.7305 2.8262-.0872-.0713-.2093-.1697-.2171-.1851-.2965-.6786-.6937-1.0853-1.2634-1.575-.0911-.079-.1764-.1658-.2655-.2468-.0233-.0212-.0543-.0366-.0814-.0539-.0058.0038-.0097.0077-.0155.0134.0097.0309.0174.0656.0329.0964.1124.2063.1899.4261.25.6497.0814.3085.281.5456.5174.7596.2442.2198.4011.3817.7034.5282.064.0328.3043.2256.4458.3682.031.0964.062.1947.0949.295.2616.7885.6705 1.4497 1.0329 1.9336-.2248-.1118-.8314-.5784-.9418-.6613-.1337-.1002-.2713-.1947-.4283-.2371-.4147-.1099-.8313-.2198-1.246-.3296-.0194-.0058-.0388-.002-.0756-.0058.0233.0366.0349.0617.0523.0829.0659.0732.1279.1503.1996.214.2907.2544.6124.4472.9457.6053.217.1022 1.1801.4106 1.6259.507.2034.2545.3817.4473.4999.5668-.4186.1465-.8662.2255-1.3235.2255-.5291 0-1.0426-.1021-1.5271-.3026-.467-.1928-.8856-.4723-1.246-.8251-.3585-.3509-.6375-.7596-.8352-1.2126-.0194-.0598-.0485-.2121.0853-.2853.1414-.0656.2286.0231.2829.079.0039.0038.0077.0077.0116.0135l.0136.0135c.0077.0096.0135.0173.0135.0173v-.0019c.1182.1292.2946.2256.4748.2545.1957.0308.3198-.0887.3372-.1832.0058-.0424-.0019-.0886-.0252-.1291.0543-.0656.0659-.1658.0446-.2333-.0213.0559-.062.1176-.1182.1523-.002-.0019-.002-.0019-.0039-.0019-.0078-.0058-.0174-.0097-.0252-.0135.0349-.0579.031-.1311.0019-.1851-.0135.054-.0426.1176-.0969.1504-.1104-.0193-.1724.025-.1414-.1755.0213-.1349.0077-.2429.1046-.2949.0834-.0443.2171-.1176.25-.1407l.0019-.002c.0291.054.0659.0906.0989.1157-.0136.0521-.0543.0945-.0911.1253.0601.0058.1318-.0231.1705-.081.0078.002.0175.0058.0272.0078-.0039.0694-.0465.1368-.0911.1831.0775-.0077.1763-.0713.2035-.1639.0251.002.0523 0 .0775-.0058h.0019c.0446-.0077.0872-.0231.124-.0501.0834-.0617.1144-.16.1124-.2506 0 0 .0892-.0366.1163-.1716.0194-.0886-.126-.3624-.6647-.6786-.031-.0192-.0407-.025-.0891-.1118-.0523-.1002-.1899-.266-.3547-.2949-.06-.108-.1705-.1408-.2364-.1678-.3197-.1272-.0794-.4896-.3255-.6612 0 .0482-.0795.1215-.1144.1581-.0581.0675-.0658.1985.0097.2776v.0019c-.0426-.0347-.1027-.0636-.1879-.0752-.1066-.0135-.2035-.0886-.25-.2024-.0175-.0424-.1299.2101-.0427.3335 0 0 .0427.0733.0601.0887-.1066-.0482-.2035.0559-.3042.0771-.0756.0154-.1415.0193-.2054.0193h-.002c-.0174 0-.0329-.0019-.0484-.0019-.1221-.002-.4225.0192-.5291.2583-.1337.3027.0078.3605-.1957.6516 0 0-.0232.0482-.1298.106-.0252.0135-.0523.027-.0853.0386-.0446.0173-.0969.0308-.1608.054-.0853.0347-.1357.0925-.1667.133 0 0-.1066.1291-.0387.4954.0678.3682-.0136.4839-.0136.4839-.0194.0347-.0426.0713-.0756.1118 0 0-.3158.4203-.06.9312.2131.4241.3468.6092.4689 1.1104.1298.6555.3256 1.2936.5891 1.9143.2442.5764.5504 1.1336.9031 1.6541.3507.5167.7518 1.0005 1.1956 1.4401.2616.2602.5368.5051.8255.7326-.6588.6246-1.2402 1.1258-1.7343 1.5268-.1124-.1388-.4574-.6497-.2423-1.4941 0 0 .093-.2622-.0949-.3682-.188-.106-.3605.0058-.3605.0058s-.1783.1542-.1647-.1195c.0136-.2738.2345-.6092.2209-.7557-.0135-.1466-.0891-.2815-.3023-.2661-.2131.0154-.3488.0309-.2596-.2564.0891-.2892.0891-.4415-.0194-.5301-.1085-.0887-.3275-.1523-.5.0578-.1725.2082-.2403.2988-.4108-.0482s-.4748-.3374-.5446-.3123c-.0697.0251-.4631.1002-.1182.5938.2675.3836-.2538.3412-.2538.3412s-.1822-.0135-.188.1504c-.0019.1619.1008.3296.3701.4935.2694.1619-.2034.2602-.2034.2602s-.2791.0598-.1725.2815c0 0-.0019.1774 1.0348.6015.5852.239.0756.4222.0756.4222s-.2694.0366-.031.32c.2364.2834.8643.3297.8643.3297s.4147.0057 1.0386.5031c-.6724.5244-1.1665.8386-1.4747.9986-.0639-.0385-.1705-.1253-.2461-.2949.3992-.3316.0892-.7634.0892-.7634l-.095.0694c-.5096-.8194-.9146-.5321-.9146-.5321-.4496.2718-.0059.908.1375 1.095l-.0813.0578c.1414.1639.3778.3335.6879.187.0543.0848.1124.2024.1221.3142-.4515.1774-1.0658.43-1.5232.7326-.4922.3297-1.1394 1.4382-.9301 1.4536.1937.0135 1.0096-.5012 2.7343-1.7389.1763.0135.3585.135.4534.2082-.0077.0154-.0174.0309-.0252.0482-.1938.3933.0272.6439.2345.7827l.064-.106c.248.1484.9941.5417 1.2692.0539 0 0 .312-.4665-.7286-.9542l.0562-.0945s-.4031-.2198-.7189.0733c-.2035-.081-.2733-.1755-.2965-.2352.0659-.0482.1318-.0964.1996-.1465.4534-.3297.8681-.6516 1.2402-.9524.4399.4145.4767.7519.4767.7519s.0562.5263.3333.6034c.2423.0675.2868-.1176.2868-.1176s.1822-.4511.3837-.0579c.3818.7423.6279.6709.6279.6709.188-.0366.2054-.2217.2054-.2217s.0601-.4877.219-.3161c.1589.1715.3197.2872.4651.239.1453-.0482.1259-.1928.1259-.1928s-.0349-.4453.2965-.4048c.4748.0598.5252-.1562.5445-.2198.0194-.0636.0155-.347-.3042-.3875-.3197-.0385-.2984-.0829-.1182-.2814.1802-.1986.1492-.295.0639-.3548-.0852-.0597-.2228-.0192-.4786.135-.2558.1523-.2481.0386-.2442-.1369.0058-.1754-.1201-.2005-.2519-.1696-.1318.0308-.4224.3026-.6705.3913-.248.0887-.1163-.1002-.1163-.1002s.0911-.1697-.0116-.2911c-.1027-.1234-.3352.025-.3352.025-.6221.3413-1.0271.2719-1.217.2005.905-.7499 1.5038-1.336 1.7169-1.5499.1182.0867.2364.1715.3585.2525.5232.3528 1.0833.6535 1.6627.8984.562.2371 1.1395.4183 1.7305.5455v4.3531l.1453.025c.6143.108 1.2015.1523 1.7131.1639l-.4748.9735.7519 1.7794.7519-1.7794-.4748-.9735c.1899-.0039.3643-.0135.5194-.0231.717-.0463 1.1666-.1388 1.184-.1427l.1395-.0289v-4.3685c.5581-.1253 1.1046-.3007 1.6356-.5243.5794-.2429 1.1394-.5475 1.6626-.8984.1396-.0945.2752-.1909.4109-.2911.1124.1157.6763.6863 1.5929 1.4613-.1357.0096-.2965.025-.4128.0308-.8216.002-.812-.1696-1.3177-.1523-.2074.0077-.4012.0367-.5678.1061-.2209.0944-.438.1927-.6569.2891-.0737.0309-.1493.0617-.2384.0984.0465.0212.0911.0482.1356.0636.2423.0732.4748.1002.688.0732.4418-.0578 1.5619-.1542 1.9998-.2197l.6066-.0945c.3759.3123.8042.6497 1.2751 1.0005-.5542-.027-1.3914-.1426-1.5755-.1638-.2848-.0328-.5678-.0521-.8488.0308-.7441.2256-1.4882.4473-2.2324.6728-.0348.0097-.0658.0309-.1259.0636.062.0367.0988.0675.1414.0829.1551.054.3082.1196.4671.1523.6414.1311 1.2886.1331 1.9359.0637.3624-.0386 1.7305-.3683 2.6025-.6362 1.9282 1.4131 2.8409 1.9991 3.0463 1.9837zm-14.1405-19.5712c.1822-.0309.5387-.081 1.0038-.1099.6105-.0386 1.5367-.0482 2.5541.1118v8.3436c-.8759-.7056-1.4359-1.7832-1.4359-2.9862v-1.2994h1.0638v-.7132h-1.0638v-.7114h.715v-.7133h-.715v-.8405h-.7054v.8405h-.7151v.7133h.7151v.7114h-1.0639v.7132h1.0639v1.5115c-.0543.9754-.4806 1.8834-1.2015 2.564-.0697.0655-.1414.1291-.2151.1889zm3.5385 20.4484c-.1821.0308-.5329.0809-.996.1118-.6124.0405-1.5406.0501-2.5599-.1118v-3.9906c.5678.1002 1.1453.1523 1.7305.1523.6182 0 1.2286-.0559 1.8254-.1697zm3.4533-5.7931c-.5039.3393-1.0445.6304-1.6046.8656-1.1646.4896-2.399.7383-3.6741.7383s-2.5115-.2487-3.6742-.7383c-.56-.2352-1.0987-.5263-1.6045-.8656-.5-.3355-.9709-.721-1.3972-1.1471-.4283-.426-.8139-.8926-1.153-1.39-.3411-.5012-.6337-1.039-.8701-1.5962-.1376-.3239-.2558-.6516-.3546-.987l.0019.0019s-.0756-.3181-.1085-.5629c-.0368-.2372-.0136-.3817.0872-.3779.0988.0019.1124.1485.1124.1485.0019.0154.0077.0347.0097.0539.0426.3201.3449.4473.3449.4473-.1434-.4145-.1143-.615-.1143-.615s.0232-.2101.1841-.1658c.1996.0559.1317.6362.1317.6362.1473-.1234.3023-.3875.2326-.6208 0-.0019-.002-.0019-.002-.0038-.0542-.1523-.0484-.214-.0484-.214s0-.1465.0891-.1523c.0892-.0058.0717.1099.0717.1099-.0019.1041.0155.1619.0233.1851.0252.0655.0775.1021.1763.1677.2326.1504.4729.1002.4729.1002s-.3547-.1388-.3876-.3894c-.0213-.1716.0446-.3451.0426-.4627l-.0077-.1079c.1511.2197.3236.4241.5174.6149.3914.3856.8488.6883 1.3565.8984.5271.2198 1.0852.3297 1.6607.3297 1.1065 0 2.1549-.4145 2.9533-1.1664.5329-.5031.9185-1.12 1.1298-1.8005l.1821-.5148.2093.5861v-.0039c.5504 1.6811 2.1452 2.8995 4.023 2.8995 1.4301 0 2.6975-.7075 3.4629-1.791l-.0019.0424c-.002.1176.0639.2931.0426.4627-.031.2487-.3876.3894-.3876.3894s.2403.0482.4729-.1002c.1007-.0656.1492-.1003.1763-.1677.0078-.0232.0252-.081.0233-.1851 0 0-.0175-.1157.0717-.1099.0891.0058.0891.1523.0891.1523s.0058.0636-.0484.214c0 .0019-.002.0019-.002.0039-.0717.2332.0853.4954.2326.6207 0 0-.0659-.5803.1317-.6362.1628-.0462.1841.1658.1841.1658s.0272.2024-.1143.615c0 0 .3004-.1292.3449-.4473.002-.0192.0059-.0366.0097-.0539 0 0 .0136-.1466.1124-.1485.0989-.0019.1241.1407.0872.3779-.0232.1715-.0678.3798-.091.4896-.1047.3644-.2307.7191-.3799 1.07-.2364.5571-.529 1.0931-.8701 1.5962-.3371.4974-.7247.9659-1.153 1.39-.436.426-.9069.8116-1.4049 1.149z"/><path d="m29.2605 31.8274c-.3027 0-.5572-.1529-.9264-.6411-.3922-.5179-.7018-.7688-1.2017-.9194v-.0296h1.1741c.6077 0 .7018.1232.8485.7984h.2087v-1.8844h-.2087c-.1376.6548-.2316.8054-.8485.8054h-.8485v-.0229c.5412-.1528.8394-.4676.8394-.9125 0-.6342-.6009-1.0129-1.8232-1.0129h-.227l.0023-.7346h1.2223c1.2361 0 1.447.1528 1.7383 1.1726h.2316l-.0642-1.4464h-4.6117v.2304l.3692.0365c.3921.0365.4059.1072.4059.6685v.0707h-2.534v.2304l.3761.0365c.3921.0365.4059.1072.4059.6684l-.0069 2.1993c0 .5612-.0138.6342-.4059.6684l-.3761.0365v.2304h2.2153v-.2304l-.3715-.0319c-.3922-.0365-.4059-.1072-.4059-.6685v-.9057h1.0961l-.0023 1.9118c0 .5612-.016.6343-.4059.6685l-.3692.0365v.2304h2.2588v-.2304l-.3692-.0365c-.3921-.0365-.4059-.1073-.4059-.6685v-1.9118c.461.0023.6077.0959.9334.5111.1811.2304.3394.4608.4999.6821.3096.4745.6949.7894 1.2819.7894.3761 0 .6811-.1438.9127-.3879l-.1376-.1802c-.1353.1163-.2889.1734-.4701.1734zm-3.7242-1.8685h-1.0984l.0068-1.6745h1.0939zm.9448 0h-.2408l.0046-1.6745h.2546c.7109 0 1.0572.3377 1.0572.8259.0022.4813-.3532.8486-1.0756.8486zm-.0757 22.8023c-.3921-.0045-.7131.308-.7177.6958-.0046.3901.3096.7095.6994.7141.3921.0046.7132-.308.7178-.6958.0069-.3901-.305-.7095-.6995-.7141z"/></g></svg>