<svg fill="none" height="48" viewBox="0 0 84 48" width="84" xmlns="http://www.w3.org/2000/svg"><g fill="#034ea2"><path d="m14.669 4.28916c4.2475 0 7.3291 1.77675 7.3291 6.51014v1.9155c-14.51938 2.5819-20.738 6.0799-21.668022 12.6594h5.122042c1.31868-3.8728 6.78778-6.5657 16.54598-8.273v8.273h4.9416v-14.6304c0-7.81497-6.3019-10.6883038-12.3401-10.6883038-6.71833 0-11.10469 3.4285738-13.36727 7.5373038l4.31695 2.26258c.95778-2.41527 3.63679-5.56622 9.11972-5.56622z"/><path d="m11.9067 33.0503h-.8051l.8883-4.8305h1.0272l.8884 4.8305h-.8051l-.1527-1.0688h-.9161zm.2637-1.7906h.6663l-.3332-2.0821h-.0139z"/><path d="m16.4595 29.941c-.0555-.0138-.0972-.0138-.1388-.0138-.1249 0-.2082.0555-.3054.1388.0694.2082.1111.3886.1111.6662 0 .8745-.4026 1.2493-.9301 1.2493-.111 0-.2221-.0277-.3192-.0277-.0833.0138-.236.0971-.236.222 0 .2499.4025.2638.8467.361.4997.111.9439.2637.9439.8328 0 .4581-.4442.819-1.1798.819-.7912 0-1.1938-.2915-1.1938-.7496 0-.3054.1943-.5691.5136-.694-.2082-.0694-.3748-.236-.3748-.472 0-.2637.2221-.4164.4581-.458-.2776-.1944-.4164-.6386-.4164-.9995 0-.8328.4025-1.3048 1.0133-1.3048.2221 0 .5274.0972.6385.3193.111-.1943.2915-.3193.583-.3193v.4303zm-1.4991 2.9289c-.2777.1249-.472.2776-.472.4719 0 .2915.236.4859.7635.4859.5413 0 .7218-.2082.7218-.4997 0-.3193-.5969-.3748-1.0133-.4581zm.2082-1.2493c.2776 0 .5136-.2082.5136-.8745s-.2221-.8745-.5136-.8745c-.2776 0-.5136.2082-.5136.8745s.236.8745.5136.8745z"/><path d="m17.1533 31.3985v.1944c0 .8467.1943 1.1243.6524 1.1243.3609 0 .5275-.347.583-.6524l.4581.0555c-.0694.5275-.472.9994-1.1105.9994-.7357 0-1.0688-.5552-1.0688-1.8045 0-1.2492.3331-1.8045 1.0688-1.8045s1.0688.6524 1.0688 1.6657v.2221zm1.166-.4025c-.0139-.7496-.1527-1.0827-.583-1.0827-.347 0-.5691.2498-.583 1.0827z"/><path d="m19.2495 29.5662h.4581v.3887c.2221-.236.5691-.4442.7912-.4442.4858 0 .7634.2638.7634.9162v2.6373h-.4858v-2.5679c0-.4026-.1249-.5691-.3887-.5691-.2359 0-.4441.1665-.6662.4303v2.7206h-.472z"/><path d="m23.3165 30.6073c-.0417-.5275-.2499-.694-.5553-.694-.4025 0-.583.2498-.583 1.4019s.1805 1.402.583 1.402c.3054 0 .4859-.1666.5692-.7634h.4719c-.0833.6801-.4025 1.1659-1.0272 1.1659-.7218 0-1.0688-.5552-1.0688-1.8045 0-1.2631.3331-1.8045 1.0688-1.8045.6247 0 .93.4165 1.0133 1.0966z"/><path d="m24.5244 31.3985v.1944c0 .8467.1943 1.1243.6524 1.1243.3609 0 .5275-.347.583-.6524l.4581.0555c-.0694.5275-.472.9994-1.1105.9994-.7357 0-1.0688-.5552-1.0688-1.8045 0-1.2492.3331-1.8045 1.0688-1.8045s1.0688.6524 1.0688 1.6657v.2221zm1.166-.4025c-.0139-.7496-.1527-1.0827-.583-1.0827-.347 0-.5691.2498-.583 1.0827z"/><path d="m28.5914 33.0503h-.8329v-4.8305h1.166c.9301 0 1.402.4025 1.402 1.4297 0 .7773-.3054 1.0966-.583 1.2215l.7079 2.1932h-.8467l-.583-1.9988c-.111.0138-.2776.0138-.4303.0138zm0-2.6651h.3054c.4442 0 .6107-.1666.6107-.7496s-.1665-.7495-.6107-.7495h-.2915v1.4991z"/><path d="m31.1594 31.3847v.1943c0 .8467.1943 1.1382.6524 1.1382.3609 0 .5275-.347.583-.6524l.4581.0556c-.0694.5274-.472.9994-1.1105.9994-.7218 0-1.0688-.5553-1.0688-1.8045 0-1.2632.3331-1.8045 1.0688-1.8045s1.0688.6524 1.0688 1.6657v.2221h-1.6518zm1.166-.4026c-.0139-.7495-.1527-1.0827-.583-1.0827-.347 0-.5691.2499-.583 1.0827zm-.6246-1.8045h-.3332l.6524-.93h.5275z"/><path d="m35.5178 29.941c-.0555-.0138-.0971-.0138-.1388-.0138-.1249 0-.2082.0555-.3053.1388.0694.2082.111.3886.111.6662 0 .8745-.4025 1.2493-.93 1.2493-.1111 0-.2221-.0277-.3193-.0277-.0833.0138-.2359.0971-.2359.222 0 .2499.4025.2638.8467.361.4997.111.9439.2637.9439.8328 0 .4581-.4442.819-1.1799.819-.7912 0-1.1937-.2915-1.1937-.7496 0-.3054.1943-.5691.5135-.694-.2082-.0694-.3747-.236-.3747-.472 0-.2637.2221-.4164.458-.458-.2776-.1944-.4164-.6386-.4164-.9995 0-.8328.4026-1.3048 1.0133-1.3048.2221 0 .5275.0972.6385.3193.1111-.1943.2915-.3193.583-.3193v.4303zm-1.4991 2.9289c-.2776.1249-.4719.2776-.4719.4719 0 .2915.2359.4859.7634.4859.5414 0 .7218-.2082.7218-.4997 0-.3193-.5969-.3748-1.0133-.4581zm.2082-1.2493c.2776 0 .5136-.2082.5136-.8745s-.2221-.8745-.5136-.8745c-.2776 0-.5136.2082-.5136.8745s.236.8745.5136.8745z"/><path d="m35.9897 28.2198h.4859v.5691h-.4859zm0 1.3464h.4859v3.4841h-.4859z"/><path d="m38.0027 29.4969c.7357 0 1.0688.5552 1.0688 1.8045 0 1.2631-.3331 1.8045-1.0688 1.8045s-1.0689-.5552-1.0689-1.8045.3332-1.8045 1.0689-1.8045zm0 3.2203c.4025 0 .583-.2498.583-1.4019s-.1805-1.402-.583-1.402c-.4026 0-.583.2499-.583 1.402s.1804 1.4019.583 1.4019z"/><path d="m39.5156 29.5662h.4581v.3887c.2221-.236.5691-.4442.7912-.4442.4858 0 .7634.2638.7634.9162v2.6373h-.4858v-2.5679c0-.4026-.1249-.5691-.3887-.5691-.236 0-.4442.1665-.6663.4303v2.7206h-.4858v-3.5119z"/><path d="m42.1528 30.524c.0972-.5552.4165-1.0133 1.0272-1.0133.6385 0 .9994.3748.9994.9856v1.9433c0 .3054.0417.5413.0833.6107h-.4997l-.0555-.2915c-.1805.1805-.5275.3609-.7496.3609-.5413 0-.9022-.347-.9022-.9022 0-.8606.9439-1.2909 1.6379-1.4436v-.2499c0-.3886-.1943-.6246-.4997-.6246-.3748 0-.5552.3609-.6108.6802zm1.5547.6524c-.4442.1388-1.166.4581-1.166.9994 0 .3332.1527.5414.4997.5414.2637 0 .4858-.1804.6663-.3609z"/><path d="m45.4429 28.2198h-.4859v4.8305h.4859z"/><path d="m46.3867 31.3985v.1944c0 .8467.1943 1.1243.6524 1.1243.3609 0 .5275-.347.583-.6524l.4581.0555c-.0694.5275-.472.9994-1.1105.9994-.7357 0-1.0688-.5552-1.0688-1.8045 0-1.2492.3331-1.8045 1.0688-1.8045s1.0688.6524 1.0688 1.6657v.2221zm1.166-.4025c-.0139-.7496-.1527-1.0827-.583-1.0827-.347 0-.5691.2498-.583 1.0827z"/><path d="m51.2727 32.7172c-.1804.2498-.4164.4025-.7357.4025-.5413 0-.9994-.4719-.9994-1.8045 0-1.3325.4581-1.8045.9994-1.8045.2638 0 .4858.1666.6385.3193v-1.6102h.4859v3.9005c0 .4581.0277.7357.0833.9439h-.4581zm-.0833-2.4986c-.1388-.1388-.3054-.3053-.5275-.3053-.4164 0-.6385.3331-.6385 1.4019s.2499 1.402.6524 1.402c.1527 0 .3609-.1388.5136-.3332z"/><path d="m52.647 31.3985v.1944c0 .8467.1943 1.1243.6524 1.1243.3747 0 .5274-.347.583-.6524l.458.0555c-.0694.5275-.4719.9994-1.1104.9994-.7218 0-1.0689-.5552-1.0689-1.8045 0-1.2492.3332-1.8045 1.0689-1.8045.7356 0 1.0688.6524 1.0688 1.6657v.2221zm1.166-.4025c-.0139-.7496-.1527-1.0827-.583-1.0827-.3471 0-.5692.2498-.583 1.0827z"/><path d="m57.3941 29.4136c-.0278-.4164-.2499-.5413-.4442-.5413-.2637 0-.4164.1804-.4164.4719 0 .819 1.6934 1.2215 1.6934 2.5263 0 .7912-.5413 1.2354-1.3048 1.2354-.7773 0-1.2076-.6107-1.2492-1.3326l.7912-.111c.0277.4858.2221.7357.4997.7357.2915 0 .4858-.1527.4858-.4442 0-.9578-1.6935-1.2076-1.6935-2.5957 0-.7635.472-1.2077 1.291-1.2077.6801 0 1.0827.4859 1.1521 1.166z"/><path d="m58.6018 30.524c.0972-.5552.4164-1.0133 1.0272-1.0133.6385 0 .9994.3748.9994.9856v1.9433c0 .3054.0278.5413.0833.6107h-.4997l-.0555-.2915c-.1805.1805-.5275.3609-.7496.3609-.5414 0-.9023-.347-.9023-.9022 0-.8606.9439-1.2909 1.638-1.4436v-.2499c0-.3886-.1944-.6246-.4997-.6246-.3748 0-.5553.3609-.6108.6802zm1.5547.6524c-.4442.1388-1.1521.4581-1.1521.9994 0 .3332.1526.5414.4997.5414.2637 0 .4858-.1804.6662-.3609v-1.1799z"/><path d="m61.3777 29.5662h.4581v.3887c.222-.236.5691-.4442.7912-.4442.4858 0 .7634.2638.7634.9162v2.6373h-.4858v-2.5679c0-.4026-.1249-.5691-.3887-.5691-.236 0-.4442.1665-.6663.4303v2.7206h-.4719z"/><path d="m63.6545 29.5662h.472v-1.1659h.4858v1.1659h.6385v.4026h-.6385v2.443c0 .2082.1111.347.347.347.0972 0 .2221-.0416.2915-.0694v.3609c-.1388.0417-.2498.0694-.458.0694-.4581 0-.6663-.2082-.6663-.7495v-2.4014h-.472z"/><path d="m65.9033 31.3847v.1943c0 .8467.1943 1.1382.6524 1.1382.3609 0 .5275-.347.583-.6524l.4581.0556c-.0694.5274-.472.9994-1.1105.9994-.7357 0-1.0688-.5553-1.0688-1.8045 0-1.2632.3331-1.8045 1.0688-1.8045s1.0688.6524 1.0688 1.6657v.2221h-1.6518zm1.166-.4026c-.0139-.7495-.1527-1.0827-.583-1.0827-.347 0-.583.2499-.583 1.0827zm-.6246-1.8045h-.3332l.6524-.93h.5275z"/></g><path d="m7.35371 28.1226c1.34644 0 2.44303 1.0827 2.44303 2.4292 0 1.3464-1.09659 2.443-2.44303 2.443s-2.42915-1.0966-2.42915-2.443c.01388-1.3465 1.08271-2.4292 2.42915-2.4292z" fill="#eb2d2e"/><path d="m4.98018 28.1226c1.34644 0 2.44303 1.0827 2.44303 2.4292 0 1.3464-1.09659 2.443-2.44303 2.443-1.34645 0-2.42915-1.0966-2.42915-2.443 0-1.3465 1.0827-2.4292 2.42915-2.4292z" fill="#fff"/><path d="m2.50923 28.1226c1.34644 0 2.44303 1.0827 2.44303 2.4292 0 1.3464-1.09659 2.443-2.44303 2.443s-2.4291519-1.0966-2.4291519-2.443c0-1.3465 1.0827119-2.4292 2.4291519-2.4292z" fill="#034ea2"/><path d="m53.3549 35.9098c4.3586 6.2186 8.2591 7.8149 14.3111 7.8149 5.8716 0 10.3135-3.8172 10.3135-8.8005 0-13.4228-27.1926-5.8716-27.1926-22.3065 0-8.7033 6.8433-12.6177 14.6582-12.6177 7.7316 0 12.6177 3.02603 15.9075 8.35628l-4.0949 2.84562c-3.1093-4.26147-6.4824-6.9266-11.9931-6.9266-5.1498 0-9.1474 2.48468-9.1474 8.0925 0 11.2852 27.1926 4.6224 27.1926 22.5703 0 8.2591-7.6484 13.0619-15.9908 13.0619-7.107 0-13.5061-2.8456-17.8647-9.3279z" fill="#8dc63f"/><path d="m36.7255 25.3881v-8.745c2.332-7.32907 5.5524-11.38228 11.7293-11.52109v-4.927705c-5.8993 0-8.8421 2.734525-11.5905 7.606705h-.1388v-7.065351h-4.9416v24.652441z" fill="#034ea2"/></svg>