<svg fill="none" height="40" viewBox="0 0 162 40" width="162" xmlns="http://www.w3.org/2000/svg" xmlns:xlink="http://www.w3.org/1999/xlink"><clipPath id="a"><path d="m0 0h161.667v40h-161.667z"/></clipPath><g clip-path="url(#a)"><path d="m5.60001-.333527h29.46669c2.9 0 5.2666 2.354997 5.2666 5.266667v29.46836c0 2.9-2.355 5.265-5.2666 5.265h-29.46669c-2.9 0-5.266666-2.3534-5.266666-5.265v-29.48169c0-2.89834 2.353336-5.253337 5.266666-5.253337z" fill="#5468ff"/><path d="m24.5016 8.59599v-1.37167c-.0003-.46033-.1834-.90168-.5091-1.22703s-.7672-.50806-1.2275-.50797h-4.0483c-.4604-.00009-.9019.18262-1.2276.50797-.3256.32535-.5088.7667-.5091 1.22703v1.40833c0 .15667.145.26667.3033.23 1.1452-.33065 2.3314-.49786 3.5233-.49666 1.155 0 2.2984.15666 3.4034.46.1466.03666.2916-.07167.2916-.23zm-11.0949 1.79501-.6917-.69168c-.1612-.16127-.3525-.28921-.5632-.37649-.2106-.08729-.4363-.13221-.6643-.13221s-.4538.04492-.6644.13221c-.2106.08728-.402.21522-.5631.37649l-.82668.82498c-.16161.1606-.28986.3516-.37738.562s-.13257.436-.13257.6639c0 .2278.04505.4534.13257.6638s.21577.4014.37738.562l.67998.68c.11.1083.2683.0833.365-.025.4012-.551.8442-1.0703 1.325-1.5533.4849-.4866 1.0089-.9325 1.5667-1.3334.1213-.0733.1333-.2433.0367-.3533zm7.388 4.355v5.9333c0 .17.1833.2917.3399.2067l5.275-2.73c.12-.06.1567-.2067.0967-.3267-1.0933-1.9183-3.1233-3.2283-5.4683-3.3133-.1217 0-.2433.0967-.2433.23zm0 14.2933c-4.3984 0-7.9717-3.5683-7.9717-7.96 0-4.3916 3.5733-7.9583 7.9717-7.9583 4.4 0 7.972 3.5667 7.972 7.9583 0 4.3917-3.5601 7.96-7.972 7.96zm0-19.26665c-6.2467 0-11.31338 5.06005-11.31338 11.30665 0 6.2484 5.06668 11.2967 11.31338 11.2967 6.2466 0 11.3133-5.06 11.3133-11.3083 0-6.2484-5.055-11.29505-11.3133-11.29505z" fill="#fff"/><path d="m80.0714 31.3923c-7.7884.0367-7.7884-6.285-7.7884-7.2917l-.0133-23.681648 4.7513-.753333v23.536681c0 .5717 0 4.1867 3.05 4.1983v3.9917zm-19.26-3.87c1.458 0 2.54-.085 3.2933-.23v-4.8283c-.3761-.1001-.7579-.1774-1.1433-.2317-.5469-.0811-1.0991-.1218-1.652-.1217-.5234 0-1.0584.0367-1.5917.1217-.535.0733-1.0216.2183-1.4466.425s-.7784.4983-1.0334.8733c-.2667.3767-.3883.595-.3883 1.165 0 1.115.3883 1.76 1.0933 2.1834.705.425 1.665.6433 2.8687.6433zm-.4134-17.2283c1.5667 0 2.8914.195 3.9614.5833 1.0687.3883 1.932.9333 2.5633 1.625.645.7033 1.0817 1.6383 1.3487 2.6333.28.995.4133 2.0867.4133 3.2867v12.2067c-.7283.1566-1.8353.3383-3.3166.5566-1.482.2184-3.1467.3284-4.9954.3284-1.2267 0-2.3567-.1217-3.365-.3517-1.0217-.23-1.8833-.6067-2.6133-1.1283-.7167-.5217-1.275-1.19-1.6884-2.0134-.4016-.8266-.6083-1.99-.6083-3.2033 0-1.165.23-1.905.6817-2.7067.46-.8 1.08-1.455 1.8583-1.965.79-.51 1.6884-.8733 2.7217-1.0916 1.0333-.2184 2.115-.3284 3.2316-.3284.5234 0 1.07.0367 1.6534.0967.5716.0617 1.1916.1717 1.8483.3283v-.7766c0-.545-.0617-1.0667-.195-1.5517-.1281-.478-.361-.9215-.6817-1.2983-.3283-.3767-.7516-.6684-1.2866-.8734-.535-.2066-1.2167-.365-2.03-.365-1.0934 0-2.09.1334-3.0017.2917-.9117.1567-1.665.34-2.2366.545l-.5701-3.8933c.595-.2067 1.4817-.4134 2.625-.6184 1.1417-.22 2.37-.3166 3.6817-.3166zm93.837 17.095c1.458 0 2.538-.085 3.291-.2317v-4.8267c-.266-.0733-.643-.1583-1.141-.2316-.548-.0811-1.1-.1218-1.654-.1217-.521 0-1.056.0367-1.591.1217-.534.0733-1.02.2183-1.445.425-.427.2066-.779.4983-1.034.8733-.268.3767-.388.595-.388 1.165 0 1.115.388 1.76 1.093 2.1833.717.4367 1.665.6434 2.869.6434zm-.402-17.215c1.567 0 2.891.1933 3.961.5816 1.069.3884 1.932.9334 2.564 1.625.631.6917 1.081 1.6384 1.348 2.6334.28.995.413 2.0866.413 3.2883v12.205c-.728.1567-1.835.3383-3.316.5583-1.482.2184-3.147.3267-4.995.3267-1.227 0-2.357-.1217-3.365-.3517-1.022-.23-1.883-.6066-2.613-1.1283-.717-.5217-1.275-1.19-1.689-2.0133-.401-.825-.608-1.99-.608-3.2034 0-1.165.232-1.905.682-2.7066.46-.8 1.08-1.455 1.858-1.965.79-.5084 1.688-.8734 2.722-1.0917 1.033-.2183 2.115-.3267 3.233-.3267.522 0 1.068.0367 1.652.0967.583.06 1.191.17 1.846.3283v-.7766c0-.5467-.06-1.0684-.193-1.5534-.128-.4781-.361-.9216-.682-1.2983-.328-.3767-.751-.6683-1.286-.8733-.536-.2067-1.217-.3634-2.03-.3634-1.094 0-2.09.1334-3.002.29-.912.1584-1.665.34-2.237.5467l-.57-3.895c.595-.2067 1.482-.4117 2.625-.6183 1.142-.2067 2.369-.315 3.682-.315zm-14.267-2.25671c1.592 0 2.894-1.28667 2.894-2.87667 0-1.58833-1.289-2.875-2.894-2.875-1.603 0-2.891 1.28667-2.891 2.875 0 1.59 1.3 2.87667 2.891 2.87667zm2.394 23.47501h-4.776v-20.48l4.775-.7517v21.2317zm-8.372 0c-7.789.0367-7.789-6.285-7.789-7.2917l-.013-23.681648 4.752-.753333v23.536681c0 .5717 0 4.1867 3.05 4.1983zm-15.445-10.4817c0-2.0516-.45-3.7616-1.325-4.95-.875-1.2016-2.102-1.795-3.67-1.795-1.567 0-2.795.5934-3.669 1.795-.875 1.2-1.301 2.8984-1.301 4.95 0 2.075.438 3.4684 1.313 4.67.875 1.2134 2.102 1.8084 3.67 1.8084 1.567 0 2.795-.6067 3.67-1.8084.875-1.2133 1.312-2.595 1.312-4.67zm4.86-.0116c0 1.6016-.23 2.8133-.705 4.1366-.473 1.3217-1.142 2.45-2.003 3.385-.864.9334-1.897 1.6617-3.112 2.1717-1.215.5083-3.087.8-4.022.8-.937-.0117-2.795-.2783-3.998-.8-1.204-.5217-2.237-1.2383-3.099-2.1717-.863-.935-1.531-2.0633-2.018-3.385-.485-1.3233-.728-2.535-.728-4.1366 0-1.6017.218-3.1434.705-4.4534.486-1.31 1.166-2.4266 2.041-3.36.875-.935 1.92-1.6516 3.11-2.16 1.204-.51 2.529-.7516 3.962-.7516 1.435 0 2.758.2533 3.973.7516 1.217.5084 2.262 1.225 3.112 2.16.862.9334 1.53 2.05 2.017 3.36.51 1.31.765 2.8517.765 4.4534zm-35.7616 0c0 1.9883.4366 4.1966 1.3116 5.1183.875.9233 2.0047 1.3833 3.3917 1.3833.7534 0 1.47-.1083 2.138-.315.6683-.2066 1.202-.45 1.6287-.74v-11.78c-.34-.0733-1.762-.365-3.1367-.4-1.725-.05-3.0367.655-3.96 1.7817-.912 1.13-1.3733 3.1067-1.3733 4.9517zm13.2086 9.365c0 3.24-.827 5.605-2.4923 7.11-1.6633 1.5033-4.2033 2.2566-7.63 2.2566-1.2517 0-3.8517-.2433-5.93-.7033l.765-3.7617c1.7383.3634 4.035.4617 5.2383.4617 1.9067 0 3.2684-.3883 4.0817-1.165.815-.7767 1.215-1.9283 1.215-3.4583v-.7767c-.4733.23-1.0933.4617-1.8583.705-.765.23-1.6517.3517-2.65.3517-1.3117 0-2.5034-.2067-3.5834-.62-1.0816-.4117-2.0183-1.0184-2.7833-1.82-.765-.8-1.3733-1.8067-1.7983-3.0084-.425-1.2016-.645-3.3483-.645-4.925 0-1.48.2316-3.3366.682-4.575.4613-1.2366 1.1166-2.305 2.0046-3.19.8754-.885 1.945-1.565 3.1967-2.0633 1.2517-.4967 2.72-.8117 4.3117-.8117 1.545 0 2.9666.1934 4.3516.425 1.3851.23 2.5634.4717 3.523.7384v18.83z" fill="#5468ff"/></g></svg>