<svg enable-background="new 0 0 305.4 89.6" viewBox="0 0 305.4 89.6" xmlns="http://www.w3.org/2000/svg"><path d="m44.8 5.8-29.2 29v20l29.2 30.1 39.6-39.6z" fill="#fff"/><path d="m44.8 5.8-12.9 12.8h25.8z" fill="#ff0025"/><circle cx="45.8" cy="45.3" r="6.5"/><path d="m13.5 53-9.2-8 9.3-8.3" fill="#ff8b00"/><path d="m44.8 5.7-29.2 29.1v20l29.2 30.1 39.6-39.6z" fill="#fff"/><circle cx="44.6" cy="45" r="6.5"/><path d="m17.8 58.3-13.5-13.3 13.5-12.7" fill="#ff8b00"/><path d="m31.6 18.9 13.3-13.4 12.8 13.4" fill="#ff0025"/><path d="m16.1 16.1h57.3v57.3h-57.3z" fill="none" stroke="#000" stroke-miterlimit="10" stroke-width="6" transform="matrix(.7071 -.7071 .7071 .7071 -18.5469 44.7839)"/><path d="m122.8 58.2-8.5-12.3v12.3h-6.1v-26.6h6.1v11.5l8.1-11.5h6.9l-9 13 9.3 13.6z"/><path d="m128.5 44.9c0-7.8 6.2-13.8 13.8-13.8s13.8 6 13.8 13.8-6.2 13.8-13.8 13.8-13.8-6-13.8-13.8zm21.6 0c0-4.7-3.4-7.9-7.8-7.9-4.3 0-7.8 3.2-7.8 7.9s3.4 7.9 7.8 7.9 7.8-3.1 7.8-7.9z"/><path d="m174.2 58.2-8.5-12.3v12.3h-6.1v-26.6h6.1v11.5l8.1-11.5h6.9l-9 13 9.3 13.6z"/><path d="m180 44.9c0-7.8 6.2-13.8 13.8-13.8s13.8 6 13.8 13.8-6.2 13.8-13.8 13.8-13.8-6-13.8-13.8zm21.6 0c0-4.7-3.4-7.9-7.8-7.9s-7.8 3.2-7.8 7.9 3.4 7.9 7.8 7.9 7.8-3.1 7.8-7.9z"/><path d="m208.8 52.2 5.2-3c1 2.2 2.6 3.7 5.6 3.7 2.9 0 3.6-1.1 3.6-2.2 0-1.6-1.5-2.3-5.5-3.4s-7.8-3-7.8-8.1 4.3-8.1 8.9-8.1c4.4 0 7.8 2.1 9.7 6l-5.1 3c-.9-1.9-2.2-3.1-4.6-3.1-1.9 0-2.8 1-2.8 2 0 1.2.6 2.1 4.8 3.3 4 1.2 8.5 2.6 8.5 8.2 0 5.1-4.1 8.2-9.9 8.2-5.5 0-9.1-2.6-10.6-6.5z"/><path d="m252.7 31.6v26.6h-6.1v-10.6h-8.4v10.6h-6.1v-26.6h6.1v10.2h8.4v-10.2z"/><path d="m271.8 58.2-8.5-12.3v12.3h-6.1v-26.6h6.1v11.5l8.1-11.5h6.9l-9 13 9.3 13.6z"/><path d="m297.4 54h-9.9l-1.3 4.2h-6.6l9-26.6h7.8l9 26.6h-6.6zm-1.8-5.7-3.1-9.8-3.1 9.8z"/></svg>