<svg fill="none" height="46" viewBox="0 0 148 46" width="148" xmlns="http://www.w3.org/2000/svg"><path d="m78.1318 11.5576c0 1.6576-1.3354 2.993-2.993 2.993-1.6577 0-2.993-1.3354-2.993-2.993 0-1.6577 1.2893-2.99304 2.993-2.99304 1.7037.04605 2.993 1.38139 2.993 2.99304zm-12.3404 6.032v.7367s-1.4274-1.8418-4.4664-1.8418c-5.019 0-8.933 3.8218-8.933 9.1171 0 5.2492 3.8679 9.1171 8.933 9.1171 3.0851 0 4.4664-1.8879 4.4664-1.8879v.7828c0 .3684.2763.6447.6447.6447h3.7297v-17.3134h-3.7297c-.3684 0-.6447.3224-.6447.6447zm0 11.0971c-.6906 1.013-2.072 1.8879-3.7297 1.8879-2.9469 0-5.2032-1.8419-5.2032-4.973s2.2563-4.973 5.2032-4.973c1.6116 0 3.0851.9209 3.7297 1.8879zm7.1372-11.7418h4.4204v17.3134h-4.4204zm66.0304-.4604c-3.039 0-4.467 1.8418-4.467 1.8418v-9.71569h-4.42v25.64769h3.729c.369 0 .645-.3224.645-.6447v-.7828s1.428 1.8879 4.467 1.8879c5.019 0 8.933-3.8679 8.933-9.1171s-3.914-9.1171-8.887-9.1171zm-.737 14.044c-1.704 0-3.039-.8748-3.73-1.8879v-6.1701c.691-.921 2.164-1.8879 3.73-1.8879 2.947 0 5.203 1.8418 5.203 4.973 0 3.1311-2.256 4.9729-5.203 4.9729zm-10.453-6.5385v10.3143h-4.42v-9.8078c0-2.8549-.921-4.006-3.407-4.006-1.336 0-2.717.6907-3.592 1.7037v12.0641h-4.42v-17.3134h3.499c.368 0 .645.3224.645.6447v.7367c1.289-1.3353 2.993-1.8418 4.696-1.8418 1.934 0 3.546.5525 4.835 1.6576 1.566 1.2893 2.164 2.947 2.164 5.8479zm-26.568-7.5055c-3.0392 0-4.4666 1.8418-4.4666 1.8418v-9.71569h-4.4204v25.64769h3.7297c.3684 0 .6446-.3224.6446-.6447v-.7828s1.4275 1.8879 4.4667 1.8879c5.019 0 8.933-3.8679 8.933-9.1171.046-5.2492-3.868-9.1171-8.887-9.1171zm-.737 14.044c-1.7036 0-3.0389-.8748-3.7296-1.8879v-6.1701c.6907-.921 2.1642-1.8879 3.7296-1.8879 2.947 0 5.203 1.8418 5.203 4.973 0 3.1311-2.256 4.9729-5.203 4.9729zm-11.9719-14.044c1.3354 0 2.0261.2302 2.0261.2302v4.0981s-3.6837-1.2432-5.986 1.3814v12.1101h-4.4204v-17.3594h3.7297c.3684 0 .6446.3224.6446.6447v.7367c.8289-.9669 2.6247-1.8418 4.006-1.8418zm-45.9079 16.2082c-.2302-.5526-.4604-1.1512-.6906-1.6577-.3684-.8288-.7368-1.6116-1.0591-2.3483l-.0461-.0461c-3.1771-6.9069-6.5845-13.9059-10.1761-20.81277l-.1382-.27628c-.3683-.69069-.7367-1.42743-1.1051-2.16416-.4604-.82883-.9209-1.70371-1.6576-2.53254-1.4735-1.84184-3.5916-2.85485-5.8479-2.85485-2.3023 0-4.3744 1.01301-5.8939 2.76276-.6907.82883-1.1972 1.70371-1.6576 2.53254-.3684.73673-.7368 1.47347-1.1051 2.16416l-.1382.27628c-3.54552 6.90686-6.99897 13.90586-10.17615 20.81276l-.04605.0921c-.32232.7368-.69069 1.5196-1.05905 2.3484-.23024.5065-.46047 1.059-.6907 1.6576-.598594 1.7037-.782778 3.3154-.552548 4.973.506508 3.4535 2.808808 6.3544 5.985988 7.6437 1.1972.5065 2.44044.7367 3.72971.7367.3684 0 .8288-.046 1.1972-.0921 1.5195-.1842 3.0851-.6907 4.6046-1.5656 1.8879-1.059 3.6837-2.5785 5.7097-4.7887 2.0261 2.2102 3.8679 3.7297 5.7097 4.7887 1.5196.8749 3.0851 1.3814 4.6046 1.5656.3684.0461.8289.0921 1.1972.0921 1.2893 0 2.5786-.2302 3.7298-.7367 3.2232-1.2893 5.4794-4.2363 5.986-7.6437.3683-1.6116.1841-3.2232-.4145-4.9269zm-20.7667 2.3944c-2.4865-3.1311-4.0981-6.0781-4.6507-8.5646-.2302-1.059-.2763-1.98-.1381-2.8088.0921-.7367.3684-1.3814.7367-1.9339.8749-1.2433 2.3484-2.026 4.0521-2.026s3.2232.7367 4.052 2.026c.3684.5525.6447 1.1972.7368 1.9339.1381.8288.0921 1.7958-.1382 2.8088-.5525 2.4405-2.1641 5.3874-4.6506 8.5646zm18.3723 2.1642c-.3223 2.3943-1.9339 4.4664-4.1901 5.3873-1.1051.4605-2.3023.5986-3.4995.4605-1.1512-.1381-2.3023-.5065-3.4995-1.1972-1.6577-.9209-3.3154-2.3483-5.2493-4.4665 3.039-3.7297 4.8809-7.1371 5.5716-10.1761.3223-1.4275.3683-2.7168.2302-3.914-.1842-1.1511-.5986-2.2102-1.2432-3.1311-1.4275-2.0721-3.8219-3.2693-6.4925-3.2693-2.6707 0-5.0651 1.2433-6.4925 3.2693-.6447.9209-1.0591 1.98-1.2433 3.1311-.1841 1.1972-.1381 2.5326.2303 3.914.6907 3.039 2.5785 6.4925 5.5715 10.2222-1.8878 2.1181-3.5916 3.5455-5.2492 4.4664-1.1972.6907-2.3484 1.0591-3.4995 1.1972-1.24325.1382-2.44045-.046-3.49951-.4604-2.25625-.9209-3.86786-2.993-4.19019-5.3874-.13814-1.1512-.04604-2.3023.41442-3.5916.13814-.4605.36837-.9209.5986-1.4735.32232-.7367.69069-1.5195 1.05905-2.3023l.04605-.0921c3.17718-6.8608 6.58458-13.8598 10.13018-20.67464l.1381-.27627c.3684-.69069.7367-1.42743 1.1051-2.11812.3684-.73674.7828-1.42743 1.2893-2.02603.967-1.1051 2.2562-1.7037 3.6837-1.7037 1.4274 0 2.7167.5986 3.6837 1.7037.5065.5986.9209 1.28929 1.2892 2.02603.3684.69069.7368 1.42743 1.1051 2.11812l.1382.27627c3.4995 6.86084 6.9069 13.85984 10.0841 20.72074v.046c.3683.7368.6907 1.5656 1.059 2.3023.2303.5526.4605 1.013.5986 1.4735.3684 1.1972.5065 2.3484.3223 3.5456z" fill="#ff5a5f"/></svg>