<svg fill="none" height="40" viewBox="0 0 149 40" width="149" xmlns="http://www.w3.org/2000/svg"><path d="m43.0693 18.4158c0 1.1387.1238 2.2773.3466 3.1931.2227 1.0396.5693 1.8317 1.1386 2.6238.5693.693 1.1386 1.3614 2.0544 1.7079.9159.3465 1.8317.6931 2.9703.6931 1.1387 0 2.0545-.2228 3.0941-.5693.9158-.3466 1.6089-.7921 2.1782-1.1387v-14.2821c-.5693-.2228-1.1386-.2228-1.8317-.3466-.693-.1237-1.6089-.1237-2.7475-.1237-2.1782 0-3.8861.693-5.2475 2.1782-1.2624 1.3861-1.9555 3.4406-1.9555 6.0643zm-3.4158-5.0247c.5693-1.4852 1.2624-2.7475 2.2772-3.76239 1.0149-1.01485 2.1782-1.83169 3.5396-2.40099 1.3614-.34654 2.9703-.69307 4.6782-.69307 1.8317 0 3.5396.12376 5.0248.44554 1.4851.34654 2.6238.56931 3.5396.79209v31.53462l-4.0099.6931v-11.4356c-.4455.3465-1.2624.693-2.2772 1.0396-1.0149.3465-2.1782.5693-3.4159.5693-1.6089 0-3.094-.3466-4.3317-.9159-1.2623-.5693-2.2772-1.3614-3.193-2.401-.9159-1.0396-1.4852-2.2772-1.9307-3.7623-.4456-1.4852-.6931-2.9703-.6931-4.6783-.0247-1.8069.198-3.5396.7921-5.0247zm44.6535 4.9257c0 1.8317-.2228 3.4159-.7921 4.901-.5693 1.4852-1.2624 2.7475-2.1782 3.7624-.9159 1.0148-2.0545 1.8317-3.3169 2.401-1.2623.5693-2.7475.7921-4.2326.7921-1.4852 0-2.9703-.2228-4.2327-.7921s-2.401-1.3614-3.3168-2.401c-.9159-1.0396-1.708-2.2772-2.1783-3.7624-.5693-1.4851-.792-3.094-.792-4.901 0-1.7079.2227-3.4158.792-4.8019.5693-1.4852 1.2624-2.7476 2.1783-3.76243.9158-1.0396 2.0544-1.83168 3.3168-2.40099s2.7475-.79207 4.2327-.79207c1.4851 0 2.9703.22276 4.2326.79207 1.2624.56931 2.401 1.36139 3.3169 2.40099.9158 1.03963 1.7079 2.27723 2.1782 3.76243.5693 1.4851.7921 3.094.7921 4.8019zm-4.2327 0c0-2.5247-.5693-4.5792-1.7079-6.0643-1.1386-1.4852-2.7476-2.27726-4.6783-2.27726-1.9306 0-3.5396.79206-4.6782 2.27726-1.1386 1.4851-1.6089 3.5396-1.6089 6.0643 0 2.5248.5693 4.5792 1.7079 6.0644 1.1387 1.4851 2.7476 2.2772 4.6783 2.2772 1.9306 0 3.5396-.7921 4.6782-2.2772 1.0396-1.5099 1.6089-3.4406 1.6089-6.0644zm8.6881-10.61878c.9158-.22277 2.1782-.44555 3.6634-.69307 1.4851-.22278 3.3168-.34654 5.2475-.34654 1.8317 0 3.3167.22278 4.4557.79209 1.138.44554 2.178 1.26237 2.846 2.17821.792.69309 1.263 1.83169 1.609 3.09409.347 1.2623.446 2.6237.446 4.2326v12.6733h-4.01v-11.7574c0-1.3614-.124-2.6238-.223-3.5396-.124-.9159-.445-1.8317-.916-2.401-.445-.5693-1.039-1.0396-1.708-1.3614-.6928-.3465-1.6086-.4455-2.7472-.4455h-1.3614s-1.0396.1237-1.4852.2227c-.4455.1238-.792.1238-1.1386.1238-.3465.1238-.5693.1238-.693.1238v19.0841h-4.0099v-21.98018zm27.4256-.69307h8.565v3.41585h-8.565v10.396c0 1.1386.124 2.0545.223 2.8466.223.693.445 1.3614.792 1.7079.347.4455.792.6931 1.262.9158.57.2228 1.139.2228 1.832.2228 1.262 0 2.178-.1238 2.97-.4455.693-.2228 1.263-.4456 1.486-.5694l.792 3.3169c-.446.2228-1.139.4455-2.179.7921-1.039.3465-2.178.4455-3.415.4455-1.486 0-2.847-.2228-3.763-.5693-1.039-.3465-1.832-1.0396-2.401-1.7079-.569-.7921-1.039-1.7079-1.262-2.8466-.223-1.1386-.347-2.5247-.347-4.0099v-20.222734l4.01-.693066zm32.327 11.31185c0 1.8317-.223 3.4159-.792 4.901-.57 1.4852-1.263 2.7475-2.178 3.7624-.916 1.0396-2.055 1.8317-3.317 2.401-1.263.5693-2.748.7921-4.233.7921s-2.97-.2228-4.233-.7921c-1.262-.5693-2.401-1.3614-3.316-2.401-.916-1.0396-1.708-2.2772-2.179-3.7624-.569-1.4851-.792-3.094-.792-4.901 0-1.7079.223-3.4158.792-4.8019.57-1.4852 1.263-2.7476 2.179-3.76243.915-1.0396 2.054-1.83168 3.316-2.40099 1.263-.56931 2.748-.79207 4.233-.79207s2.97.22276 4.233.79207c1.262.56931 2.401 1.36139 3.317 2.40099.915 1.03963 1.707 2.27723 2.178 3.76243.569 1.4851.792 3.094.792 4.8019zm-4.233 0c0-2.5247-.569-4.5792-1.708-6.0643-1.138-1.4852-2.747-2.27726-4.678-2.27726s-3.54.79206-4.678 2.27726c-1.139 1.4851-1.708 3.5396-1.708 6.0643 0 2.5248.569 4.5792 1.708 6.0644 1.138 1.4851 2.747 2.2772 4.678 2.2772s3.54-.7921 4.678-2.2772c1.139-1.5099 1.708-3.4406 1.708-6.0644z" fill="#262a3e"/><path d="m4.0099 13.5148c2.40099 2.401 5.59406 3.7624 8.9109 4.0099-.2228-3.3168-1.6089-6.5099-4.00991-8.91086-2.40099-2.40099-5.49505-3.76237-8.91089-4.0099.222772 3.31683 1.60891 6.50986 4.0099 8.91086zm19.4059 0c-2.4009 2.401-5.594 3.7624-8.9108 4.0099.2227-3.3168 1.6089-6.5099 4.0099-8.91086 2.2772-2.40099 5.495-3.76237 8.9108-4.0099-.2475 3.31683-1.6089 6.50986-4.0099 8.91086zm0 9.4802c-2.4009-2.401-5.594-3.7624-8.9108-4.0099.2227 3.3169 1.6089 6.5099 4.0099 8.9109 2.4009 2.401 5.594 3.7624 8.9108 4.0099-.2475-3.4158-1.6089-6.6336-4.0099-8.9109zm-19.4059 0c2.40099-2.401 5.59406-3.7624 9.0347-4.0099-.2228 3.3169-1.609 6.5099-4.00995 8.9109-2.52475 2.401-5.61881 3.7871-9.03465 4.0099.222772-3.4158 1.60891-6.6336 4.0099-8.9109z" fill="#6b5aed"/></svg>