<svg fill="none" height="40" viewBox="0 0 165 40" width="165" xmlns="http://www.w3.org/2000/svg"><path d="m160.566 39.6089c-.588.0103-1.173-.0967-1.719-.3146-.546-.218-1.044-.5425-1.463-.9548-.42-.4122-.753-.9039-.98-1.4463-.228-.5423-.345-1.1246-.345-1.7128 0-.5881.117-1.1704.345-1.7128.227-.5423.56-1.034.98-1.4462.419-.4123.917-.7368 1.463-.9548.546-.2179 1.131-.3249 1.719-.3146 1.161.0202 2.267.4957 3.081 1.324s1.27 1.9431 1.27 3.1044-.456 2.2762-1.27 3.1045-1.92 1.3038-3.081 1.324z" fill="#fcbd18"/><path d="m45.8091 29.9364-.0243-2.0441v.0081-27.764154h-5.5388v14.223254c-1.4717-.8624-3.1481-1.3136-4.8539-1.3065-2.522.0009-4.9497.9592-6.7924 2.681-1.8428 1.7219-2.9633 4.0791-3.1351 6.5953h-.0121v.1671c-.0081.1699-.0126.3403-.0135.5111 0 .1658 0 .3316.0135.4961v6.0471c-.0081.1645-.0135.329-.0135.4962s0 .3425.0135.511v.1025h.008c.1571 2.5282 1.2718 4.9014 3.1172 6.6366 1.8454 1.7351 4.2827 2.7018 6.8158 2.7031 5.497 0 10.39-3.4207 10.4156-9.9464 0-.0405-.0823-.0877-.0836-.1268zm-5.3865-.0418c0 1.2515-.4972 2.4518-1.3822 3.3368s-2.0853 1.3822-3.3368 1.3822c-.8897-.0014-1.7617-.2479-2.5205-.7124-.7587-.4645-1.3748-1.1291-1.7806-1.9208-.3322-.6471-.506-1.3638-.507-2.0912v-6.906c0-.4869.0774-.9707.2293-1.4333.3227-.9598.9389-1.7939 1.7615-2.3845s1.81-.9078 2.8227-.9067c1.2504.0036 2.4487.5019 3.3329 1.3861.8842.8843 1.3826 2.0825 1.3861 3.333z" fill="#0c1a2a"/><path d="m98.3915 14.0278h5.4325v25.1511h-5.4325z" fill="#0c1a2a"/><path d="m9.38347 12.9477h-3.46782v4.9739s2.14649-.0243 4.02062 0c.78893-.0448 1.57753.0924 2.30503.4007s1.3744.7797 1.8909 1.3777c.7996.9379 1.2237 2.1386 1.1905 3.3707-1.3773-1.0305-3.0141-1.6574-4.7274-1.8106-1.71331-.1533-3.43544.1733-4.97374.943s-2.83207 1.9523-3.73657 3.4154c-.904505 1.4632-1.384052 3.1491-1.384989 4.8692-.000937 1.7202.476772 3.4066 1.379679 4.8707.90291 1.4641 2.19539 2.6481 3.73285 3.4195s3.25924 1.0998 4.97267.9485c1.7135-.1514 3.351-.7765 4.7294-1.8055v1.2539l4.9888.0121v-2.2745c0-.1214.0296-12.1806.0296-13.4965.0552-1.4332-.1802-2.8627-.692-4.2025-.5119-1.3398-1.2896-2.5621-2.2864-3.5934-2.2212-1.8709-5.0711-2.8263-7.97113-2.6723zm.3209 22.0272c-.58806.0102-1.17228-.0967-1.71855-.3147-.54628-.2179-1.04368-.5425-1.46318-.9547-.4195-.4123-.75269-.9039-.98013-1.4463s-.34458-1.1247-.34458-1.7128c0-.5882.11714-1.1704.34458-1.7128s.56063-1.0341.98013-1.4463c.4195-.4123.9169-.7368 1.46318-.9548.54627-.2179 1.13049-.3249 1.71855-.3146 1.16113.0202 2.26783.4957 3.08183 1.324s1.2701 1.9432 1.2701 3.1045-.4561 2.2761-1.2701 3.1044-1.9207 1.3038-3.08183 1.3241z" fill="#0b2635"/><g fill="#0c1a2a"><path d="m101.038 6.86284c1.895 0 3.432-1.5363 3.432-3.43142s-1.537-3.43142-3.432-3.43142c-1.8949 0-3.4312 1.5363-3.4312 3.43142s1.5363 3.43142 3.4312 3.43142z"/><path d="m61.0813 12.7225c-1.785-.1128-3.5649.2877-5.1294 1.1543s-2.8482 2.163-3.6993 3.736c-.848 1.5075-1.3068 3.2026-1.3348 4.9321v7.3414c.0196 1.6956.4588 3.3599 1.2782 4.8445.9271 1.5263 2.2316 2.7881 3.788 3.6637s3.3121 1.3356 5.0979 1.3356 3.5416-.46 5.0979-1.3356c1.5564-.8756 2.861-2.1374 3.7881-3.6637.3675-.6869.6635-1.4098.8831-2.1573l-4.6516-2.1505c-.093.2305-.3977 1.0503-.6485 1.6274.1354-.3113.2432-.6339.3222-.9641-.3411.9399-.965 1.7511-1.7859 2.3221s-1.7984.8737-2.7983.8667c-.9161.0001-1.8145-.2513-2.5975-.7268-.7829-.4755-1.4203-1.1569-1.8425-1.9698-.3427-.6632-.5221-1.3987-.5231-2.1452v-2.0224l14.7599.0552s.1604-3.8116.1604-4.8997c-.0236-1.6936-.462-3.3555-1.2768-4.8404-.8371-1.6057-2.1229-2.9336-3.7009-3.8219-1.578-.8884-3.3801-1.2989-5.1871-1.1816zm4.2646 19.7539c-.42.7405-1.0478 1.3417-1.8057 1.7293-.7579.3877-1.6127.5449-2.4589.4523.8461.0918 1.7006-.0658 2.4583-.4534s1.3856-.9883 1.8063-1.7282zm.8211-9.7374-9.8425-.0364v-.3735c.0003-.4994.0804-.9955.2373-1.4696.3376-.9849.9749-1.8394 1.8227-2.4439.8477-.6045 1.8632-.9286 2.9044-.9269.6385-.0019 1.2711.1219 1.8617.3644.5906.2426 1.1277.5991 1.5806 1.0492.4528.4501.8126.985 1.0587 1.5741.2462.5891.3738 1.221.3758 1.8595z"/><path d="m116.997 12.9477h-3.468v4.9739s2.146-.0243 4.02 0c.789-.0447 1.578.0924 2.305.4008.728.3083 1.375.7796 1.891 1.3776.8.938 1.224 2.1387 1.191 3.3708-1.377-1.0305-3.014-1.6574-4.728-1.8107-1.713-.1532-3.435.1733-4.973.943-1.539.7698-2.832 1.9524-3.737 3.4155-.904 1.4631-1.384 3.1491-1.385 4.8692s.477 3.4066 1.38 4.8707 2.195 2.6481 3.733 3.4195c1.537.7714 3.259 1.0998 4.972.9484 1.714-.1513 3.351-.7765 4.73-1.8055v1.254l4.989.0121v-2.2746c0-.1213.029-12.1805.029-13.4965.054-1.4324-.183-2.8608-.696-4.1994s-1.291-2.5596-2.288-3.5897c-2.218-1.872-5.066-2.8298-7.965-2.6791zm.319 22.0272c-.588.0103-1.172-.0967-1.718-.3146-.547-.218-1.044-.5426-1.464-.9548-.419-.4122-.752-.9039-.98-1.4463-.227-.5424-.344-1.1246-.344-1.7128 0-.5881.117-1.1704.344-1.7128.228-.5424.561-1.034.98-1.4463.42-.4122.917-.7368 1.464-.9547.546-.218 1.13-.3249 1.718-.3147 1.161.0203 2.268.4958 3.082 1.3241s1.27 1.9431 1.27 3.1044-.456 2.2762-1.27 3.1045-1.921 1.3037-3.082 1.324z"/><path d="m85.6878 23.3701c-2.5456-1.0449-3.9856-1.711-3.9856-3.2359 0-1.5695 1.3685-2.1263 2.5416-2.1263.7749-.0409 1.5424.1688 2.1889.5982.6464.4293 1.1374 1.0554 1.4003 1.7856l.5393 1.1339 4.332-2.6116-.2925-.863c-.606-1.6034-1.6993-2.9766-3.1262-3.9263-1.427-.9498-3.1158-1.4283-4.8288-1.3684-4.8674 0-8.2678 3.0903-8.2678 7.514 0 5.1128 3.9101 6.7712 7.0624 8.1047 2.5348 1.0786 4.088 1.8134 4.088 3.4381-.002.3739-.0828.7431-.2372 1.0835-.1545.3405-.379.6445-.659.8923-.2799.2477-.609.4336-.9657.5455s-.733.1473-1.1043.1039c-.973.0235-1.93-.2513-2.7423-.7876-.8122-.5363-1.4409-1.3083-1.8015-2.2124l-.5878-1.1595-4.1879 2.9042.3789.8562c.6887 1.7419 1.9024 3.2264 3.4728 4.2474s3.4196 1.5279 5.2912 1.4505c5.0372 0 8.6938-3.4072 8.6938-8.1033.0054-5.3055-4.1608-7.0219-7.2026-8.2637z"/><path d="m142.986 23.3701c-2.545-1.0449-3.985-1.711-3.985-3.2359 0-1.5695 1.368-2.1263 2.541-2.1263.775-.0409 1.543.1688 2.189.5982.647.4293 1.138 1.0554 1.401 1.7856l.539 1.1339 4.332-2.6116-.293-.863c-.606-1.6034-1.699-2.9766-3.126-3.9263-1.427-.9498-3.115-1.4283-4.828-1.3684-4.868 0-8.268 3.0903-8.268 7.514 0 5.1128 3.91 6.7712 7.062 8.1047 2.535 1.0786 4.088 1.8134 4.088 3.4381-.002.3739-.083.7431-.237 1.0835-.155.3405-.379.6445-.659.8923-.28.2477-.609.4336-.966.5455-.356.1119-.733.1473-1.104.1039-.973.0235-1.93-.2513-2.742-.7876-.813-.5363-1.441-1.3083-1.802-2.2124l-.585-1.1636-4.186 2.9043.378.8561c.689 1.742 1.903 3.2264 3.473 4.2474 1.571 1.021 3.42 1.528 5.291 1.4505 5.038 0 8.694-3.4071 8.694-8.1032.002-5.3015-4.165-7.0179-7.207-8.2597z"/></g></svg>